<svg viewBox="0 0 37 37" fill="none" xmlns="http://www.w3.org/2000/svg">
    <path d="M18.519 37C8.34456 36.9914 0.0735389 28.8639 -0.00047465 18.6949C-0.075105 8.31062 8.18234 0.0135819 18.4998 1.66252e-05C28.6637 -0.0135487 36.9853 8.27609 36.9995 18.4279C37.0137 28.6863 28.7612 36.9797 18.519 36.9994V37ZM24.3895 29.61C24.5048 29.5601 24.7108 29.4978 24.8878 29.388C26.143 28.6111 27.268 27.6665 28.335 26.654C28.7285 26.281 29.0881 25.8684 29.4304 25.4473C29.6814 25.1384 29.6506 24.9232 29.3952 24.6192C29.3163 24.5255 29.2324 24.4305 29.1343 24.359C27.6047 23.2423 26.011 22.2311 24.2803 21.4517C23.7067 21.1933 23.5167 21.2433 23.0899 21.7088C22.6175 22.2231 22.1549 22.7466 21.696 23.2732C21.5535 23.4366 21.4092 23.4569 21.2056 23.3977C19.9055 23.0203 18.7317 22.3939 17.6641 21.5756C15.7089 20.0779 14.3304 18.1671 13.5983 15.8024C13.5311 15.5853 13.5619 15.4355 13.7334 15.2869C14.2453 14.8429 14.7554 14.3953 15.2543 13.9371C15.7601 13.4728 15.8298 13.2842 15.5128 12.6743C14.9453 11.5829 14.3397 10.5094 13.7149 9.44949C13.3818 8.88468 12.9982 8.34638 12.5954 7.82843C12.1815 7.2963 11.8806 7.26054 11.3785 7.6897C9.84395 9.00245 8.58202 10.5526 7.523 12.2661C7.4089 12.4511 7.40212 12.7409 7.43234 12.9709C7.61799 14.4125 8.1182 15.758 8.76026 17.051C10.0826 19.7147 11.9034 22.0079 14.0566 24.0396C16.1567 26.0207 18.4721 27.6905 21.1717 28.7757C22.1758 29.179 23.2077 29.4824 24.3882 29.61H24.3895ZM29.576 17.7064C29.6247 11.7821 24.5165 7.26116 19.2881 7.44121C19.2881 7.82597 19.3072 8.21504 19.2819 8.60042C19.2616 8.90626 19.3559 8.98642 19.6699 9.00862C23.3163 9.26821 25.8765 11.0977 27.3611 14.423C27.7824 15.367 27.9742 16.377 28.0075 17.4148C28.0106 17.5134 28.1142 17.6898 28.1783 17.6935C28.6366 17.7175 29.0967 17.7064 29.576 17.7064ZM19.2893 12.9006C22.1962 13.2299 23.7776 14.8226 24.0953 17.7083C24.5221 17.7083 24.952 17.6997 25.3819 17.712C25.6014 17.7182 25.6341 17.6177 25.6243 17.4296C25.5792 16.546 25.3849 15.6988 24.9742 14.9157C23.8263 12.7286 22.0155 11.5435 19.5453 11.3727C19.3929 11.3622 19.2838 11.3788 19.2868 11.5749C19.2936 12.0158 19.2893 12.4561 19.2893 12.9006Z" fill="white"/>
</svg>
