<svg viewBox="0 0 70 61" fill="none" xmlns="http://www.w3.org/2000/svg">
    <g clip-path="url(#clip0_14072_29876)">
        <path d="M26.0626 0.00944627C32.8777 0.00944627 39.6938 0.00512616 46.5089 0.0116063C49.0431 0.0137664 51.1146 1.43076 51.8474 3.70638C52.053 4.34576 52.1449 5.0467 52.1471 5.71956C52.1701 11.4059 52.1679 17.0923 52.1569 22.7786C52.1504 26.1721 49.8098 28.466 46.3798 28.4671C33.6236 28.4693 20.8674 28.4704 8.11012 28.4585C7.63544 28.4585 7.29966 28.587 6.96607 28.924C5.46219 30.4403 3.93753 31.9383 2.40521 33.4277C1.70303 34.1103 0.668358 34.0217 0.212272 33.2333C0.0602428 32.9708 0.00883736 32.6198 0.00883736 32.3099C8.74985e-05 24.5174 0.00118123 16.725 0.00118123 8.93372C0.00118123 7.76405 -0.00209997 6.59438 0.00227496 5.42471C0.0121186 2.48487 2.35818 0.0947685 5.34297 0.0191665C6.81842 -0.0186345 8.29496 0.00836624 9.7715 0.00836624C15.2019 0.00836624 20.6323 0.00836624 26.0637 0.00836624L26.0626 0.00944627ZM2.74098 29.2188C2.97723 29.0082 3.11285 28.897 3.23863 28.7738C3.98784 28.0373 4.76001 27.3223 5.47203 26.5522C6.01999 25.9604 6.63577 25.7444 7.4495 25.7454C20.3884 25.766 33.3272 25.7595 46.2661 25.7595C48.33 25.7595 49.4051 24.7065 49.4051 22.6728C49.4073 17.0404 49.4084 11.4081 49.4051 5.77464C49.404 3.77334 48.3267 2.72248 46.288 2.7214C32.8208 2.7214 19.3537 2.7214 5.88546 2.7214C3.82487 2.7214 2.74098 3.78631 2.74098 5.80812C2.74098 13.3845 2.74098 20.9598 2.74098 28.5362V29.2188Z" fill="#60A5FA"/>
        <path d="M43.9044 60.9988C37.1069 60.9988 30.3093 61.0031 23.5118 60.9966C20.9601 60.9944 18.8645 59.5537 18.135 57.2716C17.9512 56.6981 17.8528 56.0728 17.8506 55.4712C17.8298 49.6768 17.8244 43.8825 17.8451 38.0881C17.855 35.4777 19.4322 33.3986 21.8701 32.7517C22.4585 32.5951 23.0918 32.5497 23.7054 32.5487C36.4441 32.5379 49.1817 32.5379 61.9204 32.5487C62.3765 32.5487 62.6969 32.4245 63.0174 32.1015C64.495 30.61 65.9924 29.1358 67.5017 27.6756C67.738 27.4466 68.054 27.2306 68.3669 27.1615C69.244 26.9682 69.9943 27.6097 69.9943 28.5126C69.9976 37.6183 70.0085 46.724 69.9867 55.8297C69.9801 58.5082 67.6253 60.8238 64.8428 60.9847C64.5705 61.0009 64.296 60.9988 64.0236 60.9988C57.3169 60.9988 50.6112 60.9988 43.9044 60.9988ZM67.2578 31.8034C67.038 31.9946 66.9002 32.1004 66.7777 32.2214C66.0153 32.9699 65.2344 33.7021 64.5027 34.4787C63.9821 35.0316 63.4035 35.2628 62.6248 35.2617C49.6312 35.2433 36.6377 35.2476 23.6452 35.2487C21.6962 35.2487 20.5948 36.3288 20.5937 38.2566C20.5893 43.9246 20.5893 49.5937 20.5937 55.2617C20.5948 57.2241 21.6842 58.2847 23.6857 58.2847C37.1714 58.2847 50.656 58.2847 64.1418 58.2847C66.1608 58.2847 67.2567 57.2046 67.2578 55.2217C67.2578 47.628 67.2578 40.0343 67.2578 32.4396C67.2578 32.2668 67.2578 32.095 67.2578 31.8034Z" fill="#60A5FA"/>
        <path d="M26.0198 18.9924C20.2634 18.9924 14.5071 18.9924 8.74972 18.9902C8.47738 18.9902 8.19957 18.9892 7.93489 18.9352C7.29287 18.8034 6.85865 18.2472 6.86631 17.6121C6.87506 16.9512 7.34099 16.4155 8.01911 16.3118C8.25098 16.2761 8.4905 16.2751 8.72675 16.2751C20.2941 16.2729 31.8625 16.2729 43.4298 16.2751C43.666 16.2751 43.9056 16.2772 44.1374 16.3129C44.8013 16.4144 45.2531 16.9198 45.2782 17.5625C45.3045 18.231 44.8768 18.8012 44.2129 18.9362C43.9482 18.9902 43.6704 18.9902 43.3981 18.9902C37.6046 18.9935 31.8122 18.9924 26.0187 18.9924H26.0198Z" fill="#60A5FA"/>
        <path d="M17.1728 12.2076C14.2941 12.2076 11.4143 12.2044 8.53559 12.2098C7.85201 12.2098 7.26577 12.0586 6.97702 11.3652C6.64562 10.566 7.1028 9.71167 7.96029 9.53994C8.15497 9.50106 8.3584 9.48918 8.55746 9.48918C14.2974 9.48702 20.0373 9.48918 25.7772 9.48486C26.4203 9.48486 26.9792 9.63499 27.2953 10.2398C27.7361 11.0833 27.2089 12.0607 26.2453 12.172C25.8133 12.2217 25.3725 12.2076 24.9361 12.2087C22.3483 12.2119 19.7606 12.2098 17.1739 12.2098L17.1728 12.2076Z" fill="#60A5FA"/>
        <path d="M43.8982 44.7347C38.1419 44.7347 32.3855 44.7347 26.6281 44.7336C26.3733 44.7336 26.1163 44.7336 25.8658 44.6958C25.1789 44.5932 24.725 44.0683 24.7174 43.3976C24.7097 42.7334 25.1582 42.1826 25.8286 42.0594C26.0419 42.0206 26.2639 42.0184 26.4816 42.0184C38.1036 42.0162 49.7267 42.0162 61.3487 42.0173C61.4581 42.0173 61.5674 42.0152 61.6768 42.0206C62.5518 42.0648 63.1369 42.6156 63.1304 43.3889C63.1238 44.1644 62.5474 44.6936 61.6593 44.7325C61.4777 44.7411 61.2951 44.7357 61.1124 44.7357C55.3736 44.7357 49.6359 44.7357 43.8971 44.7357L43.8982 44.7347Z" fill="#60A5FA"/>
        <path d="M52.8828 48.7998C55.7069 48.7998 58.532 48.7955 61.356 48.8052C61.6786 48.8052 62.021 48.8289 62.3207 48.9337C62.8544 49.1195 63.1814 49.721 63.1235 50.2794C63.0633 50.8626 62.6586 51.3368 62.0844 51.4567C61.8372 51.5085 61.5791 51.5204 61.3254 51.5204C55.6762 51.5236 50.0282 51.5236 44.3791 51.5204C44.1253 51.5204 43.8661 51.5117 43.6189 51.461C42.9616 51.326 42.5099 50.7309 42.5482 50.0872C42.5864 49.4467 43.0546 48.9305 43.701 48.8408C43.9525 48.8063 44.2095 48.8019 44.4644 48.8019C47.2709 48.7998 50.0763 48.8009 52.8828 48.8009V48.7998Z" fill="#60A5FA"/>
    </g>
    <defs>
        <clipPath id="clip0_14072_29876">
            <rect width="70" height="61" fill="white"/>
        </clipPath>
    </defs>
</svg>
