<svg viewBox="0 0 38 38" fill="none" xmlns="http://www.w3.org/2000/svg">
    <path d="M18.9771 38C8.46853 37.9982 -0.00474793 29.4711 1.99605e-06 18.9026C0.00475192 8.46233 8.55402 -0.0148257 19.0799 1.94678e-05C29.5184 0.0148646 38.0802 8.57575 37.9994 19.1538C37.9198 29.54 29.4418 38.0219 18.9771 38Z" fill="white"/>
    <g clip-path="url(#clip0_13638_11881)">
        <path d="M31.0004 14.9795C30.9942 16.932 30.5441 18.6955 29.8169 20.4016C28.8381 22.6988 27.4358 24.7546 25.8644 26.7125C24.2323 28.7456 22.4173 30.6256 20.572 32.4802C20.1745 32.8798 19.7017 33.1403 19.1128 32.9197C18.8579 32.8241 18.6121 32.6524 18.4211 32.4612C16.6967 30.737 15.0035 28.9852 13.4604 27.1071C11.8762 25.179 10.4464 23.1568 9.40932 20.9026C8.45375 18.8251 7.84023 16.6656 8.03732 14.3792C8.41395 10.0036 10.6477 6.79447 14.8542 4.96883C20.3972 2.56334 26.6385 4.866 29.3934 9.37799C30.4669 11.1366 30.9876 13.0433 31.0004 14.9795Z" fill="#1E40AF"/>
        <path d="M19.4925 23.4789C14.6478 23.4752 10.6967 19.6948 10.6934 15.0605C10.69 10.4199 14.6582 6.63271 19.5124 6.64358C24.3693 6.65445 28.311 10.4235 28.3115 15.0574C28.3115 19.6998 24.3504 23.4825 19.4925 23.4789Z" fill="white"/>
        <path d="M21.0219 20.67C20.3941 20.6641 19.8185 20.4974 19.2846 20.2305C17.0281 19.103 15.296 17.4699 14.1784 15.2714C13.835 14.596 13.6497 13.8775 13.8724 13.1223C13.9316 12.9221 14.0032 12.7015 14.141 12.5502C14.5238 12.1307 14.9213 11.7175 15.3567 11.3497C15.7163 11.0457 16.3127 11.0783 16.6671 11.3995C17.2858 11.9599 17.8918 12.5343 18.4764 13.1269C18.8516 13.5074 18.8232 14.0977 18.4565 14.4922C18.3049 14.6558 18.1429 14.8116 17.9751 14.9602C17.8719 15.0522 17.8723 15.1283 17.9524 15.2311C18.3902 15.7924 18.9127 16.2712 19.5016 16.6835C19.5504 16.7174 19.6835 16.7011 19.7361 16.6599C19.8943 16.5362 20.0289 16.3858 20.1781 16.2513C20.6481 15.8282 21.2877 15.8182 21.7524 16.2468C22.3143 16.7659 22.8662 17.2955 23.4101 17.8318C23.8502 18.2658 23.8436 18.8842 23.4054 19.3186C23.1372 19.585 22.8591 19.8423 22.5824 20.1005C22.1447 20.5091 21.6037 20.6586 21.0219 20.67Z" fill="#1E40AF"/>
        <path d="M24.5779 15.0535C24.2492 15.0558 24.0052 14.875 23.9369 14.5321C23.7612 13.6528 23.3424 12.8985 22.6938 12.2598C22.0234 11.5993 21.2313 11.1431 20.2734 10.9719C19.8257 10.8922 19.5978 10.5864 19.684 10.1972C19.7598 9.85521 20.1132 9.65588 20.5335 9.75147C22.9781 10.3078 24.5064 11.7692 25.1645 14.075C25.209 14.2304 25.2194 14.4057 25.1957 14.5652C25.1521 14.8587 24.8883 15.0513 24.5784 15.0531L24.5779 15.0535Z" fill="#1E40AF"/>
        <path d="M22.5736 15.4609C22.2808 15.4654 22.0316 15.2991 21.935 15.011C21.5706 13.9229 20.8136 13.2212 19.6766 12.8819C19.326 12.7772 19.1412 12.4547 19.2293 12.1367C19.3222 11.8014 19.6425 11.6057 20.0148 11.6932C21.1068 11.9487 21.9596 12.5512 22.5726 13.4368C22.8337 13.8142 23.0213 14.2486 23.1772 14.6785C23.3212 15.0758 22.9971 15.4545 22.5736 15.4613V15.4609Z" fill="#1E40AF"/>
    </g>
    <defs>
        <clipPath id="clip0_13638_11881">
            <rect width="23" height="29" fill="white" transform="translate(8 4)"/>
        </clipPath>
    </defs>
</svg>
