<svg viewBox="0 0 38 38" fill="none" xmlns="http://www.w3.org/2000/svg">
    <path d="M18.9771 38C8.46853 37.9982 -0.00474793 29.4711 1.99605e-06 18.9026C0.00475192 8.46233 8.55402 -0.0148257 19.0799 1.94678e-05C29.5184 0.0148646 38.0802 8.57575 37.9994 19.1538C37.9198 29.54 29.4418 38.0219 18.9771 38Z" fill="white"/>
    <path d="M25 10C26.0609 10 27.0783 10.4214 27.8284 11.1716C28.5786 11.9217 29 12.9391 29 14V22C29 23.0609 28.5786 24.0783 27.8284 24.8284C27.0783 25.5786 26.0609 26 25 26H20.276L15.514 28.857C15.3706 28.9431 15.2079 28.9918 15.0408 28.9987C14.8737 29.0056 14.7075 28.9705 14.5575 28.8966C14.4074 28.8227 14.2783 28.7123 14.182 28.5756C14.0857 28.4389 14.0251 28.2802 14.006 28.114L14 28V26H13C11.9738 26 10.9868 25.6056 10.2432 24.8983C9.4996 24.191 9.05631 23.225 9.005 22.2L9 22V14C9 12.9391 9.42143 11.9217 10.1716 11.1716C10.9217 10.4214 11.9391 10 13 10H25ZM21 19H15C14.7348 19 14.4804 19.1054 14.2929 19.2929C14.1054 19.4804 14 19.7348 14 20C14 20.2652 14.1054 20.5196 14.2929 20.7071C14.4804 20.8946 14.7348 21 15 21H21C21.2652 21 21.5196 20.8946 21.7071 20.7071C21.8946 20.5196 22 20.2652 22 20C22 19.7348 21.8946 19.4804 21.7071 19.2929C21.5196 19.1054 21.2652 19 21 19ZM23 15H15C14.7348 15 14.4804 15.1054 14.2929 15.2929C14.1054 15.4804 14 15.7348 14 16C14 16.2652 14.1054 16.5196 14.2929 16.7071C14.4804 16.8946 14.7348 17 15 17H23C23.2652 17 23.5196 16.8946 23.7071 16.7071C23.8946 16.5196 24 16.2652 24 16C24 15.7348 23.8946 15.4804 23.7071 15.2929C23.5196 15.1054 23.2652 15 23 15Z" fill="#1E40AF"/>
</svg>
