<svg viewBox="0 0 38 38" fill="none" xmlns="http://www.w3.org/2000/svg">
    <path d="M18.9771 37.9994C8.46853 37.9976 -0.00474793 29.4707 1.99605e-06 18.9023C0.00475192 8.4622 8.55403 -0.0148254 19.0799 1.94675e-05C29.5184 0.0148644 38.0802 8.57561 37.9994 19.1535C37.9198 29.5396 29.4418 38.0219 18.9771 38V37.9994ZM27.0942 17.5876C26.9986 16.077 26.5592 14.7303 25.7577 13.5041C25.5483 13.1839 25.5669 12.8765 25.8135 12.582C26.0106 12.3474 26.0053 12.1853 25.7814 11.9626C25.627 11.8088 25.462 11.6663 25.3052 11.5161C23.6707 9.94728 21.7285 9.06965 19.4616 8.95208C16.5535 8.80185 14.169 9.93303 12.1705 11.9822C12.0072 12.1497 12.0066 12.3343 12.1574 12.5143C12.2275 12.5974 12.2958 12.6847 12.3789 12.7536C12.557 12.9032 12.5582 13.0332 12.4145 13.225C11.8879 13.9269 11.4824 14.6988 11.2579 15.5474C11.0845 16.2023 10.9783 16.8745 10.8322 17.5859C10.4202 17.5859 9.95822 17.5752 9.49629 17.5882C8.3379 17.6203 7.43542 18.5318 7.42651 19.6861C7.4176 20.844 7.41523 22.0019 7.42829 23.1592C7.44017 24.1758 8.21619 25.0635 9.22258 25.1668C9.84957 25.2316 10.4867 25.2072 11.119 25.2138C11.6397 25.2191 11.7359 25.1146 11.7282 24.5855C11.6955 22.4087 11.6694 20.2318 11.6272 18.0556C11.6029 16.7813 11.8778 15.5818 12.481 14.4619C12.652 14.1442 12.8616 13.8473 13.0641 13.5237C13.1615 13.614 13.2214 13.665 13.2755 13.7208C13.5878 14.0421 13.7012 14.0445 14.0396 13.7375C14.3323 13.4715 14.6126 13.1888 14.9225 12.9448C16.6182 11.6117 18.5223 11.2008 20.6182 11.7043C21.9316 12.0196 22.9801 12.7767 23.9165 13.7179C24.2721 14.0748 24.398 14.0658 24.7465 13.7191C24.794 13.6716 24.8486 13.6312 24.9223 13.5682C25.0315 13.7262 25.1378 13.8669 25.231 14.0166C26.0017 15.2463 26.3811 16.5865 26.3781 18.0389C26.3734 20.483 26.3781 22.9271 26.3746 25.3711C26.3746 25.6169 26.3668 25.8699 26.3122 26.108C26.0035 27.4595 24.9098 28.3312 23.508 28.3401C22.0337 28.3496 20.5595 28.3425 19.0852 28.3431C18.9866 28.3431 18.8602 28.3122 18.7949 28.3609C18.6731 28.4505 18.5194 28.5806 18.5063 28.7071C18.4956 28.8104 18.6547 28.9535 18.7687 29.039C18.8346 29.0889 18.9593 29.0675 19.0579 29.0675C20.5126 29.0687 21.9666 29.0734 23.4213 29.0639C23.7259 29.0621 24.0382 29.039 24.3327 28.9677C25.9868 28.5681 27.0496 27.2511 27.0841 25.5504C27.09 25.2672 27.1797 25.1948 27.4421 25.2114C27.7574 25.231 28.075 25.2209 28.3915 25.2149C29.6995 25.1888 30.5765 24.2946 30.5771 22.9888C30.5771 21.92 30.5777 20.8517 30.5771 19.7829C30.5759 18.5033 29.6704 17.593 28.3951 17.5882C27.9717 17.5865 27.5478 17.5882 27.096 17.5882L27.0942 17.5876ZM19.0098 14.839C16.1343 14.8372 13.8258 17.1381 13.8152 20.0163C13.8045 22.8665 16.1319 25.1971 19.0045 25.2132C21.8265 25.2286 24.186 22.8712 24.1854 20.0365C24.1848 17.1571 21.8782 14.8407 19.0104 14.839H19.0098Z" fill="white"/>
</svg>
