<svg viewBox="0 0 60 60" fill="none" xmlns="http://www.w3.org/2000/svg">
    <g clip-path="url(#clip0_14072_29845)">
        <path d="M29.9667 59.9814C20.738 59.9814 11.5092 59.9655 2.28049 59.9992C0.949115 60.0039 -0.00280458 58.9997 6.20819e-06 57.7324C0.0281141 44.2388 0.0178079 30.7463 0.0178079 17.2528C0.0178079 15.8008 0.819819 15.0046 2.28143 15.0018C2.82766 15.0009 3.37482 14.9924 3.92105 15.0046C4.56004 15.0187 4.99946 15.4336 5.0004 16.0004C5.00133 16.5718 4.57035 16.9745 3.92199 16.9886C3.40668 16.9998 2.89137 17.0045 2.37606 16.9877C2.08561 16.9783 1.97505 17.0916 2.0041 17.3708C2.01347 17.4635 2.00503 17.5581 2.00503 17.6518C2.00503 30.8793 2.00503 44.1068 2.00503 57.3352C2.00503 57.7729 2.22303 57.9921 2.65901 57.9928C20.8823 57.9928 39.1055 57.9928 57.3288 57.9928C57.771 57.9928 57.9922 57.777 57.9922 57.3455C57.9922 44.1021 57.9922 30.8587 57.9922 17.6153C57.9922 17.2006 57.7782 16.993 57.3504 16.9923C50.3862 16.9923 43.421 16.9923 36.4568 16.9923C36.2695 16.9923 36.0811 16.9998 35.8956 16.9783C35.4009 16.9221 35.0627 16.5689 35.0271 16.0893C34.9887 15.5826 35.2782 15.161 35.7691 15.0449C35.9481 15.0027 36.1411 15.0037 36.3266 15.0037C43.4473 15.0018 50.5679 15.0215 57.6886 14.9859C59.1015 14.9784 60.0009 16.0078 59.9981 17.2724C59.97 30.75 59.9691 44.2276 59.9981 57.7052C60.0009 59.0166 59.0359 60.0058 57.698 60.0002C48.4533 59.9646 39.2095 59.9814 29.9649 59.9814H29.9667Z" fill="#60A5FA"/>
        <path d="M7.02129 25.994C7.02129 19.1072 7.02692 12.2214 7.01661 5.33457C7.01474 4.02222 7.33048 2.83726 8.18777 1.81998C9.17248 0.653755 10.4401 0.0298966 11.9486 0.0214661C16.6482 -0.00569895 21.3479 -0.0075724 26.0475 0.0186559C28.6409 0.0327067 30.8043 2.07289 30.9495 4.61985C30.9748 5.05542 31.0029 5.49194 31.0029 5.92845C31.0057 19.451 31.0039 32.9745 31.0076 46.497C31.0076 47.7607 30.7724 48.9466 29.9873 49.976C28.9351 51.3568 27.5054 51.9862 25.8067 51.9928C21.2785 52.0106 16.7504 52.0115 12.2231 51.9928C9.75244 51.9834 7.92075 50.6374 7.22555 48.3162C7.05877 47.7597 7.03066 47.1462 7.02973 46.5589C7.01661 39.7039 7.02129 32.8499 7.02129 25.994ZM28.9932 26.0071C28.9932 19.1531 28.9951 12.2982 28.9885 5.44416C28.9885 5.04137 28.9801 4.62266 28.8752 4.23954C28.4826 2.80635 27.3433 2.0017 25.7486 1.99983C21.2682 1.99514 16.7869 2.01482 12.3065 1.9914C10.2612 1.98016 8.99821 3.4658 9.00196 5.30553C9.03101 19.1082 9.01695 32.9099 9.01883 46.7125C9.01883 48.7283 10.2331 49.9779 12.2381 49.9826C16.7504 49.9948 21.2617 49.9966 25.7739 49.9723C26.2892 49.9695 26.8486 49.8683 27.3096 49.6482C28.5397 49.0609 29.0007 47.9967 28.9979 46.6628C28.9867 39.777 28.9923 32.8921 28.9923 26.0062L28.9932 26.0071Z" fill="#60A5FA"/>
        <path d="M53.9475 22.0101C53.3095 22.0101 52.7014 22.0326 52.0961 22.0044C51.2623 21.966 50.7648 21.2879 51.0983 20.6172C51.2154 20.382 51.5077 20.0907 51.7354 20.0776C52.6658 20.0252 53.614 19.9783 54.5312 20.1066C55.4204 20.2303 55.975 21.093 55.9844 22.0906C55.9975 23.4339 55.9881 24.7762 55.9881 26.1195C55.9881 27.3531 55.9956 28.5868 55.9863 29.8205C55.976 31.1778 55.1768 31.9824 53.8276 31.9834C48.2688 31.9881 42.7109 31.9871 37.1521 31.9834C35.8357 31.9824 35.0234 31.2293 35.0094 29.9123C34.9803 27.3044 34.9822 24.6966 35.0094 22.0888C35.0225 20.7895 35.7983 20.0195 37.1015 20.0102C40.333 19.9877 43.5654 19.9952 46.7978 20.0064C47.6832 20.0092 48.1817 20.6406 47.9024 21.3581C47.7029 21.8705 47.2635 22.0082 46.766 22.0101C45.6107 22.0148 44.4555 22.0119 43.2993 22.0119C41.3945 22.0119 39.4898 22.0119 37.585 22.0119C37.4163 22.0119 37.2477 22.0119 37.0444 22.0119V29.9666H53.9475V22.0101Z" fill="#60A5FA"/>
        <path d="M45.4843 37.0042C45.0327 37.0042 44.5811 37.0183 44.1304 37.0005C43.4408 36.9733 43.0136 36.5799 43.0108 35.9982C43.007 35.4062 43.4146 35.0175 44.121 35.0015C45.0233 34.98 45.9265 34.9819 46.8288 34.9997C47.5586 35.0137 47.9896 35.4137 47.9765 36.0123C47.9634 36.6015 47.5127 36.9846 46.7922 37.0033C46.3565 37.0145 45.9209 37.0052 45.4852 37.0052L45.4843 37.0042Z" fill="#60A5FA"/>
        <path d="M45.5216 50.005C46.0192 50.005 46.5195 49.9778 47.0142 50.0115C47.5988 50.0518 47.9577 50.4331 47.9745 50.9595C47.9914 51.4569 47.6588 51.9196 47.1126 51.9449C46.0276 51.9955 44.937 51.9955 43.853 51.9402C43.3058 51.9121 42.9891 51.4531 43.0097 50.9436C43.0303 50.4312 43.3714 50.0565 43.9354 50.0162C44.462 49.9787 44.9923 50.0078 45.5216 50.0078C45.5216 50.0059 45.5216 50.005 45.5216 50.0031V50.005Z" fill="#60A5FA"/>
        <path d="M53.4818 35.014C53.9952 35.014 54.5105 34.9859 55.0221 35.0215C55.603 35.0608 55.9646 35.4542 55.9731 35.9788C55.9806 36.4743 55.6423 36.9315 55.097 36.9577C54.0271 37.0083 52.9515 37.0083 51.8815 36.9586C51.3362 36.9333 50.9905 36.4762 50.9952 35.9863C50.9998 35.4711 51.3737 35.087 51.9424 35.0149C51.9883 35.0093 52.0352 34.9999 52.082 34.9999C52.5495 34.999 53.0161 34.9999 53.4836 34.9999C53.4836 35.0046 53.4836 35.0102 53.4836 35.0149L53.4818 35.014Z" fill="#60A5FA"/>
        <path d="M53.4884 50.0081C54.0018 50.0081 54.5171 49.98 55.0287 50.0156C55.5965 50.0549 55.9385 50.4165 55.9713 50.9326C56.0031 51.4422 55.6555 51.9256 55.0896 51.9527C54.0196 52.0042 52.944 52.0014 51.8741 51.9499C51.3316 51.9237 50.9859 51.4609 50.9943 50.9729C51.0037 50.4568 51.3775 50.0783 51.9481 50.0071C51.994 50.0015 52.0408 49.9931 52.0877 49.9931C52.5552 49.9922 53.0218 49.9931 53.4893 49.9931C53.4893 49.9987 53.4893 50.0043 53.4893 50.01L53.4884 50.0081Z" fill="#60A5FA"/>
        <path d="M37.5306 35.0045C38.0131 35.0045 38.4966 34.9801 38.9772 35.0101C39.604 35.0503 39.9573 35.4147 39.9676 35.9702C39.9779 36.521 39.6331 36.951 39.0231 36.9772C37.9991 37.0212 36.9694 37.0222 35.9453 36.9725C35.3391 36.9435 35.0037 36.5023 35.0243 35.9468C35.044 35.411 35.3879 35.0532 35.9912 35.0148C36.5019 34.982 37.0172 35.0082 37.5306 35.0082C37.5306 35.0073 37.5306 35.0054 37.5306 35.0045Z" fill="#60A5FA"/>
        <path d="M37.5268 50.0043C38.0243 50.0043 38.5237 49.9762 39.0193 50.0118C39.618 50.0539 39.9562 50.4202 39.9675 50.9607C39.9787 51.4974 39.6564 51.9321 39.0718 51.9592C38.0177 52.0089 36.9571 52.0079 35.9031 51.9545C35.3222 51.9255 35.0055 51.4843 35.0242 50.9438C35.043 50.4071 35.3868 50.0708 35.9874 50.0024C36.0333 49.9968 36.0801 49.9902 36.127 49.9902C36.5936 49.9902 37.0602 49.9902 37.5277 49.9902C37.5277 49.9949 37.5277 50.0005 37.5277 50.0052L37.5268 50.0043Z" fill="#60A5FA"/>
        <path d="M37.4827 46.976C37.0002 46.976 36.5177 46.9891 36.0352 46.9732C35.4121 46.9526 35.0195 46.5601 35.0195 45.9868C35.0195 45.4229 35.4233 45.0061 36.037 44.9958C37.0171 44.978 37.998 44.9761 38.9781 44.9976C39.5842 45.0107 39.9806 45.4444 39.9684 46.013C39.9571 46.5685 39.5749 46.9516 38.9762 46.9732C38.4787 46.991 37.9802 46.9769 37.4827 46.9769V46.976Z" fill="#60A5FA"/>
        <path d="M37.4657 41.9875C36.9972 41.9875 36.5278 42.0053 36.0612 41.9828C35.4166 41.9528 35.0316 41.5753 35.0241 41.0067C35.0156 40.4363 35.3895 40.0204 36.0275 40.0007C37.0104 39.9689 37.9951 39.9689 38.977 40.0026C39.6122 40.0241 39.9814 40.4457 39.9673 41.0199C39.9532 41.5716 39.5832 41.9463 38.9648 41.98C38.4663 42.0062 37.966 41.9856 37.4666 41.9856C37.4666 41.9856 37.4666 41.9875 37.4666 41.9884L37.4657 41.9875Z" fill="#60A5FA"/>
        <path d="M53.4837 41.9898C53.0171 41.9898 52.5495 42.0039 52.0829 41.9861C51.4252 41.9608 51.0017 41.5655 50.9942 40.9997C50.9867 40.4405 51.4112 40.0124 52.0642 39.9955C53.0133 39.9702 53.9634 39.9702 54.9115 39.9955C55.5739 40.0143 55.9815 40.433 55.9721 41.0034C55.9628 41.5748 55.5468 41.9608 54.8834 41.9851C54.4168 42.002 53.9493 41.9889 53.4827 41.9889L53.4837 41.9898Z" fill="#60A5FA"/>
        <path d="M53.476 46.9757C52.9935 46.9757 52.5101 46.9879 52.0285 46.9729C51.4232 46.9542 50.995 46.5364 50.9932 45.9893C50.9913 45.447 51.4223 45.0058 52.0238 44.9945C53.0048 44.9767 53.9857 44.9758 54.9657 44.9955C55.5626 45.0077 55.9879 45.462 55.9739 46.0071C55.9598 46.5495 55.5579 46.9504 54.9714 46.971C54.4739 46.9888 53.9754 46.9748 53.477 46.9748L53.476 46.9757Z" fill="#60A5FA"/>
        <path d="M45.4637 41.9887C44.9971 41.9887 44.5296 42.0056 44.064 41.985C43.409 41.9559 43.0033 41.5531 43.0108 40.9761C43.0174 40.4225 43.4118 40.016 44.0471 39.9982C45.0112 39.971 45.9762 39.971 46.9403 40C47.5728 40.0188 47.97 40.4328 47.9747 40.9827C47.9794 41.5541 47.5671 41.9569 46.9103 41.985C46.4288 42.0056 45.9462 41.9887 45.4637 41.9897V41.9887Z" fill="#60A5FA"/>
        <path d="M45.4549 46.975C44.9724 46.975 44.4899 46.989 44.0073 46.9712C43.4208 46.9497 43.0207 46.5497 43.0095 46.0092C42.9983 45.4537 43.4096 45.0088 44.0083 44.9957C44.9883 44.9741 45.9693 44.976 46.9493 44.9938C47.5555 45.005 47.9762 45.435 47.9762 45.9867C47.9762 46.5413 47.5592 46.9422 46.9484 46.975C46.9174 46.9768 46.8865 46.9768 46.8547 46.9768C46.3881 46.9768 45.9205 46.9768 45.454 46.9768V46.974L45.4549 46.975Z" fill="#60A5FA"/>
    </g>
    <defs>
        <clipPath id="clip0_14072_29845">
            <rect width="60" height="60" fill="white"/>
        </clipPath>
    </defs>
</svg>
