<svg viewBox="0 0 65 60" fill="none" xmlns="http://www.w3.org/2000/svg">
    <g clip-path="url(#clip0_14072_29861)">
        <path d="M19.7976 31.0419C19.7976 30.1726 19.7976 29.3489 19.7976 28.5252C19.7986 27.496 19.7844 26.4668 19.8068 25.4386C19.8484 23.5361 21.2867 21.921 23.1797 21.6417C23.5289 21.5901 23.8872 21.585 24.2424 21.584C30.366 21.581 36.4897 21.582 42.6133 21.582H43.267C43.2802 21.3594 43.3015 21.1823 43.3015 21.0052C43.3035 15.4393 43.3045 9.87445 43.3015 4.30859C43.3015 2.71574 42.4925 1.91223 40.902 1.90819C40.0727 1.90616 39.2444 1.91426 38.4152 1.90515C37.7392 1.89705 37.3301 1.53477 37.325 0.965026C37.32 0.397308 37.729 0.029961 38.402 0.0238891C39.2982 0.0147814 40.1955 0.0127574 41.0918 0.0238891C43.5238 0.0512125 45.2006 1.71591 45.2057 4.13959C45.2158 9.70545 45.2087 15.2703 45.2097 20.8362C45.2097 21.0537 45.2097 21.2713 45.2097 21.5395C45.4747 21.5557 45.704 21.582 45.9345 21.582C50.8736 21.584 55.8137 21.58 60.7528 21.586C62.9107 21.5891 64.5368 22.8156 64.892 24.8648C65.0656 25.8647 64.9844 26.9141 64.957 27.9402C64.9448 28.3895 64.414 28.7275 63.9572 28.6861C63.4639 28.6415 63.0965 28.2661 63.0802 27.7358C63.0599 27.0618 63.0772 26.3868 63.0721 25.7119C63.0619 24.3953 62.2185 23.53 60.8979 23.4794C60.8137 23.4764 60.7284 23.4784 60.6442 23.4784C48.4649 23.4784 36.2846 23.4784 24.1054 23.4784C22.9087 23.4784 22.1099 23.9794 21.8145 24.9377C21.7323 25.2059 21.7089 25.5014 21.7089 25.7837C21.7038 33.9807 21.7028 42.1767 21.7069 50.3737C21.7069 51.8188 22.5666 52.6618 24.011 52.6648C25.3305 52.6678 26.65 52.6628 27.9696 52.6668C28.6943 52.6699 29.0912 53.0129 29.0881 53.6171C29.0851 54.2162 28.6882 54.5582 27.9615 54.5623C26.5912 54.5683 25.2209 54.5795 23.8506 54.5592C21.4947 54.5248 19.8068 52.8287 19.8017 50.4708C19.7905 44.8888 19.7976 39.3057 19.7976 33.7237C19.7976 33.5081 19.7976 33.2916 19.7976 33.0305C19.551 33.0163 19.3531 32.9961 19.1551 32.995C17.9706 32.992 16.7861 32.9748 15.6025 33.0052C15.2442 33.0143 14.8626 33.0993 14.5368 33.2491C10.9446 34.8955 7.36462 36.5693 3.77347 38.2178C2.63868 38.739 1.41456 38.2421 1.13137 37.1016C1.02276 36.6655 1.10295 36.1231 1.26738 35.694C1.59726 34.8308 2.03575 34.008 2.44785 33.1772C2.593 32.8858 2.60112 32.7309 2.25906 32.5528C0.78423 31.7787 0.0249935 30.5481 0.0249935 28.8723C0.0239784 20.6763 0.0605192 12.4793 -0.0003821 4.28329C-0.0156074 2.1541 1.60741 -0.0165899 4.30737 -0.000398256C13.0863 0.0522244 21.8662 0.0188293 30.6462 0.0188293C31.6277 0.0188293 32.6082 0.0157933 33.5898 0.0198412C34.3541 0.0228772 34.7743 0.361889 34.7712 0.959966C34.7682 1.56007 34.3429 1.90515 33.5816 1.90515C23.9897 1.90717 14.3987 1.90616 4.80676 1.90616C4.57026 1.90616 4.33275 1.90211 4.09625 1.90819C2.80818 1.93956 1.94136 2.80884 1.93628 4.09304C1.92918 6.23539 1.93425 8.37673 1.93425 10.5191C1.93425 16.5737 1.93425 22.6284 1.93425 28.683C1.93425 30.1403 2.55747 30.8669 3.98358 31.0804C4.90421 31.218 5.20871 31.7888 4.80575 32.6409C4.22516 33.8724 3.63644 35.101 2.9848 36.4722C3.47505 36.2556 3.83742 36.1038 4.19369 35.9389C7.41131 34.4482 10.6208 32.9394 13.8516 31.4771C14.3723 31.2413 14.9803 31.1239 15.5548 31.0966C16.7536 31.0399 17.9564 31.0804 19.1572 31.0774C19.3551 31.0774 19.553 31.0561 19.7956 31.0409L19.7976 31.0419Z" fill="#60A5FA"/>
        <path d="M40.8971 43.2081C40.8068 43.1919 40.7428 43.1747 40.6789 43.1707C39.2842 43.0988 38.8336 42.6232 38.8325 41.2165C38.8325 39.6652 38.8325 38.1138 38.8325 36.5625C38.8325 35.1012 39.3563 34.5739 40.8068 34.5709C41.0037 34.5709 41.2006 34.5709 41.3955 34.5709C41.4848 31.9094 39.1086 28.3948 35.079 28.2127C31.1265 28.0346 28.19 31.2111 28.1058 34.5729C28.3362 34.5729 28.5666 34.5648 28.796 34.5739C29.6689 34.6104 30.2962 35.1609 30.3114 36.0281C30.3449 37.9327 30.3459 39.8392 30.3084 41.7438C30.2911 42.6141 29.6517 43.1565 28.7767 43.1656C28.0155 43.1737 27.2542 43.1707 26.4929 43.1666C25.1998 43.1605 24.2406 42.3034 24.2 41.0263C24.1543 39.5943 24.1604 38.1594 24.2 36.7264C24.2274 35.7357 24.7694 35.0374 25.7053 34.7136C26.0514 34.5942 26.1691 34.4515 26.2047 34.0943C26.568 30.3793 29.1746 27.396 32.8003 26.5156C37.7282 25.3184 42.7272 28.7996 43.2915 33.8322C43.3514 34.3655 43.4448 34.7814 44 35.086C44.6364 35.4351 44.9338 36.1061 44.946 36.8377C44.9684 38.2029 44.9795 39.5701 44.946 40.9352C44.9217 41.9462 44.266 42.7618 43.2753 43.0523C42.9231 43.1555 42.8622 43.3265 42.8409 43.6564C42.7972 44.3233 42.783 45.0185 42.5749 45.6429C42.0766 47.1396 40.6413 48.0656 38.9513 48.0706C38.455 48.0717 38.1119 48.0939 37.8967 48.6869C37.6368 49.4034 36.9994 49.8386 36.2077 49.876C35.2637 49.9205 34.3116 49.9479 33.3707 49.8841C32.2116 49.8052 31.4036 48.8792 31.3762 47.7205C31.3671 47.3329 31.3691 46.9443 31.3762 46.5567C31.3975 45.3181 32.2907 44.3668 33.5291 44.3122C34.339 44.2768 35.1541 44.2747 35.9641 44.3122C36.971 44.3607 37.6917 44.8708 38.0347 45.8261C38.1352 46.1054 38.2641 46.1772 38.5392 46.1833C40.3845 46.2268 41.1488 45.2867 40.8981 43.2051L40.8971 43.2081ZM28.4062 36.4876C27.7211 36.4876 27.0837 36.4653 26.4493 36.5068C26.3254 36.5149 26.1194 36.7659 26.1163 36.9076C26.09 38.2201 26.092 39.5326 26.1133 40.8451C26.1153 40.9828 26.2919 41.2277 26.3985 41.2337C27.0623 41.2702 27.7282 41.252 28.4062 41.252V36.4876ZM40.7743 36.4845V41.258C41.3955 41.258 41.9832 41.2682 42.5699 41.254C42.8957 41.2459 43.0489 41.0425 43.0489 40.7247C43.05 39.4982 43.0489 38.2707 43.05 37.0432C43.05 36.694 42.8713 36.4977 42.5343 36.4886C41.9639 36.4714 41.3914 36.4835 40.7733 36.4835L40.7743 36.4845ZM34.7704 48.02C36.3955 47.9897 36.2584 48.2973 36.2574 46.7126C36.2574 46.6954 36.2564 46.6792 36.2554 46.662C36.2442 46.3564 36.096 46.2025 35.7783 46.2076C35.3399 46.2147 34.9014 46.2076 34.4629 46.2086C33.2134 46.2116 33.2844 46.0629 33.2733 47.421C33.2702 47.846 33.4123 48.0524 33.8589 48.0231C34.1614 48.0039 34.4659 48.019 34.7694 48.02H34.7704Z" fill="#60A5FA"/>
        <path d="M62.0087 58.0269C61.3743 56.689 60.8059 55.4898 60.2355 54.2906C59.7767 53.3252 60.0883 52.7656 61.1439 52.6593C62.3 52.543 63.0704 51.6453 63.0715 50.3945C63.0745 44.4927 63.0725 38.5898 63.0735 32.688C63.0735 32.519 63.0664 32.35 63.0775 32.182C63.1151 31.6163 63.5302 31.2186 64.0601 31.2328C64.5889 31.247 64.9807 31.6568 64.9817 32.2326C64.9868 34.7787 64.9838 37.3259 64.9838 39.872C64.9838 43.3795 64.9817 46.887 64.9838 50.3945C64.9848 52.1533 64.19 53.4163 62.6218 54.2046C62.5619 54.235 62.5071 54.2734 62.4015 54.3392C62.4655 54.5011 62.5213 54.6701 62.5974 54.83C62.9578 55.592 63.3242 56.351 63.6876 57.111C64.1372 58.0501 64.056 58.8223 63.444 59.4446C62.84 60.0589 62.024 60.1702 61.1064 59.7452C57.6898 58.1625 54.2712 56.5838 50.8628 54.9828C50.2517 54.6964 49.6478 54.5507 48.9667 54.5527C43.6723 54.571 38.378 54.5629 33.0836 54.5618C32.8806 54.5618 32.6756 54.572 32.4756 54.5436C31.9874 54.4738 31.6464 54.0741 31.6504 53.6035C31.6555 53.139 32.0128 52.7393 32.4929 52.6765C32.6431 52.6563 32.7964 52.6654 32.9486 52.6654C38.4633 52.6654 43.9769 52.6533 49.4915 52.6816C50.0609 52.6846 50.6709 52.8324 51.1916 53.0682C54.6214 54.6226 58.0309 56.2205 61.4474 57.8032C61.5814 57.8649 61.7215 57.9135 62.0067 58.0269H62.0087Z" fill="#60A5FA"/>
        <path d="M10.1565 17.8977C10.1565 17.2905 10.1484 16.6834 10.1585 16.0772C10.1808 14.6857 11.1167 13.6606 12.5093 13.4835C12.8422 13.441 13.1894 13.4248 13.502 13.3155C14.4581 12.9836 15.0245 11.9392 14.8154 10.9647C14.5921 9.9264 13.6471 9.20486 12.6017 9.27469C11.5836 9.34249 10.735 10.1369 10.6752 11.1549C10.6041 12.3703 10.1423 13.3277 8.96688 13.7871C7.22307 14.4681 5.42648 13.1799 5.4346 11.2916C5.44881 7.92674 7.8605 4.9657 11.1776 4.23809C14.4825 3.51453 17.9813 5.23084 19.3566 8.24956C19.6094 8.80311 19.5556 9.22915 19.1942 9.53882C18.6766 9.98206 18.0178 9.80598 17.6656 9.10367C17.0688 7.9146 16.1888 7.02305 14.9768 6.45836C11.5714 4.8726 7.51032 7.32461 7.35198 11.0679C7.34385 11.2501 7.31239 11.495 7.41085 11.6053C7.58239 11.7986 7.8534 12.0323 8.07061 12.0212C8.2858 12.0101 8.56696 11.755 8.6715 11.5365C8.79432 11.2784 8.74154 10.9414 8.79534 10.6449C9.15668 8.66751 10.9878 7.24568 13.0036 7.36914C14.9809 7.48957 16.6354 9.13403 16.7622 11.1033C16.8912 13.1111 15.4711 14.9387 13.4908 15.3131C13.4076 15.3283 13.3234 15.3344 13.2391 15.3415C12.1256 15.4295 12.0627 15.4983 12.0627 16.6297C12.0627 17.6073 12.0576 18.5859 12.0657 19.5634C12.0698 20.118 12.2941 20.3912 12.7245 20.4044C13.1752 20.4186 13.436 20.1241 13.4452 19.5614C13.4553 18.938 13.4431 18.3137 13.4502 17.6903C13.4573 17.0244 13.6299 16.7562 14.246 16.5599C16.0456 15.9871 17.2545 14.8203 17.8981 13.0524C18.1264 12.426 18.636 12.1659 19.1577 12.3673C19.6926 12.5727 19.9098 13.0777 19.6886 13.7041C18.9973 15.6592 17.7194 17.1043 15.8284 17.9746C15.46 18.1447 15.3382 18.3379 15.3473 18.7316C15.3595 19.2841 15.3575 19.8508 15.2448 20.3882C14.987 21.6167 13.7689 22.4253 12.4586 22.3079C11.2283 22.1976 10.2032 21.1199 10.1656 19.8731C10.1453 19.2163 10.1626 18.5586 10.1626 17.9008C10.1616 17.9008 10.1595 17.9008 10.1585 17.9008L10.1565 17.8977Z" fill="#60A5FA"/>
        <path d="M30.9878 13.8348C28.707 13.8348 26.4263 13.8378 24.1455 13.8337C23.5122 13.8327 23.1244 13.5251 23.0666 13.0029C23.0087 12.4777 23.3731 12.0233 23.9334 11.9494C24.1496 11.9211 24.3719 11.9333 24.5911 11.9333C28.8989 11.9333 33.2066 11.9333 37.5154 11.9333C37.6677 11.9333 37.8199 11.9262 37.9712 11.9363C38.5822 11.9758 38.9943 12.3785 38.9831 12.9159C38.971 13.4603 38.5609 13.8317 37.9306 13.8327C35.6163 13.8388 33.3021 13.8348 30.9868 13.8348H30.9878Z" fill="#60A5FA"/>
        <path d="M53.9898 34.3474C52.1993 34.3474 50.4088 34.3484 48.6183 34.3454C48.4163 34.3454 48.2062 34.3525 48.0154 34.2998C47.581 34.1825 47.3231 33.891 47.311 33.4265C47.2998 32.9691 47.513 32.6453 47.9545 32.5127C48.1595 32.451 48.3859 32.4419 48.6021 32.4419C52.2166 32.4378 55.8311 32.4388 59.4456 32.4398C59.5978 32.4398 59.7521 32.4317 59.9003 32.455C60.4129 32.536 60.757 32.9479 60.7357 33.4366C60.7143 33.9143 60.3733 34.2725 59.8668 34.3332C59.7003 34.3535 59.5298 34.3474 59.3603 34.3474C57.5698 34.3474 55.7793 34.3474 53.9888 34.3474H53.9898Z" fill="#60A5FA"/>
        <path d="M53.992 44.4674C52.2015 44.4674 50.411 44.4674 48.6205 44.4664C48.4347 44.4664 48.2439 44.4755 48.0663 44.434C47.6065 44.3257 47.3263 44.0373 47.3121 43.5495C47.2979 43.0668 47.5364 42.745 48.0003 42.6175C48.1911 42.5649 48.4002 42.5629 48.6012 42.5618C52.2157 42.5588 55.8302 42.5588 59.4447 42.5618C59.6457 42.5618 59.8537 42.5659 60.0446 42.6185C60.5115 42.746 60.748 43.081 60.7307 43.5556C60.7135 44.0343 60.4353 44.3348 59.9684 44.437C59.7898 44.4765 59.599 44.4664 59.4132 44.4664C57.6055 44.4684 55.7987 44.4674 53.991 44.4674H53.992Z" fill="#60A5FA"/>
        <path d="M29.2761 18.8943C27.5851 18.8943 25.894 18.8964 24.203 18.8933C23.4844 18.8923 23.0662 18.5462 23.0611 17.9664C23.055 17.3936 23.4955 16.9969 24.1827 16.9959C27.5982 16.9908 31.0148 16.9898 34.4304 16.9959C35.1196 16.9969 35.556 17.3956 35.5479 17.9704C35.5398 18.5493 35.1206 18.8923 34.3999 18.8943C32.6916 18.8974 30.9844 18.8954 29.2761 18.8954V18.8943Z" fill="#60A5FA"/>
        <path d="M10.1592 26.3354C10.1551 24.8833 11.3072 23.7235 12.7485 23.7266C14.1868 23.7296 15.3622 24.9055 15.3551 26.3344C15.348 27.7492 14.1949 28.8988 12.7729 28.9079C11.3082 28.917 10.1622 27.7896 10.1592 26.3344V26.3354ZM12.7414 25.6372C12.3699 25.6402 12.0745 25.9398 12.0715 26.3182C12.0684 26.7119 12.3364 26.9892 12.7292 26.9973C13.1322 27.0054 13.4468 26.6967 13.4347 26.3041C13.4225 25.9367 13.1088 25.6352 12.7414 25.6382V25.6372Z" fill="#60A5FA"/>
        <path d="M52.6014 39.4064C51.1986 39.4064 49.7949 39.4145 48.3921 39.4033C47.6877 39.3983 47.2867 39.0137 47.3111 38.4106C47.3345 37.8277 47.7435 37.5018 48.4794 37.5008C51.0657 37.4978 53.653 37.4998 56.2392 37.4998C56.4423 37.4998 56.6453 37.4947 56.8483 37.5018C57.5161 37.5241 57.9079 37.8884 57.8998 38.4733C57.8917 39.036 57.5121 39.3973 56.8625 39.4033C55.4425 39.4165 54.0224 39.4074 52.6024 39.4074L52.6014 39.4064Z" fill="#60A5FA"/>
    </g>
    <defs>
        <clipPath id="clip0_14072_29861">
            <rect width="65" height="60" fill="white"/>
        </clipPath>
    </defs>
</svg>
