<svg width="80" height="59" fill="none" xmlns="http://www.w3.org/2000/svg"><path d="M68.55 14.4 43.57 3 16.54 7.68 2.86 24.64l2.3 20.54 21.4 6.92 14.42-1.87 11.74 6.12 21.83-5.76 2.31-17.38-8.3-18.81Z" fill="#4D4753"/><path d="M43.27 2.12 30.08 23.75l15.72-6.43-2.53-15.2ZM60.34 21.75l-7.11 11 21.9 17.91-14.79-28.9ZM30.1 25.32l-2.45 16.61 12.46 8.15.44-.22-9.94-25.08M13.38 25.92 4.72 43.76l1.24.22L29.05 25.1l-.81-1.13" fill="#27AAE1"/><path d="M30.26 24.12a.42.42 0 0 1-.33-.15L15.4 7.17a.43.43 0 0 1 .65-.57l14.34 16.57 15.18-6.07-2.3-14.98a.43.43 0 0 1 .38-.5c.23-.03.46.13.49.36l2.35 15.33c.03.2-.09.39-.27.46L30.43 24.1a.36.36 0 0 1-.16.03h-.01Z" fill="#F1F2F2"/><path d="M41.02 51.36a.44.44 0 0 1-.25-.07.43.43 0 0 1-.12-.6l11.71-17.73-22.03-8.78-26.1 21.86a.43.43 0 0 1-.61-.05.44.44 0 0 1 .05-.6l26.3-22.03c.13-.1.3-.13.45-.07l22.77 9.07c.12.05.22.15.25.27.04.13.02.26-.05.37l-12 18.17a.44.44 0 0 1-.37.2Z" fill="#F1F2F2"/><path d="M75.77 51.74c-.1 0-.2-.04-.28-.1L52.75 33.1a.44.44 0 0 1-.09-.59l6.87-9.94-13.63-4.79a.43.43 0 0 1-.27-.55.44.44 0 0 1 .55-.26l14.16 4.97c.13.04.23.15.27.27.04.13.03.27-.06.39L53.6 32.67l22.43 18.3c.19.14.22.42.06.6-.08.1-.2.16-.33.16Z" fill="#F1F2F2"/><path d="M78.16 33.75a.38.38 0 0 1-.22-.07L59.99 22.71a.45.45 0 0 1-.21-.32.42.42 0 0 1 .14-.36l9.35-8.5a.43.43 0 0 1 .61.02c.16.18.15.45-.02.6l-8.93 8.13 17.46 10.67a.43.43 0 0 1-.23.8ZM41.01 51.36a.42.42 0 0 1-.4-.27L29.98 24.16l-16.7 2.2h-.11L1.5 24.86a.44.44 0 0 1-.38-.47c.03-.24.25-.4.48-.38l11.62 1.48 16.97-2.24c.2-.02.39.09.46.28l10.77 27.24a.43.43 0 0 1-.4.6Z" fill="#F1F2F2"/><path d="M3.95 46.14a.5.5 0 0 1-.2-.04.44.44 0 0 1-.2-.58l9.4-18.97L15.3 6.83c.02-.24.24-.4.48-.38.25.02.41.24.38.48l-2.35 19.8c0 .05-.01.1-.04.14L4.33 45.9a.44.44 0 0 1-.39.24h.01ZM75.77 51.74a.43.43 0 0 1-.39-.23L59.82 22.56 43.75 2.8 30.63 23.9c-.13.2-.4.27-.6.14a.43.43 0 0 1-.15-.59L43.33 1.82c.07-.11.2-.19.34-.2.14 0 .28.05.37.16l16.5 20.3L76.16 51.1a.43.43 0 0 1-.37.64h-.01Z" fill="#F1F2F2"/><path d="M53.62 58.9a.44.44 0 0 1-.43-.42l-.6-25.62-6.94-15.31a.44.44 0 0 1 .8-.36l6.97 15.38c.03.05.04.11.04.17l.6 25.71c0 .24-.18.43-.42.44l-.02.01ZM3.95 46.14a.43.43 0 0 1-.08-.86l23.33-4.05 2.63-17.6c.03-.23.26-.4.49-.37.23.04.4.26.37.5L28 41.65a.43.43 0 0 1-.35.37L4.03 46.14h-.08Z" fill="#F1F2F2"/><path d="M26.25 53.25h-.05a.43.43 0 0 1-.37-.48l1.33-11.22a.43.43 0 0 1 .68-.3l13.43 9.33c.2.13.24.4.1.6-.13.2-.4.24-.6.1l-12.83-8.9-1.25 10.5a.44.44 0 0 1-.42.38h-.02ZM71.55 13.86a2.33 2.33 0 1 1-4.66 0 2.33 2.33 0 0 1 4.66 0ZM80 33.32a2.33 2.33 0 1 1-4.66 0 2.33 2.33 0 0 1 4.66 0ZM77.3 50.95a2.33 2.33 0 1 1-4.66-.01 2.33 2.33 0 0 1 4.66 0ZM55.61 56.68a2.33 2.33 0 1 1-4.65-.01 2.33 2.33 0 0 1 4.65 0Z" fill="#F1F2F2"/><path d="M42.71 50.62a2.33 2.33 0 1 1-4.66 0 2.33 2.33 0 0 1 4.66 0ZM28.2 52a2.33 2.33 0 1 1-4.65-.01 2.33 2.33 0 0 1 4.66 0ZM7.34 44.67a2.33 2.33 0 1 1-4.66 0 2.33 2.33 0 0 1 4.66 0ZM4.66 24.64A2.33 2.33 0 1 1 0 24.63a2.33 2.33 0 0 1 4.66 0ZM18.32 7.8a2.33 2.33 0 1 1-4.66 0 2.33 2.33 0 0 1 4.66 0ZM45.97 2.32a2.33 2.33 0 1 1-4.66 0 2.33 2.33 0 0 1 4.66 0ZM32.09 23.95a2.33 2.33 0 1 1-4.66 0 2.33 2.33 0 0 1 4.66 0ZM54.93 32.17a2.33 2.33 0 1 1-4.66-.01 2.33 2.33 0 0 1 4.66 0ZM62.44 21.07a2.33 2.33 0 1 1-4.65 0 2.33 2.33 0 0 1 4.65 0ZM48.13 17.32a2.33 2.33 0 1 1-4.66-.01 2.33 2.33 0 0 1 4.66 0ZM15.03 25.83a2.33 2.33 0 1 1-4.66-.01 2.33 2.33 0 0 1 4.66 0ZM30.21 42.26a2.33 2.33 0 1 1-4.66 0 2.33 2.33 0 0 1 4.66 0Z" fill="#F1F2F2"/><path opacity=".2" d="m45.9 4.07-.35-.43A2.3 2.3 0 0 0 43.64 0a2.33 2.33 0 0 0-2.08 3.36L18.28 7.37a2.33 2.33 0 0 0-4.62.43c0 .86.47 1.6 1.16 2L4.08 23.11A2.32 2.32 0 0 0 0 24.63a2.33 2.33 0 0 0 3.1 2.18l1.75 15.55a2.32 2.32 0 0 0-2.18 2.3 2.32 2.32 0 0 0 4.37 1.1l.58.2C18.34 34.15 37.33 16.9 61 10.95l-15.1-6.87Z" fill="#fff"/></svg>