<svg width="24" height="20" fill="none" xmlns="http://www.w3.org/2000/svg"><g clip-path="url(#a)" fill="#60A5FA"><path d="M0 14.25V.99C0 .22.21 0 .97 0h22.06c.74 0 .96.22.96.95v13.3H0Zm11.95-2.82h6.88c.59 0 .78-.16.9-.74.07-.41.28-.65.7-.7.47-.04.7-.32.7-.79V5.1c0-.52-.2-.73-.72-.81-.39-.06-.6-.28-.68-.67-.13-.62-.3-.76-.92-.76H5.2c-.62 0-.8.14-.92.76-.08.39-.29.6-.68.66-.53.08-.71.29-.72.82v4.1c0 .46.22.74.7.8.39.03.6.24.7.63.14.68.29.8.98.8h6.7ZM23.97 15.74v1.38H.04v-1.38h23.93ZM24 18.6v.69c-.04.42-.27.67-.69.7H1.25C.08 20-.07 19.83.03 18.6h23.96Z"/><path d="M5.74 4.3h3.52c-.23.65-.45 1.32-.7 1.97-.04.08-.22.15-.33.16-.53.02-1.06 0-1.6 0-.64 0-.95.25-.94.72 0 .48.3.7.96.7h1.5c.3-.02.4.1.48.37.18.59.42 1.16.65 1.78l-3.55-.01c-.1 0-.2-.15-.29-.25-.26-.28-.48-.64-.8-.83-.31-.2-.4-.41-.38-.76.01-.73-.02-1.46.01-2.19.01-.17.16-.37.29-.5.34-.37.72-.71 1.18-1.16ZM18.22 9.99h-3.48c.22-.65.44-1.3.69-1.93.04-.1.22-.2.34-.2.55-.03 1.1 0 1.64-.01.6-.01.9-.26.9-.72-.01-.45-.3-.69-.88-.7-.54 0-1.1.02-1.64 0-.13-.01-.33-.12-.37-.23-.25-.62-.46-1.26-.69-1.91h3.54c.1 0 .2.16.29.25.3.3.61.61.9.93.12.12.26.28.27.43.02.84.01 1.68 0 2.52a.55.55 0 0 1-.17.34l-1.34 1.23ZM9.89 7.2c0-.8.19-1.56.71-2.2.79-.95 2-.95 2.79-.01a3.6 3.6 0 0 1 0 4.31c-.81.94-2.01.93-2.8-.03a3.38 3.38 0 0 1-.7-2.06Z"/></g><defs><clipPath id="a"><path fill="#fff" d="M0 0h24v20H0z"/></clipPath></defs></svg>