<svg width="25" height="21" fill="none" xmlns="http://www.w3.org/2000/svg"><path d="m14.75 12.74-.95-.05c.08-.73.09-1.4.47-2.05.4-.66.72-1.38 1.06-2.08.58-1.2.2-2.42-.9-2.96-1.07-.53-2.26-.09-2.86 1.07-.27.51-.52 1.03-.8 1.6l-1.59-.8a.35.35 0 0 1-.14-.26c0-1.75-.03-3.5.06-5.25C9.15.8 10.1.01 11.28.01h10.5C23.04 0 24 .96 24 2.23c.02 2.75.02 5.5 0 8.25 0 1.19-.82 2.11-2 2.19-1.14.07-2.28.03-3.42.05-.07 0-.15 0-.28.02l.14.44 2.41 6.59.11.3c.1.39-.06.74-.43.87-.39.14-.68 0-.86-.35-.1-.21-.18-.43-.26-.65-.84-2.28-1.67-4.57-2.53-6.84-.05-.15-.24-.35-.37-.35s-.32.2-.38.35c-.88 2.38-1.74 4.77-2.61 7.15-.06.16-.1.38-.23.45-.22.13-.54.3-.73.23-.21-.09-.4-.4-.47-.65-.06-.18.07-.42.15-.62l2.32-6.42.19-.5Zm1.78-8.33h3.56c.57 0 .91-.26.9-.7 0-.43-.34-.7-.88-.7h-7.16c-.56 0-.87.26-.87.7 0 .44.29.7.85.7h3.6Zm2.19 2.63h1.5c.45 0 .75-.26.77-.64a.7.7 0 0 0-.69-.74 73.23 73.23 0 0 0-3.18 0 .7.7 0 0 0-.69.7c0 .38.3.67.74.68h1.55Zm-.05 2.64h1.6c.42 0 .66-.24.72-.65.05-.36-.26-.72-.69-.73a74.94 74.94 0 0 0-3.18 0 .69.69 0 0 0-.68.7c0 .37.3.66.74.67.5.02 1 0 1.5 0h-.01Z" fill="#60A5FA"/><path d="M7.43 12.4v7.63c0 .75-.21.97-.97.97H2.43c-.66 0-.92-.25-.92-.9v-3.33c.01-.28-.06-.43-.32-.57a2.1 2.1 0 0 1-1.17-1.94c0-.98-.07-1.98.07-2.94.3-2.05 1.78-3.43 3.94-3.77-.96-.27-1.7-.7-2.16-1.49a2.98 2.98 0 0 1-.3-2.52 3.07 3.07 0 0 1 3.21-2.12 3.1 3.1 0 0 1 2.73 2.56c.2 1.58-.6 2.84-2.22 3.47.54.16 1.11.27 1.63.5.97.43 1.91.92 2.86 1.39l1.62.8c.49-.99.96-1.95 1.46-2.9.22-.43.6-.57.96-.39.37.19.48.57.3 1l-.13.26c-.46.92-.94 1.83-1.37 2.76-.1.24-.16.5-.14.75.11 1.38-1.25 2.46-2.55 1.97-.64-.24-1.24-.58-1.86-.88l-.64-.3Z" fill="#60A5FA"/></svg>