<svg width="20" height="20" fill="none" xmlns="http://www.w3.org/2000/svg"><g clip-path="url(#a)" fill="#60A5FA"><path d="M10 0H4.73A4.68 4.68 0 0 0 0 4.73v1.33c.01.48.32.8.77.81.46 0 .78-.32.8-.82.02-.67-.02-1.34.08-1.99A3.03 3.03 0 0 1 4.6 1.57c3.6-.02 7.21-.02 10.81 0 1.64.01 3.01 1.4 3.03 3.03.02 2.56.02 5.12 0 7.69a3.1 3.1 0 0 1-3.08 3.01c-2.01.02-4.03 0-6.05 0-.47 0-.77.2-.86.57-.14.56.21 1 .82 1h6.25A4.66 4.66 0 0 0 20 12.22V4.64C19.99 2.1 17.9 0 15.34 0H10Z"/><path d="M2.42 15.15c.34-.17.55.05.8.34.62.71 1.73.62 2.3-.15.14-.2.25-.25.5-.21a1.48 1.48 0 0 0 1.73-1.7c-.03-.25.02-.4.23-.55a1.48 1.48 0 0 0-.02-2.43c-.2-.14-.24-.29-.2-.51.13-1.08-.7-1.9-1.76-1.72-.21.04-.32 0-.45-.17-.65-.9-1.84-.9-2.5 0-.1.15-.2.22-.4.18a1.48 1.48 0 0 0-1.79 1.7c.04.27-.05.4-.25.54a1.48 1.48 0 0 0-.01 2.39c.23.17.29.33.25.6-.13.93.58 1.7 1.57 1.69ZM4.3 8.99c.44.77 1.1.95 1.88.82-.19.83.1 1.43.79 1.88-.74.43-.95 1.06-.8 1.87-.83-.19-1.43.1-1.88.78-.45-.73-1.07-.94-1.87-.8.17-.81-.08-1.43-.8-1.86.7-.44.98-1.05.79-1.89.81.17 1.43-.05 1.9-.8ZM9.96 4.3H4.85c-.6 0-.95.3-.94.79.01.48.36.77.93.77h10.33c.58 0 .92-.3.92-.78 0-.49-.33-.79-.9-.79H9.95ZM5.52 18c-.42-.24-.8-.62-1.17-.62-.38 0-.75.37-1.18.6v-.58c-.03-.23-.05-.48-.16-.67-.15-.28-.46-.38-.78-.31-.33.07-.59.27-.6.63-.02.63-.07 1.28.02 1.9.14.96 1.34 1.36 2.11.76.2-.16.37-.33.58-.52.18.17.34.33.52.47.4.34.86.43 1.35.24.49-.19.8-.55.84-1.08.03-.57.03-1.14 0-1.71-.02-.45-.36-.72-.78-.71a.74.74 0 0 0-.75.7c-.02.3 0 .6 0 .9ZM12.5 8.98h2.68c.58 0 .92-.3.91-.78 0-.49-.34-.78-.92-.78H9.8c-.54 0-.88.3-.9.76 0 .49.35.8.9.8h2.7ZM13.52 12.1h1.72c.53 0 .87-.32.86-.8-.01-.46-.34-.75-.86-.76h-3.4c-.52 0-.87.34-.85.8 0 .45.35.76.85.76h1.68Z"/></g><defs><clipPath id="a"><path fill="#fff" transform="matrix(-1 0 0 1 20 0)" d="M0 0h20v20H0z"/></clipPath></defs></svg>