<svg xmlns="http://www.w3.org/2000/svg" fill="none" viewBox="0 0 39 41"><path fill="#60A5FA" d="m29.7 12.8 3.5-3.6c1.3-1.4 2.7-1.4 4.2 0 2.1 2 2.1 3.7 0 5.8-2.5 2.4-4.8 5-7.2 7.5a1.7 1.7 0 0 0-.5 1.3v13.4c0 2.3-1.4 3.8-3.7 3.8H3.6C1.4 41 0 39.5 0 37.1V3.8C0 1.5 1.4 0 3.7 0h16.8a2 2 0 0 1 1.6.7 790.2 790.2 0 0 0 7.5 8l.1 1v3.1ZM19.8 2.4h-16c-1.1 0-1.5.4-1.5 1.7V37c0 1.3.3 1.7 1.6 1.7h22c1.2 0 1.5-.4 1.5-1.6V25.6l-.2-.2c-1.6 3-4.5 3.9-7.1 5.2l-1.3.6a1637.8 1637.8 0 0 1-12 .2c-1 0-1.4-.4-1.5-1.2 0-.7.6-1.2 1.5-1.2h8.4c1.6.1 2.5-.3 3-2 .2-1 .7-1.8 1.2-2.8H6.6c-.3 0-.5-.2-.7-.3l-.4-.5c-.2-.3 0-1 .2-1.2.2-.3.7-.4 1.1-.4h13.7c.4 0 .7-.1 1-.4a486.4 486.4 0 0 0 6-6.4v-4.6h-6.1c-1.2 0-1.6-.4-1.6-1.6V2.4ZM32.1 14l-9.6 10 1.4 1.5 9.6-10-1.4-1.6Zm-6.7-6-3.2-3.4V8h3.2Zm10 5.9 1-1.3c.4-.3.3-.6 0-.9-1.4-1.4-1-1.3-2.2 0l-.5.5 1.6 1.7Zm-15 14 1.5-.8-.8-1-.8 1.8Z"/><path fill="#60A5FA" d="M14.9 14.6h8c1 0 1.5.4 1.5 1.2 0 .7-.5 1.2-1.4 1.2H6.7c-.6 0-1.1-.2-1.3-.8 0-.5.1-1 .4-1.3.1-.2.6-.3 1-.3h8Z"/></svg>