<svg xmlns="http://www.w3.org/2000/svg" fill="none" viewBox="0 0 27 41"><g fill="#60A5FA"><path d="M0 20.5v-17C0 1 1 0 3.1 0h20.3c2.1 0 3.1 1 3.1 3.4v34.2c0 2.3-1 3.4-3 3.4H3c-2 0-3-1-3-3.4v-17Zm25.2 0v-17c0-1.5-.4-2-1.8-2H3.1c-1.3 0-1.8.5-1.8 2v34c0 1.6.5 2 1.8 2h20.3c1.4 0 1.8-.4 1.8-2v-17Z"/><path d="M23.9 19v14.8c0 1.2-.1 1.3-1.2 1.3h-19c-1 0-1 0-1-1.2V4.2c0-1.1 0-1.2 1-1.2h19c1 0 1.2 0 1.2 1.2V19ZM4 4.5v29.2h18.5V4.4H4Z"/><path d="M20 17.6v4.7c0 .7-.3 1-1 1.2a9.5 9.5 0 0 0-5 2.4c-.5.5-1 .5-1.5 0a10.2 10.2 0 0 0-5.2-2.5c-.3 0-.7-.6-.7-.9v-9.9c0-.6.3-1 1-.9 1.7.2 3.3 1 4.7 2 .7.6 1.2.5 2 0 1.2-.7 2.6-1.4 4.1-1.9 1.2-.4 1.5 0 1.5 1.4v4.4ZM18.4 13l-3.3 1.7c-1 .5-1.5 1.2-1.3 2.5V24l4.6-2.2v-8.7Zm-5.8 11v-8a.8.8 0 0 0-.2-.5c-1.3-1-2.7-2-4.4-2.3v8.5l4.6 2.2Z"/></g></svg>