<svg xmlns="http://www.w3.org/2000/svg" fill="none" viewBox="0 0 50 51">
  <g fill="#fff" clip-path="url(#a)">
    <path d="M10.7 10.8c0-.7.2-1 .4-1.4.3-.5.4-.9 0-1.3-.3-.5-.2-.8.5-.7h.9c.2 0 .4.2.2.4-.8 1 .2 1.7.3 2.7.6-.8.8-1.6 1-2.3.3-.6.6-.9 1.3-.9 2.8 0 4.2 1.4 4.2 4.3v2.2l2.8-1.8c.6-.3 1.2-.5 1.8 0a1.4 1.4 0 0 1 .7 1.5c0 .5-.4.8-.8 1.1l-5 3.1c-1.3.8-2.5.2-2.5-1.4v-4.7c0-.3.1-.8-.3-.8-.6 0-.4.5-.4.8v21c0 .4.3 1-.2 1.2-1 .3-1.7 1.3-2.8 1-.4-.2-.3-.4-.2-.6a5.2 5.2 0 0 0-.2-4.8c-.2-.3-.1-.7-.1-1v-5.7c0-.3 0-.7-.4-.7-.5 0-.4.5-.4.7v5.5c-1-.8-2-1.2-3.3-1.3-.5 0-.3-.6-.3-.9V11.5c0-.2.1-.7-.3-.7s-.3.5-.3.8v10.2c0 .5-.1 1-.4 1.4a1.4 1.4 0 0 1-1.5.5c-.3 0-.6-.2-.8-.4-.2-.2-.3-.5-.3-.8V11.3c0-2.7 2-4.4 4.7-4 .4.1.5.4.6.6l1 3Zm14.6 35.6c.8-2.6 2.7-3.3 5-3.2H37c2.7 0 4.1 1.5 4.2 4.2v1.1c0 2.5-.3 2.7-2.8 2.4-.4-.1-.4-.3-.4-.6V48c0-.4.2-1-.3-1s-.3.6-.3 1v2c0 .5-.1.8-.7.8h-7c-.7 0-.8-.3-.8-.8v-2.4c0-.3.1-.8-.2-.8-.5 0-.3.5-.3.7V50c0 .7-.2 1-1 1H23c-.6 0-.9-.2-.9-.8v-2.7c0-.3 0-.7-.3-.6-.3 0-.2.4-.2.6v2.8c0 .5-.2.7-.7.7h-7.1c-.5 0-.7-.2-.7-.7v-2.7c0-.3 0-.7-.3-.7-.4 0-.3.4-.3.7V50c0 .5 0 .8-.7.8-2.5 0-2.5 0-2.5-2.5v-1.1c0-2.4 1.6-4 4-4.1h8.2c2 0 3.2 1.1 3.9 3.2Z"/>
    <path d="M20.5 11.3V3c0-1 .5-1.4 1.6-1.4h22.7c1.7 0 2 .3 2 2v16.6c0 1.5-.4 1.8-1.8 1.8H22.3c-1.5 0-1.6-.4-1.8-1.8-.3-1.8.9-2.3 2-2.9.3.3.2.6.2.9 0 1.7-.3 1.5 1.5 1.5h19.3c.8 0 1-.1 1-1V5c0-.8 0-1-1-1H23.8c-.7 0-1 .1-1 1v4.3c0 .7-.1 1.1-.8 1.4-.5.1-.8.4-1.4.7ZM8 36.5h3.8c.5 0 .7 0 .5.6a5 5 0 0 0 .2 3.8c.3.5.1.6-.4.6a5.1 5.1 0 0 0-3.4 2.1 1 1 0 0 1-.9.5H4.5c-.5 0-.6-.2-.6-.6v-3c0-.2 0-.5-.4-.5-.3 0-.2.4-.2.6 0 1 .1 2-.1 2.8-.4 1.4-1.6.4-2.4.7-.4.1-.8 0-.8-.7 0-1.2-.1-2.5.1-3.7.3-1.8 1.6-3 3.4-3.2H8Zm29.8 4.9c.8-1.6.9-3.2.2-4.8.7-.2 1.3 0 2-.1h6c2.3 0 3.8 1.4 4 3.7v3.3c0 .4-.1.5-.6.6-2.6.3-2.6.3-2.7-2.4v-1.1c0-.3 0-.5-.3-.5s-.3.3-.3.5v1.7c0 1.8 0 1.7-1.7 1.8-1.3 0-2.5 0-3.4-1.3-.7-1-2-1.2-3.2-1.4Zm-8.8.1a6 6 0 0 0-3.3 1.3c-.3.3-.4.2-.7 0a5 5 0 0 0-3-1.3c-.5 0-.5-.3-.3-.7a5 5 0 0 0 .1-3.8c-.2-.5 0-.6.4-.6h6.1c.4 0 .6 0 .4.5-.6 1.6-.4 3 .4 4.6Zm7.7-2.7a3.4 3.4 0 0 1-1 2.4 3.3 3.3 0 0 1-4.6 0 3.4 3.4 0 0 1 0-4.8 3.3 3.3 0 0 1 4.7 0c.6.6 1 1.5 1 2.4Zm-16.2-.1a3.4 3.4 0 0 1-2 3.1 3.3 3.3 0 0 1-3.6-.7 3.4 3.4 0 0 1 2.2-5.8 3.3 3.3 0 0 1 2.4 1 3.4 3.4 0 0 1 1 2.4ZM11.4 32a3.3 3.3 0 0 1-1 2.4 3.2 3.2 0 0 1-3.6.7 3.3 3.3 0 0 1-1.7-1.8 3.4 3.4 0 0 1 .7-3.6 3.3 3.3 0 0 1 4.6 0c.6.6 1 1.5 1 2.3Zm17.7 0c0 1-.4 1.8-1 2.4a3.3 3.3 0 0 1-4.6 0 3.4 3.4 0 0 1 1.1-5.5 3.2 3.2 0 0 1 3.6.8 3.3 3.3 0 0 1 1 2.4Zm12.8 3.4c-.9 0-1.7-.4-2.3-1a3.4 3.4 0 0 1 0-4.7 3.2 3.2 0 0 1 5.4 1.1 3.4 3.4 0 0 1-.8 3.7 3.3 3.3 0 0 1-2.3.9ZM8.8 3.2c0-.8.3-1.6.8-2.2a3 3 0 0 1 2.2-1c.9 0 1.7.3 2.3 1 .6.5.9 1.3.9 2.2 0 .8-.4 1.6-1 2.2-.5.6-1.3 1-2.1 1a3 3 0 0 1-2.2-1c-.6-.6-1-1.4-1-2.2Z"/>
    <path d="m26.1 11.8-1-1c-.1-.4.3-.5.5-.7L28.4 8c.5-.4 1-.6 1.5 0 .4.5 0 1-.4 1.3l-2.9 2.3-.5.3Z"/>
  </g>
  <defs>
    <clipPath id="a">
      <path fill="#fff" d="M0 0h50v51H0z"/>
    </clipPath>
  </defs>
</svg>