<svg xmlns="http://www.w3.org/2000/svg" fill="none" viewBox="0 0 22 27"><g fill="#1F2937" clip-path="url(#a)"><path d="M11 27H5a5 5 0 0 1-5-5.2V5.2C0 2.8 1.5.9 3.4.2L5 0h6c2 0 3.8.7 5.3 2.3L19.8 6a7.3 7.3 0 0 1 2.2 5.3v10.6a5 5 0 0 1-5 5.1h-6ZM1 13.5a10511.5 10511.5 0 0 0 0 9.2c.5 1.9 2 3.2 3.9 3.2h12a4 4 0 0 0 3.9-4V10.4c0-.2-.2-.3-.4-.3H15c-.9 0-1.6-.3-2.1-1-.5-.5-.7-1.2-.7-2V1.6c0-.2 0-.3-.2-.3H5a3.9 3.9 0 0 0-3.9 4v8.3ZM20.5 9l-.1-.2a6 6 0 0 0-1.2-1.9L16 3.8l-1.7-1.6c-.3-.3-.8-.4-1.2-.7v6.2c.2.8.9 1.3 1.7 1.3h5.6Z"/><path d="m17.8 15.3-.2 1-1.4-.2c-1 0-1.8.7-1.8 1.7 0 .4 0 .9.2 1.2.4.7 1.2 1 2 .8l.2-.1v-1.1h-.9v-1h1.9l.2.1v2.8l-.1.2c-1 .3-2.2.5-3.2 0-1.1-.4-1.7-1.2-1.7-2.3 0-.8 0-1.5.5-2a3 3 0 0 1 2.2-1.4c.6 0 1.3 0 1.9.2h.2ZM9 21v-5.9c1 0 1.9-.3 2.8 0 .8.4 1.2 1 1.2 1.7 0 .8-.4 1.5-1 1.8l-1.4.3c-.3 0-.4 0-.4.3v1.6c0 .1 0 .2-.2.2H9Zm1.3-3.2c.7.1 1.1 0 1.3-.4.2-.3.2-.8 0-1-.2-.3-.8-.5-1.3-.3v1.7ZM7 15v4.2c0 .6-.3 1.2-1 1.5-.5.4-1.1.3-1.8.2H4v-.1l.1-1h.7c.5 0 .7-.1.8-.6v-3.9c0-.2.1-.3.4-.3h1Z"/></g><defs><clipPath id="a"><path fill="#fff" d="M0 0h22v27H0z"/></clipPath></defs></svg>