<svg xmlns="http://www.w3.org/2000/svg" fill="none" viewBox="0 0 47 52">
  <g fill="#fff" clip-path="url(#a)">
    <path d="M31 41.4V47h5.5c.7 0 1.5.3 2 .7.6.5 1 1 1 1.8V52h-32v-3c.2-1 1.5-1.9 2.9-1.9H16v-5.7H3.9c-2.4 0-3.9-1.5-3.9-3.9V13.3c0-2.4 1.5-3.9 3.9-3.9H43c2.4 0 3.9 1.5 3.9 3.9v24.2c0 2.4-1.5 3.9-3.9 3.9H31Zm13-6.1V24.8H30.7a7.4 7.4 0 0 1-6.4 6.3v4.2h19.5ZM16.1 24.8h-13v10.5h19.5v-4.2a7.4 7.4 0 0 1-6.4-6.3Zm6.4-12.3H3.8c-.7 0-.8 0-.8.8V23h13.3a7.3 7.3 0 0 1 6.3-6.3v-4.2ZM44 23v-9.6c0-.9-.1-1-1-1H24.5v4.3a7.4 7.4 0 0 1 6.4 6.3H44Zm-23 1v2.7c.1.6.4.8 1 .5l4.7-2.7c.6-.3.5-.7 0-1L22 20.6c-.5-.3-.8 0-.8.6v2.7Zm2.5-24a9 9 0 0 1 6 2.3c.5.4.5.8.2 1.3-.3.4-.8.4-1.3 0a7.3 7.3 0 0 0-9.8 0c-.5.4-1 .4-1.3 0-.3-.4-.3-.9.2-1.3a9.1 9.1 0 0 1 6-2.3Z"/>
    <path d="M23.5 2.7c1.6 0 3.1.6 4.3 1.6.5.4.6.9.2 1.3-.3.3-.8.4-1.2 0a5 5 0 0 0-6.6 0c-.4.4-1 .3-1.2 0-.4-.4-.3-1 .2-1.3 1.2-1 2.7-1.6 4.3-1.6Z"/>
    <path d="M23.5 5.4c1 0 1.9.3 2.6.9.5.3.6.8.3 1.2-.3.4-.8.5-1.2.2a2.7 2.7 0 0 0-3.4 0c-.5.3-1 .2-1.2-.2-.3-.4-.2-.9.2-1.2.8-.6 1.7-1 2.7-1Zm13.9 29h-3c-.7 0-.9-.3-.7-1a3.9 3.9 0 0 1 6-1.8c.6.5 1 1.1 1.4 1.9.2.6 0 .9-.7.9h-3Zm1.9-6.5a2 2 0 0 1-3.3 1.4 2 2 0 0 1-.6-1.4 2 2 0 0 1 2-2 2 2 0 0 1 2 2ZM9.6 34.4h-3c-.7 0-.9-.3-.6-1a3.9 3.9 0 0 1 5.8-1.8c.7.5 1.2 1 1.5 1.8.2.7 0 1-.7 1h-3Zm0-8.4a2 2 0 0 1 2 1.8 2 2 0 0 1-3.4 1.5 2 2 0 0 1-.5-1.4 2 2 0 0 1 1.9-2Zm0-4.1h-3c-.7 0-.9-.3-.6-1a3.9 3.9 0 0 1 5.8-1.8c.7.4 1.2 1 1.5 1.8.2.7 0 1-.7 1h-3Zm-1.9-6.6a2 2 0 0 1 2-2 2 2 0 0 1 1.9 2 2 2 0 0 1-2 2 2 2 0 0 1-2-2Zm29.7 6.6h-3c-.7 0-.9-.3-.7-1a4 4 0 0 1 7.4 0c.1.7 0 1-.6 1h-3.1Zm1.9-6.5a2 2 0 0 1-2 2 2 2 0 0 1-1.9-2.4 2 2 0 0 1 2.7-1.5 2 2 0 0 1 1.2 1.9Z"/>
  </g>
  <defs>
    <clipPath id="a">
      <path fill="#fff" d="M0 0h47v52H0z"/>
    </clipPath>
  </defs>
</svg>