<svg xmlns="http://www.w3.org/2000/svg" fill="none" viewBox="0 0 240 239">
  <path fill="#fff" stroke="#3E56B0" d="M1.4 15C1.4 7 7.9.5 15.9.5h209c8 0 14.5 6.5 14.5 14.5v209c0 8-6.5 14.5-14.5 14.5h-209c-8 0-14.5-6.5-14.5-14.5V15Z"/>
  <g clip-path="url(#a)">
    <path fill="#6CDD6C" d="M156.5 146c-.3-.9-1-1.8-2-2-.9-.4-2 0-2.4 1-.8-.7-2.2-.1-2.9.8-1 1.4-.2 3.8 0 4h9.2s1.6 0 2.3-.4c1.4-.5 2.4-3 1.5-4.3-.7-.8-2-1-3-.7-1 .4-2 1-2.7 1.7"/>
    <path fill="#50AA50" d="M149.8 150.2c-.2 0-.6 0-.8-.2-.3-.3-1.2-2.9 0-4.4a3 3 0 0 1 2-1.2c.4 0 .7 0 1 .2a2.4 2.4 0 0 1 2.7-1c.8.3 1.5 1 2 2 .8-.7 1.7-1.2 2.5-1.4 1-.4 2.4-.2 3.2.8.4.5.5 1.4.3 2.3-.3 1.1-1 2-2 2.4a9 9 0 0 1-2.3.4H150Zm1.4-5.2h-.1c-.6 0-1.2.4-1.6 1-1 1.2-.3 3.3-.1 3.6h9s1.5-.1 2.2-.4a3 3 0 0 0 1.5-2c.2-.8.2-1.4-.2-1.9-.5-.8-1.7-.9-2.5-.6-1 .3-1.9.8-2.7 1.6h-.3l-.2-.1c-.3-1-1-1.7-1.7-2-.4-.1-1 0-1.4.1-.3.2-.6.5-.7.8 0 .1 0 .2-.2.2h-.2c-.2-.2-.5-.3-.8-.3Zm-3.6.8c-.3.4-.4 1-.3 1.5 0 .2.4.2.4 0 0-.5 0-1 .2-1.3.2-.3-.2-.5-.3-.2Zm-1.2.3a3 3 0 0 0 0 1.4c0 .3.4.2.3 0v-1.3c.1-.3-.3-.4-.3-.1Zm2.3-.9c.3 0 .3-.4 0-.4s-.3.4 0 .4Z"/>
    <path fill="#50AA50" d="M150 147.3v.3c0 .3.3.3.3 0v-.3c0-.3-.4-.3-.4 0Zm7 .7v.1c0 .3.4.3.4 0v-.2c0-.2-.4-.2-.4 0Zm-.8-.6.1.1c.2.2.5 0 .3-.3-.3-.3-.6 0-.4.2Z"/>
    <path fill="#405B91" d="M37 138.2H22.8a.6.6 0 1 1 0-1.1H37a.6.6 0 1 1 0 1Z"/>
    <path fill="#fff" d="M162 88.9h-.4c0-.3-.2-.6-.6-.6-.3 0-.6.3-.6.6h-.4a1 1 0 1 1 2 0Zm1.5-23.6h-.4c0-.4-.3-.6-.6-.6s-.6.2-.6.6h-.4a1 1 0 1 1 2 0Z"/>
    <path fill="#415B91" d="M113 147.4H93.7l.3-.8a17 17 0 0 0 1.2-8.5v-.6h16.3v.5c0 1.9.5 6.2 1.3 8.7l.2.7Zm-17.6-1.1h16.1c-.6-2.4-1-5.8-1.1-7.7h-14c.1 2.6 0 5-1 7.7Z"/>
    <path fill="#415B91" d="M88.2 138.6a643 643 0 0 1-27-.3c-1.3-.5-3-2.2-3-3.4l-.3-10.6c-.4-12.7-1-30-.2-39.7a3.3 3.3 0 0 1 3.3-3h84.5c1.8 0 3.2 1.5 3.3 3.3l.2 8.6c.4 12.2.8 24.8-.5 36.8l-.1 1.5c-.2 2.5-.3 5.6-3.5 6.2-1.6.3-32.9.6-56.7.6ZM61 82.4c-1.3 0-2.3 1-2.4 2.3-.7 9.6-.2 27 .2 39.6l.3 10.6c0 .7 1.3 2.2 2.3 2.5 1.8.4 81.2.1 83.3-.2 2.5-.5 2.6-3 2.8-5.5v-1.5a248 248 0 0 0 .6-36.6L148 85c0-1.4-1.1-2.4-2.4-2.5H61Z"/>
    <path fill="#B6D0FB" fill-rule="evenodd" d="M143.2 84.5H63.6c-1.5 0-2.7.9-2.8 2.2-.9 10.6.3 32.9.5 41.8 0 1 1.5 2.2 2.5 2.5 1.2.4 76.8.1 78.7-.2 3.3-.6 2.7-4 3-6.1 1.6-12.4.6-25.7.3-37.8 0-1.3-1.2-2.3-2.7-2.3Z" clip-rule="evenodd"/>
    <path fill="#415B91" d="M120 150.4H86.7c-1.3 0-2-1-2-2s.7-2 2-2h33.1c1.3 0 2 1 2 2s-.7 2-2 2Zm-33.2-3.2c-.9 0-1.1.8-1.1 1.2 0 .4.2 1.1 1.1 1.1h33.1c.9 0 1.1-.7 1.1-1.1 0-.5-.2-1.2-1-1.2H86.7Zm-23.1-11.8c1.5 0 1.5-2.3 0-2.3s-1.5 2.3 0 2.3Zm4.7 0c1.5 0 1.5-2.3 0-2.3s-1.5 2.3 0 2.3Zm4.6 0c1.5 0 1.5-2.3 0-2.3-1.4 0-1.4 2.3 0 2.3Zm30.4-51.5c.7 0 .7-1.1 0-1.1s-.7 1 0 1Z"/>
    <path fill="#B6D0FB" d="M196.8 148.2h-11.5l4.4-14.4h2.7l4.4 14.4Zm.9 0h-13.3v1.7h13.3v-1.7Z"/>
    <path fill="#415B91" d="m186.4 144.6-1 3.6h11.4l-1.1-3.6h-9.3Zm1.1-3.6h7l-1-3.6h-4.9l-1 3.6Z"/>
    <path fill="#B6D0FB" d="M201.4 149.8h2.6V140h13v9.8h2.5V140h2.7v-7.8H220v-.8h-3.7v.8h-11.5v-.8h-3.7v.8h-2.3v7.8h2.6v9.8Zm20-16.8-1.6 6.2H217l1.6-6.2h2.8Zm-7.3 6.2h-2.8l1.6-6.2h2.8l-1.6 6.2Zm-5.7 0h-2.8l1.6-6.2h2.8l-1.6 6.2Zm-7-6.2h2.9l-1.6 6.2h-2.8l1.6-6.2ZM76.9 53.9l.7-.8c.2-.1.2-.4 0-.5l-.6-.7a.6.6 0 0 1-.1-.6l.5-1.3c0-.2.3-.4.5-.4h1c.2 0 .4-.2.4-.4v-1c0-.3-.2-.5-.4-.5h-1a.6.6 0 0 1-.5-.3L77 46a.6.6 0 0 1 0-.7l.7-.6c.2-.2.2-.4 0-.6l-.7-.7a.4.4 0 0 0-.6 0l-.6.6c-.2.2-.5.2-.7.1l-1.3-.5a.6.6 0 0 1-.4-.5v-1c0-.2-.1-.4-.3-.4H72c-.2 0-.4.2-.4.4v1c0 .2-.2.4-.4.5l-1.3.5h-.6l-.7-.7a.4.4 0 0 0-.5 0l-.8.7c-.2.2-.2.4 0 .6l.7.6c.1.2.2.5 0 .7l-.5 1.3c0 .2-.3.4-.5.4h-1c-.2 0-.3.1-.3.3v1.1c0 .2.1.4.4.4h.9c.2 0 .4.2.5.4l.5 1.3c.2.2.1.5 0 .6l-.7.7c-.2.1-.2.4 0 .5l.8.8c.1.2.4.2.5 0l.7-.7c.1-.1.4-.2.6 0l1.3.5c.2 0 .4.3.4.5v1c0 .2.2.3.4.3h1c.3 0 .4-.1.4-.4v-.9c0-.2.2-.4.4-.5l1.3-.5h.7l.6.7c.2.2.4.2.6 0Zm-4.5-2a3.1 3.1 0 1 1 0-6.4 3.1 3.1 0 0 1 0 6.3Zm11.7 5-.2-.7c0-.1-.1-.2-.3-.1l-.5.1-.4-.1-.5-.7c-.1 0-.2-.2-.1-.4l.3-.5-.1-.3-.6-.3h-.3l-.3.6-.4.2-.8-.1a.3.3 0 0 1-.4-.3l-.1-.5-.3-.2-.7.2s-.2.2-.1.3l.1.6v.3l-.8.6c0 .1-.2.1-.4 0l-.5-.2h-.3l-.3.7v.3l.6.3.2.3-.1.9c0 .1-.1.3-.3.3l-.5.2-.2.3.2.6.3.2.6-.2.3.1.6.7c.1.1.1.3 0 .4l-.2.5v.4l.7.3.3-.1.3-.5c0-.2.2-.2.3-.2h.9l.3.3.2.6c0 .1.2.2.3.1l.6-.2c.2 0 .2-.1.2-.3l-.2-.5c0-.2 0-.3.2-.4l.6-.5c.1-.1.3-.2.4-.1l.5.3.4-.1.3-.6-.1-.3-.5-.3a.3.3 0 0 1-.2-.4v-.8c0-.2.2-.3.3-.4l.6-.1c.1 0 .2-.2.1-.3Zm-2.4 1.8a2 2 0 1 1-.8-2.6 2 2 0 0 1 .8 2.6Z"/>
    <path fill="#405B91" d="M115.9 69.2H98.3a.6.6 0 1 1 0-1.2H116a.6.6 0 1 1 0 1.2Zm-35.8 7.9H51.7a.6.6 0 1 1 0-1h28.4a.6.6 0 1 1 0 1Zm136.2 15.2h-28.4a.6.6 0 0 1 0-1.1h28.4a.6.6 0 1 1 0 1Zm11.1 58.7H12.6a.6.6 0 1 1 0-1.1h214.8a.6.6 0 1 1 0 1.1Z"/>
    <path fill="#B6D0FB" d="M148.6 62.1c-1.2 0-2.3.5-3.2 1.4a4.5 4.5 0 0 0-.7 5.4l.1.2-4.6 4.5s-.2.2-.2.5.1.5.4.7c.2.3.5.4.7.4l.6-.2 4.5-4.5h.1a4.5 4.5 0 1 0 2.3-8.4Zm0 7.7a3.2 3.2 0 1 1 0-6.3 3.2 3.2 0 0 1 0 6.3Z"/>
    <path fill="#B6D0FB" d="M147 67.3h3.2v-.8H147v.8Z"/>
    <path fill="#405B91" d="M64.8 150a.6.6 0 0 1-.5-.6v-43.1a.6.6 0 1 1 1.1 0v43.1c0 .3-.2.6-.6.6Zm10.1 0a.6.6 0 0 1-.6-.6v-43.1a.6.6 0 1 1 1.1 0v43.1c0 .3-.2.6-.5.6Z"/>
    <path fill="#405B91" d="M74.9 109.8h-10a.6.6 0 1 1 0-1.1h10a.6.6 0 1 1 0 1.1Zm0 4.9h-10a.6.6 0 1 1 0-1h10a.6.6 0 1 1 0 1Zm0 5h-10a.6.6 0 0 1 0-1.2h10a.6.6 0 1 1 0 1.2Zm0 4.9h-10a.6.6 0 1 1 0-1.1h10a.6.6 0 1 1 0 1Zm0 4.9h-10a.6.6 0 1 1 0-1.1h10a.6.6 0 1 1 0 1.1Zm0 4.9h-10a.6.6 0 1 1 0-1h10a.6.6 0 1 1 0 1Zm0 5h-10a.6.6 0 1 1 0-1.2h10a.6.6 0 1 1 0 1.2Zm0 4.9h-10a.6.6 0 1 1 0-1.1h10a.6.6 0 0 1 0 1Zm-23.7-35.9a.6.6 0 0 1-.5-.6v-2.2a.6.6 0 1 1 1 0v2.2c0 .3-.2.6-.5.6Z"/>
    <path fill="#405B91" d="M52.3 107.3h-2.2a.6.6 0 1 1 0-1.1h2.2a.6.6 0 1 1 0 1.1Zm49.2-76.9a.6.6 0 0 1-.5-.5v-2.2a.6.6 0 1 1 1 0v2.2c0 .3-.2.5-.5.5Z"/>
    <path fill="#405B91" d="M102.6 29.4h-2.2a.6.6 0 1 1 0-1.2h2.2a.6.6 0 1 1 0 1.2Zm16.6 113.9h-.2l-2-.7a.6.6 0 1 1 .2-1l2.1.6a.6.6 0 0 1-.1 1Z"/>
    <path fill="#405B91" d="M117.8 144h-.1a.6.6 0 0 1-.4-.7l.6-2c0-.4.4-.6.7-.5.3.1.4.4.3.7l-.6 2.1c0 .3-.3.4-.5.4Zm-9.6-66.6h-.2l-2-.6a.6.6 0 1 1 .2-1l2.1.6c.3 0 .5.3.4.6 0 .3-.3.4-.5.4Z"/>
    <path fill="#405B91" d="M106.8 78.2h-.2a.6.6 0 0 1-.3-.7l.6-2.1a.6.6 0 1 1 1 .3l-.6 2c0 .3-.3.5-.5.5Z"/>
    <path fill="#B6D0FB" d="M112.2 62.3a7.8 7.8 0 1 0-11-11 7.8 7.8 0 0 0 11 11Z"/>
    <path fill="#fff" d="M106.7 62.6a5.8 5.8 0 1 0 0-11.6 5.8 5.8 0 0 0 0 11.6Z"/>
    <path fill="#405B91" d="M106.7 62.9a6 6 0 1 1 0-12.1 6 6 0 0 1 0 12Zm0-11.7a5.6 5.6 0 1 0 0 11.2 5.6 5.6 0 0 0 0-11.2Z"/>
    <path fill="#405B91" d="M106.7 57a.2.2 0 0 1-.2-.2v-3s0-.2.2-.2c.1 0 .2.1.2.3v3l-.2.1Z"/>
    <path fill="#405B91" d="M110.2 57h-3.5a.2.2 0 0 1-.2-.2c0-.1 0-.2.2-.2h3.5s.2 0 .2.2l-.2.2Zm-3.2-5.3-.3.2a.2.2 0 0 1-.3-.2c0-.2.2-.3.3-.3.1 0 .2.1.2.3Zm3.5 1.6h-.3V53h.3v.3Zm1.3 3.7a.2.2 0 0 1-.2-.2l.2-.2c.2 0 .3 0 .3.2 0 .1-.1.3-.3.3Zm-1.6 3.6v-.3h.3v.3h-.3Zm-3.7 1.4c0-.1 0-.2.2-.2.1 0 .2 0 .2.2 0 .1 0 .2-.2.2a.2.2 0 0 1-.2-.2Zm-3.6-1.7h.3v.3h-.3v-.3Zm-1.4-3.3a.2.2 0 1 0 0-.4.2.2 0 0 0 0 .5Zm1.7-4v.3h-.3V53h.3Zm14.8.9h-3.2a.2.2 0 0 1-.2-.3c0-.1 0-.2.2-.2h3.3l.2.2c0 .1-.1.3-.3.3Zm0 6.3h-3.2a.2.2 0 0 1-.2-.2c0-.1 0-.2.2-.2h3.3s.2 0 .2.2c0 .1-.1.2-.3.2Zm4.1-3.2h-6a.2.2 0 0 1-.3-.2c0-.1 0-.2.2-.2h6.1l.2.2c0 .1 0 .3-.2.3Z"/>
    <path fill="#fff" d="M132.7 141h-3.6v3.6h3.6V141Z"/>
    <path fill="#415B91" d="M133 145h-4v-4.2h4.1v4.1Zm-3.6-.6h3v-3h-3v3Z"/>
    <path fill="#405B91" d="M137.3 141.8H134a.2.2 0 0 1-.2-.2l.2-.2h3.3c.1 0 .2 0 .2.2 0 .1 0 .2-.2.2Zm1.2 2.5h-4.4l-.3-.2c0-.2.2-.3.3-.3h4.4c.2 0 .3.1.3.3 0 0-.1.2-.3.2Zm1.6-1.3h-6a.2.2 0 0 1 0-.5h6c.2 0 .3.1.3.3 0 0-.1.2-.3.2Z"/>
    <path fill="#fff" d="M50 91.7h3.6v-3.6H50v3.6Z"/>
    <path fill="#415B91" d="M53.9 92h-4.2v-4.2H54V92Zm-3.6-.6h3v-3h-3v3Z"/>
    <path fill="#405B91" d="M45.4 89h3.3l.2-.3c0-.1 0-.2-.2-.2h-3.3s-.2 0-.2.2l.2.2Zm-1.2 2.4h4.4c.2 0 .3-.1.3-.2 0-.2-.1-.3-.3-.3h-4.4c-.2 0-.3.1-.3.3 0 0 .1.2.3.2ZM42.6 90h6.1c.1 0 .2 0 .2-.2 0 0 0-.2-.2-.2h-6.1l-.2.2c0 .2 0 .3.2.3Z"/>
    <path fill="#3F5B91" d="M161 101.7h-1v48.1h1v-48.1Z"/>
    <path fill="#B6D0FB" d="M160.6 96.4h-.2a3.3 3.3 0 0 0-3.4 3.3v4.5c0 1.8 1.5 3.3 3.4 3.3h.2c1.8 0 3.3-1.5 3.3-3.3v-4.5c0-1.8-1.5-3.3-3.3-3.3Z"/>
    <path fill="#3F5B91" d="M165 104.3c.4 0 .8 0 1.2.2.2 0 .3-.4 0-.5l-1.1-.1c-.3 0-.4.3-.1.4Zm0-2.6h.9c.2 0 .2-.4 0-.5l-1 .1c-.3 0-.2.5 0 .4Zm-.2-2.3 1-.4c.2 0 0-.5-.2-.4l-.9.4c-.2 0-.1.5.1.4Zm-10.3 5.3 1-.3c.2 0 0-.4-.2-.4l-.9.3c-.3 0-.1.4.1.4Zm-.5-3 1.1.1c.3.1.4-.3.1-.4l-1.2-.1c-.3 0-.3.4 0 .4Zm.3-3.5 1 .3c.2 0 .3-.3 0-.4l-.8-.3c-.3 0-.4.3-.2.4Z"/>
    <path fill="#405B91" d="m157.9 150.4.7-6.4h3.6l.9 6.4h-5.2Z"/>
    <path fill="#6CDD6C" d="M55.2 119.7c-.2-1-.9-3.7-2.5-2.9-2.6 1.4.6 6.5-2.6 7.4-.1-2-.6-3.4-1.5-3.4-1.9.2-1.4 4.6-1.4 5.6l-.1 3c-2.3.5-1.8-5.4-3.2-6.2-2.1-1.2-2.6 1.6-2.5 2.9 0 2.2.7 4.8 2.8 6 .6.4 1.8.8 2.8.7a29.4 29.4 0 0 0 .4 5.2h1.2v.1c0 .5.9.6.9 0 0-1 .6-6.3.7-10.7 1 .1 2.3-.3 3-.9 2.1-1.5 2.4-4.4 2-6.8Z"/>
    <path fill="#50AA50" d="M49 138.7h-.3a.6.6 0 0 1-.3-.4h-1.3v-.3a24 24 0 0 1-.4-5c-1 0-2.1-.4-2.7-.7-2.2-1.3-2.8-4-2.8-6.2 0-.9 0-2.7 1-3.2.5-.3 1.1-.3 1.8.1s1 1.6 1.2 3c.4 1.9.8 3.3 1.6 3.3v-.5l.2-2.4v-.6c-.1-1.8-.2-5 1.6-5.2.3 0 .5 0 .8.2.5.5.8 1.5 1 3 1.1-.4 1-1.8 1-3.3 0-1.6-.1-3.2 1.2-3.9.5-.2.9-.2 1.3 0 1.1.5 1.5 2.8 1.6 3 .3 1.9.4 5.3-2.1 7.1a5 5 0 0 1-3 1c0 2.8-.3 6-.5 8.1l-.2 2.3-.3.6H49Zm-1.5-1 1.4.1v.4h.3v-.1l.2-2.3c.2-2.2.5-5.5.6-8.4v-.3h.3c.9.2 2-.3 2.8-.8 2.3-1.7 2.2-4.9 1.9-6.6-.2-.8-.6-2.3-1.3-2.7h-.9c-1 .6-1 2-1 3.5.1 1.6.2 3.4-1.6 4H50v-.3c-.2-2-.5-2.7-.8-3a.5.5 0 0 0-.5-.1c-1.3.1-1.2 3.2-1.2 4.6a21.5 21.5 0 0 1 0 3.1l-.1.9h-.2c-1.5.3-2-1.8-2.3-3.6-.3-1.2-.5-2.4-1-2.7-.5-.3-1-.3-1.3-.1-.7.4-.9 1.9-.9 2.8.1 2 .7 4.6 2.7 5.8a5 5 0 0 0 2.7.7h.2v.2c0 2 .1 3.6.3 5Z"/>
    <path fill="#415B91" d="M52.7 149.9h-9a1 1 0 0 1-1-.8l-2.1-10.6.9-.2 2 10.6.1.1h9.2l2.1-10.7.9.2-2.1 10.6c0 .5-.5.8-1 .8Z"/>
    <path fill="#B6D0FB" d="M40.7 135h15.1c.3 0 .5.4.5.7v2.3c0 .4-.2.6-.5.6H40.7c-.3 0-.5-.3-.5-.6v-2.3c0-.3.2-.6.5-.6Z"/>
    <path fill="#405B91" d="M55.8 138.9H40.7c-.4 0-.7-.4-.7-.9v-2.3c0-.5.3-.9.7-.9h15.1c.4 0 .7.4.7 1v2.2c0 .5-.3.9-.7.9Zm-15.1-3.6-.2.4v2.3c0 .2 0 .4.2.4h15.1l.2-.4v-2.3c0-.2 0-.4-.2-.4H40.7Z"/>
    <path fill="#B6D0FB" d="M55.8 138.8H40.7c-.4 0-.7-.3-.7-.8v-2.3c0-.4.3-.8.7-.8h15.1c.4 0 .7.4.7.8v2.3c0 .5-.3.8-.7.8Zm-15.1-3.5c-.1 0-.3.2-.3.4v2.3c0 .3.2.4.3.4h15.1c.1 0 .3-.1.3-.4v-2.3c0-.2-.2-.4-.3-.4H40.7Z"/>
    <path fill="#405B91" d="M55.8 139H40.7a1 1 0 0 1-1-1v-2.3c0-.6.5-1 1-1h15.1c.5 0 1 .4 1 1v2.3c0 .6-.5 1-1 1Zm-15-3.5-.1.2v2.5h15.1v-2.7h-15Z"/>
    <path fill="#50AA50" d="m42.3 126 .8.1c.3 0 .2-.3 0-.4h-.8c-.2-.1-.2.3 0 .3Zm1.1-3.3v.4c0 .3.5.3.5 0v-.4c0-.2-.5-.2-.5 0Zm1.5 3.9.5-.3c.3-.1 0-.5-.2-.4l-.5.3c-.3.2 0 .5.2.4Zm-2.2 4.8.7-.4c.2-.2 0-.6-.2-.4l-.7.5c-.2.1 0 .5.2.3Zm-1.5-3.6.4.2c.3.1.4-.3.1-.4l-.4-.2c-.3 0-.4.3-.1.4Zm3 2h.2c.2.3.5 0 .3-.2a.7.7 0 0 0-.5-.3c-.3 0-.3.4 0 .5Zm.9 1.9.1.9c.1.2.5 0 .4-.3v-.4c0-.3-.4-.4-.5-.2Zm2.2.1.4.1c.2 0 .4-.3.1-.4h-.4c-.2-.2-.3.2 0 .3Zm1.4-4.1c0 .2 0 .4.2.6.2.2.5-.1.3-.3a.3.3 0 0 1-.1-.3c0-.3-.4-.3-.4 0Zm-.6-3v.5c0 .3.4.2.3 0v-.3c.3-.2-.1-.4-.3-.2Zm2.3 1.3v.3c0 .3.5.3.5 0v-.4c0-.3-.5-.3-.5 0Zm-3.9-.7.3.1c.2.2.4-.2.2-.3l-.3-.2c-.2-.2-.4.2-.2.4Zm.7-3.5.2.3c0 .3.4.3.4 0a1 1 0 0 0-.3-.6c-.2-.2-.4 0-.3.3Zm1.1-1.3v.6c0 .2.4.2.4 0v-.6c0-.3-.4-.3-.4 0Zm2.6 2.5.2.2c.1.2.4-.1.3-.3l-.2-.2c-.2-.2-.5 0-.3.3Zm.4-2.5h.5c.3 0 .3-.4 0-.4h-.5c-.3 0-.3.4 0 .4Zm.6-3.4.4.4c.2.2.4-.1.3-.3l-.4-.4c-.2-.2-.5.1-.3.3Zm1.6-1.1v.7c0 .3.4.3.4 0v-.7c0-.2-.4-.2-.4 0Zm.8 4 .1-.3c.2-.2-.2-.5-.3-.2l-.2.2c-.1.3.2.5.4.3Zm-1.5 4 .5-.1c.3-.1.2-.5-.1-.4l-.5.2c-.2 0-.1.5.1.4Zm1.9-.5.5-.1c.2 0 .1-.5-.1-.4h-.5c-.3.1-.2.5.1.5Zm-1.2 2c0 .3.4.3.4 0s-.4-.3-.4 0Zm-3.6 6.4.3-.2c.2-.2 0-.5-.2-.4l-.3.2c-.2.2 0 .5.2.4Zm-.2 1.5.5-.3c.3 0 .2-.4 0-.4-.4 0-.6.2-.8.4-.2.2 0 .5.3.3Zm-1.7.3v.2c.2.2.5 0 .4-.3l-.1-.1c-.1-.3-.5 0-.4.2Zm-1.7.4c.3.2.5.2.8.1.2 0 .1-.4-.2-.4h-.4c-.2-.2-.4.2-.2.3Zm3.5-4h.8c.3 0 .3-.5 0-.5l-.8.1c-.3 0-.3.5 0 .4Z"/>
    <path fill="#D7E7FF" d="m87.4 111.8 13.5-12.3c.7-.6-.3-1.6-1-1l-13.5 12.3c-.7.6.3 1.6 1 1Zm15.3 6.2 13.5-12.3c.7-.6-.3-1.5-1-1L101.7 117c-.7.6.3 1.6 1 1ZM86 122.6 114.4 95c.7-.6-.3-1.6-1-1l-28.3 27.7c-.7.7.3 1.7 1 1Z"/>
    <path fill="#415B91" d="M129.4 36.5h-.6v39h.6v-39Z"/>
    <path fill="#415B91" d="M131.6 75.6a2.5 2.5 0 1 1-5 0 2.5 2.5 0 0 1 5 0Z"/>
    <path fill="#415B91" d="M129.2 84s-.9 0-1.5-.7c-.4-.4-.6-1-.6-1.6 0-.2.2-.3.4-.3s.3.1.3.3c0 .5.1.9.4 1.2.4.3 1 .4 1 .4a1.7 1.7 0 0 0 0-3.4.3.3 0 0 1-.4-.3v-1.9c0-.1.2-.3.4-.3s.3.2.3.3v1.6a2.3 2.3 0 0 1-.3 4.6Z"/>
    <path fill="#415B91" d="M116.1 85.4a.3.3 0 0 1 0-.6l13.5-2 .3.3c0 .2 0 .3-.2.4l-13.5 2Z"/>
    <path fill="#415B91" d="m142 90-.2-.1-12.3-6.5a.3.3 0 1 1 .3-.5l12.3 6.4c.2.1.2.3.1.4 0 .2-.2.2-.3.2Z"/>
    <path fill="#fff" d="m145.3 90.5-32.9-5.7c-1.7-.3-3.4.9-3.7 2.6l-3.3 19c-.3 1.6.9 3.3 2.6 3.6l32.9 5.7c1.7.3 3.4-.9 3.7-2.6l3.3-19c.3-1.6-.9-3.3-2.6-3.6Z"/>
    <path fill="#415B91" d="M141.4 116.1h-.7l-32.6-5.7a3.7 3.7 0 0 1-3-4.3l3.2-18.7c.4-2 2.3-3.3 4.3-3l32.6 5.7a3.7 3.7 0 0 1 3 4.3L145 113c-.3 1.8-1.9 3-3.6 3Zm-29.4-31a3 3 0 0 0-2.9 2.5l-3.2 18.7a2.9 2.9 0 0 0 2.3 3.3l32.7 5.7c1.5.3 3-.8 3.3-2.4l3.2-18.7c.2-.7 0-1.5-.5-2.1a3 3 0 0 0-1.8-1.2l-32.7-5.7a3 3 0 0 0-.4 0Z"/>
    <path fill="#B6D0FB" d="m144.4 92.4-31.8-5.5a2 2 0 0 0-2.3 1.6l-3 17.3a2 2 0 0 0 1.6 2.3l31.8 5.6a2 2 0 0 0 2.3-1.7l3-17.3a2 2 0 0 0-1.6-2.3Z"/>
    <path fill="#405B91" d="M141 114h-.5l-31.5-5.4c-.7-.2-1.3-.5-1.7-1-.4-.6-.5-1.3-.4-2l3-17.1a2.5 2.5 0 0 1 2.9-2l31.6 5.4c1.3.3 2.2 1.6 2 3l-3 17.1a2.5 2.5 0 0 1-2.4 2Zm-.3-.8a1.7 1.7 0 0 0 1.9-1.3l3-17.2c.1-.9-.5-1.8-1.4-2l-31.5-5.4c-1-.2-1.8.4-2 1.3l-3 17.2a1.7 1.7 0 0 0 1.4 2l31.6 5.4Z"/>
    <path fill="#fff" d="m125.6 111 8.2-7.5 4.6 9.7-12.8-2.2Z"/>
    <path fill="#415B91" d="m138.8 113.6-13.8-2.4 9-8.2 4.8 10.6Zm-12.6-2.8 11.7 2-4.2-8.8-7.5 6.8Z"/>
    <path fill="#fff" d="M109.4 108.2 123.9 95l8 17.2-22.5-3.9Z"/>
    <path fill="#415B91" d="m132.5 112.5-23.7-4.1 15.2-14 8.5 18.1ZM110 108l21.5 3.8-7.7-16.5L110 108Z"/>
    <path fill="#fff" d="M141.2 97.4a2 2 0 1 1-4-.7 2 2 0 0 1 4 .7Z"/>
    <path fill="#415B91" d="M139.2 99.4h-.4a2.3 2.3 0 1 1 .4 0Zm0-4.1a1.8 1.8 0 1 0 .3 0 2 2 0 0 0-.3 0Z"/>
    <path fill="#B6D0FB" d="M154.3 35.2h-30.5v3.3h30.5v-3.3Z"/>
    <path fill="#415B91" d="M180.8 104.6h-10.1V15h10v89.6Zm-9.1-1h8V16h-8v87.6Z"/>
    <path fill="#415B91" d="M180.7 24.9h-10V15h10v9.9Zm-8.9-1h7.8V16h-7.8v8Z"/>
    <path fill="#415B91" d="m171.7 15.1-.8.8 8.9 8.8.7-.7-8.8-8.9Z"/>
    <path fill="#415B91" d="m179.8 15.2-8.9 8.8.8.7 8.8-8.8-.7-.7Z"/>
    <path fill="#415B91" d="M180.7 33.7h-10V24h10v9.8Zm-8.9-1h7.8V25h-7.8v7.8Z"/>
    <path fill="#415B91" d="m171.7 24-.8.7 8.9 8.9.7-.7-8.8-8.9Z"/>
    <path fill="#415B91" d="m179.8 24-8.9 8.9.8.7 8.8-8.9-.7-.7Z"/>
    <path fill="#415B91" d="M180.7 42.6h-10v-9.9h10v9.9Zm-8.9-1h7.8v-7.9h-7.8v7.9Z"/>
    <path fill="#415B91" d="m171.7 32.9-.8.7 8.9 8.8.7-.7-8.8-8.8Z"/>
    <path fill="#415B91" d="m179.8 32.9-8.9 8.8.8.7 8.8-8.8-.7-.7Z"/>
    <path fill="#415B91" d="M180.7 51.4h-10v-9.8h10v9.8Zm-8.9-1h7.8v-7.8h-7.8v7.8Z"/>
    <path fill="#415B91" d="m171.7 41.7-.8.7 8.9 8.9.7-.7-8.8-8.9Z"/>
    <path fill="#415B91" d="m179.8 41.7-8.9 8.9.8.7 8.8-8.9-.7-.7Z"/>
    <path fill="#415B91" d="M180.7 60.3h-10v-9.9h10v9.9Zm-8.9-1h7.8v-7.9h-7.8v7.9Z"/>
    <path fill="#415B91" d="m171.7 50.6-.8.7 8.9 8.9.7-.8-8.8-8.8Z"/>
    <path fill="#415B91" d="m179.8 50.6-8.9 8.8.8.8 8.8-8.9-.7-.7Z"/>
    <path fill="#415B91" d="M180.7 69.2h-10v-10h10v10Zm-8.9-1h7.8v-7.9h-7.8v7.9Z"/>
    <path fill="#415B91" d="m171.7 59.4-.8.8 8.9 8.8.7-.7-8.8-8.9Z"/>
    <path fill="#415B91" d="m179.8 59.4-8.9 8.9.8.7 8.8-8.8-.7-.8Z"/>
    <path fill="#415B91" d="M180.7 78h-10v-9.8h10V78Zm-8.9-1h7.8v-7.8h-7.8V77Z"/>
    <path fill="#415B91" d="m171.7 68.3-.8.7 8.9 8.9.7-.7-8.8-9Z"/>
    <path fill="#415B91" d="m179.8 68.3-8.9 8.9.8.7 8.8-8.9-.7-.7Z"/>
    <path fill="#415B91" d="M180.7 86.9h-10V77h10v10Zm-8.9-1h7.8V78h-7.8v8Z"/>
    <path fill="#415B91" d="m171.7 77.2-.8.7 8.9 8.8.7-.7-8.8-8.8Z"/>
    <path fill="#415B91" d="m179.8 77.2-8.9 8.8.8.7 8.8-8.8-.7-.7Z"/>
    <path fill="#415B91" d="M180.7 95.7h-10V86h10v9.8Zm-8.9-1h7.8V87h-7.8v7.8Z"/>
    <path fill="#415B91" d="m171.7 86-.8.7 8.9 8.9.7-.7-8.8-8.9Z"/>
    <path fill="#415B91" d="m179.8 86-8.9 8.9.8.7 8.8-8.9-.7-.7Z"/>
    <path fill="#415B91" d="M180.7 104.6h-10v-9.9h10v9.9Zm-8.9-1h7.8v-7.9h-7.8v7.9Z"/>
    <path fill="#415B91" d="m171.7 94.9-.8.7 8.9 8.8.7-.7-8.8-8.8Z"/>
    <path fill="#415B91" d="m179.8 94.9-8.9 8.8.8.7 8.8-8.8-.7-.7Zm18.5-61.3h-9.9v-9.9h9.9v9.9Zm-8.9-1h7.9v-7.9h-7.9v7.9Z"/>
    <path fill="#415B91" d="m197.4 23.9-8.8 8.8.7.8 8.8-9-.7-.6Z"/>
    <path fill="#415B91" d="m189.3 23.9-.7.7 8.8 8.8.7-.7-8.8-8.8Z"/>
    <path fill="#415B91" d="M189.4 33.6h-9.8v-9.9h9.8v9.9Zm-8.8-1h7.8v-7.9h-7.8v7.9Z"/>
    <path fill="#415B91" d="m188.6 23.9-8.9 8.8.7.7 8.9-8.8-.7-.7Z"/>
    <path fill="#415B91" d="m180.4 23.9-.7.7 8.8 8.8.8-.7-8.9-8.8Z"/>
    <path fill="#415B91" d="M180.6 33.6h-9.9v-9.9h9.9v9.9Zm-8.9-1h7.9v-7.9h-7.9v7.9Z"/>
    <path fill="#415B91" d="M171.7 33.6h-9.9v-9.9h10v9.9Zm-8.8-1h7.8v-7.9h-7.8v7.9Z"/>
    <path fill="#415B91" d="m170.8 23.9-8.8 8.8.7.7 8.9-8.8-.8-.7Z"/>
    <path fill="#415B91" d="m162.7 23.9-.7.7 8.8 8.9.8-.8-8.9-8.8Z"/>
    <path fill="#415B91" d="M162.9 33.6H153v-9.9h9.9v9.9Zm-8.9-1h7.8v-7.9H154v7.9Z"/>
    <path fill="#415B91" d="m162 23.9-8.9 8.8.8.7 8.8-8.8-.7-.7Z"/>
    <path fill="#415B91" d="m153.9 23.9-.8.7 8.9 8.8.7-.7L154 24Z"/>
    <path fill="#415B91" d="M154 33.6h-9.9v-9.9h9.9v9.9Zm-8.8-1h7.8v-7.9h-7.8v7.9Z"/>
    <path fill="#415B91" d="M144.6 33.6h-8.8a.5.5 0 0 1-.4-.9l8.9-8.8.7.7-8 8h7.4l8.7-8.7.8.7-8.9 8.9-.4.1Z"/>
    <path fill="#415B91" d="m145 23.9-.7.7 8.8 8.8.8-.7L145 24Zm35.8 90.6h-10.1v-10h10.1v10Zm-9-1h8v-7.9h-8v7.8Z"/>
    <path fill="#415B91" d="m180 114.3-9.2-8.8.8-.8 9 8.9-.7.7Z"/>
    <path fill="#415B91" d="m171.6 114.3-.8-.7 9.1-8.9.8.8-9.1 8.8Zm9.2 35.6h-10.1V140h10.1v9.9Zm-9-1h8V141h-8v7.9Z"/>
    <path fill="#415B91" d="m180 149.7-9.2-8.8.8-.7 9 8.8-.7.7Z"/>
    <path fill="#415B91" d="m171.6 149.7-.8-.7 9.1-8.8.8.7-9.1 8.8Zm9.2-27.2h-10.1v-9.9h10.1v9.9Zm-9-1h8v-7.9h-8v7.9Z"/>
    <path fill="#415B91" d="m180 122.3-9.2-8.8.8-.7 9 8.8-.7.7Z"/>
    <path fill="#415B91" d="m171.6 122.3-.8-.7 9.1-8.8.8.7-9.1 8.8Z"/>
    <path fill="#415B91" d="M180.8 131.3h-10.1v-9.8h10.1v9.8Zm-9-1h8v-7.8h-8v7.8Z"/>
    <path fill="#415B91" d="m180 131.2-9.2-8.9.8-.7 9 8.9-.7.7Z"/>
    <path fill="#415B91" d="m171.6 131.2-.8-.7 9.1-8.9.8.7-9.1 8.9Z"/>
    <path fill="#415B91" d="M180.8 140.2h-10.1v-9.9h10.1v9.9Zm-9-1h8v-7.9h-8v7.9Z"/>
    <path fill="#415B91" d="m180 140-9.2-8.8.8-.7 9 8.8-.7.7Z"/>
    <path fill="#415B91" d="m171.6 140-.8-.7 9.1-8.8.8.7-9.1 8.8Z"/>
    <path fill="#405B91" d="M67.6 68.7c1 0 1-1.7 0-1.7s-1 1.7 0 1.7Zm91-17.5c1 0 1-1.7 0-1.7s-1 1.7 0 1.7Zm37.7 60.1h.3c.5 0 .9-.4.9-.9 0-.4-.4-.8-.9-.8h-.3c-.5 0-.9.4-.9.8 0 .5.4.9.9.9ZM34.4 123.6c1 0 1.1-1.7 0-1.7-1 0-1 1.7 0 1.7ZM114.6 43c1 0 1-1.7 0-1.7s-1 1.7 0 1.7Z"/>
  </g>
  <path fill="#1E40AF" d="M33 175.2a50.7 50.7 0 0 1 0-3c1.5 0 2.6 0 3.3-.2.8-.2 1.3-.4 1.7-.8a4 4 0 0 0 1-1.6l2 .2c-.3.6-.4 1.1-.4 1.4l.2.6.7.2.1 1.5-.1 1.5a2.7 2.7 0 0 1-2.1-1 2 2 0 0 1-.4-1.2l.3.1a5.6 5.6 0 0 1-3.6 2.1l-2.7.2Zm-3.7-6a147.7 147.7 0 0 0-.4 1.8c0 .2.2.4.6.6.3.2.8.3 1.4.4.7.2 1.4.2 2.3.2a23.1 23.1 0 0 1 0 3c-1.3 0-2.4-.1-3.4-.4a5 5 0 0 1-2.2-1.2 3 3 0 0 1-.9-2.3c0-.5 0-1 .2-1.5l.5-1.6 1.9 1Zm3-3 1.6 1.6-1 1-.5.5-.5-.5-1-1 1.5-1.6Zm2.9 0 1.5 1.6-1 1-.5.5-.5-.5-1-1 1.5-1.6Zm15 5.8c.4 0 .7 0 1-.2.2-.2.4-.3.4-.6l1.8.2c0 .7-.2 1.3-.5 1.8-.3.6-.7 1-1.1 1.3a3 3 0 0 1-1.6.5v-3Zm4.5 0 .1 1.5-.2 1.5c-.7 0-1.3-.2-1.8-.7-.5-.4-.9-1-1.2-2l-.5-2.6 2-.6a93 93 0 0 0 .4 2.3c0 .2.2.4.4.4l.7.2Zm-8.8 3v-3h.1c.5 0 .9-.2 1.1-.7l.6-1.8 2 .1a21 21 0 0 0-.2 1.5c0 .2 0 .5.2.6 0 .2.3.3.6.3l.2 1.5-.2 1.5c-.6 0-1-.1-1.5-.4a4 4 0 0 1-1-1.2h.6c-.4.6-.8 1-1.1 1.2a2 2 0 0 1-1.3.4Zm-4.5 0-.2-1.5.2-1.5c.3 0 .6 0 1-.2l.6-.4c.3-.4.6-1 .8-1.8l2 .2a44.2 44.2 0 0 0-.3 1.6c0 .4.1.6.5.6l.2 1.5-.2 1.5c-.5 0-.9-.1-1.3-.3-.3-.2-.6-.5-.8-.9l-1.1 1-1.4.2Zm13-3h.2l2-.1a2 2 0 0 0 .9-.4l.3-.6-.2-1.6 2-.4.2 2.7.3.3h.7l.2 1.6-.1 1.5h-.1c-.5 0-1-.1-1.3-.4-.5-.2-.8-.5-1.1-.9l.4.1c-.3.4-.8.7-1.5 1l-2.7.2h-.1v-3Zm-.1 4.3 1.5 1.5-1 1-.5.5-.5-.5-1-1 1.5-1.5Zm2.7 0 1.5 1.5-1 1-.5.5-.5-.5-1-1 1.5-1.5Zm3.7-4.3h.9c1.3 0 2-.3 2-.8l-.4-1.2-.5-1.4 2-1.2a13.7 13.7 0 0 1 1 4c0 1.2-.4 2-1 2.7a5 5 0 0 1-3.1.9h-.9v-3Zm.7-6.6 1.7-1.8 1.7 1.8L63 167l-1.7-1.6ZM85 172c.2 0 .4 0 .6-.2.2-.2.2-.4.2-.5 0-.4-.2-1.3-.8-2.7l2-1.1a11.4 11.4 0 0 1 1 3.9c0 .7-.2 1.3-.5 1.8-.2.6-.6 1-1 1.3-.4.3-1 .5-1.5.5v-3Zm-4.4 3v-3h.1c.5 0 .9-.2 1.1-.7.2-.5.4-1 .5-1.8l2 .1a21 21 0 0 0-.2 1.5l.2.6.6.3h.1l.2 1.5-.2 1.5c-.6 0-1-.1-1.5-.4a4 4 0 0 1-1-1.2h.6c-.4.6-.8 1-1.1 1.2a2 2 0 0 1-1.3.4Zm-1.3-4.4.4.9.4.4h.8l-.2 3.1c-.7 0-1.4-.3-2-.9-.5-.6-.9-1.4-1.2-2.4l1.8-1.1Zm-7.2.8-.6 1.7-.2 1.4c0 1.5 1 2.2 3 2.2.8 0 1.4 0 1.9-.3a3 3 0 0 0 1.3-.9c.3-.4.4-.8.4-1.2 0-.5-.3-1.7-1-3.7l2-1.2a15.3 15.3 0 0 1 1 4.9 5.4 5.4 0 0 1-5.5 5.4c-1 0-2-.2-2.7-.5-.8-.4-1.4-1-1.9-1.7a5 5 0 0 1-.6-2.6v-.6a9 9 0 0 1 1.1-3.7l1.8.8ZM94 175c-.8 0-1.5-.3-2-.9a7 7 0 0 1-1.2-2.4l1.8-1.1c.1.5.3.9.5 1 .2.3.5.4.9.4h.1l.2 1.5-.2 1.5H94Zm-6.8 2.2a14.9 14.9 0 0 0 3.4-2.1c.3-.3.5-.6.5-.8 0-.4-.3-1.7-1-3.8l2.2-.9a14.3 14.3 0 0 1 .8 4.7c0 1.1-.4 2.1-1.2 3a9 9 0 0 1-3.5 2.4l-1.2-2.5ZM94 172l2-.1a2 2 0 0 0 1-.4l.2-.6-.1-1.6 2-.4.2 2.7.3.3h.7l.2 1.6-.1 1.5h-.1c-.5 0-1-.1-1.4-.4-.4-.2-.7-.5-1-.9l.4.1c-.3.4-.8.7-1.5 1l-2.7.2H94v-3Zm1-7.1 1.5 1.5-1 1-.5.5-.5-.5-1-1 1.5-1.5Zm2.8 0 1.5 1.5-1 1-.5.5-.5-.5-1-1 1.5-1.5Zm11.4 7 .6-.1c.2-.2.2-.4.2-.5 0-.4-.3-1.3-.8-2.7l2-1.1a11.5 11.5 0 0 1 1 3.9c0 .7-.2 1.3-.5 1.8-.2.6-.6 1-1 1.3a3 3 0 0 1-1.5.5v-3Zm-4.4 3.1v-3h.1c.5 0 .9-.2 1.1-.7.2-.5.4-1 .5-1.8l2 .1a19.4 19.4 0 0 0-.2 1.5l.2.6.6.3.3 1.5-.2 1.5c-.6 0-1-.1-1.5-.4a4 4 0 0 1-1-1.2h.6c-.4.6-.8 1-1.1 1.2a2 2 0 0 1-1.3.4Zm-4.6 0-.1-1.5.1-1.5h.1c.3 0 .6 0 1-.2l.6-.4c.3-.4.6-1 .8-1.8l2 .2a36.6 36.6 0 0 0-.3 1.6c0 .4.1.6.5.6l.2 1.5-.2 1.5c-.5 0-1-.1-1.3-.3-.3-.2-.6-.5-.8-.9a4 4 0 0 1-1.2 1l-1.3.2Zm13.9-3.4 1.1.5 1.4.1 1.4-.1.8-.3c-.3-1-1.4-2.2-3.4-3.5l1.5-2.7c1.2.9 2.2 1.9 3 3a5 5 0 0 1 1.1 3.1c0 .5 0 1-.2 1.4a3 3 0 0 1-1.5 1.5 6 6 0 0 1-2.4.5 6 6 0 0 1-3.8-1.4l1-2Zm8.4 5.6a14.8 14.8 0 0 0 3.4-2.1c.3-.3.5-.6.5-.8 0-.4-.3-1.7-1-3.8l2.2-.9a14.3 14.3 0 0 1 .8 4.7c0 1.1-.4 2.1-1.2 3-.8 1-2 1.8-3.5 2.4l-1.2-2.5Zm8-5.6 1 .5 1.5.1 1.4-.1.8-.3c-.3-1-1.5-2.2-3.4-3.5l1.4-2.7c1.3.9 2.3 1.9 3 3a5 5 0 0 1 1.2 3.1c0 .5 0 1-.3 1.4a3 3 0 0 1-1.5 1.5 6 6 0 0 1-6.2-.8l1-2.2Zm26 .4c.3 0 .5 0 .7-.2l.3-.5c0-.4-.3-1.3-1-2.7l2-1.1a11.5 11.5 0 0 1 1 3.9c0 .7 0 1.3-.3 1.8-.3.6-.6 1-1 1.3a3 3 0 0 1-1.6.5v-3Zm-4.2 3v-3c.5 0 1-.2 1.1-.7l.6-1.8 2 .1a19.4 19.4 0 0 0-.2 1.5c0 .2 0 .5.2.6.1.2.3.3.6.3l.2 1.5-.2 1.5c-.6 0-1-.1-1.5-.4a4 4 0 0 1-1-1.2h.6c-.4.6-.7 1-1.1 1.2a2 2 0 0 1-1.3.4Zm-1.4-4.4.4.9.4.4h.8l-.2 3.1c-.7 0-1.4-.3-1.9-.9-.5-.6-1-1.4-1.3-2.4l1.8-1.1Zm-7.1.8-.7 1.7-.2 1.4c0 1.5 1 2.2 3.1 2.2.7 0 1.3 0 1.8-.3a3 3 0 0 0 1.3-.9c.3-.4.5-.8.5-1.2 0-.5-.4-1.7-1.2-3.7l2-1.2a15.4 15.4 0 0 1 1.2 4.9 5.4 5.4 0 0 1-5.6 5.4c-1 0-1.9-.2-2.7-.5-.8-.4-1.4-1-1.8-1.7a5 5 0 0 1-.7-2.6v-.6c0-1 .5-2.3 1.1-3.7l1.9.8Zm14.8 5.8a15 15 0 0 0 3.4-2.1c.3-.3.5-.6.5-.8 0-.4-.3-1.7-1-3.8l2.2-.9a14.5 14.5 0 0 1 .8 4.7c0 1.1-.4 2.1-1.2 3-.8 1-2 1.8-3.5 2.4l-1.2-2.5Zm8-5.6 1.1.5 1.4.1 1.4-.1.8-.3c-.3-1-1.4-2.2-3.4-3.5l1.4-2.7c1.3.9 2.3 1.9 3 3a5 5 0 0 1 1.2 3.1c0 .5 0 1-.3 1.4a3 3 0 0 1-1.5 1.5 6 6 0 0 1-6.2-.8l1-2.2Zm26 .4c.4 0 .7 0 1-.2.2-.2.4-.3.4-.6l1.8.2c0 .7-.2 1.3-.5 1.8-.3.6-.6 1-1.1 1.3a3 3 0 0 1-1.5.5v-3Zm4.5 0 .1 1.5-.2 1.5c-.7 0-1.3-.2-1.8-.7-.5-.4-.9-1-1.2-2a30 30 0 0 1-.5-2.6l2-.6a100.2 100.2 0 0 0 .4 2.3c.1.2.2.4.4.4l.7.2Zm-8.7 3v-3c.6 0 1-.2 1.1-.7l.6-1.8 2 .1a21.7 21.7 0 0 0-.2 1.5c0 .2 0 .5.2.6.1.2.3.3.6.3l.2 1.5-.2 1.5c-.6 0-1-.1-1.5-.4-.4-.3-.7-.7-.9-1.2h.5c-.4.6-.7 1-1.1 1.2a2 2 0 0 1-1.3.4Zm-1.4-4.4.4.9.4.4h.8l-.2 3.1c-.7 0-1.4-.3-1.9-.9-.5-.6-1-1.4-1.3-2.4l1.8-1.1Zm-7.1.8a20 20 0 0 0-.7 1.7l-.2 1.4c0 1.5 1 2.2 3.1 2.2.7 0 1.3 0 1.8-.3a3 3 0 0 0 1.3-.9c.3-.4.5-.8.5-1.2 0-.5-.4-1.7-1.1-3.7l2-1.2a15.3 15.3 0 0 1 1 4.9 5.4 5.4 0 0 1-5.5 5.4c-1 0-1.9-.2-2.7-.5-.8-.4-1.4-1-1.8-1.7a5 5 0 0 1-.7-2.6v-.6c0-1 .5-2.3 1.1-3.7l1.9.8Zm22-2.2 1.4 1.8c.3.4.6.6 1 .8l.8.2h.3l.2 1.5-.2 1.5h-.3c-.5 0-1-.1-1.4-.4-.5-.3-1-.8-1.4-1.3l-1.7-2.4 1.3-1.7Zm2.6-4L200 167a16 16 0 0 1 1.8 2 4 4 0 0 1 1 2.7v.5a3 3 0 0 1-1.8 2.1 8 8 0 0 1-3.6.7h-.6v-3h.6c.8 0 1.5 0 2-.2.7 0 1-.2 1.3-.4a13 13 0 0 0-3.4-3.6l.3-2.6 6-2.5.8 2.4Zm.7 6.8h.2c3.4 0 5.9-.3 7.6-.8l.5 2.6c-.9.4-2 .7-3.3.9-1.4.2-3 .3-4.8.3h-.2v-3Zm5.5 2.3h-.3c-.7 0-1.4 0-2-.4a3.5 3.5 0 0 1-2.1-3.3c0-.7 0-1.3.4-2 .4-.6.8-1 1.4-1.5.6-.3 1.2-.5 1.9-.5.5 0 1 .1 1.6.4.6.2 1 .5 1.5.9l-1 2a6.4 6.4 0 0 0-2.3-.3 2.7 2.7 0 0 0-1.4.6l-.2.4c0 .2.1.4.3.5l.7.5a3 3 0 0 0 1.3.1l.2 2.6Z"/>
  <path fill="#60A5FA" d="M158 207.2V202h-24.5v13.1h20.1v2.7h-36.3V202h-4.4v21H158v-13.1h-20.1v-2.7H158Zm-56.3-5.2h-4.5v5.2h4.5V202Zm-11 15.8h-4.4v5.2h4.4v-5.2Zm17.6-15.8h-4.4v5.2h4.4V202Z"/>
  <path fill="#60A5FA" d="M103.9 217.8h-2.2v-7.9H94V202h-4.4v7.9h-2.2V202H83v13.1h14.2v7.9h11.1v-13.1h-4.4v7.9Z"/>
  <defs>
    <clipPath id="a">
      <path fill="#fff" d="M0 0h216v136H0z" transform="translate(12 15)"/>
    </clipPath>
  </defs>
</svg>