<svg xmlns="http://www.w3.org/2000/svg" fill="none" viewBox="0 0 100 100">
  <path  d="M47.2 24.4c1.2.3 2.3-.4 3.4-1.5 2.7-2.6 6-4.1 9.6-4.7a18 18 0 0 1 16.9 6A18 18 0 0 1 81.9 35a18.6 18.6 0 0 1-5.8 15.4c-.3.4-.5.8-.5 1.3a29.6 29.6 0 0 1-4.2 16.6 2.5 2.5 0 0 1-3.4 1 2.5 2.5 0 0 1-.9-3.6c2-3.2 3.1-6.6 3.5-10.4.1-1.1.1-1.1-1-.8-1 .4-2.2.8-3.4 1-.5 0-.7.2-.8.7-.7 4.5-2.8 8.2-6.2 11.1A18.3 18.3 0 0 1 48.3 72c-4.8.4-9.2-1-13-3.9a18.2 18.2 0 0 1-7.2-13c-.5-5.2 1-9.9 4.3-13.9 2.9-3.5 6.6-5.6 11-6.5 1.2-.2 1 0 1.2-1.2l1-3.4c.2-.5.1-.7-.4-.7a23.4 23.4 0 0 0-16 7.8 23.4 23.4 0 0 0-6 12.8 23 23 0 0 0 2.6 14.5 23.7 23.7 0 0 0 33.5 9.1c1.3-.8 2.8-.4 3.6.8.7 1.2.3 2.7-1 3.5a28.6 28.6 0 0 1-43.7-21c-.9-7.7 1-14.7 5.5-21a28.2 28.2 0 0 1 23.5-11.4ZM46.9 67h1.3a13.9 13.9 0 0 0 12.2-10.9c0-.4 0-.6-.5-.7a19 19 0 0 1-15.3-15c-.1-1-.1-1-1-.7-4.2 1-7.3 3.5-9.2 7.4A13.6 13.6 0 0 0 37 62.9c2.7 2.8 6 4.1 9.9 4Zm2.4-30v1c.2 2.3 1 4.3 2.1 6.2.3.5.5.5.9 0L70.5 26c.6-.5.6-.6 0-1a13.6 13.6 0 0 0-9-2 14 14 0 0 0-12.2 14Zm13.9 13.6h1.6a13.9 13.9 0 0 0 10.3-20.8c-.5-.7-.5-.7-1-.2l-6.9 6.8-11.4 11.4c-.4.4-.3.6.1.8a13 13 0 0 0 7.3 2Z"/>
  <defs>
    <linearGradient id="a" x1="18" x2="75.8" y1="50" y2="50" gradientUnits="userSpaceOnUse">
      <stop stop-color="#71AFFB"/>
      <stop offset="1" stop-color="#347ED9"/>
    </linearGradient>
  </defs>
</svg>
