<svg xmlns="http://www.w3.org/2000/svg" fill="none" viewBox="0 0 48 44">
  <g fill="#fff" clip-path="url(#a)">
    <path d="m34.3 34.8 4.2 5.8.7 1a1.6 1.6 0 0 1-1 2.3H10.1l-.3-.3a1.9 1.9 0 0 1-.9-2.1l.2-.3c1.1-1.7 2.4-3.4 3.7-5.1l.9-1.2h-10c-2.3 0-3.7-1.5-3.7-3.7V3.7C0 1.5 1.4 0 3.6 0h40.8C46.6 0 48 1.5 48 3.7v27.5c0 2.3-1.4 3.6-3.7 3.6h-10ZM24 29.4h7.3c1.8 0 3-1.3 3-3.1a9 9 0 0 0-6.7-8.6c-1.5-.4-3.1-.5-4.7-.5a9.2 9.2 0 0 0-9.2 8.8c0 2.1 1 3.4 3.2 3.4h7Zm10.6 11.4-4.1-5.6c-.2-.2-.6-.3-.9-.4H18.4c-.4 0-.8.3-1 .6l-3 4-1 1.4h21.2Zm-16-29.9a5.4 5.4 0 1 0 10.8.2 5.4 5.4 0 0 0-10.8-.2Z"/>
    <path d="M31 26.2H17c-.2-2.4 1.8-5 4.5-5.5 1.7-.3 3.4-.3 5.1 0 2.6.4 4.5 3 4.4 5.5ZM24 8.7a2.2 2.2 0 0 1 2.2 2.2 2.2 2.2 0 1 1-4.4.1A2.2 2.2 0 0 1 24 8.7Z"/>
  </g>
  <defs>
    <clipPath id="a">
      <path fill="#fff" d="M0 0h48v44H0z"/>
    </clipPath>
  </defs>
</svg>