<svg xmlns="http://www.w3.org/2000/svg" viewBox="0 0 22 27">
  <g fill="currentColor" clip-path="url(#a)">
    <path d="M11 27H5a5 5 0 0 1-5-5.2V5.2C0 2.8 1.5.9 3.4.2L5 0h6c2 0 3.8.7 5.3 2.3L19.8 6a7.3 7.3 0 0 1 2.2 5.3v10.6a5 5 0 0 1-5 5.1h-6ZM1 13.5a10511.5 10511.5 0 0 0 0 9.2c.5 1.9 2 3.2 3.9 3.2h12a4 4 0 0 0 3.9-4V10.4c0-.2-.2-.3-.4-.3H15c-.9 0-1.6-.3-2.1-1-.5-.5-.7-1.2-.7-2V1.6c0-.2 0-.3-.2-.3H5a3.9 3.9 0 0 0-3.9 4v8.3ZM20.5 9l-.1-.2a6 6 0 0 0-1.2-1.9L16 3.8l-1.7-1.6c-.3-.3-.8-.4-1.2-.7v6.2c.2.8.9 1.3 1.7 1.3h5.6Z"/>
    <path d="M8.8 18v-2.1c0-.8.5-1.3 1.2-1.3h1.4c1 .3 1.8 1.2 1.8 2.3V19c0 1.3-1 2.2-2.2 2.3h-1c-.7 0-1.2-.5-1.2-1.2V18Zm1.1 2.2h1.3c.5 0 .9-.5.9-1v-2.4c0-.6-.5-1-1-1H10v4.4Zm-5.5-1.1v1.7c0 .4-.3.6-.6.6-.1 0-.2 0-.3-.2l-.2-.3v-5c0-.9.6-1.3 1.3-1.3l1.5.1C7 15 7.7 16 7.7 17a2.3 2.3 0 0 1-2.4 2.2h-.9Zm0-1.1h1.2c.5 0 1-.5 1-1 0-.6-.3-1-.8-1.2H4.4V18Zm9.9.2v-2.4c0-.7.5-1.2 1.1-1.2h2.7c.4 0 .7.4.6.8-.1.2-.3.4-.6.4h-2.4c-.2 0-.3 0-.3.2v1.8c0 .2 0 .2.2.2H17c.5 0 .7.4.5.8 0 .3-.3.3-.5.3h-1.4c-.1 0-.2 0-.2.3v1.4c0 .3-.2.5-.4.6-.4 0-.7-.2-.7-.6v-2.6Z"/>
  </g>
  <defs>
    <clipPath id="a">
      <path fill="#fff" d="M0 0h22v27H0z"/>
    </clipPath>
  </defs>
</svg>