<svg viewBox="0 0 20 28" fill="currentColor" xmlns="http://www.w3.org/2000/svg">
    <path d="M5.36481 18.1672C5.27897 17.9175 5.17883 17.5741 5.06438 17.1371C4.97854 16.6689 4.93562 16.1695 4.93562 15.6388C4.93562 14.3902 5.27897 13.4537 5.96567 12.8294C6.65236 12.2051 7.73963 11.893 9.22747 11.893H11.8884C12.804 11.893 13.4335 11.6589 13.7768 11.1906C14.1488 10.7224 14.3348 10.0045 14.3348 9.03679V6.88294C14.3062 6.07135 14.1059 5.47826 13.7339 5.10368C13.3619 4.7291 12.7182 4.54181 11.8026 4.54181H8.15451C6.40916 4.54181 4.92132 4.65106 3.69099 4.86957C2.46066 5.08807 1.51645 5.29097 0.858369 5.47826L0 1.40468C0.658083 0.967671 1.68813 0.624304 3.09013 0.374583C4.49213 0.124861 6.32332 0 8.58369 0H12.5751C15.1788 0 17.0672 0.639911 18.2403 1.91973C19.4134 3.19955 20 4.80714 20 6.74248V9.69231C20 11.6901 19.4421 13.2352 18.3262 14.3278C17.2389 15.4203 15.7654 15.9666 13.9056 15.9666H10.6867C9.94278 15.9666 9.42775 16.1382 9.14163 16.4816C8.85551 16.825 8.65522 17.3868 8.54077 18.1672H5.36481ZM6.99571 28C5.93705 28 5.16452 27.7659 4.67811 27.2977C4.1917 26.8294 3.9485 26.0491 3.9485 24.9565C3.9485 23.8328 4.1774 23.0524 4.63519 22.6154C5.1216 22.1472 5.90844 21.913 6.99571 21.913C8.08298 21.913 8.86981 22.1472 9.35622 22.6154C9.84263 23.0524 10.0858 23.8328 10.0858 24.9565C10.0858 26.0178 9.84263 26.7982 9.35622 27.2977C8.86981 27.7659 8.08298 28 6.99571 28Z" fill="#60A5FA"/>
</svg>
