<svg xmlns="http://www.w3.org/2000/svg" viewBox="0 0 24 24" fill="currentColor">
  <g clip-path="url(#a)">
    <path d="M9.5 11.3v11.5h9.7c.3 0 .5.3.5.6s-.2.6-.5.6H.5a.6.6 0 0 1-.5-.7c0-.3.3-.5.6-.5h2.1v-6l-1 .1A2 2 0 0 1 0 15V9.8c0-1.6 1.4-3.1 3-3.2.8 0 1.4.2 2 .6l.4.4c.4.3 1 .3 1.4 0l1-.8.5-.2c.6 0 1.3 0 1.9.2.5.2 1 .5 1.4.9l1 1 .4.1h2.2c.3.3.5.1.7-.1l2.6-3 .6-.2c.3.1.4.3.5.5 0 .2 0 .4-.2.6l-2.5 2.8c-.3.3-.4.5-.3 1 .4 1-.5 2.3-1.7 2.4h-3c-.6 0-1-.3-1.5-.7l-.9-.9Zm-4 11.5v-7.5c0-.3.2-.5.5-.6.3 0 .5.1.6.4l.1.4v7.3h1.5V11.2c0-.5.3-1 .9-1.1.5-.2 1 0 1.3.3l.9.9c.2.2.4.3.7.3h3c.3-.2.5-.5.5-.9s-.4-.7-.8-.7h-2c-.3 0-.6 0-.9-.4l-1-1c-.6-.6-1.4-.9-2.3-.8l-.2.1-.8.7c-.9.6-2 .6-2.8 0L4 7.9l-.3-.1c-1.4-.1-2.4.8-2.4 2.2v5.1c.1.4.5.7.9.6.3 0 .6-.3.6-.7v-4.4c0-.4.4-.7.8-.5.3 0 .5.3.5.6v12.1h1.5Z"/>
    <path d="M24 8v6c0 1.2-.8 2-2 2H11.5c-.5 0-.8-.3-.8-.7 0-.4.2-.6.8-.6H22c.6 0 .8-.2.8-.8V2c0-.6-.2-.8-.8-.8H10a.6.6 0 0 1-.5-.5c0-.3.2-.6.5-.7h12c1.1 0 1.9.8 1.9 2v6ZM6.1 0a3 3 0 0 1 3 3 3 3 0 1 1-3-3Zm0 4.7c1 0 1.7-.8 1.7-1.8S7 1.2 6.1 1.2C5 1.2 4.4 2 4.4 3S5 4.7 6 4.7Z" />
    <path d="M15.8 2.8H19c.6 0 .9.4.6.9-.1.2-.4.3-.6.3h-6.2c-.4 0-.7-.3-.6-.8 0-.3.3-.4.7-.4h3Zm-1.5 2.7h1.5c.3 0 .5.1.6.4l-.1.6-.5.2h-3c-.5 0-.7-.2-.7-.6 0-.3.2-.6.7-.6h1.5Z" />
  </g>
  <defs>
    <clipPath id="a">
      <path fill="#fff" d="M0 0h24v24H0z"/>
    </clipPath>
  </defs>
</svg>