<svg xmlns="http://www.w3.org/2000/svg" fill="none" viewBox="0 0 47 44">
  <path fill="#E6E6E6"
    d="M43.4 43.3H3a3 3 0 0 1-2.9-3V3A3 3 0 0 1 3 0h40.4a3 3 0 0 1 3 3v37.4a3 3 0 0 1-3 2.9Z" />
  <path fill="#fff"
    d="M35 41.3H5a3 3 0 0 1-3-3V5a3 3 0 0 1 3-3h36.5a3 3 0 0 1 3 3v27a9.4 9.4 0 0 1-9.6 9.4Z" />
  <path fill="#60A5FA"
    d="M23.2 34.8c7.3 0 13.2-5.9 13.2-13.1a13.2 13.2 0 0 0-26.4 0c0 7.2 5.9 13.1 13.2 13.1Z" />
  <path fill="#fff"
    d="m28.8 21-4.4-5.3a1.3 1.3 0 0 0-2 0L17.7 21a1.3 1.3 0 0 0 1 2.1c.4 0 .7-.2 1-.4l2.4-2.8v7a1.3 1.3 0 0 0 1.3 1.2 1.3 1.3 0 0 0 1.3-1.3v-6.7l2 2.5a1.3 1.3 0 0 0 2.4-.7l-.3-1Z" />
</svg>