<svg width="32" height="32" viewBox="0 0 32 32" fill="none" xmlns="http://www.w3.org/2000/svg">
<g clip-path="url(#clip0_14789_42275)">
<path d="M16.0138 0C18.9776 0.106739 21.9426 0.19725 24.9058 0.328957C25.9416 0.375149 26.9937 0.427582 28.0026 0.646055C29.9549 1.06802 31.4044 2.857 31.5624 4.85259C31.9198 9.37622 32.0747 13.908 31.9666 18.4435C31.8954 21.4253 31.718 24.4059 31.5455 27.3846C31.4325 29.3346 29.7175 31.1879 27.7365 31.5106C26.8056 31.6623 25.8548 31.7297 24.9108 31.7578C21.3947 31.8627 17.878 31.9956 14.3613 32C11.8036 32.0031 9.24469 31.8327 6.68761 31.7141C5.80735 31.6729 4.90959 31.6454 4.05619 31.4532C2.02015 30.9938 0.598861 29.2816 0.435803 27.2023C0.0547097 22.356 -0.0902309 17.5034 0.0559592 12.6439C0.120308 10.5029 0.215269 8.36251 0.330846 6.22397C0.376453 5.37817 0.362084 4.51489 0.675705 3.7028C1.40915 1.80458 2.77797 0.680386 4.81463 0.500614C8.53873 0.172281 12.2734 0.0674144 16.0138 0ZM17.9992 17.0065C17.9992 15.6751 17.9967 14.3437 18.003 13.0122C18.003 12.8868 18.0548 12.7619 18.0829 12.6365C18.186 12.6945 18.2991 12.7401 18.3909 12.8125C19.0525 13.3368 19.8716 13.3256 20.5007 12.7725C20.7119 12.5871 20.9212 12.3993 21.1186 12.1995C21.7727 11.5366 21.7889 10.619 21.1623 9.93301C20.7831 9.51792 20.4032 9.10407 20.0178 8.69521C19.1475 7.77138 18.2891 6.8357 17.3913 5.93933C17.1383 5.68653 16.786 5.48241 16.4424 5.38192C15.7495 5.17843 15.1192 5.38629 14.6225 5.91C13.3268 7.27639 12.0329 8.64465 10.7584 10.0304C10.3855 10.4361 10.2468 10.9648 10.4523 11.4854C10.7772 12.3069 11.3963 12.8849 12.2347 13.1464C12.7676 13.3131 13.2812 13.1215 13.7022 12.7338C13.7566 12.6839 13.8422 12.667 13.9128 12.6352C13.9409 12.7082 13.979 12.7794 13.994 12.8549C14.0077 12.9248 13.9971 12.9997 13.9971 13.0728C13.9971 15.7044 13.9952 18.3361 13.999 20.9678C14.0002 21.8036 14.5944 22.4671 15.4215 22.5445C15.7726 22.577 16.13 22.5813 16.4811 22.5551C17.402 22.4877 17.9974 21.8323 17.9992 20.9066C18.0017 19.6064 17.9998 18.3061 17.9998 17.0059L17.9992 17.0065ZM15.9788 26.7704C18.7277 26.7704 21.4765 26.7748 24.2254 26.7685C25.8435 26.7648 26.9918 25.6062 26.9943 23.9902C26.9962 22.4921 27.0018 20.994 26.9924 19.4959C26.983 18.0321 25.811 16.8636 24.3504 16.8536C23.2777 16.8461 22.2056 16.8505 21.1329 16.8517C20.7231 16.8517 20.5001 17.0371 20.4951 17.3711C20.4907 17.7106 20.7294 17.9129 21.1486 17.9135C22.1688 17.9154 23.1896 17.9129 24.2098 17.9148C25.2619 17.9166 25.9291 18.5795 25.9303 19.6245C25.9322 21.0395 25.9303 22.454 25.9303 23.8691C25.9303 25.0738 25.2925 25.7061 24.0761 25.7061C18.7764 25.7061 13.4767 25.7061 8.177 25.7061C8.0102 25.7061 7.84339 25.7111 7.67721 25.7042C6.7251 25.6643 6.06849 24.9852 6.06662 24.0326C6.06349 22.5451 6.06349 21.057 6.06662 19.5695C6.06849 18.6051 6.75321 17.9191 7.71657 17.9154C8.76801 17.911 9.82008 17.916 10.8715 17.9135C11.2645 17.9123 11.5019 17.7056 11.5013 17.3786C11.5013 17.044 11.2751 16.8524 10.8703 16.8517C9.80821 16.8499 8.74614 16.8467 7.68408 16.8524C6.18032 16.8605 5.01018 18.0215 5.0033 19.5196C4.99643 21.0489 4.99768 22.5782 5.00643 24.1075C5.00768 24.3428 5.04579 24.585 5.10951 24.8129C5.445 26.0151 6.47895 26.7673 7.79528 26.7691C10.5235 26.7723 13.2512 26.7704 15.9794 26.7704H15.9788Z" fill="#60A5FA"/>
<path d="M15.0616 16.0184C15.0616 14.4279 15.0584 12.8368 15.0641 11.2463C15.0653 10.9567 15.0247 10.6952 14.723 10.5784C14.4268 10.4636 14.2094 10.6078 14.0139 10.8275C13.6959 11.1845 13.3666 11.5322 13.0386 11.8805C12.7306 12.2076 12.4601 12.2132 12.1246 11.9061C11.9635 11.7588 11.7967 11.6171 11.643 11.4623C11.3843 11.202 11.3656 10.9267 11.6111 10.6627C12.83 9.35373 14.0476 8.04352 15.2815 6.74892C15.7569 6.25017 16.2186 6.23582 16.689 6.72582C17.9416 8.03104 19.1718 9.3581 20.4038 10.6839C20.6274 10.9242 20.608 11.1976 20.3769 11.438C20.2038 11.6177 20.0145 11.7813 19.8277 11.9467C19.5354 12.2051 19.2542 12.1926 18.9818 11.9049C18.6382 11.5428 18.2959 11.1795 17.9635 10.8069C17.773 10.594 17.5568 10.4711 17.2769 10.5772C16.9914 10.6858 16.9333 10.9292 16.9339 11.212C16.9377 14.4042 16.9364 17.5958 16.9364 20.788C16.9364 21.331 16.7746 21.4952 16.2355 21.5008C16.0587 21.5027 15.8819 21.5046 15.7051 21.5002C15.2427 21.489 15.0641 21.3104 15.0634 20.8535C15.0622 19.2418 15.0634 17.6301 15.0634 16.019L15.0616 16.0184Z" fill="#60A5FA"/>
</g>
<defs>
<clipPath id="clip0_14789_42275">
<rect width="32" height="32" fill="white"/>
</clipPath>
</defs>
</svg>
