<svg xmlns="http://www.w3.org/2000/svg" fill="none" viewBox="0 0 81 82">
  <g clip-path="url(#a)">
    <path fill="#319DF3" d="M39 82a1 1 0 0 1 1.2 0H39Z"/>
    <path fill="#60A5FA" d="M0 39.6a.8.8 0 0 1 0 1v-1Z"/>
    <path fill="#329DF3" d="M0 41.7a.8.8 0 0 1 0 1v-1Z"/>
    <path fill="#349EF3" d="M40.8 82a.8.8 0 0 1 1 0h-1Z"/>
    <path fill="#97CDF8" d="M0 43.4c.2.2.2.4 0 .5v-.5Z"/>
    <path fill="#9ED1F9" d="M0 38.2c.2 0 .1.2.1.3 0 .1 0 .1-.1 0v-.3Z"/>
    <path fill="#82C4F8" d="M0 38.5h.1a.3.3 0 0 1-.1.3v-.3Z"/>
    <path fill="#95CCF9" d="M37.8 82c0-.2.2-.2.3 0h-.3Z"/>
    <path fill="#FEFEFE" d="M38.1 53H17c-1.2 0-1.3-.1-1.3-1.4V22.5c0-1.3.1-1.4 1.4-1.4h22.3c.7 0 .9.1.9.8v10.4c0 1.7.8 2.5 2.4 2.5h6.1c.6 0 1 .2 1.2.8l2.8 4.9c.8 1.3 1.7 1.3 2.5 0l2.9-5.1c.3-.5 2-.8 2.3-.5.2.1.2.3.2.5V52c0 .8-.3 1-1.2 1H38Z"/>
    <path fill="#FEFEFE" d="M54 37.8c-1-1.5-1.7-3-2.5-4.3-.4-.8-1-1.1-1.8-1h-6.5c-.5 0-.7-.2-.7-.7v-15c0-.5.2-.6.7-.6h21.5c.5 0 .7.1.7.7v14.9c0 .5-.2.6-.7.6h-6.5a1.7 1.7 0 0 0-1.8 1L54 37.8ZM38.3 55.4c1 0 1 0 1 1.2 0 1.5.3 2.4 1.6 3.1l5.9 3.8c.3.2.6.5.7 1a1.1 1.1 0 0 1-.4 1.1c-.5.4-1 .3-1.5 0l-6.7-4.4c-.6-.4-1-.3-1.6 0l-6.7 4.4c-.5.3-1 .4-1.5 0-.8-.4-.7-1.5.2-2l6.8-4.4c.6-.4.8-.8.8-1.4v-1.5c0-.7 0-.9 1-.9h.4Z"/>
    <path fill="#60A5FA" d="M30.8 37.6h4c2.7 0 4.6 2 4.7 4.8V45c0 1-.5 1.5-1.2 1.5-.8 0-1.2-.5-1.2-1.5v-2.5c0-1.6-.9-2.4-2.5-2.4H27c-1.6 0-2.4.8-2.4 2.4V45c0 1-.5 1.5-1.3 1.4-.7 0-1.1-.5-1.1-1.4v-3.3c0-1 .6-2 1.3-2.8.8-.8 1.8-1.3 2.9-1.3h4.5Zm-.1-1.6a4.1 4.1 0 0 1-3.8-2.7 4.3 4.3 0 0 1 1-4.6 4.1 4.1 0 0 1 7 3.1c0 1.1-.5 2.2-1.2 3-.8.7-1.9 1.2-3 1.2Zm18.6-11.7v-3.9c0-1.4 1-2 2.2-1.2l6.7 3.9c1.2.7 1.2 1.7 0 2.4l-6.8 4c-1.1.6-2 .1-2-1.2v-4Z"/>
    <path fill="#FDFEFE" d="M30.8 33.5a1.7 1.7 0 0 1-1.6-1 1.8 1.8 0 0 1 .3-2 1.8 1.8 0 0 1 3 1.3c0 .4-.1.9-.5 1.2-.3.3-.7.5-1.2.5Z"/>
    <path fill="#FCFDFE" d="m51.7 22.1 3.8 2.2-3.4 2c-.4.2-.4-.2-.4-.4v-3.8Z"/>
  </g>
  <defs>
    <clipPath id="a">
      <path fill="#fff" d="M0 0h81v82H0z"/>
    </clipPath>
  </defs>
</svg>
