<svg width="39" height="52" fill="none" xmlns="http://www.w3.org/2000/svg"><path d="M38.28 19.14c0 10.57-19.14 32.36-19.14 32.36S0 29.71 0 19.14a19.14 19.14 0 1 1 38.28 0Z" fill="#DC2626"/><circle cx="19.14" cy="18.23" r="14.89" fill="#fff"/><path d="M26.46 15.96c-.67.16-.67.16-.67.78 0 1.09-.03 2.18.01 3.27a3.18 3.18 0 0 1-1.38 2.76 7.5 7.5 0 0 1-3.63 1.41c-1.84.26-3.64.13-5.38-.55a5.1 5.1 0 0 1-2.39-1.73 2.74 2.74 0 0 1-.53-1.66l.01-3.72c0-.24-.07-.37-.3-.46-1.05-.44-2.1-.91-3.16-1.36-.3-.12-.53-.3-.53-.65 0-.38.23-.56.55-.7 3.23-1.38 6.46-2.79 9.7-4.16.25-.1.53-.1.78 0 3.24 1.37 6.46 2.78 9.7 4.17.3.13.53.3.54.65 0 .38-.22.57-.55.7-.35.14-.7.34-1.06.45-.33.1-.4.3-.4.61.02 2.29.02 4.58.02 6.87v.29c-.02.42-.28.7-.66.7-.4.01-.67-.27-.67-.72v-6.95Zm-15.57-1.94.23.13 7.8 3.35c.16.06.34.05.5-.01l2.8-1.21 2.09-.9-.42-.1-4.73-.58c-.46-.06-.72-.33-.68-.72.03-.4.37-.65.84-.6l2.88.36c1.42.18 2.85.37 4.27.53.28.03.58-.1.87-.15-.06-.14-.1-.17-.13-.18-2.61-1.13-5.22-2.26-7.83-3.37a.77.77 0 0 0-.54.02l-5.28 2.28-2.67 1.15Zm2.94 2.75c0 1.14.01 2.23-.01 3.31-.01.6.2 1.1.66 1.44.44.35.93.64 1.45.86 1.53.63 3.14.72 4.77.46a6.14 6.14 0 0 0 3-1.2c.5-.42.8-.93.77-1.62-.03-.95 0-1.9-.01-2.85l-.02-.38-.39.15-4.29 1.86c-.42.2-.79.22-1.22.01-.93-.43-1.9-.82-2.84-1.24-.61-.25-1.22-.51-1.87-.8Z" fill="#DC2626"/></svg>