<svg xmlns="http://www.w3.org/2000/svg" fill="none" viewBox="0 0 18 18"><path fill="#60A5FA" d="M2.5 5a2.9 2.9 0 0 1 0-4.3c1-1 2.8-1 3.9.1 1 1 1.2 3-.2 4.2l.2.1A4.4 4.4 0 0 1 8.8 9c0 .3-.3.5-.6.5H.6C.2 9.5 0 9.3 0 9c.1-1.7.9-3 2.4-3.8h.1Zm5.2 3.5a3.3 3.3 0 0 0-6.5 0h6.5ZM4.4 4.6a1.8 1.8 0 1 0 0-3.5c-1 0-1.8.8-1.8 1.8s.8 1.7 1.8 1.7ZM11.8 13.5a2.8 2.8 0 1 1 3.7 0l1 .6a4.2 4.2 0 0 1 1.5 3.3c0 .4-.2.6-.6.6H10c-.5 0-.7-.2-.6-.6 0-1.7.8-3 2.3-3.8l.2-.1Zm5 3.4a3.3 3.3 0 0 0-6.5 0H17Zm-3.2-3.8c1 0 1.8-.8 1.8-1.7 0-1-.8-1.8-1.7-1.9-1 0-1.8.8-1.9 1.7 0 1 .8 1.9 1.8 1.9ZM1.8 15.5 3.4 17c.2.2.3.4.2.7-.2.3-.6.4-.8.2L0 15.2c-.2-.2-.1-.5.1-.7l1.3-1.3 1.1-1c.3-.4.6-.4.8-.2.3.2.2.6 0 .9L2 14.2l-.2.1v.1h5.6c.2 0 .4.3.4.5 0 .3-.2.5-.4.5H1.9v.1ZM16.2 3.6h-5.4c-.4 0-.6-.3-.6-.6 0-.2.2-.4.4-.4h5.6l-.2-.2L14.6.9c-.3-.3-.2-.8.2-.9l.5.1.2.3 2.3 2.2c.3.3.3.6 0 .9l-2.4 2.4c-.2.2-.5.3-.7.2-.3-.2-.4-.6-.1-.9L16 3.8l.2-.2Z"/></svg>