<svg xmlns="http://www.w3.org/2000/svg" fill="none" viewBox="0 0 18 18"><path fill="#60A5FA" d="M11.6 2.6V3l-.5.7-.9.3H5.4C4.6 4 4 3.5 4 2.7v-.1H2.3c-.7.2-1.1.8-1.2 1.4V15.2a1.6 1.6 0 0 0 1.7 1.6h4.7c.2 0 .4 0 .6.3a.6.6 0 0 1-.2.8h-.2l-.2.1H2.8A2.7 2.7 0 0 1 0 15.2v-11c0-1.6 1.2-2.8 2.8-2.8a101.4 101.4 0 0 1 1.6 0l.2-.5c.2-.6.6-.9 1.2-.9h3.9c.6 0 1 .3 1.2.9l.2.4.2.1h1.4c1.6 0 2.8 1.2 2.8 2.8V8c0 .3-.2.5-.5.6-.3 0-.5-.2-.6-.4v-4c0-.7-.5-1.3-1.2-1.5h-1.6ZM7.8 3H10c.4 0 .4-.1.3-.4l-.3-.9c-.2-.5-.1-.4-.7-.4H6c-.2 0-.3 0-.3.2l-.5 1c-.1.4 0 .5.3.5h2.3Z"/><path fill="#60A5FA" d="M18 11.7c0 .5-.2 1-.6 1.3l-2.9 3-1.4 1.3c-.3.3-.5.4-.9.5L11 18c-.8.1-1.4-.5-1.3-1.3 0-.4.1-1 .3-1.4l.2-.5 4.5-4.4a2 2 0 0 1 2.2-.4c.7.3 1 1 1.1 1.7Zm-3.8.8v.1c-1 .8-1.8 1.7-2.6 2.5-.3.3-.6.6-.6 1v.1l-.1.6 1-.2.4-.1 2.8-2.8.1-.1-1-1Zm1.9.2.5-.5c.3-.3.3-.7 0-1a.7.7 0 0 0-1 0l-.5.4v.2l1 .9ZM9.2 9.2H7.1c-.5 0-.8-.4-.6-.8.1-.2.3-.3.6-.3h4.3c.2 0 .5 0 .6.3.2.4 0 .8-.5.8H9.2ZM8.5 11.6H10c.5 0 .7.5.5.9-.1.2-.3.3-.5.3a211.6 211.6 0 0 1-3.4-.2.6.6 0 0 1 0-.8l.4-.2h1.5ZM4.3 9.2H4l-.3-.1a.6.6 0 0 1-.2-.4c0-.3.1-.6.5-.6h.8c.3 0 .5.3.4.6l-.1.4-.4.1h-.4ZM4.4 11.6h.3c.1 0 .3 0 .4.2l.1.3c0 .4-.1.6-.4.7h-.9c-.3 0-.5-.4-.4-.6l.1-.4.4-.2h.4Z"/></svg>