<svg xmlns="http://www.w3.org/2000/svg" fill="none" viewBox="0 0 18 18"><path fill="#60A5FA" d="M0 7.8V2.4C0 1 1 0 2.3 0h9.6C13.2 0 14 1 14 2.3V9c0 1.4-1 2.4-2.2 2.4H4.3c-.2 0-.4 0-.5.2L1 13.9c-.2.1-.4.3-.7.1-.3-.1-.3-.4-.3-.6V7.8Zm1 4.5c.2 0 .3-.1.3-.2l2-1.7c.2-.2.5-.3.7-.3h7.7c1 0 1.3-.4 1.3-1.3V2.5c0-1-.4-1.4-1.3-1.4H2.4c-.9 0-1.3.5-1.3 1.4v9.8Z"/><path fill="#60A5FA" d="M16.3 16.3V7c0-.9-.3-1.3-1.1-1.4-.3 0-.6-.2-.5-.5 0-.4.2-.6.6-.6 1 0 2 1 2 2.2v10.7c0 .2-.1.5-.3.6l-.6-.1a60 60 0 0 1-2.2-1.9 1 1 0 0 0-.7-.2H6.6c-1.3 0-2.3-1-2.3-2.4V13c0-.4.3-.6.6-.6s.5.2.5.6v.4c0 .8.5 1.3 1.2 1.3h7.2c.3 0 .6 0 1 .3l1.5 1.3ZM7 4.5H4c-.5 0-.7-.2-.7-.5 0-.4.2-.6.7-.6h6.2c.4 0 .7.2.7.5 0 .4-.3.6-.7.6H7ZM6 5.6h2c.4 0 .7.2.7.6 0 .3-.2.6-.7.6H4c-.5 0-.7-.2-.7-.6 0-.4.2-.6.6-.6h2Z"/></svg>