<svg xmlns="http://www.w3.org/2000/svg" fill="none" viewBox="0 0 19 18"><path fill="#60A5FA" d="M7.4 8.4v8.7h7.2c.3 0 .5.2.5.4 0 .3-.2.5-.4.5H.6a.5.5 0 0 1-.3-.5c0-.2.2-.4.4-.4H2.3v-4.4h-.8C.8 12.6.3 12 .3 11.3v-4C.3 6.2 1.3 5 2.6 5c.5 0 1 .2 1.4.5l.3.3c.4.3.7.3 1 0l.8-.6.4-.2c.5 0 1 0 1.4.2.4.1.7.4 1 .6l.8.8.3.1h1.7c.2.2.3 0 .5 0l2-2.3c0-.1.2-.2.4-.1.2 0 .3.1.4.3 0 .2 0 .3-.2.5l-1.9 2c-.2.3-.3.4-.2.7.3 1-.3 1.8-1.3 1.9H9.1c-.4 0-.7-.2-1-.5l-.7-.7Zm-3 8.7V11.4c0-.2.2-.3.4-.4.2 0 .4.1.4.3l.1.3v5.5h1.1V8.4c0-.4.3-.7.7-.8.4-.2.7 0 1 .2l.6.6.6.3h2.2c.3-.1.4-.4.4-.7 0-.3-.3-.5-.6-.5H10c-.3 0-.6 0-.8-.3l-.7-.7a2 2 0 0 0-1.7-.6h-.2l-.6.6c-.7.4-1.5.4-2 0l-.7-.6H3c-1-.1-1.8.6-1.8 1.6V11.3c0 .3.3.5.6.5s.5-.2.5-.6V8c0-.4.3-.6.6-.5.2.1.3.3.3.5v9.1h1.2Z"/><path fill="#60A5FA" d="M18.3 6v4.5c0 .9-.6 1.4-1.5 1.4H8.9c-.4 0-.6-.1-.6-.4 0-.3.2-.5.6-.5h7.9c.4 0 .6-.1.6-.6V1.5c0-.4-.2-.6-.6-.6H7.9a.4.4 0 0 1-.4-.4c0-.2.1-.4.3-.5h9c.9 0 1.5.6 1.5 1.5V6ZM4.8 0C6.1 0 7 1 7.1 2.2A2.2 2.2 0 1 1 4.9 0Zm0 3.5c.8 0 1.3-.6 1.3-1.3 0-.7-.5-1.3-1.3-1.3-.7 0-1.3.6-1.3 1.3 0 .7.6 1.3 1.3 1.3Z"/><path fill="#60A5FA" d="M12.1 2h2.4c.4 0 .6.4.4.7-.1.2-.3.3-.5.3H9.8c-.3 0-.5-.3-.5-.6 0-.2.3-.3.5-.3h2.3ZM11 4.1H12c.2 0 .4.1.5.3l-.1.5-.4.1H9.8c-.3 0-.5-.1-.5-.4 0-.3.2-.5.5-.5H11Z"/></svg>