<svg xmlns="http://www.w3.org/2000/svg" fill="none" viewBox="0 0 100 100"><g clip-path="url(#a)"><path fill="url(#b)" d="M25 50V26.4a7 7 0 0 1 4.2-6.7c1-.5 2-.7 3-.7h23.6c2.4 0 4.5.9 6.2 2.6l7.8 7.8 2.7 2.7a8.5 8.5 0 0 1 2.5 6.2v35.3c0 4.2-3.2 7.4-7.4 7.4H32.4a7.3 7.3 0 0 1-7.4-7.5V50Zm20.7 2.1v1.6a4.2 4.2 0 0 0 8.4.7c0-.3.2-.5.5-.6 4.9-2.2 7.6-7.1 6.9-12.3a11.8 11.8 0 0 0-13.1-9.9c-4.8.7-8.7 4.2-9.8 9A4 4 0 0 0 40 45a4 4 0 0 0 4.5.6c1.4-.6 2.1-1.8 2.5-3.2.3-1.3 1.2-2 2.4-2.2 1.3-.2 2.4.2 3 1.2a3 3 0 0 1 .2 3.4C52 46 51 46.3 50 46.4a4.2 4.2 0 0 0-4.2 3.5V52Zm8.6 12.2c0-2.4-1.9-4.3-4.2-4.4a4.3 4.3 0 1 0-.2 8.6c2.4 0 4.3-1.9 4.4-4.2Z"/></g><defs><radialGradient id="b" cx="0" cy="0" r="1" gradientTransform="matrix(0 52.9981 -42.743 0 50 28)" gradientUnits="userSpaceOnUse"><stop stop-color="#2165B9"/><stop offset="1" stop-color="#3077CA"/></radialGradient><clipPath id="a"><path fill="#fff" d="M0 0h50v62H0z" transform="translate(25 19)"/></clipPath></defs></svg>