<svg xmlns="http://www.w3.org/2000/svg" fill="none" viewBox="0 0 239 239"><path fill="#fff" stroke="#3E56B0" d="M15 .5h209c8 0 14.5 6.5 14.5 14.5v209c0 8-6.5 14.5-14.5 14.5H15C7 238.5.5 232 .5 224V15C.5 7 7 .5 15 .5Z"/><g clip-path="url(#a)"><path fill="#6CDD6C" d="M155.6 146c-.3-.9-1-1.8-1.9-2-1-.4-2.1 0-2.4 1-.9-.7-2.2-.1-3 .8-1 1.4-.2 3.8 0 4 .2.1.8 0 .8 0h8.4s1.6 0 2.3-.4c1.4-.5 2.4-3 1.5-4.3-.6-.8-1.9-1-2.9-.7-1 .4-2 1-2.8 1.7"/><path fill="#50AA50" d="M149 150.2c-.3 0-.7 0-.9-.2-.3-.3-1.2-2.9 0-4.4a3 3 0 0 1 2-1.2c.4 0 .8 0 1 .2a2.4 2.4 0 0 1 2.7-1c.9.3 1.6 1 2 2 .8-.7 1.7-1.2 2.5-1.4 1-.4 2.5-.2 3.2.8.5.6.6 1.4.3 2.3-.3 1.1-1 2-1.9 2.4-.7.3-2.3.4-2.3.4h-8.7Zm1.3-5.2h-.1c-.6 0-1.2.4-1.6 1-1 1.2-.3 3.3-.1 3.6h9s1.5-.1 2.2-.4a3 3 0 0 0 1.6-2c.2-.8.1-1.4-.2-1.9-.6-.8-1.8-.9-2.6-.6-.9.3-1.8.9-2.7 1.6h-.2l-.2-.1a3 3 0 0 0-1.8-2c-.4-.1-1 0-1.3.1-.4.2-.6.5-.8.8l-.1.2h-.3a1 1 0 0 0-.7-.3Zm-3.6.8c-.2.4-.3 1-.3 1.5 0 .2.5.2.4 0 0-.5 0-1 .3-1.3.1-.3-.3-.5-.4-.2Zm-1.2.3a3 3 0 0 0 0 1.4c0 .3.4.2.4 0v-1.3c0-.3-.3-.4-.4-.1Zm2.3-.9c.3 0 .3-.4 0-.4-.2 0-.2.4 0 .4Z"/><path fill="#50AA50" d="M149 147.3v.3c0 .3.5.3.5 0v-.3c0-.3-.5-.3-.5 0Zm7.1.7v.1c0 .3.4.3.4 0v-.2c0-.2-.4-.2-.4 0Zm-.8-.6.1.1c.2.2.5 0 .3-.3-.3-.3-.5 0-.4.2Z"/><path fill="#405B91" d="M36.1 138.2H22a.6.6 0 1 1 0-1.1h14.2a.6.6 0 1 1 0 1Z"/><path fill="#fff" d="M161.2 88.9h-.4c0-.3-.3-.6-.6-.6-.4 0-.6.3-.6.6h-.4a1 1 0 1 1 2 0Zm1.4-23.6h-.4c0-.4-.2-.6-.6-.6-.3 0-.6.2-.6.6h-.4a1 1 0 1 1 2 0Z"/><path fill="#415B91" d="M112.1 147.4H92.8l.4-.8c1.2-3 1.4-5.6 1.2-8.5v-.6h16.2v.5c0 1.9.5 6.2 1.3 8.7l.2.7Zm-17.6-1.1h16.1c-.6-2.4-1-5.8-1-7.7h-14c0 2.6-.1 5-1 7.7Z"/><path fill="#415B91" d="M87.3 138.6a640 640 0 0 1-27-.3c-1.3-.5-3-2.2-3-3.4l-.3-10.6c-.4-12.7-1-30-.2-39.7a3.3 3.3 0 0 1 3.3-3h84.5c1.8 0 3.3 1.5 3.3 3.3l.3 8.6c.3 12.2.7 24.8-.6 36.8l-.1 1.5c-.1 2.5-.3 5.6-3.5 6.2-1.6.3-32.8.6-56.7.6ZM60.1 82.4c-1.3 0-2.3 1-2.4 2.3-.7 9.6-.2 27 .2 39.6l.3 10.6c0 .7 1.3 2.2 2.3 2.5 1.8.4 81.3.1 83.3-.2 2.6-.5 2.7-3 2.8-5.5l.1-1.5c1.3-11.9 1-24.5.6-36.6L147 85c0-1.4-1-2.4-2.4-2.5H60.2Z"/><path fill="#B6D0FB" fill-rule="evenodd" d="M142.3 84.5H62.7c-1.4 0-2.6.9-2.8 2.2-.8 10.6.4 32.9.5 41.8 0 1 1.5 2.2 2.5 2.5 1.2.4 76.9.1 78.7-.2 3.3-.6 2.8-4 3-6.1 1.6-12.4.7-25.7.3-37.8 0-1.3-1.2-2.3-2.6-2.3Z" clip-rule="evenodd"/><path fill="#415B91" d="M119 150.4H86c-1.4 0-2-1-2-2s.6-2 2-2h33c1.4 0 2 1 2 2s-.6 2-2 2Zm-33-3.2c-1 0-1.2.8-1.2 1.2 0 .4.3 1.1 1.1 1.1H119c1 0 1.1-.7 1.1-1.1 0-.5-.2-1.2-1-1.2H85.8Zm-23.1-11.8c1.5 0 1.5-2.3 0-2.3s-1.5 2.3 0 2.3Zm4.6 0c1.5 0 1.5-2.3 0-2.3s-1.5 2.3 0 2.3Zm4.7 0c1.5 0 1.5-2.3 0-2.3s-1.5 2.3 0 2.3Zm30.3-51.5c.7 0 .7-1.1 0-1.1s-.7 1 0 1Z"/><path fill="#B6D0FB" d="M195.9 148.2h-11.4l4.4-14.4h2.6l4.4 14.4Zm.9 0h-13.3v1.7h13.3v-1.7Z"/><path fill="#415B91" d="m185.6 144.6-1.1 3.6h11.4l-1.1-3.6h-9.2Zm1.1-3.6h7l-1.1-3.6h-4.8l-1.1 3.6Z"/><path fill="#B6D0FB" d="M200.6 149.8h2.5V140h13v9.8h2.5V140h2.7v-7.8h-2.1v-.8h-3.7v.8h-11.6v-.8h-3.6v.8h-2.4v7.8h2.7v9.8Zm19.9-16.8-1.6 6.2h-2.8l1.6-6.2h2.8Zm-7.3 6.2h-2.8l1.6-6.2h2.8l-1.6 6.2Zm-5.7 0h-2.8l1.6-6.2h2.8l-1.6 6.2Zm-6.9-6.2h2.8l-1.6 6.2H199l1.6-6.2ZM76 53.9l.8-.8v-.5l-.7-.7a.6.6 0 0 1 0-.6l.5-1.3c0-.2.2-.4.5-.4h.9c.2 0 .4-.2.4-.4v-1c0-.3-.2-.5-.4-.5h-1a.6.6 0 0 1-.4-.3L76 46a.6.6 0 0 1 .1-.7l.7-.6v-.6l-.8-.7a.4.4 0 0 0-.5 0l-.7.6c-.2.2-.4.2-.6.1l-1.3-.5a.6.6 0 0 1-.4-.5v-1c0-.2-.2-.4-.4-.4h-1c-.3 0-.5.2-.5.4v1c0 .2-.1.4-.4.5l-1.3.5h-.6l-.7-.7a.4.4 0 0 0-.5 0l-.8.7v.6l.7.6c.1.2.2.5 0 .7l-.5 1.3c0 .2-.3.4-.5.4h-1c-.1 0-.3.1-.3.3v1.1c0 .2.2.4.4.4h1c.1 0 .4.2.4.4l.6 1.3-.1.6-.7.7v.5l.8.8c.1.2.4.2.5 0l.7-.7c.2-.1.4-.2.6 0l1.3.5c.3 0 .4.3.4.5v1c0 .2.2.3.4.3h1c.3 0 .5-.1.5-.4v-.9c0-.2.1-.4.4-.5l1.3-.5h.6l.7.7c.1.2.4.2.5 0Zm-4.4-2a3.1 3.1 0 1 1 0-6.4 3.1 3.1 0 0 1 0 6.3Zm11.7 5-.2-.7c0-.1-.2-.2-.3-.1l-.6.1-.4-.1-.5-.7c-.1 0-.1-.2 0-.4l.2-.5v-.3l-.7-.3h-.3l-.3.6-.3.2-1-.1a.3.3 0 0 1-.2-.3l-.2-.5-.3-.2-.6.2c-.2 0-.2.2-.2.3l.2.6c0 .1 0 .3-.2.3l-.6.6c-.1.1-.3.1-.4 0l-.5-.2h-.4l-.3.7.1.3.5.3.2.3v.9l-.3.3-.6.2c-.1 0-.2.2-.1.3l.2.6c0 .1.1.2.3.2l.5-.2.4.1.5.7c.1.1.2.3 0 .4l-.2.5.1.4.6.3.3-.1.3-.5c0-.2.2-.2.4-.2h.8c.2 0 .3.2.3.3l.2.6c0 .1.2.2.3.1l.7-.2s.2-.1.1-.3l-.1-.5v-.4l.8-.5c0-.1.2-.2.4-.1l.5.3.3-.1.3-.6-.1-.3-.5-.3a.3.3 0 0 1-.2-.4l.1-.8.2-.4.6-.1.2-.3Zm-2.5 1.8A2 2 0 1 1 80 56a2 2 0 0 1 .8 2.6Z"/><path fill="#405B91" d="M115 69.2H97.4a.6.6 0 1 1 0-1.2H115a.6.6 0 0 1 0 1.2Zm-35.8 7.9H50.8a.6.6 0 1 1 0-1h28.4a.6.6 0 1 1 0 1Zm136.2 15.2H187a.6.6 0 0 1-.6-.6c0-.3.3-.5.6-.5h28.4c.3 0 .6.2.6.5s-.3.6-.6.6Zm11.2 58.7h-215a.6.6 0 1 1 0-1.1h215a.6.6 0 1 1 0 1.1Z"/><path fill="#B6D0FB" d="M147.8 62.1c-1.3 0-2.4.5-3.2 1.4a4.5 4.5 0 0 0-.7 5.4v.2l-4.5 4.5s-.3.2-.3.5.2.5.4.7c.2.3.5.4.8.4.3 0 .5-.2.5-.2l4.6-4.5a4.5 4.5 0 1 0 2.4-8.4Zm0 7.7a3.2 3.2 0 1 1 0-6.3 3.2 3.2 0 0 1 0 6.3Z"/><path fill="#B6D0FB" d="M146 67.3h3.3v-.8h-3.2v.8Z"/><path fill="#405B91" d="M64 150a.6.6 0 0 1-.6-.6v-43.1a.6.6 0 1 1 1.1 0v43.1c0 .3-.2.6-.5.6Zm10 0a.6.6 0 0 1-.6-.6v-43.1a.6.6 0 1 1 1.2 0v43.1c0 .3-.3.6-.6.6Z"/><path fill="#405B91" d="M74 109.8H64a.6.6 0 1 1 0-1.1h10a.6.6 0 1 1 0 1.1Zm0 4.9H64a.6.6 0 1 1 0-1h10a.6.6 0 0 1 0 1Zm0 5H64a.6.6 0 0 1 0-1.2h10a.6.6 0 1 1 0 1.2Zm0 4.9H64a.6.6 0 0 1 0-1.1h10a.6.6 0 1 1 0 1Zm0 4.9H64a.6.6 0 1 1 0-1.1h10a.6.6 0 1 1 0 1.1Zm0 4.9H64a.6.6 0 1 1 0-1.1h10a.6.6 0 1 1 0 1.1Zm0 5H64a.6.6 0 1 1 0-1.2h10a.6.6 0 0 1 0 1.2Zm0 4.9H64a.6.6 0 1 1 0-1.1h10a.6.6 0 0 1 0 1Zm-23.7-35.9a.6.6 0 0 1-.5-.6v-2.2a.6.6 0 1 1 1.1 0v2.2c0 .3-.2.6-.6.6Z"/><path fill="#405B91" d="M51.4 107.3h-2.1a.6.6 0 1 1 0-1.1h2.1a.6.6 0 1 1 0 1.1Zm49.3-76.9a.6.6 0 0 1-.6-.5v-2.2a.6.6 0 1 1 1.1 0v2.2c0 .3-.2.5-.5.5Z"/><path fill="#405B91" d="M101.7 29.4h-2.1a.6.6 0 1 1 0-1.2h2.1a.6.6 0 1 1 0 1.2Zm16.6 113.9h-.2l-2-.7a.6.6 0 1 1 .2-1l2.1.6c.3 0 .5.4.4.7 0 .2-.3.4-.5.4Z"/><path fill="#405B91" d="M117 144h-.2a.6.6 0 0 1-.4-.7l.6-2c0-.4.4-.6.7-.5.3.1.5.4.4.7l-.6 2.1c-.1.3-.3.4-.6.4Zm-9.7-66.6h-.2l-2-.6a.6.6 0 1 1 .2-1l2.1.6a.6.6 0 0 1-.1 1Z"/><path fill="#405B91" d="M106 78.2h-.2a.6.6 0 0 1-.4-.7l.6-2.1a.6.6 0 1 1 1 .3l-.5 2c-.1.3-.3.5-.6.5Z"/><path fill="#B6D0FB" d="M111.3 62.3a7.8 7.8 0 1 0-11-11 7.8 7.8 0 0 0 11 11Z"/><path fill="#fff" d="M105.8 62.6a5.8 5.8 0 1 0 0-11.6 5.8 5.8 0 0 0 0 11.6Z"/><path fill="#405B91" d="M105.8 62.9a6 6 0 1 1 0-12.1 6 6 0 0 1 0 12Zm0-11.7a5.6 5.6 0 1 0 0 11.2 5.6 5.6 0 0 0 0-11.2Z"/><path fill="#405B91" d="M105.8 57a.2.2 0 0 1-.2-.2v-3s0-.2.2-.2c.1 0 .2.1.2.3v3l-.2.1Z"/><path fill="#405B91" d="M109.3 57h-3.5a.2.2 0 0 1-.2-.2c0-.1 0-.2.2-.2h3.5c.1 0 .2 0 .2.2 0 .1 0 .2-.2.2Zm-3.3-5.3s0 .2-.2.2a.2.2 0 0 1-.2-.2c0-.2 0-.3.2-.3.1 0 .2.1.2.3Zm3.6 1.6h-.3V53h.3v.3ZM111 57a.2.2 0 0 1-.3-.2c0-.1.1-.2.3-.2.1 0 .2 0 .2.2 0 .1 0 .3-.2.3Zm-1.7 3.6v-.3h.3v.3h-.3Zm-3.7 1.4c0-.1 0-.2.2-.2.1 0 .2 0 .2.2 0 .1 0 .2-.2.2a.2.2 0 0 1-.2-.2Zm-3.6-1.7h.3v.3h-.3v-.3Zm-1.3-3.3a.2.2 0 1 0 0-.4.2.2 0 0 0 0 .5Zm1.6-4v.3h-.3V53h.3Zm14.9.9h-3.3a.2.2 0 0 1-.2-.3c0-.1 0-.2.2-.2h3.3l.2.2c0 .1 0 .3-.2.3Zm0 6.3h-3.3a.2.2 0 0 1-.2-.2c0-.1 0-.2.2-.2h3.3c.1 0 .2 0 .2.2 0 .1 0 .2-.2.2Zm4-3.2h-6a.2.2 0 0 1-.3-.2l.2-.2h6.1c.2 0 .3.1.3.2s-.1.3-.3.3Z"/><path fill="#fff" d="M131.9 141h-3.6v3.6h3.6V141Z"/><path fill="#415B91" d="M132.2 145H128v-4.2h4.2v4.1Zm-3.6-.6h3v-3h-3v3Z"/><path fill="#405B91" d="M136.4 141.8h-3.2a.2.2 0 0 1 0-.4h3.2c.2 0 .3 0 .3.2 0 .1-.1.2-.3.2Zm1.3 2.5h-4.5l-.3-.2c0-.2.2-.3.3-.3h4.5c.1 0 .3.1.3.3l-.3.2Zm1.6-1.3h-6.1a.2.2 0 0 1 0-.5h6c.2 0 .3.1.3.3l-.2.2Z"/><path fill="#fff" d="M49.1 91.7h3.6v-3.6h-3.6v3.6Z"/><path fill="#415B91" d="M53 92h-4.2v-4.2H53V92Zm-3.6-.6h3v-3h-3v3Z"/><path fill="#405B91" d="M44.6 89h3.2c.2 0 .3-.2.3-.3 0-.1-.1-.2-.3-.2h-3.2c-.2 0-.3 0-.3.2 0 .1.1.2.3.2Zm-1.3 2.4h4.5l.3-.2c0-.2-.2-.3-.3-.3h-4.5c-.1 0-.3.1-.3.3l.3.2ZM41.7 90h6.1c.2 0 .3 0 .3-.2 0 0-.1-.2-.3-.2h-6c-.2 0-.3.1-.3.2 0 .2.1.3.2.3Z"/><path fill="#3F5B91" d="M160.2 101.7H159v48.1h1.2v-48.1Z"/><path fill="#B6D0FB" d="M159.7 96.4h-.2a3.3 3.3 0 0 0-3.3 3.3v4.5c0 1.8 1.5 3.3 3.3 3.3h.2c1.9 0 3.3-1.5 3.3-3.3v-4.5c0-1.8-1.4-3.3-3.3-3.3Z"/><path fill="#3F5B91" d="M164.1 104.3c.4 0 .8 0 1.2.2.3 0 .4-.4.1-.5l-1.2-.1c-.2 0-.4.3 0 .4Zm-.1-2.6h1c.3 0 .3-.4 0-.5l-1 .1c-.3 0-.2.5 0 .4Zm0-2.3c.2-.2.5-.3.9-.4.2 0 0-.5-.2-.4l-.9.4c-.2 0-.1.5.1.4Zm-10.3 5.3.9-.3c.2 0 .1-.4-.1-.4l-1 .3c-.2 0-.1.4.2.4Zm-.6-3 1.2.1c.2.1.3-.3 0-.4l-1.2-.1c-.3 0-.3.4 0 .4Zm.4-3.5.9.3c.2 0 .4-.3.1-.4l-1-.3c-.2 0-.3.3 0 .4Z"/><path fill="#405B91" d="m157 150.4.7-6.4h3.7l.8 6.4H157Z"/><path fill="#6CDD6C" d="M54.3 119.7c-.1-1-.9-3.7-2.4-2.9-2.6 1.4.5 6.5-2.6 7.4-.2-2-.6-3.4-1.6-3.4-1.9.2-1.3 4.6-1.4 5.6l-.1 3c-2.2.5-1.8-5.4-3.2-6.2-2-1.2-2.5 1.6-2.5 2.9.1 2.2.7 4.8 2.8 6 .7.4 1.9.8 2.8.7a29.4 29.4 0 0 0 .4 5.2h1.3v.1c0 .5.8.6.8 0 0-1 .7-6.3.8-10.7 1 .1 2.2-.3 3-.9 2-1.5 2.3-4.4 2-6.8Z"/><path fill="#50AA50" d="M48.2 138.7h-.4a.6.6 0 0 1-.3-.4h-1.2v-.3a24 24 0 0 1-.4-5c-1 0-2.2-.4-2.7-.7-2.2-1.3-2.8-4-3-6.2 0-.9.2-2.7 1.2-3.2.5-.3 1-.3 1.8.1.6.4.9 1.6 1.2 3 .4 1.9.7 3.3 1.6 3.3v-3.5c0-1.8-.1-5 1.7-5.2.3 0 .6 0 .8.2.5.5.8 1.5 1 3 1.2-.4 1.1-1.8 1-3.3 0-1.6-.1-3.2 1.3-3.9.4-.2.8-.2 1.2 0 1.2.5 1.5 2.8 1.6 3 .3 1.9.4 5.3-2.1 7.1a5 5 0 0 1-2.9 1c0 2.8-.4 6-.6 8.1l-.1 2.3c0 .2-.2.4-.4.6h-.3Zm-1.5-1 1.3.1v.4h.3v-.1l.2-2.3c.3-2.2.6-5.5.6-8.4v-.3h.3c1 .2 2.1-.3 2.8-.8 2.3-1.7 2.2-4.9 1.9-6.6-.1-.8-.6-2.3-1.3-2.7-.3-.1-.5-.1-.8 0-1.1.6-1 2-1 3.5 0 1.6.1 3.4-1.7 4h-.2v-.3c-.2-2-.6-2.7-1-3a.5.5 0 0 0-.3-.1c-1.4.1-1.3 3.2-1.3 4.6a21.7 21.7 0 0 1 0 3.1v.9h-.3c-1.5.3-2-1.8-2.3-3.6-.3-1.2-.5-2.4-1-2.7-.5-.3-1-.3-1.3-.1-.7.4-.9 1.9-.8 2.8 0 2 .6 4.6 2.6 5.8a5 5 0 0 0 2.7.7h.2v.2c0 2 .1 3.6.4 5Z"/><path fill="#415B91" d="M51.9 149.9h-9.1a1 1 0 0 1-1-.8l-2-10.6.8-.2 2 10.6.2.1H52l2-10.7.9.2-2 10.6c-.2.5-.5.8-1 .8Z"/><path fill="#B6D0FB" d="M39.8 135H55c.3 0 .5.4.5.7v2.3c0 .4-.2.6-.5.6H40c-.3 0-.5-.3-.5-.6v-2.3c0-.3.2-.6.4-.6Z"/><path fill="#405B91" d="M55 138.9H39.7c-.4 0-.7-.4-.7-.9v-2.3c0-.5.3-.9.7-.9H55c.4 0 .7.4.7 1v2.2c0 .5-.3.9-.7.9Zm-15.2-3.6-.2.4v2.3l.2.4H55c.1 0 .3-.2.3-.4v-2.3c0-.2-.2-.4-.3-.4H40Z"/><path fill="#B6D0FB" d="M55 138.8H39.7c-.3 0-.6-.3-.6-.8v-2.3c0-.4.3-.8.6-.8H55c.4 0 .7.4.7.8v2.3c0 .5-.3.8-.7.8Zm-15.2-3.5-.2.4v2.3c0 .3.1.4.2.4H55c.2 0 .3-.1.3-.4v-2.3c0-.2-.1-.4-.3-.4H40Z"/><path fill="#405B91" d="M55 139H39.7c-.5 0-.9-.4-.9-1v-2.3c0-.6.4-1 1-1h15c.5 0 1 .4 1 1v2.3c0 .6-.5 1-1 1Zm-15.1-3.5-.1.2v2.5H55v-2.7H40Z"/><path fill="#50AA50" d="m41.5 126 .7.1c.3 0 .3-.3 0-.4h-.7c-.3-.1-.3.3 0 .3Zm1.1-3.3v.4c0 .3.4.3.4 0v-.4c0-.2-.4-.2-.4 0Zm1.4 3.9.6-.3c.2-.1 0-.5-.2-.4l-.6.3c-.2.2 0 .5.2.4Zm-2.1 4.8.6-.4c.2-.2 0-.6-.2-.4l-.6.5c-.3.1 0 .5.2.3Zm-1.6-3.6.5.2c.2.1.3-.3 0-.4l-.4-.2c-.2 0-.4.3-.1.4Zm3 2h.3c.1.3.4 0 .3-.2a.7.7 0 0 0-.6-.3c-.2 0-.2.4 0 .5Zm1 1.9v.9c.2.2.5 0 .4-.3v-.4c0-.3-.4-.4-.4-.2Zm2.1.1.4.1c.3 0 .4-.3.1-.4h-.3c-.3-.2-.4.2-.2.3Zm1.4-4.1c0 .2 0 .4.2.6.3.2.5-.1.3-.3a.3.3 0 0 1 0-.3c0-.3-.5-.3-.5 0Zm-.5-3c-.2.2-.2.3-.1.5 0 .3.4.2.4 0v-.3c.2-.2-.2-.4-.3-.2Zm2.3 1.3v.3c0 .3.4.3.4 0v-.4c0-.3-.4-.3-.4 0Zm-3.9-.7.2.1c.3.2.5-.2.2-.3l-.2-.2c-.3-.2-.5.2-.2.4Zm.7-3.5v.3c.1.3.5.3.5 0a1 1 0 0 0-.2-.6c-.2-.2-.5 0-.3.3Zm1-1.3v.6c0 .2.4.2.4 0v-.6c0-.3-.4-.3-.4 0ZM50 123l.2.2c.2.2.5-.1.3-.3l-.2-.2c-.2-.2-.5 0-.3.3Zm.4-2.5h.6c.2 0 .2-.4 0-.4h-.6c-.2 0-.2.4 0 .4Zm.6-3.4.4.4c.2.2.5-.1.3-.3l-.4-.4c-.2-.2-.5.1-.3.3Zm1.6-1.1v.7c0 .3.5.3.5 0v-.7c0-.2-.5-.2-.5 0Zm.8 4 .2-.3c.1-.2-.2-.5-.4-.2l-.2.2c-.1.3.3.5.4.3Zm-1.4 4 .4-.1c.3-.1.2-.5 0-.4l-.5.2c-.3 0-.2.5 0 .4Zm1.8-.5.5-.1c.3 0 .1-.5-.1-.4h-.5c-.2.1-.1.5.1.5Zm-1.2 2c0 .3.5.3.5 0s-.5-.3-.5 0Zm-3.6 6.4.3-.2c.2-.2 0-.5-.2-.4l-.3.2c-.2.2 0 .5.2.4Zm-.2 1.5.6-.3c.2 0 .1-.4-.2-.4l-.7.4c-.2.2.1.5.3.3Zm-1.8.3.2.2c0 .2.4 0 .3-.3v-.1c-.2-.3-.6 0-.4.2Zm-1.5.4c.2.2.4.2.7.1.2 0 .1-.4-.1-.4h-.4c-.3-.2-.5.2-.2.3Zm3.5-4h.8c.2 0 .2-.5 0-.5l-.9.1c-.2 0-.2.5 0 .4Z"/><path fill="#D7E7FF" d="m86.5 111.8 13.6-12.3c.6-.6-.4-1.6-1-1l-13.6 12.3c-.6.6.3 1.6 1 1Zm15.3 6.2 13.6-12.3c.6-.6-.4-1.5-1-1L100.8 117c-.6.6.4 1.6 1 1Zm-16.6 4.6L113.6 95c.6-.6-.4-1.6-1-1l-28.4 27.7c-.7.7.3 1.7 1 1Z"/><path fill="#415B91" d="M128.6 36.5h-.6v39h.6v-39Z"/><path fill="#415B91" d="M130.7 75.6a2.5 2.5 0 1 1-5 0 2.5 2.5 0 0 1 5 0Z"/><path fill="#415B91" d="M128.3 84s-.8 0-1.4-.7c-.4-.4-.6-1-.6-1.6 0-.2.1-.3.3-.3.2 0 .3.1.3.3 0 .5.2.9.4 1.2.4.3 1 .4 1 .4a1.7 1.7 0 0 0 0-3.4.3.3 0 0 1-.3-.3v-1.9c0-.1.1-.3.3-.3.2 0 .3.2.3.3v1.6a2.3 2.3 0 0 1-.3 4.6Z"/><path fill="#415B91" d="M115.3 85.4a.3.3 0 0 1-.3-.2c0-.2.1-.3.3-.4l13.4-2c.2 0 .3.2.4.3 0 .2-.1.3-.3.4l-13.4 2h-.1Z"/><path fill="#415B91" d="M141 90v-.1l-12.4-6.5a.3.3 0 0 1-.1-.4c0-.1.2-.2.4-.1l12.3 6.4c.2.1.2.3.2.4 0 .2-.2.2-.4.2Z"/><path fill="#fff" d="m144.4 90.5-32.9-5.7c-1.7-.3-3.3.9-3.6 2.6l-3.3 19c-.3 1.6.8 3.3 2.6 3.6l32.8 5.7c1.8.3 3.4-.9 3.7-2.6l3.3-19c.3-1.6-.9-3.3-2.6-3.6Z"/><path fill="#415B91" d="M140.5 116.1h-.6l-32.7-5.7a3.7 3.7 0 0 1-3-4.3l3.2-18.7c.4-2 2.3-3.3 4.3-3l32.7 5.7a3.7 3.7 0 0 1 3 4.3L144 113c-.3 1.8-1.8 3-3.6 3Zm-29.4-31c-1.4 0-2.6 1-2.8 2.5l-3.3 18.7a2.9 2.9 0 0 0 2.3 3.3l32.7 5.7c1.6.3 3-.8 3.3-2.4l3.3-18.7c0-.7 0-1.5-.5-2.1-.5-.6-1.1-1-1.9-1.2l-32.6-5.7a3 3 0 0 0-.5 0Z"/><path fill="#B6D0FB" d="m143.5 92.4-31.7-5.5a2 2 0 0 0-2.4 1.6l-3 17.3a2 2 0 0 0 1.7 2.3l31.7 5.6a2 2 0 0 0 2.3-1.7l3-17.3a2 2 0 0 0-1.6-2.3Z"/><path fill="#405B91" d="M140 114h-.4l-31.5-5.4a2.5 2.5 0 0 1-2-3l3-17.1a2.5 2.5 0 0 1 2.8-2l31.6 5.4c1.4.3 2.3 1.6 2 3l-3 17.1a2.5 2.5 0 0 1-2.4 2Zm-.2-.8a1.7 1.7 0 0 0 2-1.3l3-17.2c0-.9-.5-1.8-1.5-2l-31.5-5.4c-1-.2-1.8.4-2 1.3l-3 17.2a1.7 1.7 0 0 0 1.4 2l31.6 5.4Z"/><path fill="#fff" d="m124.8 111 8.2-7.5 4.5 9.7-12.7-2.2Z"/><path fill="#415B91" d="m138 113.6-13.9-2.4 9-8.2 4.9 10.6Zm-12.6-2.8 11.6 2-4.1-8.8-7.5 6.8Z"/><path fill="#fff" d="M108.5 108.2 123.1 95l8 17.2-22.6-3.9Z"/><path fill="#415B91" d="m131.6 112.5-23.7-4.1 15.3-14 8.4 18.1Zm-22.5-4.5 21.5 3.8-7.6-16.5-14 12.7Z"/><path fill="#fff" d="M140.4 97.4a2 2 0 1 1-4-.7 2 2 0 0 1 4 .7Z"/><path fill="#415B91" d="M138.4 99.4h-.4a2.3 2.3 0 1 1 .4 0Zm0-4.1a1.8 1.8 0 0 0-1.5 2.8 1.7 1.7 0 0 0 3.2-.7 1.8 1.8 0 0 0-1.7-2.1Z"/><path fill="#B6D0FB" d="M153.4 35.2H123v3.3h30.5v-3.3Z"/><path fill="#415B91" d="M180 104.6h-10.2V15h10.1v89.6Zm-9.2-1h8.1V16h-8.1v87.6Z"/><path fill="#415B91" d="M179.8 24.9h-9.9V15h9.9v9.9Zm-8.9-1h7.9V16h-7.9v8Z"/><path fill="#415B91" d="m170.8 15.1-.7.8 8.8 8.8.7-.7-8.8-8.9Z"/><path fill="#415B91" d="m179 15.2-9 8.8.8.7 8.8-8.8-.7-.7Z"/><path fill="#415B91" d="M179.8 33.7h-9.9V24h9.9v9.8Zm-8.9-1h7.9V25h-7.9v7.8Z"/><path fill="#415B91" d="m170.8 24-.7.7 8.8 8.9.7-.7-8.8-8.9Z"/><path fill="#415B91" d="m179 24-9 8.9.8.7 8.8-8.9-.7-.7Z"/><path fill="#415B91" d="M179.8 42.6h-9.9v-9.9h9.9v9.9Zm-8.9-1h7.9v-7.9h-7.9v7.9Z"/><path fill="#415B91" d="m170.8 32.9-.7.7 8.8 8.8.7-.7-8.8-8.8Z"/><path fill="#415B91" d="m179 32.9-9 8.8.8.7 8.8-8.8-.7-.7Z"/><path fill="#415B91" d="M179.8 51.4h-9.9v-9.8h9.9v9.8Zm-8.9-1h7.9v-7.8h-7.9v7.8Z"/><path fill="#415B91" d="m170.8 41.7-.7.7 8.8 8.9.7-.7-8.8-8.9Z"/><path fill="#415B91" d="m179 41.7-9 8.9.8.7 8.8-8.9-.7-.7Z"/><path fill="#415B91" d="M179.8 60.3h-9.9v-9.9h9.9v10Zm-8.9-1h7.9v-7.9h-7.9v7.9Z"/><path fill="#415B91" d="m170.8 50.6-.7.7 8.8 8.9.7-.8-8.8-8.8Z"/><path fill="#415B91" d="m179 50.6-9 8.8.8.8 8.8-8.9-.7-.7Z"/><path fill="#415B91" d="M179.8 69.2h-9.9v-10h9.9v10Zm-8.9-1h7.9v-7.9h-7.9v7.9Z"/><path fill="#415B91" d="m170.8 59.4-.7.8 8.8 8.8.7-.7-8.8-8.9Z"/><path fill="#415B91" d="m179 59.4-9 8.9.8.7 8.8-8.8-.7-.8Z"/><path fill="#415B91" d="M179.8 78h-9.9v-9.8h9.9V78Zm-8.9-1h7.9v-7.8h-7.9V77Z"/><path fill="#415B91" d="m170.8 68.3-.7.7 8.8 8.9.7-.7-8.8-8.9Z"/><path fill="#415B91" d="m179 68.3-9 8.9.8.7 8.8-8.9-.7-.7Z"/><path fill="#415B91" d="M179.8 86.9h-9.9V77h9.9v10Zm-8.9-1h7.9V78h-7.9v8Z"/><path fill="#415B91" d="m170.8 77.2-.7.7 8.8 8.8.7-.7-8.8-8.8Z"/><path fill="#415B91" d="m179 77.2-9 8.8.8.7 8.8-8.8-.7-.7Z"/><path fill="#415B91" d="M179.8 95.7h-9.9V86h9.9v9.8Zm-8.9-1h7.9V87h-7.9v7.8Z"/><path fill="#415B91" d="m170.8 86-.7.7 8.8 8.9.7-.7-8.8-8.9Z"/><path fill="#415B91" d="m179 86-9 8.9.8.7 8.8-8.9-.7-.7Z"/><path fill="#415B91" d="M179.8 104.6h-9.9v-9.9h9.9v9.9Zm-8.9-1h7.9v-7.9h-7.9v7.9Z"/><path fill="#415B91" d="m170.8 94.9-.7.7 8.8 8.8.7-.7-8.8-8.8Z"/><path fill="#415B91" d="m179 94.9-9 8.8.8.7 8.8-8.8-.7-.7Zm18.4-61.3h-9.9v-9.9h9.9v9.9Zm-8.8-1h7.8v-7.9h-7.8v7.9Z"/><path fill="#415B91" d="m196.5 23.9-8.8 8.8.7.8 8.9-9-.8-.6Z"/><path fill="#415B91" d="m188.4 23.9-.7.7 8.8 8.8.8-.7-8.9-8.8Z"/><path fill="#415B91" d="M188.6 33.6h-10v-9.9h10v9.9Zm-8.9-1h7.8v-7.9h-7.8v7.9Z"/><path fill="#415B91" d="m187.7 23.9-8.9 8.8.7.7 8.9-8.8-.7-.7Z"/><path fill="#415B91" d="m179.5 23.9-.7.7 8.9 8.8.7-.7-8.9-8.8Z"/><path fill="#415B91" d="M179.7 33.6h-9.9v-9.9h9.9v9.9Zm-8.9-1h7.9v-7.9h-7.9v7.9Z"/><path fill="#415B91" d="M170.8 33.6H161v-9.9h9.8v9.9Zm-8.8-1h7.8v-7.9H162v7.9Z"/><path fill="#415B91" d="m170 23.9-8.9 8.8.7.7 8.9-8.8-.7-.7Z"/><path fill="#415B91" d="m161.8 23.9-.7.7 8.9 8.9.7-.8-8.9-8.8Z"/><path fill="#415B91" d="M162 33.6h-10v-9.9h9.9v9.9Zm-8.9-1h7.9v-7.9h-8v7.9Z"/><path fill="#415B91" d="m161.1 23.9-8.8 8.8.7.7 8.8-8.8-.7-.7Z"/><path fill="#415B91" d="m153 23.9-.7.7 8.8 8.8.7-.7L153 24Z"/><path fill="#415B91" d="M153.1 33.6h-9.8v-9.9h9.8v9.9Zm-8.8-1h7.8v-7.9h-7.8v7.9Z"/><path fill="#415B91" d="M143.8 33.6h-8.9a.5.5 0 0 1-.4-.9l9-8.8.6.7-8 8h7.5l8.7-8.7.7.7-8.9 8.9-.3.1Z"/><path fill="#415B91" d="m144.1 23.9-.7.7 8.9 8.8.7-.7-9-8.7Zm35.9 90.6h-10.2v-10h10.1v10Zm-9.2-1h8.1v-7.9h-8v7.8Z"/><path fill="#415B91" d="m179 114.3-9-8.8.7-.8 9 8.9-.7.7Z"/><path fill="#415B91" d="m170.7 114.3-.8-.7 9.1-8.9.8.8-9.1 8.8Zm9.3 35.6h-10.2V140h10.1v9.9Zm-9.2-1h8.1V141h-8v7.9Z"/><path fill="#415B91" d="m179 149.7-9-8.8.7-.7 9 8.8-.7.7Z"/><path fill="#415B91" d="m170.7 149.7-.8-.7 9.1-8.8.8.7-9.1 8.8Zm9.3-27.2h-10.2v-9.9h10.1v9.9Zm-9.2-1h8.1v-7.9h-8v7.9Z"/><path fill="#415B91" d="m179 122.3-9-8.8.7-.7 9 8.8-.7.7Z"/><path fill="#415B91" d="m170.7 122.3-.8-.7 9.1-8.8.8.7-9.1 8.8Z"/><path fill="#415B91" d="M180 131.3h-10.2v-9.8h10.1v9.8Zm-9.2-1h8.1v-7.8h-8v7.8Z"/><path fill="#415B91" d="m179 131.2-9-8.9.7-.7 9 8.9-.7.7Z"/><path fill="#415B91" d="m170.7 131.2-.8-.7 9.1-8.9.8.7-9.1 8.9Z"/><path fill="#415B91" d="M180 140.2h-10.2v-9.9h10.1v9.9Zm-9.2-1h8.1v-7.9h-8v7.9Z"/><path fill="#415B91" d="m179 140-9-8.8.7-.7 9 8.8-.7.7Z"/><path fill="#415B91" d="m170.7 140-.8-.7 9.1-8.8.8.7-9.1 8.8Z"/><path fill="#405B91" d="M66.7 68.7c1.1 0 1.1-1.7 0-1.7-1 0-1 1.7 0 1.7Zm91-17.5c1.1 0 1.1-1.7 0-1.7-1 0-1 1.7 0 1.7Zm37.7 60.1h.4c.4 0 .8-.4.8-.9 0-.4-.4-.8-.8-.8h-.4c-.4 0-.9.4-.9.8 0 .5.4.9.9.9ZM33.5 123.6c1.1 0 1.1-1.7 0-1.7-1 0-1 1.7 0 1.7ZM113.7 43c1.1 0 1.1-1.7 0-1.7-1 0-1 1.7 0 1.7Z"/></g><path fill="#1E40AF" d="M31.2 175.2a50.7 50.7 0 0 1 0-3c1.4 0 2.5 0 3.3-.2.7-.2 1.3-.4 1.6-.8a4 4 0 0 0 1-1.6l2 .2-.3 1.4c0 .3 0 .5.2.6l.6.2.2 1.5-.2 1.5a2.7 2.7 0 0 1-2-1 2 2 0 0 1-.4-1.2l.3.1a5.6 5.6 0 0 1-3.7 2.1l-2.6.2Zm-3.8-6a147.7 147.7 0 0 0-.4 1.8c0 .2.2.4.6.6l1.5.4c.6.2 1.4.2 2.2.2a23.1 23.1 0 0 1 0 3c-1.3 0-2.4-.1-3.3-.4a5 5 0 0 1-2.2-1.2 3 3 0 0 1-1-2.3l.3-1.5c0-.6.3-1.1.5-1.6l1.8 1Zm3.1-3 1.5 1.6-1 1-.5.5-.5-.5-1-1 1.5-1.6Zm2.8 0 1.5 1.6-1 1-.5.5-.5-.5-1-1 1.5-1.6Zm15 5.8c.4 0 .7 0 1-.2.3-.2.4-.3.4-.6l1.8.2c0 .7-.2 1.3-.5 1.8-.2.6-.6 1-1 1.3-.6.3-1 .5-1.6.5v-3Zm4.5 0 .1 1.5-.1 1.5h-.1c-.7 0-1.3-.2-1.8-.7-.5-.4-.9-1-1.1-2l-.6-2.6 2-.6a91.8 91.8 0 0 0 .5 2.3c0 .2.1.4.3.4l.7.2h.1Zm-8.7 3v-3c.6 0 1-.2 1.2-.7l.5-1.8 2 .1a21 21 0 0 0-.2 1.5c0 .2 0 .5.2.6.1.2.3.3.6.3l.2 1.5-.2 1.5c-.5 0-1-.1-1.4-.4a3 3 0 0 1-1-1.2h.5c-.3.6-.7 1-1 1.2-.5.3-.9.4-1.4.4Zm-4.6 0-.2-1.5.2-1.5c.4 0 .7 0 1-.2.3-.1.5-.2.6-.4.4-.4.7-1 .9-1.8l2 .2a44.2 44.2 0 0 0-.4 1.6c0 .4.2.6.5.6l.2 1.5-.1 1.5H44c-.5 0-.9-.1-1.2-.3-.4-.2-.6-.5-.8-.9l-1.2 1-1.3.2Zm13.1-3h.1l2-.1a2 2 0 0 0 1-.4l.2-.6c0-.5 0-1-.2-1.6l2-.4c.2.9.2 1.8.2 2.7l.4.3h.7l.2 1.6-.2 1.5c-.5 0-1-.1-1.4-.4-.4-.2-.8-.5-1-.9l.4.1c-.4.4-.9.7-1.5 1l-2.8.2v-3Zm-.2 4.3 1.5 1.5-1 1-.5.5-.5-.5-1-1 1.5-1.5Zm2.8 0 1.5 1.5-1 1-.5.5-.5-.5-1-1 1.5-1.5Zm3.6-4.3h.9c1.3 0 2-.3 2-.8l-.4-1.2-.5-1.4 2-1.2a13.7 13.7 0 0 1 1 4c0 1.2-.3 2-1 2.7-.7.6-1.8.9-3.1.9h-.9v-3Zm.7-6.6 1.7-1.8 1.7 1.8-1.7 1.6-1.7-1.6Zm23 6.6c.2 0 .4 0 .5-.2l.3-.5c0-.4-.3-1.3-.9-2.7l2-1.1a11.4 11.4 0 0 1 1 3.9c0 .7-.2 1.3-.4 1.8-.3.6-.6 1-1 1.3a3 3 0 0 1-1.6.5v-3Zm-4.4 3v-3c.6 0 1-.2 1.2-.7l.5-1.8 2 .1a21 21 0 0 0-.2 1.5c0 .2 0 .5.2.6.1.2.3.3.6.3l.2 1.5-.2 1.5c-.6 0-1-.1-1.4-.4-.5-.3-.8-.7-1-1.2h.5c-.4.6-.7 1-1.1 1.2a2 2 0 0 1-1.3.4Zm-1.4-4.4.4.9.4.4h.8l-.1 3.1c-.8 0-1.4-.3-2-.9-.5-.6-1-1.4-1.3-2.4l1.8-1.1Zm-7.1.8-.6 1.7c-.2.4-.2.9-.2 1.4 0 1.5 1 2.2 3 2.2.7 0 1.3 0 1.8-.3a3 3 0 0 0 1.3-.9c.3-.4.5-.8.5-1.2 0-.5-.4-1.7-1.1-3.7l2-1.2a15.3 15.3 0 0 1 1.1 4.9 5.4 5.4 0 0 1-5.6 5.4c-1 0-1.9-.2-2.7-.5-.7-.4-1.4-1-1.8-1.7a5 5 0 0 1-.7-2.6v-.6c.1-1 .5-2.3 1.2-3.7l1.8.8Zm21.6 3.6c-.8 0-1.4-.3-2-.9a7 7 0 0 1-1.2-2.4l1.8-1.1c.2.5.3.9.5 1 .2.3.5.4.9.4h.2l.1 1.5-.1 1.5h-.2Zm-6.8 2.2a14.9 14.9 0 0 0 3.4-2.1c.4-.3.5-.6.5-.8 0-.4-.3-1.7-1-3.8l2.2-.9a14.3 14.3 0 0 1 .9 4.7c0 1.1-.5 2.1-1.3 3-.8 1-2 1.8-3.4 2.4l-1.3-2.5Zm6.8-5.2h.1l2-.1a2 2 0 0 0 .9-.4c.2-.1.3-.4.3-.6 0-.5 0-1-.2-1.6l2-.4.2 2.7.4.3h.7l.2 1.6-.2 1.5c-.5 0-1-.1-1.4-.4-.4-.2-.8-.5-1-.9l.4.1c-.4.4-.9.7-1.5 1l-2.8.2v-3Zm1-7.1 1.6 1.5-1 1-.6.5-.4-.5-1-1 1.4-1.5Zm2.8 0 1.5 1.5-1 1-.5.5-.5-.5-1-1 1.5-1.5Zm11.4 7 .6-.1.3-.5c0-.4-.3-1.3-.9-2.7l2-1.1a11.4 11.4 0 0 1 1 3.9c0 .7-.2 1.3-.4 1.8-.3.6-.6 1-1 1.3a3 3 0 0 1-1.6.5v-3Zm-4.3 3.1v-3c.6 0 1-.2 1.2-.7l.5-1.8 2 .1a21.7 21.7 0 0 0-.2 1.5c0 .2 0 .5.2.6.1.2.3.3.6.3l.2 1.5-.2 1.5c-.6 0-1-.1-1.5-.4-.4-.3-.7-.7-.9-1.2h.5c-.4.6-.7 1-1.1 1.2a2 2 0 0 1-1.3.4Zm-4.6 0-.2-1.5.2-1.5c.4 0 .7 0 1-.2.2-.1.5-.2.6-.4.4-.4.7-1 .9-1.8l2 .2a48.6 48.6 0 0 0-.4 1.6c0 .4.2.6.5.6l.2 1.5-.1 1.5h-.2a2.1 2.1 0 0 1-2-1.2l-1.1 1-1.4.2Zm13.8-3.4 1.2.5 1.4.1 1.4-.1.7-.3c-.2-1-1.4-2.2-3.3-3.5l1.4-2.7c1.3.9 2.3 1.9 3 3a5 5 0 0 1 1.2 3.1c0 .5-.1 1-.3 1.4a3 3 0 0 1-1.5 1.5 6 6 0 0 1-6.2-.8l1-2.2Zm8.4 5.6a14.8 14.8 0 0 0 3.4-2.1c.4-.3.6-.6.6-.8 0-.4-.4-1.7-1-3.8l2.1-.9a14.3 14.3 0 0 1 .9 4.7c0 1.1-.4 2.1-1.3 3-.8 1-2 1.8-3.4 2.4l-1.3-2.5Zm8-5.6 1.1.5 1.4.1 1.4-.1.8-.3c-.3-1-1.4-2.2-3.4-3.5l1.5-2.7c1.2.9 2.2 1.9 3 3a5 5 0 0 1 1.1 3.1c0 .5 0 1-.2 1.4a3 3 0 0 1-1.5 1.5 6 6 0 0 1-2.4.5 6 6 0 0 1-3.8-1.4l1-2Zm25.3.4c.3 0 .6 0 1-.2.2-.2.3-.3.3-.6l1.9.2c0 .7-.3 1.3-.5 1.8a3 3 0 0 1-1.2 1.3c-.4.3-1 .5-1.5.5v-3Zm4.4 0 .2 1.5-.2 1.5c-.8 0-1.4-.2-1.9-.7-.4-.4-.8-1-1.1-2a30 30 0 0 1-.6-2.6l2-.6a100.2 100.2 0 0 0 .5 2.3c0 .2.2.4.3.4l.7.2h.1Zm-8.7 3v-3c.6 0 1-.2 1.2-.7.2-.5.4-1 .5-1.8l2 .1a21.7 21.7 0 0 0-.2 1.5c0 .2 0 .5.2.6.1.2.4.3.6.3l.2 1.5-.1 1.5c-.6 0-1.1-.1-1.5-.4a4 4 0 0 1-1-1.2h.5c-.3.6-.7 1-1 1.2-.4.3-.9.4-1.4.4Zm-1.3-4.4.3.9.5.4h.7l-.1 3.1c-.8 0-1.4-.3-2-.9-.5-.6-1-1.4-1.3-2.4l1.9-1.1Zm-7.2.8a20 20 0 0 0-.6 1.7c-.2.4-.2.9-.2 1.4 0 1.5 1 2.2 3 2.2.7 0 1.3 0 1.9-.3a3 3 0 0 0 1.2-.9c.4-.4.5-.8.5-1.2 0-.5-.4-1.7-1.1-3.7l2-1.2a15.3 15.3 0 0 1 1.1 4.9 5.4 5.4 0 0 1-5.6 5.4 7 7 0 0 1-2.6-.5c-.8-.4-1.4-1-1.9-1.7a5 5 0 0 1-.7-2.6v-.6c.1-1 .5-2.3 1.2-3.7l1.8.8Zm11-8.1 1.3 1.2-1.3 1.2-.8-.8-.4-.4 1.2-1.2Zm1.6 1.8 1.4 1.4-1.4 1.4-1.4-1.4 1.4-1.4Zm-3 0 1.3 1.4-1.4 1.4-1.4-1.4 1.4-1.4Zm7.4 6.9h.9c1 0 1.7 0 2.1-.2.4-.2.6-.4.6-.7l-.8-2.5 2-1.2a11.8 11.8 0 0 1 1 3.9c0 1.2-.4 2-1.2 2.7-.7.7-1.8 1-3.2 1h-1.4v-3Zm.2 4.3 1.5 1.5-1 1-.5.5-.5-.5-1-1 1.5-1.5Zm2.8 0 1.5 1.5-1 1-.5.5-.5-.5-1-1 1.5-1.5Zm6.4-13.6a40.3 40.3 0 0 1 .4 7.7v1l.4.5h.8l.2 1.6-.1 1.5h-.1c-2.4 0-3.5-1.4-3.6-4.3 0-3-.2-5.4-.5-7.5l2.5-.5Zm1.5 9.3h.8c1 0 1.7 0 2.2-.2.4-.2.6-.4.6-.7 0-.3-.3-1.1-.9-2.5l2-1.2a11.7 11.7 0 0 1 1 3.9c0 1.2-.3 2-1 2.7-.8.7-2 1-3.4 1h-1.3v-3Zm3.5 4.1 1.4 1.4-1.4 1.4-1.5-1.4 1.5-1.4Zm-3.1 0 1.4 1.4-1.4 1.4-1.4-1.4 1.4-1.4Zm1.5 2.2 1.3 1.2-1.3 1.3-.8-.9-.4-.4 1.2-1.2Zm22.6-6.3c.4 0 .7 0 1-.2.3-.2.4-.3.4-.6l1.8.2c0 .7-.2 1.3-.5 1.8-.2.6-.6 1-1 1.3-.6.3-1 .5-1.6.5v-3Zm4.5 0 .1 1.5-.1 1.5h-.1c-.7 0-1.3-.2-1.8-.7-.5-.4-.8-1-1.1-2l-.6-2.6 2-.6a88.7 88.7 0 0 0 .5 2.3c0 .2.1.4.3.4l.7.2h.1Zm-8.7 3v-3c.6 0 1-.2 1.2-.7l.5-1.8 2 .1a19.4 19.4 0 0 0-.2 1.5c0 .2 0 .5.2.6.1.2.3.3.6.3l.2 1.5-.1 1.5c-.6 0-1.1-.1-1.5-.4a3 3 0 0 1-1-1.2h.5c-.3.6-.7 1-1 1.2-.5.3-.9.4-1.4.4Zm-1.3-4.4c0 .4.2.7.3.9l.5.4h.7l-.1 3.1c-.8 0-1.4-.3-2-.9-.5-.6-1-1.4-1.3-2.4l1.9-1.1Zm-7.2.8-.6 1.7c-.2.4-.2.9-.2 1.4 0 1.5 1 2.2 3 2.2.7 0 1.3 0 1.9-.3a3 3 0 0 0 1.2-.9c.3-.4.5-.8.5-1.2 0-.5-.4-1.7-1.1-3.7l2-1.2a15.4 15.4 0 0 1 1.1 4.9 5.4 5.4 0 0 1-5.6 5.4c-1 0-1.9-.2-2.6-.5-.8-.4-1.5-1-2-1.7a5 5 0 0 1-.6-2.6v-.6c.1-1 .5-2.3 1.2-3.7l1.8.8Zm22-2.2 1.4 1.8 1 .8.8.2h.3l.2 1.5-.2 1.5h-.3c-.5 0-1-.1-1.4-.4-.5-.3-1-.8-1.4-1.3a30 30 0 0 1-1.7-2.4l1.4-1.7Zm2.6-4-4.4 1.8a12 12 0 0 1 1.8 2 4 4 0 0 1 1 2.7v.5a3 3 0 0 1-1.8 2.1 8 8 0 0 1-3.5.7h-.7v-3h.7c.7 0 1.4 0 2-.2.6 0 1-.2 1.2-.4a13 13 0 0 0-3.3-3.6l.2-2.6 6-2.5.8 2.4Zm.8 6.8h.2c3.3 0 5.8-.3 7.5-.8l.6 2.6c-1 .4-2 .7-3.4.9-1.3.2-3 .3-4.7.3h-.2v-3Zm5.5 2.3h-.4c-.7 0-1.4 0-2-.4a3.5 3.5 0 0 1-2.1-3.3c0-.7.1-1.3.4-2 .4-.6.8-1 1.4-1.5.6-.3 1.2-.5 2-.5.5 0 1 .1 1.5.4.6.2 1 .5 1.5.9l-.9 2a6.4 6.4 0 0 0-2.4-.3 2.7 2.7 0 0 0-1.4.6l-.2.4c0 .2.1.4.3.5l.7.5a3 3 0 0 0 1.4.1l.2 2.6Z"/><path fill="#60A5FA" d="M157.1 207.2V202h-24.4v13.1h20v2.7h-36.3V202H112v21h45.1v-13.1h-20v-2.7h20Zm-56.3-5.2h-4.4v5.2h4.4V202Zm-10.9 15.8h-4.4v5.2h4.4v-5.2Zm17.5-15.8H103v5.2h4.4V202Z"/><path fill="#60A5FA" d="M103 217.8h-2.2v-7.9h-7.6V202h-4.5v7.9h-2.2V202h-4.4v13.1h14.3v7.9h11v-13.1H103v7.9Z"/><defs><clipPath id="a"><path fill="#fff" d="M0 0h216v136H0z" transform="translate(11.1 15)"/></clipPath></defs></svg>