<svg width="82" height="50" viewBox="0 0 82 50" fill="none" xmlns="http://www.w3.org/2000/svg">
<path d="M42.7464 24.5695C42.9336 24.7238 43.0887 24.8433 43.2291 24.9687C43.9423 25.5935 44.6395 26.2276 45.3664 26.8431C46.051 27.4221 46.8897 27.3559 47.4044 26.6828C48.558 25.1739 49.7128 23.6649 50.8277 22.139C51.0901 21.7788 51.2921 21.7279 51.7702 21.9313C56.6906 24.0201 59.8241 27.0982 61.1272 31.1978C61.4342 32.1634 60.8397 32.7059 59.5171 32.7059H25.9803C24.652 32.7059 24.0587 32.1702 24.3645 31.2021C25.6745 27.0533 28.8593 23.9549 33.8641 21.8771C34.2681 21.7075 34.413 21.8152 34.599 22.0644C35.7332 23.5819 36.8743 25.0959 38.0223 26.6065C38.6111 27.3831 39.4087 27.4543 40.1904 26.7846C40.8887 26.1912 41.5597 25.5766 42.2512 24.973C42.4041 24.8458 42.5524 24.7263 42.7464 24.5695Z" fill="url(#paint0_angular_13992_2662)"/>
<path d="M15.6285 12.0925C15.5757 11.3024 15.5391 10.5123 15.4633 9.72815C15.4335 9.41705 15.5838 9.24817 15.9643 9.11484C15.9643 9.11484 17.7934 8.52227 19.2217 7.91785C19.3707 7.85563 19.8662 7.64329 19.8148 7.50305C19.8066 7.48132 19.7823 7.45465 19.4627 7.3312C19.3461 7.27952 19.2238 7.23493 19.0972 7.19787C17.9707 6.96677 16.8389 6.74554 15.6976 6.55691C15.1749 6.47 14.9488 6.27544 14.8852 5.89915C14.7227 5.01919 14.5305 4.14317 14.3247 3.26814C14.3132 3.22801 14.2968 3.18868 14.276 3.15061C14.1798 2.9442 14.1284 2.8326 14.0268 2.81383C13.9253 2.79507 13.7696 2.89877 13.5638 3.05481C13.5197 3.08503 13.4793 3.11808 13.4433 3.15358C12.7591 3.89034 12.0962 4.63599 11.4544 5.39053C11.2107 5.67892 10.9562 5.79644 10.4661 5.7283C10.4661 5.7283 8.27278 5.39053 6.79568 5.30362C6.48835 5.28584 6.14852 5.27695 6.05781 5.40238C5.9671 5.52781 6.17424 5.72435 6.32859 5.87051C7.95326 7.38947 8.59636 7.89513 8.59636 7.89513C8.95379 8.19636 9.03232 8.4482 8.75071 8.8146C8.75071 8.8146 7.80298 9.99975 7.04886 11.2244C6.97304 11.3469 6.84171 11.5671 6.96627 11.6728C7.09083 11.7784 7.40764 11.7192 7.59042 11.6817C8.89287 11.415 11.1823 10.6674 11.1823 10.6674C11.5993 10.5419 11.8809 10.5834 12.1937 10.8224C12.1937 10.8224 13.618 11.975 14.7661 12.7108C15.0125 12.8678 15.3212 13.0495 15.4891 12.9814C15.615 12.931 15.6244 12.7532 15.6529 12.4382C15.6651 12.2969 15.6624 12.1784 15.6529 12.0935L15.6285 12.0925Z" fill="#0C50A3"/>
<path d="M6.6441 24.724C7.33053 24.1136 8.02914 23.5102 8.69661 22.889C8.95927 22.644 9.22734 22.5927 9.63216 22.6796C9.63216 22.6796 11.5371 23.1329 13.1523 23.3867C13.3188 23.4124 13.882 23.4983 13.9728 23.3699C13.9863 23.3492 13.9931 23.3166 13.8699 23.0737C13.8308 22.978 13.781 22.8848 13.7209 22.7952C13.0981 22.0722 12.4618 21.3542 11.7889 20.656C11.4816 20.337 11.4924 20.0812 11.7889 19.7671C12.4767 19.0353 13.1428 18.2907 13.7927 17.5421C13.8207 17.5063 13.8447 17.469 13.8644 17.4305C13.9836 17.2329 14.0472 17.1223 13.989 17.0581C13.9308 16.9939 13.7182 16.9959 13.4231 17.0117C13.363 17.0123 13.3032 17.0169 13.2444 17.0255C12.0619 17.2389 10.8863 17.4693 9.71745 17.7169C9.27066 17.8156 8.97416 17.7741 8.6736 17.4838C8.6736 17.4838 7.35761 16.1604 6.34219 15.3723C6.13098 15.2093 5.88592 15.0365 5.70585 15.0839C5.52578 15.1313 5.49465 15.3802 5.47704 15.5639C5.28614 17.4858 5.29698 18.1751 5.29698 18.1751C5.28479 18.5702 5.11149 18.7983 4.56587 18.9326C4.56587 18.9326 2.76925 19.3514 1.08771 19.8866C0.918471 19.94 0.61926 20.0397 0.613844 20.1829C0.608429 20.3261 0.898163 20.4328 1.06875 20.495C2.28726 20.9345 4.66471 21.5004 4.66471 21.5004C5.08983 21.612 5.26042 21.7799 5.27261 22.1098C5.27261 22.1098 5.27261 23.6613 5.4459 24.7763C5.48381 25.0133 5.54474 25.2987 5.73158 25.3303C5.86697 25.354 6.04568 25.2316 6.35302 25.0084C6.46575 24.9278 6.57284 24.8431 6.67389 24.7546L6.6441 24.724Z" fill="#0C50A3"/>
<path d="M66.7923 12.0925C66.8451 11.3024 66.8816 10.5123 66.9574 9.72815C66.9872 9.41705 66.8369 9.24817 66.4565 9.11484C66.4565 9.11484 64.6274 8.52227 63.199 7.91785C63.0501 7.85563 62.5546 7.64329 62.606 7.50305C62.6141 7.48132 62.6385 7.45465 62.9567 7.3312C63.0738 7.27952 63.1965 7.23493 63.3236 7.19787C64.45 6.96677 65.5819 6.74554 66.7232 6.55691C67.2458 6.47 67.4719 6.27544 67.5423 5.89915C67.7048 5.01919 67.897 4.14317 68.1028 3.26814C68.1144 3.22801 68.1307 3.18868 68.1516 3.15061C68.2463 2.9442 68.2991 2.8326 68.4007 2.81383C68.5022 2.79507 68.6579 2.89877 68.8637 3.05481C68.9075 3.08529 68.9478 3.11832 68.9842 3.15358C69.6639 3.89034 70.3246 4.63599 70.9663 5.39053C71.21 5.67892 71.4645 5.79644 71.9547 5.7283C71.9547 5.7283 74.148 5.39053 75.6251 5.30362C75.9324 5.28584 76.2722 5.27695 76.3616 5.40238C76.4509 5.52781 76.2465 5.72435 76.0908 5.87051C74.4661 7.38947 73.823 7.89513 73.823 7.89513C73.4656 8.19636 73.3871 8.4482 73.6687 8.8146C73.6687 8.8146 74.6164 9.99975 75.3705 11.2244C75.4463 11.3469 75.5777 11.5671 75.4531 11.6728C75.3286 11.7784 75.0117 11.7192 74.8276 11.6817C73.5265 11.415 71.2371 10.6674 71.2371 10.6674C70.8201 10.5419 70.5385 10.5834 70.2257 10.8224C70.2257 10.8224 68.8014 11.975 67.6533 12.7108C67.4069 12.8678 67.0982 13.0495 66.9304 12.9814C66.8044 12.931 66.795 12.7532 66.7665 12.4382C66.7544 12.2969 66.7571 12.1784 66.7665 12.0935L66.7923 12.0925Z" fill="#5297EB"/>
<path d="M75.7767 24.724C75.0902 24.1136 74.3916 23.5102 73.7242 22.889C73.4602 22.644 73.1934 22.5927 72.7886 22.6796C72.7886 22.6796 70.8837 23.1329 69.2685 23.3867C69.102 23.4124 68.5387 23.4983 68.448 23.3699C68.4345 23.3492 68.4277 23.3166 68.5509 23.0737C68.59 22.978 68.6398 22.8848 68.6999 22.7952C69.3226 22.0722 69.959 21.3542 70.6319 20.656C70.9392 20.337 70.9284 20.0812 70.6319 19.7671C69.9441 19.0353 69.278 18.2907 68.6281 17.5421C68.6001 17.5063 68.5761 17.469 68.5563 17.4305C68.4372 17.2329 68.3736 17.1223 68.4318 17.0581C68.49 16.9939 68.7026 16.9959 68.9977 17.0117C69.0577 17.0123 69.1176 17.0169 69.1764 17.0255C70.3588 17.2389 71.5322 17.4693 72.6966 17.7169C73.1433 17.8156 73.4398 17.7741 73.7404 17.4838C73.7404 17.4838 75.0564 16.1604 76.0718 15.3723C76.283 15.2093 76.5281 15.0365 76.7082 15.0839C76.8882 15.1313 76.9194 15.3802 76.937 15.5639C77.1279 17.4858 77.117 18.1751 77.117 18.1751C77.1292 18.5702 77.3025 18.7983 77.8481 18.9326C77.8481 18.9326 79.6448 19.3514 81.3263 19.8866C81.4955 19.94 81.7947 20.0397 81.8002 20.1829C81.8056 20.3261 81.5158 20.4328 81.3453 20.495C80.1335 20.9345 77.7493 21.5004 77.7493 21.5004C77.3242 21.612 77.1536 21.7799 77.1414 22.1098C77.1414 22.1098 77.1414 23.6613 76.9681 24.7763C76.9302 25.0133 76.8679 25.2987 76.6811 25.3303C76.5457 25.354 76.3683 25.2316 76.061 25.0084C75.9483 24.9278 75.8412 24.8431 75.7401 24.7546L75.7767 24.724Z" fill="#5297EB"/>
<path d="M53.076 44.2429C53.4632 43.5061 53.8369 42.7615 54.2458 42.0346C54.4069 41.7462 54.3365 41.5506 54.0332 41.3432C54.0332 41.3432 52.5507 40.3556 51.4513 39.4668C51.3376 39.374 50.9558 39.0589 51.0655 38.9384C51.0831 38.9187 51.1183 38.8989 51.4716 38.8545C51.6051 38.8318 51.741 38.8176 51.8778 38.812C53.0462 38.8485 54.216 38.8969 55.3817 38.9779C55.9138 39.0145 56.213 38.8792 56.4404 38.5394C56.9725 37.7414 57.5303 36.9523 58.1017 36.1692C58.1295 36.1342 58.1617 36.1011 58.1978 36.0704C58.3765 35.8956 58.4686 35.8018 58.5796 35.8067C58.6906 35.8116 58.7867 35.9469 58.9154 36.1425C58.9448 36.1808 58.9689 36.2211 58.9871 36.263C59.3175 37.1189 59.6257 37.9778 59.9118 38.8397C60.0201 39.1695 60.2097 39.3394 60.7052 39.3858C60.7052 39.3858 62.9337 39.5655 64.3743 39.8204C64.6735 39.8727 64.9998 39.9418 65.0323 40.0801C65.0648 40.2184 64.7845 40.3596 64.5746 40.4633C62.3786 41.5339 61.5514 41.8687 61.5514 41.8687C61.0829 42.0731 60.9015 42.2943 61.0098 42.7062C61.0098 42.7062 61.3998 44.0523 61.5934 45.3836C61.6123 45.5169 61.6435 45.7559 61.4796 45.829C61.3158 45.9021 61.041 45.7727 60.8826 45.6947C59.7602 45.1436 57.904 43.917 57.904 43.917C57.5615 43.7027 57.2758 43.677 56.8764 43.834C56.8764 43.834 55.0297 44.6034 53.6203 45.0399C53.3197 45.1327 52.9433 45.2374 52.8174 45.1327C52.7213 45.0557 52.7836 44.8838 52.8946 44.5787C52.9447 44.4424 52.9975 44.3298 53.0381 44.2508L53.076 44.2429Z" fill="#5297EB"/>
<path d="M47.4855 45.4558C46.6515 44.9531 45.8269 44.4415 44.9781 43.9526C44.6436 43.7551 44.5719 43.5645 44.6937 43.2702C44.6937 43.2702 45.3206 41.8816 45.674 40.7024C45.7105 40.5809 45.831 40.1701 45.6537 40.1039C45.6252 40.093 45.5819 40.0881 45.2475 40.178C45.1162 40.2057 44.9884 40.2417 44.8657 40.2856C43.8733 40.737 42.8863 41.1992 41.9264 41.687C41.4877 41.9102 41.1384 41.9023 40.7079 41.687C39.7074 41.1824 38.6892 40.6994 37.6643 40.2185C37.6157 40.1972 37.5645 40.1794 37.5113 40.1651C37.2406 40.0782 37.0903 40.0308 37.0023 40.0733C36.9143 40.1158 36.9156 40.2708 36.9359 40.4851C36.9367 40.5292 36.943 40.5732 36.9549 40.6165C37.2428 41.479 37.5533 42.3372 37.8864 43.1912C38.015 43.5171 37.9635 43.7334 37.5641 43.9526C37.5641 43.9526 35.7445 44.9067 34.6614 45.6454C34.4366 45.7995 34.1984 45.9772 34.2647 46.1086C34.331 46.24 34.6709 46.2637 34.9213 46.2775C37.556 46.4227 38.4997 46.4167 38.4997 46.4167C39.0412 46.4266 39.354 46.555 39.5368 46.953C39.5368 46.953 40.104 48.2646 40.8324 49.4932C40.9015 49.6196 41.0369 49.8428 41.2264 49.8428C41.416 49.8428 41.5703 49.6364 41.6556 49.5119C42.2622 48.63 43.0461 46.8928 43.0461 46.8928C43.2004 46.5827 43.4306 46.4582 43.8841 46.4513C43.8841 46.4513 46.0111 46.4592 47.5315 46.3338C47.8564 46.3061 48.2491 46.2627 48.2937 46.1264C48.3262 46.0276 48.1584 45.8973 47.8537 45.6721C47.7183 45.5733 47.5951 45.4913 47.5071 45.437L47.4855 45.4558Z" fill="url(#paint1_angular_13992_2662)"/>
<path d="M6.47739 35.1166C7.84482 34.9556 9.11884 34.8282 10.378 34.6475C10.9195 34.5705 11.2025 34.6762 11.4773 35.008C12.1069 35.7675 12.7811 36.5082 13.4608 37.245C13.584 37.3783 13.8128 37.4593 13.9929 37.5649C14.1025 37.4188 14.2758 37.2815 14.3124 37.1264C14.5236 36.2356 14.7158 35.3421 14.8891 34.446C14.9568 34.0895 15.1707 33.9117 15.673 33.8268C16.901 33.6204 18.1101 33.3715 19.3286 33.1197C19.5113 33.0821 19.6508 32.936 19.8105 32.8402C19.6833 32.7355 19.5831 32.5933 19.4247 32.533C18.2861 32.0995 17.1447 31.6688 15.9844 31.2669C15.5688 31.1237 15.4348 30.94 15.4659 30.6151C15.5525 29.6798 15.6121 28.7386 15.6554 27.8063C15.6622 27.6631 15.5309 27.5159 15.4632 27.3707C15.2709 27.4359 15.0354 27.4695 14.8932 27.5683C13.9902 28.2122 13.0952 28.863 12.226 29.5307C11.8957 29.7835 11.5924 29.8269 11.1429 29.6956C10.0192 29.3568 8.88055 29.0418 7.73922 28.7376C7.50905 28.6764 7.23421 28.704 6.97968 28.6912C7.02571 28.8838 7.01488 29.0961 7.12861 29.265C7.66204 30.063 8.21173 30.8551 8.79119 31.6353C9.00782 31.9256 8.97532 32.139 8.68694 32.3888C7.84301 33.1177 7.01714 33.8574 6.20931 34.608C6.15463 34.6636 6.1164 34.727 6.09706 34.794C6.07771 34.8609 6.07767 34.9301 6.09694 34.9971C6.13756 35.0722 6.39751 35.0939 6.47739 35.1166Z" fill="#0C50A3"/>
<path d="M28.806 38.902C28.1968 38.9297 27.5875 38.9346 26.9823 38.9929C26.4949 39.0403 26.2404 38.906 26.0346 38.5978C25.4849 37.7692 24.9068 36.9495 24.3206 36.1347C24.2272 36.0054 24.0254 35.9184 23.8738 35.8108C23.7384 35.9441 23.5367 36.0636 23.4785 36.2137C23.1373 37.0828 22.8015 37.9549 22.5226 38.8349C22.4062 39.1954 22.1733 39.3553 21.6697 39.4008C20.5067 39.5055 19.3477 39.6368 18.1942 39.785C17.9139 39.8205 17.6594 39.9637 17.394 40.0585C17.5768 40.2077 17.7285 40.3923 17.9491 40.501C18.9415 40.9869 19.9407 41.4669 20.9643 41.9172C21.3813 42.0999 21.5058 42.3123 21.4192 42.6461C21.2066 43.5211 21.0022 44.3961 20.8248 45.2751C20.7883 45.4499 20.8844 45.6395 20.9209 45.8232C21.1552 45.76 21.4314 45.7353 21.6196 45.6257C22.5795 45.0786 23.5313 44.5235 24.4533 43.9468C24.8418 43.7028 25.1573 43.689 25.6 43.8648C26.6831 44.2984 27.796 44.7053 28.9103 45.1013C29.1025 45.1704 29.3625 45.1359 29.5872 45.1497C29.5778 44.9966 29.6197 44.8297 29.5507 44.6924C29.1107 43.8302 28.6679 42.9671 28.1805 42.1187C27.991 41.7878 28.0831 41.5765 28.4229 41.3405C29.3205 40.7163 30.1992 40.0763 31.0643 39.4274C31.2146 39.3139 31.2634 39.1312 31.3595 38.9751C31.1375 38.9277 30.9141 38.8368 30.6934 38.8388C30.0611 38.8388 29.4315 38.8843 28.7979 38.9119L28.806 38.902Z" fill="#0C50A3"/>
<path d="M66.8316 28.3239C66.8831 29.0962 66.9183 29.8695 66.9914 30.6399C67.0198 30.946 66.8885 31.1208 66.5026 31.2561C65.3654 31.6512 64.2403 32.0739 63.1247 32.5035C62.9311 32.5785 62.8024 32.7425 62.644 32.8649C62.8377 32.9568 63.015 33.0881 63.2262 33.1316C64.4176 33.3785 65.6118 33.6185 66.8154 33.8308C67.2798 33.9128 67.4923 34.0777 67.56 34.4234C67.7333 35.335 67.9337 36.2446 68.1463 37.1512C68.1801 37.2954 68.3304 37.4247 68.4279 37.561C68.6147 37.4623 68.8584 37.3981 68.9776 37.2648C69.6545 36.529 70.3315 35.7833 70.9583 35.0268C71.2453 34.6762 71.5446 34.5656 72.1078 34.6496C73.2992 34.8273 74.5069 34.9528 75.7105 35.0772C75.9271 35.0999 76.1641 35.016 76.3875 34.9784C76.3049 34.8204 76.2683 34.6347 76.1316 34.5083C75.349 33.7841 74.5516 33.0697 73.7392 32.3652C73.4684 32.1312 73.4373 31.9277 73.6377 31.6541C74.2239 30.8571 74.7858 30.0512 75.3341 29.2414C75.4424 29.0814 75.4411 28.8839 75.4912 28.7032C75.2204 28.715 74.9225 28.6804 74.6788 28.7456C73.5343 29.0478 72.3993 29.3665 71.2738 29.7016C70.8595 29.8241 70.5684 29.7826 70.2556 29.5426C69.4153 28.8987 68.5579 28.2693 67.6832 27.6543C67.4964 27.524 67.2094 27.4696 66.9684 27.3798C66.9115 27.5615 66.8411 27.7412 66.8046 27.9259C66.7916 28.0574 66.7916 28.1894 66.8046 28.321L66.8316 28.3239Z" fill="#5297EB"/>
<path d="M54.7429 5.28034C53.805 5.46091 52.9297 5.62622 52.0557 5.79831C49.1208 6.3773 46.1881 6.96393 43.2487 7.53022C42.9181 7.59083 42.5727 7.59083 42.2422 7.53022C37.9631 6.69831 33.6878 5.85708 29.4163 5.00653C28.6266 4.85139 28.2638 4.55977 28.2752 4.10454C28.2889 3.66796 28.6574 3.38397 29.406 3.23562C33.6669 2.39807 37.9209 1.55458 42.1829 0.728888C42.5491 0.658153 42.9332 0.655532 43.3012 0.721259C47.5803 1.5509 51.8548 2.39326 56.1248 3.24834C57.0377 3.42975 57.2944 3.75104 57.1381 4.43516C57.1092 4.56007 57.0939 4.68651 57.0925 4.81325C57.0925 6.3807 57.0993 7.94984 57.0822 9.5156C57.0822 9.79704 57.1815 9.97676 57.5546 10.0514C57.9757 10.1361 58.0761 10.3447 58.0704 10.6558C58.0464 11.7578 58.0613 12.8531 58.0613 14.0713C57.4451 13.7983 56.9202 13.5872 56.4306 13.3414C56.0883 13.1718 55.8019 13.16 55.4527 13.3414C54.9712 13.5847 54.4565 13.7907 53.8723 14.0501C53.8438 13.8594 53.8107 13.7415 53.8107 13.6262C53.8107 12.6234 53.8221 11.6205 53.7993 10.6185C53.7936 10.3337 53.902 10.1565 54.274 10.0827C54.6939 9.99795 54.8 9.79535 54.7943 9.48253C54.7715 8.24061 54.7863 6.99784 54.784 5.75253C54.7829 5.61265 54.7612 5.47702 54.7429 5.28034Z" fill="url(#paint2_angular_13992_2662)"/>
<path d="M33.3278 12.4402C34.2041 12.5657 35.0714 12.6946 35.942 12.8141C37.6423 13.0396 39.3379 13.2846 41.0462 13.4694C43.4208 13.7237 45.7372 13.3541 48.0514 13.026C49.4104 12.8327 50.7695 12.6429 52.2472 12.4326C52.0395 14.6766 50.7797 16.4407 48.4359 17.7623C45.2945 19.5332 41.0907 19.64 37.6822 18.0878C34.8192 16.7857 33.1543 14.2374 33.3278 12.4402Z" fill="url(#paint3_angular_13992_2662)"/>
<path d="M33.1442 7.48877C34.3126 7.71512 35.375 7.91942 36.4351 8.12797C38.1616 8.46707 39.8972 8.77988 41.6077 9.15882C42.8891 9.44282 44.0507 9.11728 45.2363 8.88839C47.4421 8.46452 49.641 8.01691 51.8433 7.58202C51.9688 7.55659 52.1012 7.54811 52.2678 7.52777C52.3034 7.62298 52.3282 7.72024 52.3419 7.81854C52.3477 8.66629 52.3419 9.51403 52.3419 10.3618C52.3419 10.55 52.3522 10.7127 51.9996 10.7594C49.3991 11.0985 46.8076 11.4766 44.2025 11.7978C42.3505 12.0267 40.5293 11.7436 38.715 11.491C37.0033 11.2528 35.2803 11.0086 33.5675 10.75C33.41 10.7271 33.1658 10.589 33.1636 10.5016C33.1327 9.53014 33.1442 8.55777 33.1442 7.48877Z" fill="url(#paint4_angular_13992_2662)"/>
<path d="M36.394 21.0193C36.6554 21.0074 36.8779 20.9447 36.9783 21.0015C38.3476 21.7687 39.7055 22.5528 41.1193 23.3641C40.5202 23.8923 39.9668 24.3814 39.3506 24.9265L36.394 21.0193Z" fill="#0C4FA3"/>
<path d="M46.1367 24.9264L44.3965 23.3928C44.546 23.2911 44.6612 23.2029 44.7902 23.1283C45.9438 22.4603 47.1032 21.7965 48.2568 21.1285C48.4851 20.9945 48.7133 20.8453 49.0305 21.1022C48.0857 22.3501 47.1317 23.6098 46.1367 24.9264Z" fill="#5095E9"/>
<path d="M39.6997 20.4258C41.7696 20.1613 43.6935 20.1791 45.7852 20.4123C45.4725 20.6013 45.2694 20.7276 45.0606 20.8488C44.4022 21.2303 43.7506 21.6211 43.0716 21.9823C42.9313 22.0569 42.6152 22.0857 42.492 22.0196C41.5894 21.5279 40.7153 21.0108 39.6997 20.4258Z" fill="url(#paint5_angular_13992_2662)"/>
<defs>
<radialGradient id="paint0_angular_13992_2662" cx="0" cy="0" r="1" gradientUnits="userSpaceOnUse" gradientTransform="translate(42.7461 27.2504) rotate(90) scale(5.45551 18.4604)">
<stop stop-color="#004497"/>
<stop offset="1" stop-color="#60A5FA"/>
</radialGradient>
<radialGradient id="paint1_angular_13992_2662" cx="0" cy="0" r="1" gradientUnits="userSpaceOnUse" gradientTransform="translate(41.2756 44.9501) rotate(-90) scale(4.89264 7.02216)">
<stop stop-color="#004497"/>
<stop offset="1" stop-color="#60A5FA"/>
</radialGradient>
<radialGradient id="paint2_angular_13992_2662" cx="0" cy="0" r="1" gradientUnits="userSpaceOnUse" gradientTransform="translate(43.1728 7.37256) rotate(90) scale(6.69873 14.8979)">
<stop stop-color="#004497"/>
<stop offset="1" stop-color="#60A5FA"/>
</radialGradient>
<radialGradient id="paint3_angular_13992_2662" cx="0" cy="0" r="1" gradientUnits="userSpaceOnUse" gradientTransform="translate(42.7813 15.8046) rotate(90) scale(3.37195 9.46588)">
<stop stop-color="#004497"/>
<stop offset="1" stop-color="#60A5FA"/>
</radialGradient>
<radialGradient id="paint4_angular_13992_2662" cx="0" cy="0" r="1" gradientUnits="userSpaceOnUse" gradientTransform="translate(42.7433 9.68542) rotate(90) scale(2.19666 9.6012)">
<stop stop-color="#004497"/>
<stop offset="1" stop-color="#60A5FA"/>
</radialGradient>
<radialGradient id="paint5_angular_13992_2662" cx="0" cy="0" r="1" gradientUnits="userSpaceOnUse" gradientTransform="translate(42.7424 21.1445) rotate(90) scale(0.912048 3.04272)">
<stop stop-color="#004497"/>
<stop offset="1" stop-color="#60A5FA"/>
</radialGradient>
</defs>
</svg>
