<svg width="500" height="373" fill="none" xmlns="http://www.w3.org/2000/svg"><g clip-path="url(#a)"><path d="M500 327.45H0v.25h500v-.25ZM449.9 343.54h-53.07v.25h53.07v-.25ZM331.22 340.41h-58.66v.25h58.66v-.25ZM399.39 338.96H380.2v.25h19.19v-.25ZM143.66 335.94h-43.19v.25h43.19v-.25ZM94.9 335.94H79.46v.25H94.9v-.25ZM185.67 340.16h-54.2v.25h54.2v-.25ZM237 282.85H43.91a5.71 5.71 0 0 1-5.7-5.71V5.71A5.71 5.71 0 0 1 43.91 0H237a5.71 5.71 0 0 1 5.71 5.71v271.43a5.7 5.7 0 0 1-5.71 5.71ZM43.91.25a5.46 5.46 0 0 0-5.45 5.46v271.43a5.46 5.46 0 0 0 5.45 5.46H237a5.47 5.47 0 0 0 5.46-5.46V5.71A5.47 5.47 0 0 0 237 .25H43.91ZM453.31 282.85h-193.1a5.72 5.72 0 0 1-5.71-5.71V5.71A5.72 5.72 0 0 1 260.21 0h193.1A5.71 5.71 0 0 1 459 5.71v271.43a5.71 5.71 0 0 1-5.69 5.71ZM260.21.25a5.47 5.47 0 0 0-5.46 5.46v271.43a5.47 5.47 0 0 0 5.46 5.46h193.1a5.47 5.47 0 0 0 5.46-5.46V5.71a5.47 5.47 0 0 0-5.46-5.46h-193.1Z" fill="#EBEBEB"/><path d="M266.71 318.98h10.51V193.95h-10.51v125.03ZM64.74 327.32h208.44v-8.33H64.74v8.33Z" fill="#F0F0F0"/><path d="M266.71 193.96h-206v125.03h206V193.96Z" fill="#F5F5F5"/><path d="M269.19 193.95h10.86v-7.88h-10.86v7.88Z" fill="#E0E0E0"/><path d="M269.19 186.08H57.89v7.88h211.3v-7.88Z" fill="#EBEBEB"/><path d="M250.66 203.66H76.75a7.78 7.78 0 0 0-7.78 7.78v27.57c0 4.3 3.48 7.78 7.78 7.78h173.91c4.3 0 7.78-3.48 7.78-7.78v-27.57c0-4.3-3.48-7.78-7.78-7.78ZM250.66 259.67H76.75a7.78 7.78 0 0 0-7.78 7.78v27.57c0 4.3 3.48 7.78 7.78 7.78h173.91c4.3 0 7.78-3.48 7.78-7.78v-27.57c0-4.3-3.48-7.78-7.78-7.78Z" fill="#fff"/><path d="M118.93 208.27h89.56c.98 0 1.77-.8 1.77-1.77v-2.37c0-.98-.8-1.77-1.77-1.77h-89.56c-.98 0-1.77.8-1.77 1.77v2.37c0 .98.8 1.77 1.77 1.77ZM118.93 264.27h89.56c.98 0 1.77-.8 1.77-1.77v-2.37c0-.98-.8-1.77-1.77-1.77h-89.56c-.98 0-1.77.8-1.77 1.77v2.37c0 .98.8 1.77 1.77 1.77Z" fill="#F5F5F5"/><path d="M447.19 234.97h-31.7v6.06h31.7v-6.06ZM391.2 327.45h5.85v-207.4h-5.85v207.4Z" fill="#E6E6E6"/><path d="M370.94 241.04h44.56v-6.06h-44.56v6.06Z" fill="#F5F5F5"/><path d="M447.19 290.78h-31.7v6.06h31.7v-6.06Z" fill="#E6E6E6"/><path d="M370.94 296.84h44.56v-6.06h-44.56v6.06Z" fill="#F5F5F5"/><path d="M447.19 123.37h-31.7v6.06h31.7v-6.06Z" fill="#E6E6E6"/><path d="M370.94 129.42h44.56v-6.06h-44.56v6.06Z" fill="#F5F5F5"/><path d="M447.19 179.17h-31.7v6.06h31.7v-6.06Z" fill="#E6E6E6"/><path d="M370.94 185.23h44.56v-6.06h-44.56v6.06Z" fill="#F5F5F5"/><path d="M435.76 327.45h5.85v-207.4h-5.85v207.4Z" fill="#E6E6E6"/><path d="M409.64 327.45h5.85v-207.4h-5.85v207.4ZM370.94 327.45h5.85v-207.4h-5.85v207.4Z" fill="#F5F5F5"/><path d="M87.89 168.68h264.2V28.41H87.89v140.27Z" fill="#E0E0E0"/><path d="M81.22 168.68h267.1V28.41H81.22v140.27Z" fill="#F5F5F5"/><path d="M338.75 157.63V39.47H90.79v118.16h247.96Z" fill="#fff"/><path d="M250 372.61c107.08 0 193.89-5.07 193.89-11.32s-86.8-11.32-193.89-11.32c-107.08 0-193.89 5.07-193.89 11.32s86.8 11.32 193.89 11.32Z" fill="#F5F5F5"/><path d="M387.82 209.27H110.54a3.34 3.34 0 0 1-3.33-3.33 3.35 3.35 0 0 1 3.33-3.33h277.28a3.34 3.34 0 0 1 2.35 5.68c-.62.63-1.47.98-2.35.98Z" fill="#407BFF"/><path opacity=".3" d="M387.82 209.27h-64.91a3.34 3.34 0 0 1-3.33-3.33 3.34 3.34 0 0 1 3.33-3.33h64.91a3.34 3.34 0 0 1 3.33 3.33 3.34 3.34 0 0 1-3.33 3.33Z" fill="#263238"/><path d="M380.78 217.62H167.53v23.21h213.25v-23.21Z" fill="#263238"/><path opacity=".1" d="M380.78 217.62H167.53v23.21h213.25v-23.21Z" fill="#fff"/><path d="M377.68 356.67h6.38l-.26-147.4h-8.84l2.72 147.4Z" fill="#263238"/><path opacity=".1" d="M377.68 356.67h6.38l-.26-147.4h-8.84l2.72 147.4Z" fill="#fff"/><path d="M318.88 356.67h-6.39l14.44-147.4h8.84l-16.89 147.4Z" fill="#263238"/><path opacity=".2" d="M318.88 356.67h-6.39l14.44-147.4h8.84l-16.89 147.4Z" fill="#fff"/><path d="M165.31 356.67h6.38l-.26-147.4h-8.84l2.72 147.4Z" fill="#263238"/><path opacity=".1" d="M165.31 356.67h6.38l-.26-147.4h-8.84l2.72 147.4Z" fill="#fff"/><path d="M106.51 356.67h-6.39l14.44-147.4h8.84l-16.89 147.4Z" fill="#263238"/><path opacity=".2" d="M106.51 356.67h-6.39l14.44-147.4h8.84l-16.89 147.4Z" fill="#fff"/><path d="M286.11 202.61h-14.72l-5.89-28.79h14.72l5.89 28.79Z" fill="#263238"/><path d="M305.64 196.68h-63.86a3.59 3.59 0 0 1-3.62-3.85l2.44-40.43a4.15 4.15 0 0 1 4.08-3.85h63.87a3.6 3.6 0 0 1 3.62 3.85l-2.44 40.43a4.16 4.16 0 0 1-4.09 3.85Z" fill="#263238"/><path d="M304.64 196.68h-63.86a3.59 3.59 0 0 1-3.62-3.85l2.44-40.43a4.15 4.15 0 0 1 4.08-3.85h63.87a3.6 3.6 0 0 1 3.62 3.85l-2.44 40.43a4.16 4.16 0 0 1-4.09 3.85Z" fill="#407BFF"/><path d="M240.77 194.68a1.64 1.64 0 0 1-1.19-.5 1.7 1.7 0 0 1-.43-1.23l2.44-40.43a2.15 2.15 0 0 1 2.09-2h63.87a1.6 1.6 0 0 1 1.62 1.73l-2.44 40.43a2.14 2.14 0 0 1-2.09 2h-63.87Z" fill="#fff"/><path opacity=".2" d="m268.82 148.55 4.15 14.21 12.32-14.21h-16.47Z" fill="#000"/><path d="M169.55 114.07c.1.76.58 1.35 1.09 1.31.51-.04.83-.71.73-1.47-.1-.76-.58-1.36-1.08-1.31-.5.05-.83.7-.74 1.47Z" fill="#263238"/><path d="M170.39 115.19c.9 2 2.07 3.87 3.46 5.56-1.1 1.11-3.11.65-3.11.65l-.35-6.21Z" fill="#A02724"/><path d="M167 111.11a.47.47 0 0 1-.23 0 .46.46 0 0 1-.25-.24.47.47 0 0 1 0-.35 4.35 4.35 0 0 1 3.1-2.69.45.45 0 0 1 .46.2.46.46 0 0 1-.02.5.45.45 0 0 1-.13.13.44.44 0 0 1-.16.06 3.48 3.48 0 0 0-2.4 2.14.46.46 0 0 1-.37.25Z" fill="#263238"/><path d="m146.89 126.11 6 4.61 8.19 6.27a8.48 8.48 0 0 0-.8 3c-.29 2.3-.58 4.05 4.53 5.41a2.9 2.9 0 0 1 2.18 2.27c.2 1.35-.63 3-5.35 3.81-4.57.68-9.24-.11-13.33-2.27-2-1-2-2.2-1.16-4.23 2.52-5.77 1.3-13.13-.26-18.87Z" fill="#B55B52"/><path d="M140 146.8a41.67 41.67 0 0 0 2.84-6.92s15.2-.83 20.22.67 8.14 8 8.14 8L140 146.8Z" fill="#407BFF"/><path d="M146.36 158.1c-.37 1.12-.78 2.49-1.17 3.76l-1.13 3.89c-.7 2.61-1.38 5.22-1.91 7.82-.56 2.54-1 5.11-1.29 7.7-.3 2.38-.38 4.78-.22 7.17.06 1 .22 1.98.46 2.95.06.2.11.42.18.61l.2.54a4.76 4.76 0 0 0-.93-1.12c-.2-.13-.23-.11-.19-.06.3.21.6.39.94.53.45.2 1 .4 1.55.59 1.13.37 2.38.73 3.67 1.06 5.16 1.31 10.79 2.32 16.28 3.49l-.2 6.97c-2.93.4-5.88.63-8.84.72-3 .12-6 .07-9-.15a40.94 40.94 0 0 1-7.33-1.14 16.45 16.45 0 0 1-3-1.11c-.7-.35-1.38-.76-2-1.25a9.15 9.15 0 0 1-1.85-2.02c-.1-.16-.21-.33-.3-.51l-.13-.24-.69-1.41c-.21-.47-.38-.92-.56-1.39a28.07 28.07 0 0 1-1.36-5.4c-1-7-.21-13.15.83-19.18a116 116 0 0 1 3.27-13.18c.45-1.43.93-2.81 1.51-4.38l13.21 4.74Z" fill="#B55B52"/><path d="M137.11 145.56c9.45-2.5 15.06 5.24 11.86 18-3.2 12.76-4.27 13.24-4.27 13.24l-19.49-3.26c2.4-12.54 2.21-25.43 11.9-27.98Z" fill="#407BFF"/><path d="m167.64 194.31-1.47-.14c-4.18 0-4.9 1.15-7.47 3.54l-1 5.25c6.75 3.46 10.37-.33 10.38-.33h6.25l-2.2-5a5.49 5.49 0 0 0-4.49-3.32ZM144.31 116.17c1.7 9.11 2.23 14.53 7.45 18.6 7.84 6.11 18.64.3 19.7-9.18.95-8.54-2-22-11.42-24.39a12.86 12.86 0 0 0-15.73 14.97Z" fill="#B55B52"/><path d="M162.36 119.35c6.5-.52 4.6-7.37 2.59-8.81 3.05-1.15 5.15-6 2.22-9.32 1.72-4.48-3.2-9.89-11.83-9.09-6.3.59-7 3.92-7 3.92s-7.55-.8-10.69 5.44c-2.68 5.34.57 8.19.57 8.19s-5.64 1.64-4.08 9c1.66 7.94 7.76 6.1 7.76 6.1s-1.37 7.27 6.88 7.38c7.13.09 7.22-5.25 7.22-5.25s9.24-.91 6.36-7.56Z" fill="#263238"/><path d="M157.52 119.88a8.45 8.45 0 0 0 4 4.53c2.38 1.22 4.2-1.31 3.78-3.9-.38-2.33-2.41-5.32-4.92-5.46-2.51-.14-3.75 2.41-2.86 4.83ZM254.47 345.22l8.89-3.61-6.28-21.36-8.89 3.61 6.28 21.36Z" fill="#B55B52"/><path opacity=".2" d="m251.24 334.21 8.98-3.29-3.14-10.67-8.89 3.61 3.05 10.35Z" fill="#000"/><path d="m262.59 338-10.17 3.54a.68.68 0 0 0-.45.85l2.3 8.22a1.7 1.7 0 0 0 2.15 1c3.51-1.29 4.93-2 9.27-3.87 4.27-1.79 8.45-3.79 12.52-6 3.39-2 1.35-5.41-.3-4.85-3.91 1.32-10.32 2.17-13.57 1.06a2.76 2.76 0 0 0-1.75.05ZM183.07 222s67.19 6.05 68.91 25.38c3.5 39.33 8.87 77.25 8.87 77.25l-13.67 5s-16.73-43.21-16.51-74c-19.38-5.47-70.34 2.56-78.67-12.39-7.36-13.19-.9-22.67-.9-22.67l31.97 1.43Z" fill="#263238"/><path d="m246.18 332.74 17.02-5.75-.74-7.76-19.19 6.19 2.91 7.32ZM266.34 338.45c-.82.26-1.66.44-2.52.52-.04 0-.09 0-.13-.02a.22.22 0 0 1-.09-.09.23.23 0 0 1 0-.24c.22-.31 2.18-2.95 3.43-2.9a.83.83 0 0 1 .7.43 1.21 1.21 0 0 1 .13 1.23c-.35.54-.9.92-1.52 1.07Zm-2 0c1.73-.24 2.91-.7 3.18-1.27.06-.13.08-.28.06-.42a.8.8 0 0 0-.17-.39.38.38 0 0 0-.34-.21c-.72-.02-1.96 1.27-2.78 2.3l.05-.01Z" fill="#407BFF"/><path d="M263.87 339h-.11a.23.23 0 0 1-.17-.13c0-.11-1.15-2.64-.55-3.84a1.12 1.12 0 0 1 .79-.6.84.84 0 0 1 1 .37c.55.91-.14 3.27-.85 4.12l-.11.08Zm0-4.1a.64.64 0 0 0-.39.34c-.36.72.08 2.23.41 3.08.55-.93.95-2.68.59-3.28-.07-.12-.19-.24-.51-.17l-.1.03Z" fill="#407BFF"/><path d="m206.9 351.57 9.5-.45 1.55-22.44-9.5.45-1.55 22.44Z" fill="#B55B52"/><path d="m216.62 349.49-10.76-.34a.67.67 0 0 0-.66.38.67.67 0 0 0-.07.26l-.79 8.49A1.7 1.7 0 0 0 206 360c3.75.06 5.54-.11 10.27 0 2.91.1 8.64.53 12.63 0s3.38-4.44 1.64-4.58c-4.11-.34-9.62-3.18-12.25-5.39a2.78 2.78 0 0 0-1.67-.54Z" fill="#263238"/><path d="M220 351.27c-.86-.05-1.71-.19-2.54-.42a.26.26 0 0 1-.17-.18.25.25 0 0 1 .1-.23c.31-.2 3.08-2 4.24-1.47a.84.84 0 0 1 .5.65 1.24 1.24 0 0 1-.32 1.2c-.53.37-1.17.53-1.81.45Zm-1.92-.73c1.7.4 3 .38 3.43-.05a.79.79 0 0 0 .18-.79.4.4 0 0 0-.24-.32c-.66-.27-2.28.49-3.45 1.16h.08Z" fill="#407BFF"/><path d="M217.47 350.85h-.11a.24.24 0 0 1-.11-.19c0-.11-.13-2.88.86-3.78a1.14 1.14 0 0 1 1-.28.87.87 0 0 1 .79.7c.18 1.05-1.31 3-2.28 3.55a.2.2 0 0 1-.15 0Zm1.43-3.85a.7.7 0 0 0-.49.19c-.59.53-.72 2.11-.72 3 .85-.68 1.85-2.17 1.73-2.86 0-.13-.1-.29-.42-.34l-.1.01Z" fill="#407BFF"/><path opacity=".2" d="m208.45 329.14 9.51-.45-.9 12.83-9.47-.02.86-12.36Z" fill="#000"/><path d="M160.75 221s72.4 11 71.25 27.71c-2.07 30-12.13 88.64-12.13 88.64l-14.26.2s-3.37-60.14 2-82.06c-17.81 0-68.05-.62-74.9-9.78-7.58-10.11.21-26 .21-26l27.83 1.29Z" fill="#263238"/><path d="m203.93 338.66 17.26-.26.85-9.13-18.94.75.83 8.64ZM173.5 144.54c-5.83-1.13-32.12-.8-32.12-.8a10.5 10.5 0 0 0-10.72 9.26c-.92 8.11 4.23 26.23 4.41 35.47.22 11.35-1.95 15.95-2.17 31.22l50.17 2.31c0-30.73-1.34-56.17-2.55-68.37-.43-4.24-1.19-7.95-7.02-9.09Z" fill="#407BFF"/><path opacity=".3" d="M173.5 144.54c-5.83-1.13-32.12-.8-32.12-.8a10.5 10.5 0 0 0-10.72 9.26c-.92 8.11 4.23 26.23 4.41 35.47.22 11.35-1.95 15.95-2.17 31.22l50.17 2.31c0-30.73-1.34-56.17-2.55-68.37-.43-4.24-1.19-7.95-7.02-9.09Z" fill="#fff"/><path d="M180.37 154.23c1.57 5.4 3.15 10.94 4.78 16.37 1.63 5.43 3.3 10.87 5.18 16 .46 1.31 1 2.53 1.44 3.79l.77 1.77.1.22v.16-.07c-.17-.31-.39-.6-.64-.85-.34-.33-.47-.35-.5-.35.23.2.48.36.76.47.5.23 1 .44 1.51.61 1.13.39 2.4.74 3.69 1.09 5.23 1.33 10.94 2.35 16.5 3.54l-.18 6.93c-2.99.4-5.99.64-9 .73-3.05.1-6.1.05-9.14-.18a40.9 40.9 0 0 1-7.47-1.24 15.25 15.25 0 0 1-3.2-1.32c-.8-.46-1.55-1.03-2.2-1.7a8.42 8.42 0 0 1-1.28-1.71l-.34-.63-1.13-2.14c-.66-1.4-1.38-2.82-2-4.21-1.23-2.8-2.31-5.58-3.39-8.37-1.08-2.79-2-5.58-2.93-8.39a258.03 258.03 0 0 1-5-17l13.67-3.52Z" fill="#B55B52"/><path d="M166.12 148.66c6.86-7 15.63-3.18 19.4 9.46 3.77 12.64 3.09 13.56 3.09 13.56l-18.43 7.15c-4.35-12.05-11.08-23.04-4.06-30.17Z" fill="#407BFF"/><path d="m218.86 194.31-1.47-.14c-4.18 0-4.89 1.15-7.46 3.54L209 203c6.75 3.46 10.37-.33 10.37-.33h6.26l-2.21-5a5.46 5.46 0 0 0-4.56-3.36Z" fill="#B55B52"/><path d="M135.1 259.14h64.08c1.4 0 2.55-1.14 2.55-2.55v-4.12c0-1.4-1.14-2.55-2.55-2.55H135.1a2.55 2.55 0 0 0-2.55 2.55v4.12c0 1.4 1.14 2.55 2.55 2.55ZM135.39 361.8h-2.84l3.27-102.66h3.93l-4.36 102.66Z" fill="#407BFF"/><path opacity=".4" d="M135.39 361.8h-2.84l3.27-102.66h3.93l-4.36 102.66Z" fill="#fff"/><path d="M161.51 361.8h2.84l-3.26-102.66h-3.93l4.35 102.66Z" fill="#407BFF"/><path opacity=".4" d="M161.51 361.8h2.84l-3.26-102.66h-3.93l4.35 102.66Z" fill="#fff"/><path d="M172.77 361.8h-2.84l3.27-102.66h3.93l-4.36 102.66Z" fill="#407BFF"/><path opacity=".4" d="M172.77 361.8h-2.84l3.27-102.66h3.93l-4.36 102.66Z" fill="#fff"/><path d="M198.89 361.8h2.84l-3.26-102.66h-3.93l4.35 102.66Z" fill="#407BFF"/><path opacity=".4" d="M198.89 361.8h2.84l-3.26-102.66h-3.93l4.35 102.66Z" fill="#fff"/><g opacity=".3" fill="#407BFF"><path d="M135.82 259.13h3.93l-.19 4.37h-3.88l.14-4.37ZM161.22 263.5h-3.88l-.18-4.37h3.92l.14 4.37ZM177.12 259.13l-.18 4.37h-3.88l.14-4.37h3.92ZM198.61 263.5h-3.89l-.18-4.37h3.93l.14 4.37Z"/></g><path d="M389 133.66H228.83a9 9 0 0 1-9.07-9.65l6.11-101.37A10.42 10.42 0 0 1 236.11 13h160.13a9 9 0 0 1 9.07 9.65L399.19 124a10.42 10.42 0 0 1-10.19 9.66Z" fill="#407BFF"/><path d="m250.26 112.22 14.77 50.54 43.82-50.54h-58.59Z" fill="#407BFF"/><path opacity=".1" d="M381.19 92.87h-89.76a5.06 5.06 0 0 1-5.09-5.41l3.43-56.82a5.85 5.85 0 0 1 5.74-5.42h89.76a5.06 5.06 0 0 1 5.09 5.42l-3.43 56.82a5.85 5.85 0 0 1-5.74 5.41Z" fill="#fff"/><path opacity=".1" d="M333.17 117.38H243.4a5.05 5.05 0 0 1-5.08-5.41l3.43-56.83a5.84 5.84 0 0 1 5.73-5.41h89.77a5.05 5.05 0 0 1 5.08 5.41L338.9 112a5.84 5.84 0 0 1-5.73 5.38Z" fill="#fff"/><g opacity=".5" fill="#fff"><path d="M242.21 21.81a3.08 3.08 0 0 1-2.87 3 2.6 2.6 0 0 1-2.44-3 3.1 3.1 0 0 1 2.87-3 2.6 2.6 0 0 1 2.44 3ZM252 21.81a3.09 3.09 0 0 1-2.87 3 2.6 2.6 0 0 1-2.45-3 3.1 3.1 0 0 1 2.87-3 2.6 2.6 0 0 1 2.45 3ZM261.86 21.81a3.08 3.08 0 0 1-2.87 3 2.6 2.6 0 0 1-2.44-3 3.09 3.09 0 0 1 2.87-3 2.6 2.6 0 0 1 2.44 3Z"/></g><path opacity=".3" d="M387.76 132.71H227.63a9.25 9.25 0 0 1-9.32-9.91l6.12-101.37a10.66 10.66 0 0 1 10.48-9.89H395a9.27 9.27 0 0 1 9.32 9.92l-6.11 101.37a10.66 10.66 0 0 1-10.45 9.88ZM234.91 12a10.15 10.15 0 0 0-10 9.42l-6.12 101.37a8.75 8.75 0 0 0 8.82 9.38h160.15a10.16 10.16 0 0 0 10-9.41l6.11-101.37A8.74 8.74 0 0 0 395 12H234.91Z" fill="#263238"/><path d="M301.05 73.46c-.68 1.44-1.3 2.66-2 4-.7 1.34-1.4 2.53-2.12 3.78a112.33 112.33 0 0 1-7.18 10.91 46.02 46.02 0 0 1-2.75 3.44 71.38 71.38 0 0 1-6.11 6.64c-.55.53-1.15 1-1.73 1.57-.58.54-1.18 1.04-1.82 1.51l-1.92 1.45s-.35.25-.59.4a7.9 7.9 0 0 1-2.53 1.06 8.22 8.22 0 0 1-6.81-1.48c-.47-.38-.9-.8-1.29-1.27l-.27-.35-.13-.18-.05-.08-.18-.32-.72-1.3c-.22-.42-.37-.82-.55-1.23a32.36 32.36 0 0 1-1.54-4.65c-.7-2.9-1.18-5.83-1.46-8.79a76 76 0 0 1-.38-8.68 3.45 3.45 0 0 1 6.78-.89v.11a127 127 0 0 0 4.91 15c.45 1.03.96 2.04 1.55 3 .13.21.26.44.39.62s.26.31.38.46l.09.12-.05-.08-.11-.15A3.13 3.13 0 0 0 271 96.9a3.48 3.48 0 0 0-2.62.44c-.1.05-.3.2-.17.09l1.25-1.21c.42-.38.83-.84 1.24-1.29.41-.45.83-.87 1.23-1.33 3.27-3.95 6.25-8.13 8.92-12.51 1.37-2.23 2.72-4.5 4-6.8l1.93-3.46 1.83-3.39.1-.17a6.9 6.9 0 0 1 12.31 6.21l.03-.02Z" fill="#263238"/><path d="M259.87 79.47 255 76.69l5.24-5.35a30.22 30.22 0 0 1 4.25 3.82 2.86 2.86 0 0 1-.8 4.5 4.1 4.1 0 0 1-3.82-.19Z" fill="#FFC3BD"/><path d="m253.89 71 2.65-1.89a1.63 1.63 0 0 1 2.25.35l1.45 1.93-5.24 5.3-1.65-3.76a1.64 1.64 0 0 1 .54-1.93Z" fill="#FFC3BD"/><path d="M290.56 69a7.41 7.41 0 0 1 5.78-5.15c1.94-.43 3.9-.74 5.89-.91 5.96-.22 11.94-.11 17.89.33 3.12.21 6.31.65 8.85 1.07h.09a5.13 5.13 0 0 1 4.24 5.91c-1.25 7.22-4.92 19.77-5.32 31.63-.53 15.55-.29 24.51-.56 28.26l-40.05-.77c-2.79-38.05.68-51.78 3.19-60.37Z" fill="#fff"/><path d="M330.12 63.73H330c-2.68-.44-6-.91-9.33-1.13l-1.78-.11c-1.75 7.25-12.18 19.42-15.34 37.89-1.22-15.43-2.16-31.56-.37-37.86-2.83.09-5.66.33-8.46.72a8.61 8.61 0 0 0-6.34 5.9c-2.46 7.24-7.16 23.46-4.27 63.33h44.51c.29-4-.75-12.4.86-25.32 1.55-12.53 3.78-29.56 5.09-37.17a5.44 5.44 0 0 0-4.45-6.25Z" fill="#263238"/><path opacity=".2" d="M302.6 130.4a.26.26 0 0 1-.27-.24c-.94-11.25.82-27.41.84-27.57 0-.07.04-.13.1-.18a.27.27 0 0 1 .19-.06c.07.01.14.05.18.1.04.06.07.13.06.2 0 .16-1.78 16.27-.84 27.46a.26.26 0 0 1-.24.29h-.02Z" fill="#fff"/><path opacity=".3" d="M328.56 79.56c-1.65 7.48-.77 17.84 1 27.29 1.31-10.61 3.1-24.38 4.41-32.9-1.83-1.22-4.1-.36-5.41 5.61Z" fill="#000"/><path d="M303.08 62.88c5.19-1.14 6.09-4.34 5.72-7.88a23.1 23.1 0 0 0-.43-2.64l6.48-5.29 4.77-3.88c-1.3 5.74-2.73 16.2 1.19 20.12 0 0-3.2 5.25-12.1 4.61-7.52-.55-5.63-5.04-5.63-5.04Z" fill="#FFC3BD"/><path d="m310.97 66.59-1.44 1.37 4.6 1.73-.6-1.75-2.56-1.35Z" fill="#E0E0E0"/><path d="M314.49 72.13s-1.81-4.58-3.52-5.54a19 19 0 0 0 8.91-4.93l2.73 1.08s.86 5.26-8.12 9.39Z" fill="#F5F5F5"/><path d="m308.45 66.24 1.08 1.72-4.84.42.97-1.53 2.79-.61Z" fill="#E0E0E0"/><path d="M302.26 70.84a21.78 21.78 0 0 1 6.19-4.6c-2.63-.78-2.79-4.4-2.79-4.4l-2.55.48s-4.68 4.56-.85 8.52Z" fill="#F5F5F5"/><path opacity=".2" d="M308.37 52.36c.2.87.34 1.75.43 2.64 2.42-.44 5.66-3 6-5.45.12-.82.14-1.65.07-2.48l-6.5 5.29Z" fill="#000"/><path d="M300.5 26.18c-2.32 2.86-2.1 13.17 2.81 13.29 4.91.12 1.41-18.47-2.81-13.29Z" fill="#263238"/><path d="M321.65 33.69c-.49 7.81-.39 12.4-4.33 16.44-5.92 6.07-15.52 2.58-17.32-5.19-1.65-7-.57-18.59 7.06-21.76a10.53 10.53 0 0 1 14.59 10.51Z" fill="#FFC3BD"/><path d="M317.81 27.18c-4.91 4.88 1.47 8.45-1 11.07 4.63 2.42 2.93 4.2 2.93 4.2a6.07 6.07 0 0 0 0 4.12c5.22-1.35 14.91-18.68 4.33-21.35-6.33 2.84-6.26 1.96-6.26 1.96Z" fill="#263238"/><path d="M319.82 30.68c-4.65.73-10.5-1.5-14.13-3.37-3.63-1.87-4.16 1.66-2.82 2.75-2.33.08-5.28-1.77-4.55-5.88.67-3.75 5.58-7.29 12.57-4.12 4.95 2.24 11.05-.71 13.43 1.87 2.38 2.58-1.4 8.27-4.5 8.75Z" fill="#263238"/><path d="M323 25.6c3.12-.42 3.25-2.38 2.38-5.84 3.37 4.8 2 6.26 0 7.42-2.23-.75-2.38-1.58-2.38-1.58Z" fill="#263238"/><path d="M323.75 39.67a7.13 7.13 0 0 1-3.41 3.5c-1.93.86-2.91-.91-2.39-3 .47-1.88 2-4.6 4-4.58 2 .02 2.67 2.15 1.8 4.08Z" fill="#FFC3BD"/><path d="M309.46 36.05c0 .63-.34 1.15-.75 1.15s-.75-.51-.75-1.14c0-.63.34-1.15.75-1.16.41-.01.75.51.75 1.15ZM302.3 36.11c0 .63-.34 1.15-.76 1.15s-.75-.5-.74-1.14c.01-.64.33-1.15.75-1.16.42-.01.75.51.75 1.15Z" fill="#263238"/><path d="M305 36.33a23 23 0 0 1-3 5.46 3.63 3.63 0 0 0 3 .54v-6Z" fill="#ED847E"/><path d="M307.52 44a5.24 5.24 0 0 0 3.71-2.19.19.19 0 0 0-.01-.16.19.19 0 0 0-.14-.09.19.19 0 0 0-.2.11 5.06 5.06 0 0 1-4.17 2.01.18.18 0 0 0-.06.04.17.17 0 0 0-.04.07l-.01.07c0 .05.02.1.06.13a.2.2 0 0 0 .13.05c.24 0 .49-.01.73-.04ZM312.93 33.52c.06 0 .12-.03.17-.07a.36.36 0 0 0 .15-.24l-.01-.15a.35.35 0 0 0-.07-.13 3.65 3.65 0 0 0-3-1.52.36.36 0 0 0-.33.4.37.37 0 0 0 .41.34 2.92 2.92 0 0 1 2.37 1.22.36.36 0 0 0 .31.15ZM299.4 33.82a.33.33 0 0 0 .28-.2 3 3 0 0 1 2.11-1.71.35.35 0 0 0 .25-.14.36.36 0 0 0 .06-.28.38.38 0 0 0-.42-.32 3.73 3.73 0 0 0-2.68 2.11.4.4 0 0 0 .17.51c.07.03.15.04.23.03ZM335.76 68.24c1.22 2.57 2.24 5 3.24 7.51s1.89 5 2.78 7.6c1.75 5.2 3.16 10.5 4.22 15.87.23 1.39.49 2.76.66 4.19l.13 1.06.07.53v.64c.1 1.03.1 2.07 0 3.1a13.89 13.89 0 0 1-6.81 10.58c-1.5.89-3.13 1.56-4.82 2a31.07 31.07 0 0 1-9.01.93 34.25 34.25 0 0 1-4.38-.46 3.44 3.44 0 0 1-.18-6.75l.36-.08c1-.23 2.31-.51 3.43-.81 1.12-.3 2.26-.65 3.32-1a14.8 14.8 0 0 0 5.05-2.81c.4-.36.7-.8.87-1.31.07-.35.07-.72 0-1.07a6.37 6.37 0 0 0-.15-.8l-.36-1.63c-.23-1.15-.56-2.32-.86-3.49a97.01 97.01 0 0 0-2.12-7c-.8-2.3-1.62-4.71-2.49-7.06-.87-2.35-1.79-4.7-2.72-7-.93-2.3-1.91-4.73-2.84-6.91v-.1a6.9 6.9 0 0 1 12.58-5.65l.03-.08Z" fill="#263238"/><path d="m318.68 117.92-4.41 2.1 7.62 2.7s5.08-1.61 2.62-4.43l-1.37-.43c-2.2-.69-3.28-.61-4.46.06Z" fill="#FFC3BD"/><path d="m314.86 125.43 3.35.63a2.32 2.32 0 0 0 2.46-1.14l1.22-2.2-7.62-2.7-1 2.08a2.33 2.33 0 0 0 1.59 3.33Z" fill="#FFC3BD"/></g><defs><clipPath id="a"><path fill="#fff" d="M0 0h500v372.61H0z"/></clipPath></defs></svg>