<svg width="500" height="369" fill="none" xmlns="http://www.w3.org/2000/svg"><g clip-path="url(#a)"><path d="M449.9 343.54h-33.12v.25h33.12v-.25ZM331.22 346.26h-8.69v.25h8.69v-.25ZM415.78 334.26h-19.19v.25h19.19v-.25ZM95.65 335.94H52.46v.25h43.19v-.25ZM110.89 335.94h-6.33v.25h6.33v-.25ZM225.15 340.16h-93.68v.25h93.68v-.25ZM237.01 282.85H43.92a5.71 5.71 0 0 1-5.71-5.71V5.71A5.71 5.71 0 0 1 43.92 0h193.09a5.71 5.71 0 0 1 5.71 5.71v271.43a5.71 5.71 0 0 1-5.71 5.71ZM43.92.25a5.47 5.47 0 0 0-5.46 5.46v271.43a5.47 5.47 0 0 0 5.46 5.46h193.09a5.47 5.47 0 0 0 5.46-5.46V5.71a5.47 5.47 0 0 0-5.46-5.46H43.92ZM453.31 282.85h-193.1a5.71 5.71 0 0 1-5.71-5.71V5.71A5.71 5.71 0 0 1 260.21 0h193.1a5.71 5.71 0 0 1 5.71 5.71v271.43a5.71 5.71 0 0 1-5.71 5.71ZM260.21.25a5.47 5.47 0 0 0-5.46 5.46v271.43a5.47 5.47 0 0 0 5.46 5.46h193.1a5.47 5.47 0 0 0 5.46-5.46V5.71a5.47 5.47 0 0 0-5.46-5.46h-193.1ZM500 327.45H0v.25h500v-.25Z" fill="#EBEBEB"/><path d="m150.8 159.97-59.3 14.08a1.9 1.9 0 0 1-2.29-1.41l-18.83-79.3a1.9 1.9 0 0 1 1.41-2.29l36.53-8.68 30.52 18.98 13.38 56.32a1.9 1.9 0 0 1-1.41 2.29l-.01.01Z" fill="#F0F0F0"/><path d="m138.84 101.36-30.52-18.98-1.94.46 7.19 30.27 26.56-6.31-1.29-5.44Z" fill="#E6E6E6"/><path d="M138.79 101.15 114.17 107l-5.85-24.62 30.47 18.77Z" fill="#FAFAFA"/><path d="m130.81 110.6-43.86 10.42 6.6 27.8 43.87-10.42-6.6-27.8Z" fill="#E6E6E6"/><path d="m103.59 136.34-7.28 11.81 19.1-4.53-11.82-7.28Z" fill="#FAFAFA"/><path d="m111.11 144.64 26.31-6.25-.6-2.53-14.71-9.07-11 17.85ZM111.54 125.61a4.82 4.82 0 1 1-9.38 2.23 4.82 4.82 0 0 1 9.38-2.23Z" fill="#FAFAFA"/><path d="m406.11 93.71-43.26-20.15a1.49 1.49 0 0 1-.72-1.98l26.95-57.84a1.49 1.49 0 0 1 1.98-.72l26.65 12.41 9.53 26.48L408.1 93a1.49 1.49 0 0 1-1.98.72l-.01-.01Z" fill="#EBEBEB"/><path d="m427.23 51.9-9.53-26.48-1.41-.66L406 46.84l19.38 9.03 1.85-3.97Z" fill="#E0E0E0"/><path d="m427.3 51.75-17.97-8.37 8.37-17.96 9.6 26.33Z" fill="#F5F5F5"/><path d="m408.07 77.3-31.99-14.9c-2.15-1-4.04 2.2-1.87 3.21l31.99 14.9c2.15 1 4.04-2.2 1.87-3.21ZM383.65 45.33l31.99 14.9c2.15 1 4.04-2.2 1.87-3.21l-31.99-14.9c-2.15-1-4.04 2.2-1.87 3.21ZM378.7 55.74l31.99 14.9c2.15 1 4.04-2.2 1.87-3.21l-31.99-14.9c-2.15-1-4.04 2.2-1.87 3.21Z" fill="#FAFAFA"/><path d="m302.99 274.41-.99-3.27a3.12 3.12 0 0 0-2.33-2.15l-24.12-5.14a3.12 3.12 0 0 0-3.7 2.4l-9.83 46.11a3.23 3.23 0 0 0 2.49 3.84l54.81 11.69a3.23 3.23 0 0 0 3.84-2.49l8.58-40.24a3.12 3.12 0 0 0-2.4-3.7L305 276.27a2.7 2.7 0 0 1-2.02-1.86h.01Z" fill="#E0E0E0"/><path d="m329.35 281.46-24.12-5.14a3.12 3.12 0 0 0-3.01 1.01l-2.23 2.58a2.69 2.69 0 0 1-2.6.87l-24.34-5.19a3.12 3.12 0 0 0-3.7 2.4l-7.33 34.37a3.23 3.23 0 0 0 2.49 3.84l54.81 11.69a3.23 3.23 0 0 0 3.84-2.49l8.58-40.24a3.12 3.12 0 0 0-2.4-3.7h.01Z" fill="#F0F0F0"/><path d="M245.18 368.76c107.08 0 193.89-5.07 193.89-11.32s-86.8-11.32-193.89-11.32c-107.08 0-193.89 5.07-193.89 11.32s86.8 11.32 193.89 11.32Z" fill="#F5F5F5"/><path d="M364.51 58.51H130.67a11.89 11.89 0 0 0-11.89 11.89v177.79c0 6.57 5.32 11.89 11.89 11.89h233.84c6.57 0 11.89-5.32 11.89-11.89V70.4c0-6.57-5.32-11.89-11.89-11.89Z" fill="#407BFF"/><path opacity=".4" d="M364.51 58.51H130.67a11.89 11.89 0 0 0-11.89 11.89v177.79c0 6.57 5.32 11.89 11.89 11.89h233.84c6.57 0 11.89-5.32 11.89-11.89V70.4c0-6.57-5.32-11.89-11.89-11.89Z" fill="#fff"/><path opacity=".8" d="M130.67 72.15H364.5a7.9 7.9 0 0 1 7.89 7.89v168.14a7.9 7.9 0 0 1-7.89 7.89H130.67a7.9 7.9 0 0 1-7.89-7.89V80.05a7.9 7.9 0 0 1 7.89-7.89v-.01Z" fill="#fff"/><path opacity=".3" d="M137.15 61.71h-2.8c-1.04 0-1.89.85-1.89 1.89v2.8c0 1.04.85 1.89 1.89 1.89h2.8c1.04 0 1.89-.85 1.89-1.89v-2.8c0-1.04-.85-1.89-1.89-1.89Z" fill="#fff"/><path opacity=".5" d="M147.82 61.71h-2.8c-1.04 0-1.89.85-1.89 1.89v2.8c0 1.04.85 1.89 1.89 1.89h2.8c1.04 0 1.89-.85 1.89-1.89v-2.8c0-1.04-.85-1.89-1.89-1.89Z" fill="#fff"/><path opacity=".7" d="M158.5 61.71h-2.8c-1.04 0-1.89.85-1.89 1.89v2.8c0 1.04.85 1.89 1.89 1.89h2.8c1.04 0 1.89-.85 1.89-1.89v-2.8c0-1.04-.85-1.89-1.89-1.89Z" fill="#fff"/><path d="m169.82 113.3-1.11-2.02a2.1 2.1 0 0 0-1.84-1.09h-16.64a2.1 2.1 0 0 0-2.1 2.1v31.8c0 1.21.98 2.18 2.18 2.18h37.81c1.21 0 2.18-.98 2.18-2.18v-27.76a2.1 2.1 0 0 0-2.1-2.1h-16.79c-.66 0-1.27-.36-1.59-.94v.01Z" fill="#407BFF"/><path opacity=".3" d="m169.82 113.3-1.11-2.02a2.1 2.1 0 0 0-1.84-1.09h-16.64a2.1 2.1 0 0 0-2.1 2.1v31.8c0 1.21.98 2.18 2.18 2.18h37.81c1.21 0 2.18-.98 2.18-2.18v-27.76a2.1 2.1 0 0 0-2.1-2.1h-16.79c-.66 0-1.27-.36-1.59-.94v.01Z" fill="#fff"/><path d="M185.05 115.52H152.8v24.11h32.25v-24.11Z" fill="#263238"/><path opacity=".8" d="M185.05 115.52H152.8v24.11h32.25v-24.11Z" fill="#fff"/><path d="M187.38 117.94h-36.91v27.6h36.91v-27.6Z" fill="#263238"/><path opacity=".9" d="M187.38 117.94h-36.91v27.6h36.91v-27.6Z" fill="#fff"/><path d="M194.02 118.63H171.9c-1.02 0-1.96.36-2.45.94-.59.7-.88 1.04-1.45 1.74-.41.5-1.19.81-2.04.81h-21.61c-1.49 0-2.49.81-2.24 1.81l5.28 20.46c.27 1.04 1.46 1.88 2.65 1.88h37.48c1.2 0 2.38-.84 2.65-1.88l6.18-23.96c.26-1-.78-1.81-2.33-1.81v.01Z" fill="#407BFF"/><path d="M194.02 118.63H171.9c-1.02 0-1.96.36-2.45.94-.59.7-.88 1.04-1.45 1.74-.41.5-1.19.81-2.04.81h-21.61c-1.49 0-2.49.81-2.24 1.81l5.28 20.46c.27 1.04 1.46 1.88 2.65 1.88h37.48c1.2 0 2.38-.84 2.65-1.88l6.18-23.96c.26-1-.78-1.81-2.33-1.81v.01Z" fill="#fff" opacity=".6"/><path d="M148.95 158.27a2.52 2.52 0 0 1 0-5.04h40.33a2.52 2.52 0 0 1 0 5.04h-40.33Z" fill="#263238"/><path opacity=".6" d="M148.95 158.27a2.52 2.52 0 0 1 0-5.04h40.33a2.52 2.52 0 0 1 0 5.04h-40.33Z" fill="#fff"/><path d="m245.04 113.3-1.11-2.02a2.1 2.1 0 0 0-1.84-1.09h-16.64a2.1 2.1 0 0 0-2.1 2.1v31.8c0 1.21.98 2.18 2.18 2.18h37.81c1.21 0 2.18-.98 2.18-2.18v-27.76a2.1 2.1 0 0 0-2.1-2.1h-16.79c-.66 0-1.27-.36-1.59-.94v.01Z" fill="#407BFF"/><path opacity=".3" d="m245.04 113.3-1.11-2.02a2.1 2.1 0 0 0-1.84-1.09h-16.64a2.1 2.1 0 0 0-2.1 2.1v31.8c0 1.21.98 2.18 2.18 2.18h37.81c1.21 0 2.18-.98 2.18-2.18v-27.76a2.1 2.1 0 0 0-2.1-2.1h-16.79c-.66 0-1.27-.36-1.59-.94v.01Z" fill="#fff"/><path d="M260.27 115.52h-32.25v24.11h32.25v-24.11Z" fill="#263238"/><path opacity=".8" d="M260.27 115.52h-32.25v24.11h32.25v-24.11Z" fill="#fff"/><path d="M262.6 117.94h-36.91v27.6h36.91v-27.6Z" fill="#263238"/><path opacity=".9" d="M262.6 117.94h-36.91v27.6h36.91v-27.6Z" fill="#fff"/><path d="M269.23 118.63h-22.12c-1.02 0-1.96.36-2.45.94-.59.7-.88 1.04-1.45 1.74-.41.5-1.19.81-2.04.81h-21.61c-1.49 0-2.49.81-2.24 1.81l5.28 20.46c.27 1.04 1.46 1.88 2.65 1.88h37.48c1.2 0 2.38-.84 2.65-1.88l6.18-23.96c.26-1-.78-1.81-2.33-1.81v.01Z" fill="#407BFF"/><path d="M269.23 118.63h-22.12c-1.02 0-1.96.36-2.45.94-.59.7-.88 1.04-1.45 1.74-.41.5-1.19.81-2.04.81h-21.61c-1.49 0-2.49.81-2.24 1.81l5.28 20.46c.27 1.04 1.46 1.88 2.65 1.88h37.48c1.2 0 2.38-.84 2.65-1.88l6.18-23.96c.26-1-.78-1.81-2.33-1.81v.01Z" fill="#fff" opacity=".6"/><path d="M224.27 158.27a2.52 2.52 0 0 1 0-5.04h40.33a2.52 2.52 0 0 1 0 5.04h-40.33Z" fill="#263238"/><path opacity=".6" d="M224.27 158.27a2.52 2.52 0 0 1 0-5.04h40.33a2.52 2.52 0 0 1 0 5.04h-40.33Z" fill="#fff"/><path d="m169.82 193.59-1.11-2.02a2.1 2.1 0 0 0-1.84-1.09h-16.64a2.1 2.1 0 0 0-2.1 2.1v31.8c0 1.21.98 2.18 2.18 2.18h37.81c1.21 0 2.18-.98 2.18-2.18v-27.76a2.1 2.1 0 0 0-2.1-2.1h-16.79c-.66 0-1.27-.36-1.59-.94v.01Z" fill="#407BFF"/><path opacity=".3" d="m169.82 193.59-1.11-2.02a2.1 2.1 0 0 0-1.84-1.09h-16.64a2.1 2.1 0 0 0-2.1 2.1v31.8c0 1.21.98 2.18 2.18 2.18h37.81c1.21 0 2.18-.98 2.18-2.18v-27.76a2.1 2.1 0 0 0-2.1-2.1h-16.79c-.66 0-1.27-.36-1.59-.94v.01Z" fill="#fff"/><path d="M185.05 195.8H152.8v24.11h32.25V195.8Z" fill="#263238"/><path opacity=".8" d="M185.05 195.8H152.8v24.11h32.25V195.8Z" fill="#fff"/><path d="M187.38 198.22h-36.91v27.6h36.91v-27.6Z" fill="#263238"/><path opacity=".9" d="M187.38 198.22h-36.91v27.6h36.91v-27.6Z" fill="#fff"/><path d="M194.02 198.92H171.9c-1.02 0-1.96.36-2.45.94-.59.7-.88 1.04-1.45 1.74-.41.5-1.19.81-2.04.81h-21.61c-1.49 0-2.49.81-2.24 1.81l5.28 20.46c.27 1.04 1.46 1.88 2.65 1.88h37.48c1.2 0 2.38-.84 2.65-1.88l6.18-23.96c.26-1-.78-1.81-2.33-1.81v.01Z" fill="#407BFF"/><path d="M194.02 198.92H171.9c-1.02 0-1.96.36-2.45.94-.59.7-.88 1.04-1.45 1.74-.41.5-1.19.81-2.04.81h-21.61c-1.49 0-2.49.81-2.24 1.81l5.28 20.46c.27 1.04 1.46 1.88 2.65 1.88h37.48c1.2 0 2.38-.84 2.65-1.88l6.18-23.96c.26-1-.78-1.81-2.33-1.81v.01Z" fill="#fff" opacity=".6"/><path d="M148.95 239.56a2.52 2.52 0 0 1 0-5.04h40.33a2.52 2.52 0 0 1 0 5.04h-40.33Z" fill="#263238"/><path opacity=".6" d="M148.95 239.56a2.52 2.52 0 0 1 0-5.04h40.33a2.52 2.52 0 0 1 0 5.04h-40.33Z" fill="#fff"/><path d="m245.04 193.59-1.11-2.02a2.1 2.1 0 0 0-1.84-1.09h-16.64a2.1 2.1 0 0 0-2.1 2.1v31.8c0 1.21.98 2.18 2.18 2.18h37.81c1.21 0 2.18-.98 2.18-2.18v-27.76a2.1 2.1 0 0 0-2.1-2.1h-16.79c-.66 0-1.27-.36-1.59-.94v.01Z" fill="#407BFF"/><path opacity=".3" d="m245.04 193.59-1.11-2.02a2.1 2.1 0 0 0-1.84-1.09h-16.64a2.1 2.1 0 0 0-2.1 2.1v31.8c0 1.21.98 2.18 2.18 2.18h37.81c1.21 0 2.18-.98 2.18-2.18v-27.76a2.1 2.1 0 0 0-2.1-2.1h-16.79c-.66 0-1.27-.36-1.59-.94v.01Z" fill="#fff"/><path d="M260.27 195.8h-32.25v24.11h32.25V195.8Z" fill="#263238"/><path opacity=".8" d="M260.27 195.8h-32.25v24.11h32.25V195.8Z" fill="#fff"/><path d="M262.6 198.22h-36.91v27.6h36.91v-27.6Z" fill="#263238"/><path opacity=".9" d="M262.6 198.22h-36.91v27.6h36.91v-27.6Z" fill="#fff"/><path d="M269.23 198.92h-22.12c-1.02 0-1.96.36-2.45.94-.59.7-.88 1.04-1.45 1.74-.41.5-1.19.81-2.04.81h-21.61c-1.49 0-2.49.81-2.24 1.81l5.28 20.46c.27 1.04 1.46 1.88 2.65 1.88h37.48c1.2 0 2.38-.84 2.65-1.88l6.18-23.96c.26-1-.78-1.81-2.33-1.81v.01Z" fill="#407BFF"/><path d="M269.23 198.92h-22.12c-1.02 0-1.96.36-2.45.94-.59.7-.88 1.04-1.45 1.74-.41.5-1.19.81-2.04.81h-21.61c-1.49 0-2.49.81-2.24 1.81l5.28 20.46c.27 1.04 1.46 1.88 2.65 1.88h37.48c1.2 0 2.38-.84 2.65-1.88l6.18-23.96c.26-1-.78-1.81-2.33-1.81v.01Z" fill="#fff" opacity=".6"/><path d="M224.27 239.56a2.52 2.52 0 0 1 0-5.04h40.33a2.52 2.52 0 0 1 0 5.04h-40.33Z" fill="#263238"/><path opacity=".6" d="M224.27 239.56a2.52 2.52 0 0 1 0-5.04h40.33a2.52 2.52 0 0 1 0 5.04h-40.33Z" fill="#fff"/><path d="m318.56 193.59-1.11-2.02a2.1 2.1 0 0 0-1.84-1.09h-16.64a2.1 2.1 0 0 0-2.1 2.1v31.8c0 1.21.98 2.18 2.18 2.18h37.81c1.21 0 2.18-.98 2.18-2.18v-27.76a2.1 2.1 0 0 0-2.1-2.1h-16.79c-.66 0-1.27-.36-1.59-.94v.01Z" fill="#407BFF"/><path opacity=".3" d="m318.56 193.59-1.11-2.02a2.1 2.1 0 0 0-1.84-1.09h-16.64a2.1 2.1 0 0 0-2.1 2.1v31.8c0 1.21.98 2.18 2.18 2.18h37.81c1.21 0 2.18-.98 2.18-2.18v-27.76a2.1 2.1 0 0 0-2.1-2.1h-16.79c-.66 0-1.27-.36-1.59-.94v.01Z" fill="#fff"/><path d="M333.79 195.8h-32.25v24.11h32.25V195.8Z" fill="#263238"/><path opacity=".8" d="M333.79 195.8h-32.25v24.11h32.25V195.8Z" fill="#fff"/><path d="M336.12 198.22h-36.91v27.6h36.91v-27.6Z" fill="#263238"/><path opacity=".9" d="M336.12 198.22h-36.91v27.6h36.91v-27.6Z" fill="#fff"/><path d="M342.75 198.92h-22.12c-1.02 0-1.96.36-2.45.94-.59.7-.88 1.04-1.45 1.74-.41.5-1.19.81-2.04.81h-21.61c-1.49 0-2.49.81-2.24 1.81l5.28 20.46c.27 1.04 1.46 1.88 2.65 1.88h37.48c1.2 0 2.38-.84 2.65-1.88l6.18-23.96c.26-1-.78-1.81-2.33-1.81v.01Z" fill="#407BFF"/><path d="M342.75 198.92h-22.12c-1.02 0-1.96.36-2.45.94-.59.7-.88 1.04-1.45 1.74-.41.5-1.19.81-2.04.81h-21.61c-1.49 0-2.49.81-2.24 1.81l5.28 20.46c.27 1.04 1.46 1.88 2.65 1.88h37.48c1.2 0 2.38-.84 2.65-1.88l6.18-23.96c.26-1-.78-1.81-2.33-1.81v.01Z" fill="#fff" opacity=".6"/><path d="M297.79 239.56a2.52 2.52 0 0 1 0-5.04h40.33a2.52 2.52 0 0 1 0 5.04h-40.33Z" fill="#263238"/><path opacity=".6" d="M297.79 239.56a2.52 2.52 0 0 1 0-5.04h40.33a2.52 2.52 0 0 1 0 5.04h-40.33Z" fill="#fff"/><path d="M297.27 158.27a2.52 2.52 0 0 1 0-5.04h40.33a2.52 2.52 0 0 1 0 5.04h-40.33Z" fill="#263238"/><path opacity=".6" d="M297.27 158.27a2.52 2.52 0 0 1 0-5.04h40.33a2.52 2.52 0 0 1 0 5.04h-40.33Z" fill="#fff"/><path d="m295.89 147.17 8.6 25.16a3.1 3.1 0 0 0 2.79 1.9h16.92c.78 0 1.37-.38 1.53-.99l.5-1.83c.15-.53.65-.85 1.33-.85h17.08c1.18 0 1.85-.85 1.49-1.9l-7.34-21.49-.1-4.2v-32.34c0-1.18-.96-2.14-2.14-2.14h-16.92c-.78 0-1.5.42-1.87 1.11l-1.13 2.05c-.33.59-.95.96-1.62.96h-17.08c-1.18 0-2.14.96-2.14 2.14v28.23l.1 4.2v-.01Z" fill="#407BFF"/><path opacity=".6" d="m295.89 147.17 8.6 25.16a3.1 3.1 0 0 0 2.79 1.9h16.92c.78 0 1.37-.38 1.53-.99l.5-1.83c.15-.53.65-.85 1.33-.85h17.08c1.18 0 1.85-.85 1.49-1.9l-7.34-21.49-.1-4.2v-32.34c0-1.18-.96-2.14-2.14-2.14h-16.92c-.78 0-1.5.42-1.87 1.11l-1.13 2.05c-.33.59-.95.96-1.62.96h-17.08c-1.18 0-2.14.96-2.14 2.14v28.23l.1 4.2v-.01Z" fill="#fff"/><path d="m295.89 147.17 8.6 25.16a3.1 3.1 0 0 0 2.79 1.9h16.92c.78 0 1.37-.38 1.53-.99l.5-1.83c.15-.53.65-.85 1.33-.85h17.08c1.18 0 1.85-.85 1.49-1.9l-7.34-21.49h-42.9Z" fill="#407BFF"/><path opacity=".3" d="m295.89 147.17 8.6 25.16a3.1 3.1 0 0 0 2.79 1.9h16.92c.78 0 1.37-.38 1.53-.99l.5-1.83c.15-.53.65-.85 1.33-.85h17.08c1.18 0 1.85-.85 1.49-1.9l-7.34-21.49h-42.9Z" fill="#fff"/><path opacity=".1" d="M300.03 147.17h34.81l6.35 17.9h-34.81l-6.35-17.9Z" fill="#000"/><path d="M300.03 147.18h34.81v-28.21h-34.81v28.21Z" fill="#263238"/><path opacity=".8" d="M300.03 147.18h34.81v-28.21h-34.81v28.21Z" fill="#fff"/><path d="M300.03 147.17h34.81l7.06-20.33h-34.82l-7.05 20.33Z" fill="#263238"/><path opacity=".9" d="M300.03 147.17h34.81l7.06-20.33h-34.82l-7.05 20.33Z" fill="#fff"/><path d="M300.03 147.17h34.81l7.06 15.07h-34.82l-7.05-15.07Z" fill="#263238"/><path opacity=".9" d="M300.03 147.17h34.81l7.06 15.07h-34.82l-7.05-15.07Z" fill="#fff"/><path d="M300.03 147.17h34.81l11.39-7.74h-34.82l-11.38 7.74Z" fill="#263238"/><path opacity=".8" d="M300.03 147.17h34.81l11.39-7.74h-34.82l-11.38 7.74Z" fill="#fff"/><path d="M108.3 323.3c.85-13.57 6.8-27.31 16.38-36.62 2.39-2.32 7.41-6.93 3.34-9.35-4.65-2.77-13.57 10.2-14.82 12.6 2.63-10.34 10.64-17.82 19.32-22.12 4.29-2.12 8.38-4.12 3.81-7.28-4.68-3.23-14.46 4.5-16.74 7.77 5.42-7.56 12.27-15.15 19.29-19.68 7.75-5 4.25-13.34-3.74-6.9-4.95 4-13.09 13.98-13.09 13.98-.02-.01 12.79-25.69 8.93-28.05-4.96-3.03-13.76 32.01-16.18 38.9.64-5.72 1.25-19.56-3.05-20.16-3.89-.54-2.94 33.92-3.84 40-.57 2.66-.82 3.99-1.28 6.68-.42-4.59-2.98-16.69-6.86-15.29-3.28 1.18-1.25 10.24-.4 14.54 2.06 10.41 4.14 20.48 4.16 31.16l4.78-.16-.01-.02Z" fill="#407BFF"/><path opacity=".4" d="M112.45 253.13c.57 7.49 1.09 15.08.38 22.6a125.06 125.06 0 0 1 5.43-13l.01-.02a116.9 116.9 0 0 1 1.87-3.71c.26-.49.9-.27.81.18 4.74-6.02 10.47-11.5 17.29-15.02.5-.26.84.5.37.77-7.92 4.48-13.81 10.8-19.64 18.26a114.72 114.72 0 0 0-6.24 15.45c4.19-6.84 11.02-11.72 18.64-14.04.52-.16.81.64.3.81-10.56 3.33-17.96 10.72-21.01 20.38a.82.82 0 0 1-.1.21 189.98 189.98 0 0 0-3.45 18.47c2.98-8.86 9.39-16.7 16.75-22.19.45-.33.85.43.41.76-8.83 6.65-14.53 15.43-17.52 25.53l-.02.04c-.32 3.98-.46 7.98-.42 11.99 0 .64-.83.65-.83.01.03-13.45 2-26.46 5.63-39.58 1.94-9.09 1.24-18.58.51-27.73-.05-.63.82-.8.87-.18l-.04.01Z" fill="#fff"/><path d="M107.3 323.28c-1.01-16.09-8.07-32.39-19.43-43.43-2.83-2.75-8.78-8.21-3.96-11.09 5.51-3.29 16.1 12.1 17.57 14.94-3.12-12.26-12.62-21.14-22.91-26.23-5.09-2.52-9.93-4.89-4.51-8.63 5.55-3.83 17.15 5.33 19.86 9.21-6.43-8.97-14.55-17.97-22.88-23.34-9.19-5.93-5.04-15.82 4.44-8.18C81.36 231.27 91 243.11 91 243.11c.03-.02-15.17-30.47-10.59-33.27 5.89-3.6 16.32 37.97 19.19 46.13-.76-6.79-1.49-23.2 3.61-23.91 4.61-.64 3.48 40.22 4.56 47.44.68 3.15.98 4.74 1.51 7.92.5-5.44 3.54-19.8 8.14-18.14 3.89 1.4 1.48 12.15.47 17.24-2.45 12.35-4.91 24.29-4.93 36.95l-5.67-.19h.01Z" fill="#407BFF"/><path opacity=".2" d="M102.38 240.07c-.68 8.88-1.3 17.89-.45 26.8a148.66 148.66 0 0 0-6.44-15.42l-.01-.02c-.72-1.48-1.45-2.95-2.22-4.4-.31-.59-1.07-.32-.96.22-5.63-7.14-12.42-13.63-20.5-17.81-.6-.31-1 .59-.43.92 9.39 5.32 16.37 12.8 23.3 21.66 2.89 5.85 5.41 12.1 7.4 18.32-4.97-8.11-13.07-13.9-22.11-16.65-.62-.19-.97.76-.35.96 12.52 3.95 21.3 12.71 24.92 24.18.03.1.07.18.12.25a226.47 226.47 0 0 1 4.09 21.91c-3.53-10.51-11.14-19.8-19.86-26.32-.53-.39-1 .51-.48.9 10.48 7.88 17.23 18.3 20.78 30.28l.02.05c.38 4.72.55 9.46.5 14.22 0 .75.99.77.99.02-.03-15.96-2.37-31.38-6.67-46.94-2.3-10.78-1.47-22.04-.6-32.89.06-.74-.97-.95-1.03-.21l-.01-.03Z" fill="#fff"/><path d="M107.3 323.28c-1.01-16.09-8.07-32.39-19.43-43.43-2.83-2.75-8.78-8.21-3.96-11.09 5.51-3.29 16.1 12.1 17.57 14.94-3.12-12.26-12.62-21.14-22.91-26.23-5.09-2.52-9.93-4.89-4.51-8.63 5.55-3.83 17.15 5.33 19.86 9.21-6.43-8.97-14.55-17.97-22.88-23.34-9.19-5.93-5.04-15.82 4.44-8.18C81.36 231.27 91 243.11 91 243.11c.03-.02-15.17-30.47-10.59-33.27 5.89-3.6 16.32 37.97 19.19 46.13-.76-6.79-1.49-23.2 3.61-23.91 4.61-.64 3.48 40.22 4.56 47.44.68 3.15.98 4.74 1.51 7.92.5-5.44 3.54-19.8 8.14-18.14 3.89 1.4 1.48 12.15.47 17.24-2.45 12.35-4.91 24.29-4.93 36.95l-5.67-.19h.01Z" fill="#407BFF"/><path opacity=".2" d="M107.3 323.28c-1.01-16.09-8.07-32.39-19.43-43.43-2.83-2.75-8.78-8.21-3.96-11.09 5.51-3.29 16.1 12.1 17.57 14.94-3.12-12.26-12.62-21.14-22.91-26.23-5.09-2.52-9.93-4.89-4.51-8.63 5.55-3.83 17.15 5.33 19.86 9.21-6.43-8.97-14.55-17.97-22.88-23.34-9.19-5.93-5.04-15.82 4.44-8.18C81.36 231.27 91 243.11 91 243.11c.03-.02-15.17-30.47-10.59-33.27 5.89-3.6 16.32 37.97 19.19 46.13-.76-6.79-1.49-23.2 3.61-23.91 4.61-.64 3.48 40.22 4.56 47.44.68 3.15.98 4.74 1.51 7.92.5-5.44 3.54-19.8 8.14-18.14 3.89 1.4 1.48 12.15.47 17.24-2.45 12.35-4.91 24.29-4.93 36.95l-5.67-.19h.01Z" fill="#fff"/><path opacity=".5" d="M102.38 240.07c-.68 8.88-1.3 17.89-.45 26.8a148.66 148.66 0 0 0-6.44-15.42l-.01-.02c-.72-1.48-1.45-2.95-2.22-4.4-.31-.59-1.07-.32-.96.22-5.63-7.14-12.42-13.63-20.5-17.81-.6-.31-1 .59-.43.92 9.39 5.32 16.37 12.8 23.3 21.66 2.89 5.85 5.41 12.1 7.4 18.32-4.97-8.11-13.07-13.9-22.11-16.65-.62-.19-.97.76-.35.96 12.52 3.95 21.3 12.71 24.92 24.18.03.1.07.18.12.25a226.47 226.47 0 0 1 4.09 21.91c-3.53-10.51-11.14-19.8-19.86-26.32-.53-.39-1 .51-.48.9 10.48 7.88 17.23 18.3 20.78 30.28l.02.05c.38 4.72.55 9.46.5 14.22 0 .75.99.77.99.02-.03-15.96-2.37-31.38-6.67-46.94-2.3-10.78-1.47-22.04-.6-32.89.06-.74-.97-.95-1.03-.21l-.01-.03Z" fill="#fff"/><path d="M123.83 321.09H92.55a3.68 3.68 0 0 0-3.68 3.68v1.62a3.68 3.68 0 0 0 3.68 3.68l3.6 26.01h24.08l3.6-26.01a3.68 3.68 0 0 0 3.68-3.68v-1.62a3.68 3.68 0 0 0-3.68-3.68Z" fill="#407BFF"/><path opacity=".2" d="M123.83 321.09H92.55a3.68 3.68 0 0 0-3.68 3.68v1.62a3.68 3.68 0 0 0 3.68 3.68l3.6 26.01h24.08l3.6-26.01a3.68 3.68 0 0 0 3.68-3.68v-1.62a3.68 3.68 0 0 0-3.68-3.68Z" fill="#000"/><path opacity=".2" d="m123.09 335.42.73-5.28H92.56l.73 5.28h29.8Z" fill="#000"/><path d="M388.8 141.15s17.91 15.4 17.91 24.53c0 8.39-17.79 17.38-25.61 18.54-1.81.27-7.33 0-7.33 0a4.01 4.01 0 0 1-3.77-2.66l-.09-.26a3.93 3.93 0 0 1 .93-4.14 6.14 6.14 0 0 1 3.16-1.77c2.82-.44 6.8 3.53 6.8 3.53s17.37-10.45 17.37-12.36c0-1.91-7.94-8.17-10.3-11.63-1.98-2.9-4.02-7.11.93-13.78Z" fill="#B97964"/><path d="M389.25 140.29c1.74 1.04 5.66 4.05 11.97 12.39 0 0-.23 4.56-8.35 8.81 0 0-8.65-6.65-8.58-13.06.05-4.38 1.85-6.82 2.98-7.92.53-.52 1.33-.6 1.97-.22h.01Z" fill="#407BFF"/><path opacity=".2" d="M387.42 155.99a33.61 33.61 0 0 0 5.45 5.51l.64-.35c.82-9.8-2.26-16.04-2.26-16.04l-3.06 4.17-.77 6.7v.01Z" fill="#000"/><path opacity=".2" d="M381.43 184.16c3.14-.54 7.73-2.23 12.14-4.6-1.64-1.2-2.13-5.37-2.27-7.31-4.45 3-9.56 6.1-10.38 6.6l.51 5.32v-.01Z" fill="#606060"/><path d="M391.72 161.22s7.23-3.9 9.5-9.78l1.35 2.28s-2.34 5.73-9.45 8.93l-1.4-1.44v.01Z" fill="#407BFF"/><path opacity=".5" d="M391.72 161.22s7.23-3.9 9.5-9.78l1.35 2.28s-2.34 5.73-9.45 8.93l-1.4-1.44v.01Z" fill="#fff"/><path d="m383.13 154.54-1.01-1.3a1.49 1.49 0 0 0-1.42-.56l-11.71 1.85a1.5 1.5 0 0 0-1.24 1.71l3.55 22.39c.13.85.93 1.43 1.78 1.29l26.61-4.22a1.55 1.55 0 0 0 1.29-1.78l-3.09-19.54a1.5 1.5 0 0 0-1.71-1.24l-11.82 1.87a1.3 1.3 0 0 1-1.23-.49v.02Z" fill="#407BFF"/><path opacity=".4" d="m383.13 154.54-1.01-1.3a1.49 1.49 0 0 0-1.42-.56l-11.71 1.85a1.5 1.5 0 0 0-1.24 1.71l3.55 22.39c.13.85.93 1.43 1.78 1.29l26.61-4.22a1.55 1.55 0 0 0 1.29-1.78l-3.09-19.54a1.5 1.5 0 0 0-1.71-1.24l-11.82 1.87a1.3 1.3 0 0 1-1.23-.49v.02Z" fill="#fff"/><path d="m396.18 153.16-11.71 1.85a1.5 1.5 0 0 0-1.17.97l-.56 1.54a1.3 1.3 0 0 1-1.02.84l-11.82 1.87a1.5 1.5 0 0 0-1.24 1.71l2.64 16.69c.13.85.93 1.43 1.78 1.29l26.61-4.22a1.55 1.55 0 0 0 1.29-1.78l-3.09-19.54a1.5 1.5 0 0 0-1.71-1.24v.02Z" fill="#407BFF"/><path opacity=".7" d="m396.18 153.16-11.71 1.85a1.5 1.5 0 0 0-1.17.97l-.56 1.54a1.3 1.3 0 0 1-1.02.84l-11.82 1.87a1.5 1.5 0 0 0-1.24 1.71l2.64 16.69c.13.85.93 1.43 1.78 1.29l26.61-4.22a1.55 1.55 0 0 0 1.29-1.78l-3.09-19.54a1.5 1.5 0 0 0-1.71-1.24v.02Z" fill="#fff"/><path d="m410.6 336.42 3.61 12.59 5.89-1.15-1.54-13.45-7.96 2.01Z" fill="#B97964"/><path d="m413.7 347.08 6.95-1.26c.26-.05.52.09.63.34l2.28 5.43a.94.94 0 0 1-.69 1.3c-2.51.41-4.77.68-7.89 1.25-3.68.67-2.67.94-6.99 1.79-2.6.51-3.62-2.37-2.54-2.72 4.95-1.56 5.2-3.18 6.82-5.35.36-.42.87-.7 1.42-.78h.01Z" fill="#263238"/><path d="M359.26 333.97v16.69h6.26l3.23-16.3-9.49-.39Z" fill="#B97964"/><path d="m359.15 349.6 7.05.25c.27 0 .49.2.54.46l1.07 5.78a.95.95 0 0 1-.75 1.11l-.2.02c-2.54-.14-4.8-.36-7.96-.46-3.74-.13-2.8.35-7.2.25-2.65-.06-3.02-3.08-1.9-3.19 5.16-.46 5.75-1.99 7.79-3.76.44-.34 1-.5 1.55-.46h.01ZM378.27 194.52l11.69-3.3s8.29 5.31 9.52 29.47c.49 9.71 3.26 17.21 2.88 35.61a33.19 33.19 0 0 0 3.46 15.51 80.46 80.46 0 0 1 6.46 18.32c3.5 15.66 7.83 51.52 7.83 51.52l-8.45 1.44s-7.83-26.58-18.13-53.17c-10.3-26.58-17.52-67.18-17.52-67.18l-2.71-28.23h4.97v.01Z" fill="#263238"/><path opacity=".6" d="m383.11 223.98-2.37.52-2.68 2.68-.69 2.74a590.59 590.59 0 0 0 4.87 22.18c4.08-22.55.87-28.11.87-28.11v-.01Z" fill="#000"/><path d="m356.63 193.48 2.16 151.77h8.35s8.65-37.4 8.65-52.24c0-8.78-.58-18.07-1.05-24.19-.35-4.54.23-9.1 1.68-13.42 2.74-8.17 7.06-22.24 7.62-31.43 0 0 10.92-.41 3.09-30.5h-30.5v.01Z" fill="#263238"/><path d="m363.09 116.7-3.85 3.73a4 4 0 0 0 3.42 1.18l.43-4.91Z" fill="#A24E3F"/><path d="M384.13 117.46c-1.55 7.61-2.04 10.87-6.47 14.26-6.49 3.18-15.69 1.54-16.44-6.38-.68-7.13 1.96-18.35 9.92-20.39a10.6 10.6 0 0 1 12.99 12.51Z" fill="#B97964"/><path d="M364.64 111.84a.3.3 0 0 1-.24-.17 2.4 2.4 0 0 0-1.73-1.34.3.3 0 0 1-.27-.33.3.3 0 0 1 .34-.27c.97.16 1.79.78 2.21 1.67a.3.3 0 0 1-.13.41c-.05.03-.11.04-.17.03h-.01Z" fill="#263238"/><path opacity=".2" d="M366.2 129.5a8.55 8.55 0 0 1-4.19-1.18c1.38 2.93 4.3 4.5 7.59 4.85l-.11-1.61s.29-1.95-3.29-2.06Z" fill="#606060"/><path d="m369 138.66.68-9.77s3.95-1.44 6.32 0c0 0 1.13 7.32 3.3 9.07l-10.3.71v-.01Z" fill="#B97964"/><path d="M361.37 114.97c-.14.57.04 1.1.41 1.19.37.09.82-.31.94-.86s-.04-1.1-.41-1.19c-.37-.09-.79.29-.94.86Z" fill="#263238"/><path d="M362.62 114.1s-1.25-.24-1.68-1.32c0 0-.11 1.45 1.46 1.98l.22-.66Z" fill="#263238"/><path d="M363.85 116.72a6 6 0 0 0-.08 4.58c.79 1.95 2.86 1.66 4.04.06 1.07-1.45 1.93-4.2.46-5.65-1.47-1.45-3.63-.75-4.42 1.02v-.01Z" fill="#B97964"/><path d="M387.28 111.85s4.12-3.93.82-6.82c-3.3-2.88.46 3.12-.82 6.82ZM370.23 106.54s-4.38-3.66-5.87-.88c-1.49 2.78 2.52-.36 5.87.88ZM369.77 114.98l-6.47-2.07.04-.15a1.06 1.06 0 0 0-.71-1.31l-1.18-.35a1.06 1.06 0 0 0-1.31.72l-1.24 4.2c-.1.36-.06.73.11 1.06.18.32.47.56.83.67l.55.16a1.39 1.39 0 0 0 1.72-.94l1.02-3.46 6.45 2.07.19-.59v-.01Zm-8.83-3.25c.1-.06.22-.07.33-.04l1.18.35c.23.07.36.31.3.54l-.04.13-2.01-.64.02-.08a.42.42 0 0 1 .21-.26h.01Zm.58 5.06a.76.76 0 0 1-.95.52l-.55-.16a.77.77 0 0 1-.46-.37.74.74 0 0 1-.06-.58l1.04-3.53 2.01.64-1.02 3.48h-.01Z" fill="#263238"/><path d="M365.6 141.4s1.02-3.86 7.7-5.25a8.25 8.25 0 0 1 9.3 3.92l-17 1.34v-.01Z" fill="#407BFF"/><path opacity=".5" d="M365.6 141.4s1.02-3.86 7.7-5.25a8.25 8.25 0 0 1 9.3 3.92l-17 1.34v-.01Z" fill="#fff"/><path d="M355.86 194.49s27.12 3.35 35.78-3.27c0 0-2.51-9.87-1.68-21.15.83-11.28 4.31-22.41.6-28.51-3.71-6.1-31.14-1.55-36.55 4.02-5.41 5.56 1.85 27.2 1.85 48.92v-.01Z" fill="#407BFF"/><path opacity=".2" d="m360.11 150.37-2.24 6.69-5.04 6.3c.59 4.63 1.38 9.84 2.01 15.33a30.22 30.22 0 0 0 6.05-9.93c4.9-13.35 1-20.79 1-20.79l-1.78 2.4Z" fill="#000"/><path d="M365.6 120.33s-8.04 19.87 5.56 19.72c13.6-.15 16.84-3.45 13.21-6.12-3.63-2.68 8.29-11.54 3.82-22.67 0 0-1.58-8.86-10.64-8.76 0 0-1.99-2.9-5.68-3.41-3.47-.48-5.9 3.37-4.06 6.35l1.87 3.04s-7.07 2.27-4.08 11.85Z" fill="#263238"/><path d="M358.84 144.49s-6.66 1.47-7.96 9.84c-1.31 8.37-2.14 14.72-4.58 15.56-2.57.89-13.99-8.75-13.99-8.75l.38-5.62a3.13 3.13 0 0 0-1.76-3.03l-.87-.42a3.14 3.14 0 0 0-3.36.4l-.71.58a3.15 3.15 0 0 0-1.09 3.03c.44 2.25 1.37 5.87 2.95 7.01 0 0 16.22 18.65 21.06 16.72 4.84-1.93 8.49-13.67 10.46-18.55 1.57-3.89 3.63-8.17-.54-16.77h.01Z" fill="#B97964"/><path d="M359.26 143.41c-1.81-1.17-9.35.23-11.13 17.54 0 0 5.95 5.02 11.59 4.33 0 0 7.34-16.85-.46-21.87Z" fill="#407BFF"/><path d="M347.75 159.29s5.83 4.97 13.14 4.73l-.85 1.95s-6.19 1.36-12.56-4.74l.27-1.93v-.01Z" fill="#407BFF"/><path opacity=".5" d="M347.75 159.29s5.83 4.97 13.14 4.73l-.85 1.95s-6.19 1.36-12.56-4.74l.27-1.93v-.01Z" fill="#fff"/><path d="m410.2 341.09.79 3.1 9.9-1.88-.35-3.08-10.34 1.86ZM357.77 343.26l.12 3.09h10.24l.62-3.09h-10.98Z" fill="#407BFF"/></g><defs><clipPath id="a"><path fill="#fff" d="M0 0h500v368.76H0z"/></clipPath></defs></svg>