<svg xmlns="http://www.w3.org/2000/svg" fill="none" viewBox="0 0 21 29">
    <path fill="current" stroke="transparent"
        d="m19 23.7.4.1c.8.2 1.5.9 1.6 1.7V27c0 1.1-.9 1.8-2 1.9H2.2c-1.1 0-2-.5-2.1-1.4v-2.4c.1-.8.7-1.2 1.5-1.4H2v-2.5a2 2 0 0 1 1.8-1.4C5 19.9 6 19 6.7 18c.4-.6.6-1.3.8-2.1L6 17l-.5.3c-.2.2-.5.2-.8 0a.8.8 0 0 1-.2-.8l1-3 .8-2.3c0-.3 0-.4-.2-.5L1.7 7.5c-.4-.3-.5-.6-.4-.9.1-.3.4-.4.8-.4h5.6c.2 0 .3-.1.4-.4L9.8.7V.5c.2-.3.4-.5.7-.5.3 0 .5.2.6.5l.6 1.7 1.2 3.6c0 .3.2.4.4.4H19c.3 0 .6 0 .7.4 0 .4 0 .6-.3.8L17 9l-2.3 1.6c-.2.1-.2.3-.1.5l1.6 5.1v.2c.2.3.1.6-.1.8-.3.2-.6.2-.9 0l-1.5-1.1-.3-.2a4.6 4.6 0 0 0 3 3.8h.5a2 2 0 0 1 2 2v2ZM14.5 15l-.2-.5-1.1-3.6c-.2-.4-.1-.6.3-1l3.1-2.2.4-.2h-4.3c-.5 0-.7-.2-.9-.6L11 4.3l-.5-1.5-1.3 4c-.2.5-.4.7-1 .7H4l.4.2 3 2.3c.5.3.6.5.4 1l-1.1 3.4-.2.6.3-.2 3.2-2.2c.4-.4.6-.4 1 0l3.5 2.4Zm-4 12.7h8.4c.5 0 .8-.2.8-.8v-1.1c0-.5-.3-.7-.7-.7H2c-.5 0-.7.2-.7.7v1c0 .7.2.9.9.9h8.3Zm7.2-4V22c0-.5-.2-.7-.7-.7H4c-.5 0-.7.2-.7.7v1.9h14.4Zm-7.2-10-1 .8c-.5.3-.6.7-.7 1.2a6.2 6.2 0 0 1-1.6 3.9l-.2.2h7a7.4 7.4 0 0 1-1.8-4.7l-.3-.3-1.4-1Z" />
</svg>
  