<svg xmlns="http://www.w3.org/2000/svg" fill="none" viewBox="0 0 40 33">
    <g fill="currentColor" stroke="transparent" clip-path="url(#a)">
        <path
            d="M2.7 2.7V.5c0-.3.3-.4.6-.5h13c1.5 0 2.7.5 3.6 1.6v.2l1-1c.6-.5 1.4-.8 2.2-.8h13.5c.5 0 .7.3.7.8v1.9h1.8c.7 0 .9.2.9.9v26.5c0 .7-.2.9-.9.9H23.9a94.6 94.6 0 0 0-3.4 1.8c-.3.3-.7.3-1 0A106.6 106.6 0 0 0 16 31H.6a.7.7 0 0 1-.6-.7V4c0-1.1.4-1.2 1.2-1.2h1.5Zm16.6 25.7v-25c-.4-1.3-1.4-2-2.8-2H4v25.5h12.5c.2 0 .5.1.7.3l2.1 1.2ZM36 1.4H23.4A2.8 2.8 0 0 0 20.7 4v24.3l2.1-1.2c.2-.2.5-.3.8-.3H36V1.4ZM37.3 4v23.7c0 .3-.2.5-.5.6a3 3 0 0 1-.5 0H24l-.7.2-2.7 1.7c-.3.2-.6.2-1 0a104.5 104.5 0 0 0-3.4-1.9h-13c-.3 0-.5-.3-.5-.7V4.1H1.3v25.1c0 .3.2.5.5.5h14.6c.3 0 .6 0 .8.2l2.6 1.5c.1.1.3.1.4 0l2.5-1.5c.3-.2.6-.3 1-.3h14.6c.3 0 .4 0 .4-.3V4h-1.4Z" />
        <path
            d="m7.3 7.2 1.5-1.5.7-.7c.3-.3.7-.3 1 0 .2.2.2.6 0 1-1 .8-1.8 1.7-2.7 2.6-.3.3-.7.2-1 0a50 50 0 0 1-1.2-1.3c-.3-.4-.3-.7 0-1 .2-.3.6-.3 1 0l.7.9Zm0 14.8.3-.3L9.4 20l.3-.2c.3-.2.6-.2.8 0 .2.3.2.7 0 .9l-.2.3L8 23.3c-.4.4-.8.4-1 0-.5-.3-.9-.7-1.3-1.2a1 1 0 0 1-.2-.6c0-.5.6-.8 1-.5l.7.7.2.2Zm.1-7.4.3-.5 1.8-1.7c.3-.3.7-.3 1 0 .2.2.2.6 0 1-1 .8-1.8 1.7-2.7 2.6-.3.3-.6.3-1 0l-1.2-1.3c-.3-.3-.3-.7 0-1 .2-.3.6-.3 1 0l.8 1ZM15 4.7h2.2c.2 0 .4 0 .6.2l.2.6c0 .2-.3.4-.5.5h-4.7c-.5 0-.8-.2-.8-.6 0-.4.3-.7.8-.7H15Zm0 11.5h-2.5a.6.6 0 0 1-.5-.7c0-.3.2-.6.5-.6h4.6c.6 0 1 .2.9.6 0 .5-.3.7-1 .7h-2Zm0-8.8h2.3c.4 0 .7.3.7.7 0 .4-.3.6-.7.7h-4.7A.7.7 0 0 1 12 8c0-.4.3-.7.7-.7H15Zm0 4.7h2.2l.5.2c.3.1.3.4.3.6 0 .3-.2.5-.5.5a1184.2 1184.2 0 0 1-5 0 .6.6 0 0 1-.5-.6c0-.3.3-.6.6-.6H15Zm0 8.8h-2.6a.6.6 0 0 1-.4-.7c0-.3.2-.5.5-.6h4.7c.5 0 .8.2.8.6 0 .4-.3.7-.8.7H15Zm0 1.4h2.4c.3 0 .5.1.6.4 0 .3 0 .6-.3.7a324.3 324.3 0 0 1-5 .2.7.7 0 0 1-.7-.7c0-.4.3-.6.8-.7H15Zm9-1.7.9-.8c.4-.4 1-.2 1 .3 0 .2 0 .5-.2.7l-.7.7v.1l.8.8c.2.2.3.5.2.7-.1.3-.3.5-.6.5l-.6-.3-.8-.9-.8 1c-.3.2-.6.2-.8.1a.6.6 0 0 1-.2-1l.9-.8v-.2l-.7-.6a2 2 0 0 1-.2-.3.7.7 0 0 1 0-.8c.2-.3.6-.3.9-.1l.7.7.3.2Zm0-7.3.8-.9c.3-.3.7-.3 1 0 .3.2.3.6 0 1l-.6.5c-.2.2-.2.3 0 .5l.5.6c.4.3.4.7.1 1-.3.3-.7.2-1 0l-.8-1-.8.9c-.2.1-.4.3-.6.2-.2 0-.4-.2-.5-.4-.2-.2 0-.5.1-.7l.9-.8-.5-.6-.5-.5a.6.6 0 0 1 .1-.8c.3-.2.6-.2.8 0 .3.1.5.4.7.6l.3.4Zm0-5.7-.8.9c-.3.3-.7.3-1 0-.3-.2-.3-.6 0-1l1-.8-.8-.6-.3-.3a.7.7 0 0 1 1-.9l.7.6.2.3.8-.8c.3-.3.7-.4 1 0 .3.2.3.6 0 1l-1 .7 1 .8.2.7c0 .2-.2.4-.4.5-.3.1-.6 0-.8-.2l-.8-.9Zm7.7-2.9h2.2c.6 0 .9.4.7 1 0 .2-.4.4-.7.4h-4.5a.7.7 0 0 1-.7-.7c0-.4.3-.7.7-.7h2.3Zm0 10.1H34c.5 0 .8.6.6 1a1 1 0 0 1-.8.4h-4.4a.7.7 0 0 1-.7-.7c0-.4.2-.7.7-.7h2.3Zm0-2.7h2.2c.3 0 .6.1.7.4.2.4 0 .8-.4 1h-4.9c-.4 0-.6-.3-.6-.7 0-.4.2-.6.6-.7h2.4Zm0 8.8h-2.2c-.2 0-.4 0-.6-.2a.5.5 0 0 1-.2-.6c0-.2.3-.4.4-.5h5c.4 0 .6.3.6.6 0 .4-.3.7-.7.7h-2.3Zm0 1.3h2.1l.6.2c.2.2.2.4.2.6 0 .3-.2.5-.4.5h-.4a1357.9 1357.9 0 0 1-4.5 0c-.4 0-.6-.3-.6-.6 0-.4.2-.6.6-.6h2.4Zm0-14.8h2.2c.5 0 .8.3.8.7 0 .4-.3.7-.8.7h-4.5c-.4 0-.6-.2-.7-.6 0-.3 0-.6.4-.7h2.6Z" />
    </g>
    <defs>
        <clipPath id="a">
            <path fill="#fff" d="M0 0h40v33H0z" />
        </clipPath>
    </defs>
</svg>
  