<svg xmlns="http://www.w3.org/2000/svg" fill="none" viewBox="0 0 29 29">
    <g fill="currentColor" clip-path="url(#a)" stroke="transparent">
        <path
            d="M6.7 13.5H3.2A3 3 0 0 1 0 10.3V3.1a3 3 0 0 1 3.2-3h7a3 3 0 0 1 3.3 3v7.2a3 3 0 0 1-3.2 3.2H6.7ZM2.1 6.7v3.5c0 .8.4 1.2 1.2 1.2h6.9c.8 0 1.2-.4 1.2-1.2V3.3c0-.8-.4-1.2-1.2-1.2H3.3c-.8 0-1.2.4-1.2 1.2v3.4Zm20.1 6.8h-3.6a3 3 0 0 1-3-3.2 721.7 721.7 0 0 1 .2-8.4A3 3 0 0 1 18.6 0a572.7 572.7 0 0 1 8.5.2 3 3 0 0 1 1.9 3 678.4 678.4 0 0 1-.2 8.3 3 3 0 0 1-3 2h-3.6Zm4.7-6.8v6.6c0-.8-.4-1.2-1.2-1.2h-6.9c-.8 0-1.2.4-1.2 1.2v-3.1c0 .8.4 1.2 1.2 1.2h6.9c.8 0 1.2-.4 1.2-1.2V6.7ZM6.8 15.5h3.5a3 3 0 0 1 3.2 3.1 672 672 0 0 1-.3 8.5 3 3 0 0 1-2.8 1.9 773 773 0 0 1-8.5-.2A3 3 0 0 1 0 25.9a572.5 572.5 0 0 1 .2-8.5 3 3 0 0 1 2.9-1.9h3.7Zm4.6 6.8V19c0-.9-.4-1.3-1.2-1.3h-7c-.7 0-1.1.4-1.1 1.3v6.8c0 .8.4 1.2 1.2 1.2h6.9c.8 0 1.2-.4 1.2-1.2v-3.4Zm17.6 0v3.6a3 3 0 0 1-3.1 3 773 773 0 0 1-8.4-.1 3 3 0 0 1-2-2.9 573.7 573.7 0 0 1 .3-8.5 3 3 0 0 1 2.8-1.9 672 672 0 0 1 8.5.3 3 3 0 0 1 1.9 2.8v3.7Zm-11.4 0v3.4c0 .8.4 1.2 1.2 1.2h6.9c.8 0 1.2-.4 1.2-1.2v-6.9c0-.8-.4-1.2-1.2-1.2h-6.9c-.8 0-1.2.4-1.2 1.2v3.5Z" />
    </g>
    <defs>
        <clipPath id="a">
            <path fill="#fff" d="M0 0h29v29H0z" />
        </clipPath>
    </defs>
</svg>
  