<svg xmlns="http://www.w3.org/2000/svg" fill="none" viewBox="0 0 27 34">
    <mask id="a" width="27" height="34" x="0" y="0" fill="#000" maskUnits="userSpaceOnUse">
        <path fill="#fff" d="M0 0h27v34H0z" />
        <path
            d="m23.6 30.7-.3 1.8-.3.4c-.2.2-.4 0-.6-.1L19 29.4c-.4-.4-1-.5-1.5-.5a2 2 0 0 0-1.3.7L13 32.7c-.2.2-.4.4-.6.3-.3-.1-.3-.3-.4-.6l-.2-1.7-1.8-.3h-.2c-.5-.2-.6-.6-.3-1 .6-.4 1-1 1.6-1.5l.3-.3H2.7c-.9 0-1.5-.4-1.7-1.2V2.6C1 1.6 1.7 1 2.7 1h17.8c1 0 1.7.7 1.7 1.6v15.6c0 .2 0 .4.3.5.5.3.8.8.8 1.4 0 .7.2 1.3.6 1.9.5.6.5 1.3 0 2a3 3 0 0 0-.6 1.8c0 .3 0 .5-.2.7l.1.4 2.5 2.5c.2.2.4.3.3.6-.1.3-.3.3-.6.4l-1.8.3ZM21 18h.1V2.6c0-.6-.2-.8-.8-.8H2.8c-.7 0-.8.2-.8.9v23c0 .7.1.9.8.9h9.4l-.2-1.1c0-.5-.1-1-.4-1.4-.6-.9-.6-1.7 0-2.5.3-.4.4-.8.4-1.3 0-.6.1-1.1.6-1.5l.9-.4c.4-.2.8-.4 1-.8l.4-.4c.4-.4 1-.7 1.6-.5a4 4 0 0 0 2.3 0c.7-.2 1.3 0 1.8.7l.5.6Zm-2 10.1.1.1c.2-.1.5-.2.6-.4a4 4 0 0 1 2-1.4c.4-.1.5-.4.6-.7 0-.8.1-1.6.6-2.2.4-.4.3-.9 0-1.3a3 3 0 0 1-.6-1.8c0-.6-.3-1-.9-1.2-.6-.2-1-.5-1.5-1 0-.2-.1-.2-.2-.3a.8.8 0 0 0-.8-.3l-1.5.2c-.3 0-.7 0-1-.2-.5 0-.7 0-1 .3a4 4 0 0 1-2 1.4c-.3.2-.5.4-.5.7 0 .8-.1 1.5-.6 2.1-.4.5-.4 1 0 1.5s.6 1.1.6 1.8v.3c0 .4.2.6.6.7.8.3 1.4.7 2 1.4.1.3.5.4.9.3.8-.2 1.6-.2 2.4 0h.3Zm-6 3.3 2.4-2.4-.6-.6c-.4-.5-.8-.8-1.4-1H13l-2 2v.2l1.3.2c.3 0 .5.2.5.5l.2 1.1Zm9.6 0 .2-1.1c0-.3.2-.5.5-.5l1.3-.3-2.1-2-.2-.1-1.2.6-1 1 2.5 2.4Z" />
    </mask>
    <path fill="current" stroke="transparent"
        d="m23.6 30.7-.3 1.8-.3.4c-.2.2-.4 0-.6-.1L19 29.4c-.4-.4-1-.5-1.5-.5a2 2 0 0 0-1.3.7L13 32.7c-.2.2-.4.4-.6.3-.3-.1-.3-.3-.4-.6l-.2-1.7-1.8-.3h-.2c-.5-.2-.6-.6-.3-1 .6-.4 1-1 1.6-1.5l.3-.3H2.7c-.9 0-1.5-.4-1.7-1.2V2.6C1 1.6 1.7 1 2.7 1h17.8c1 0 1.7.7 1.7 1.6v15.6c0 .2 0 .4.3.5.5.3.8.8.8 1.4 0 .7.2 1.3.6 1.9.5.6.5 1.3 0 2a3 3 0 0 0-.6 1.8c0 .3 0 .5-.2.7l.1.4 2.5 2.5c.2.2.4.3.3.6-.1.3-.3.3-.6.4l-1.8.3ZM21 18h.1V2.6c0-.6-.2-.8-.8-.8H2.8c-.7 0-.8.2-.8.9v23c0 .7.1.9.8.9h9.4l-.2-1.1c0-.5-.1-1-.4-1.4-.6-.9-.6-1.7 0-2.5.3-.4.4-.8.4-1.3 0-.6.1-1.1.6-1.5l.9-.4c.4-.2.8-.4 1-.8l.4-.4c.4-.4 1-.7 1.6-.5a4 4 0 0 0 2.3 0c.7-.2 1.3 0 1.8.7l.5.6Zm-2 10.1.1.1c.2-.1.5-.2.6-.4a4 4 0 0 1 2-1.4c.4-.1.5-.4.6-.7 0-.8.1-1.6.6-2.2.4-.4.3-.9 0-1.3a3 3 0 0 1-.6-1.8c0-.6-.3-1-.9-1.2-.6-.2-1-.5-1.5-1 0-.2-.1-.2-.2-.3a.8.8 0 0 0-.8-.3l-1.5.2c-.3 0-.7 0-1-.2-.5 0-.7 0-1 .3a4 4 0 0 1-2 1.4c-.3.2-.5.4-.5.7 0 .8-.1 1.5-.6 2.1-.4.5-.4 1 0 1.5s.6 1.1.6 1.8v.3c0 .4.2.6.6.7.8.3 1.4.7 2 1.4.1.3.5.4.9.3.8-.2 1.6-.2 2.4 0h.3Zm-6 3.3 2.4-2.4-.6-.6c-.4-.5-.8-.8-1.4-1H13l-2 2v.2l1.3.2c.3 0 .5.2.5.5l.2 1.1Zm9.6 0 .2-1.1c0-.3.2-.5.5-.5l1.3-.3-2.1-2-.2-.1-1.2.6-1 1 2.5 2.4Z" />
    <path stroke="current" stroke-width=".4"
        d="m23.6 30.7-.3 1.8-.3.4c-.2.2-.4 0-.6-.1L19 29.4c-.4-.4-1-.5-1.5-.5a2 2 0 0 0-1.3.7L13 32.7c-.2.2-.4.4-.6.3-.3-.1-.3-.3-.4-.6l-.2-1.7-1.8-.3h-.2c-.5-.2-.6-.6-.3-1 .6-.4 1-1 1.6-1.5l.3-.3H2.7c-.9 0-1.5-.4-1.7-1.2V2.6C1 1.6 1.7 1 2.7 1h17.8c1 0 1.7.7 1.7 1.6v15.6c0 .2 0 .4.3.5.5.3.8.8.8 1.4 0 .7.2 1.3.6 1.9.5.6.5 1.3 0 2a3 3 0 0 0-.6 1.8c0 .3 0 .5-.2.7l.1.4 2.5 2.5c.2.2.4.3.3.6-.1.3-.3.3-.6.4l-1.8.3ZM21 18h.1V2.6c0-.6-.2-.8-.8-.8H2.8c-.7 0-.8.2-.8.9v23c0 .7.1.9.8.9h9.4l-.2-1.1c0-.5-.1-1-.4-1.4-.6-.9-.6-1.7 0-2.5.3-.4.4-.8.4-1.3 0-.6.1-1.1.6-1.5l.9-.4c.4-.2.8-.4 1-.8l.4-.4c.4-.4 1-.7 1.6-.5a4 4 0 0 0 2.3 0c.7-.2 1.3 0 1.8.7l.5.6Zm-2 10.1.1.1c.2-.1.5-.2.6-.4a4 4 0 0 1 2-1.4c.4-.1.5-.4.6-.7 0-.8.1-1.6.6-2.2.4-.4.3-.9 0-1.3a3 3 0 0 1-.6-1.8c0-.6-.3-1-.9-1.2-.6-.2-1-.5-1.5-1 0-.2-.1-.2-.2-.3a.8.8 0 0 0-.8-.3l-1.5.2c-.3 0-.7 0-1-.2-.5 0-.7 0-1 .3a4 4 0 0 1-2 1.4c-.3.2-.5.4-.5.7 0 .8-.1 1.5-.6 2.1-.4.5-.4 1 0 1.5s.6 1.1.6 1.8v.3c0 .4.2.6.6.7.8.3 1.4.7 2 1.4.1.3.5.4.9.3.8-.2 1.6-.2 2.4 0h.3Zm-6 3.3 2.4-2.4-.6-.6c-.4-.5-.8-.8-1.4-1H13l-2 2v.2l1.3.2c.3 0 .5.2.5.5l.2 1.1Zm9.6 0 .2-1.1c0-.3.2-.5.5-.5l1.3-.3-2.1-2-.2-.1-1.2.6-1 1 2.5 2.4Z"
        mask="url(#a)" />
    <mask id="b" width="15" height="3" x="3.9" y="11" fill="#000" maskUnits="userSpaceOnUse">
        <path fill="#fff" d="M3.9 11h15v3h-15z" />
        <path d="M11.6 13H5.5c-.4 0-.6-.2-.6-.5 0-.2 0-.4.4-.5H18c.2.1.3.3.3.5 0 .3-.2.4-.4.4h-6.3Z" />
    </mask>
    <path fill="current" stroke="transparent"
        d="M11.6 13H5.5c-.4 0-.6-.2-.6-.5 0-.2 0-.4.4-.5H18c.2.1.3.3.3.5 0 .3-.2.4-.4.4h-6.3Z" />
    <path stroke="current" stroke-width=".4"
        d="M11.6 13H5.5c-.4 0-.6-.2-.6-.5 0-.2 0-.4.4-.5H18c.2.1.3.3.3.5 0 .3-.2.4-.4.4h-6.3Z"
        mask="url(#b)" />
    <mask id="c" width="15" height="3" x="3.9" y="3.7" fill="#000" maskUnits="userSpaceOnUse">
        <path fill="#fff" d="M3.9 3.7h15v3h-15z" />
        <path
            d="M11.6 4.7H18c.2 0 .4.1.4.4 0 .2 0 .4-.3.5h-.4a9619.4 9619.4 0 0 1-12.4 0c-.3-.1-.4-.3-.3-.5 0-.3.1-.4.4-.4h6.3Z" />
    </mask>
    <path fill="current" stroke="transparent"
        d="M11.6 4.7H18c.2 0 .4.1.4.4 0 .2 0 .4-.3.5h-.4a9619.4 9619.4 0 0 1-12.4 0c-.3-.1-.4-.3-.3-.5 0-.3.1-.4.4-.4h6.3Z" />
    <path stroke="current" stroke-width=".4"
        d="M11.6 4.7H18c.2 0 .4.1.4.4 0 .2 0 .4-.3.5h-.4a9619.4 9619.4 0 0 1-12.4 0c-.3-.1-.4-.3-.3-.5 0-.3.1-.4.4-.4h6.3Z"
        mask="url(#c)" />
    <mask id="d" width="15" height="3" x="3.9" y="7.3" fill="#000" maskUnits="userSpaceOnUse">
        <path fill="#fff" d="M3.9 7.3h15v3h-15z" />
        <path d="M11.6 8.3h6.3c.3.1.4.3.4.5s-.1.4-.3.4H5.6c-.5 0-.7 0-.7-.3s0-.5.4-.5h6.3Z" />
    </mask>
    <path fill="current" stroke="transparent"
        d="M11.6 8.3h6.3c.3.1.4.3.4.5s-.1.4-.3.4H5.6c-.5 0-.7 0-.7-.3s0-.5.4-.5h6.3Z" />
    <path stroke="current" stroke-width=".4"
        d="M11.6 8.3h6.3c.3.1.4.3.4.5s-.1.4-.3.4H5.6c-.5 0-.7 0-.7-.3s0-.5.4-.5h6.3Z" mask="url(#d)" />
    <mask id="e" width="6" height="3" x="3.9" y="22" fill="#000" maskUnits="userSpaceOnUse">
        <path fill="#fff" d="M3.9 22h6v3h-6z" />
        <path d="M7.2 23h1.7c.4 0 .6.2.6.5s-.2.5-.6.5H5.4c-.3 0-.5-.2-.5-.5s.2-.5.5-.5h1.8Z" />
    </mask>
    <path fill="current" stroke="transparent"
        d="M7.2 23h1.7c.4 0 .6.2.6.5s-.2.5-.6.5H5.4c-.3 0-.5-.2-.5-.5s.2-.5.5-.5h1.8Z" />
    <path stroke="current" stroke-width=".4"
        d="M7.2 23h1.7c.4 0 .6.2.6.5s-.2.5-.6.5H5.4c-.3 0-.5-.2-.5-.5s.2-.5.5-.5h1.8Z"
        mask="url(#e)" />
    <mask id="f" width="6" height="3" x="3.9" y="18.4" fill="#000" maskUnits="userSpaceOnUse">
        <path fill="#fff" d="M3.9 18.4h6v3h-6z" />
        <path d="M7.2 20.3H5.4c-.3 0-.5-.2-.5-.5s.2-.4.5-.4H9c.4 0 .6.1.6.4 0 .3-.2.5-.6.5H7.2Z" />
    </mask>
    <path fill="current" stroke="transparent"
        d="M7.2 20.3H5.4c-.3 0-.5-.2-.5-.5s.2-.4.5-.4H9c.4 0 .6.1.6.4 0 .3-.2.5-.6.5H7.2Z" />
    <path stroke="current" stroke-width=".4"
        d="M7.2 20.3H5.4c-.3 0-.5-.2-.5-.5s.2-.4.5-.4H9c.4 0 .6.1.6.4 0 .3-.2.5-.6.5H7.2Z"
        mask="url(#f)" />
    <mask id="g" width="10" height="9" x="12.8" y="18.1" fill="#000" maskUnits="userSpaceOnUse">
        <path fill="#fff" d="M12.8 18.1h10v9h-10z" />
        <path
            d="M17.7 26.8a4 4 0 0 1-4-3.4c0-.3.2-.5.5-.6.3 0 .5.2.5.5a3 3 0 0 0 4.5 2.2c1-.7 1.6-1.9 1.4-3a3 3 0 0 0-2.3-2.4 3 3 0 0 0-3.1 1.4l-.2.2c-.2.3-.4.4-.6.2-.3 0-.4-.3-.2-.6.5-1 1.3-1.8 2.5-2a4 4 0 0 1 4.8 2.9c.5 2.2-1 4.3-3.3 4.6h-.5Z" />
    </mask>
    <path fill="current" stroke="transparent"
        d="M17.7 26.8a4 4 0 0 1-4-3.4c0-.3.2-.5.5-.6.3 0 .5.2.5.5a3 3 0 0 0 4.5 2.2c1-.7 1.6-1.9 1.4-3a3 3 0 0 0-2.3-2.4 3 3 0 0 0-3.1 1.4l-.2.2c-.2.3-.4.4-.6.2-.3 0-.4-.3-.2-.6.5-1 1.3-1.8 2.5-2a4 4 0 0 1 4.8 2.9c.5 2.2-1 4.3-3.3 4.6h-.5Z" />
    <path stroke="current" stroke-width=".4"
        d="M17.7 26.8a4 4 0 0 1-4-3.4c0-.3.2-.5.5-.6.3 0 .5.2.5.5a3 3 0 0 0 4.5 2.2c1-.7 1.6-1.9 1.4-3a3 3 0 0 0-2.3-2.4 3 3 0 0 0-3.1 1.4l-.2.2c-.2.3-.4.4-.6.2-.3 0-.4-.3-.2-.6.5-1 1.3-1.8 2.5-2a4 4 0 0 1 4.8 2.9c.5 2.2-1 4.3-3.3 4.6h-.5Z"
        mask="url(#g)" />
</svg>
  