<svg xmlns="http://www.w3.org/2000/svg" fill="none" viewBox="0 0 29 29">
    <g fill="current" stroke="transparent" clip-path="url(#a)">
        <path
            d="M14.5 29H2.2c-1.2 0-2-.8-2.1-1.6v-.6L0 2.2C0 1 1 0 2.2 0h24.6C28 0 29 1 29 2.2v24.6c0 1.2-1 2.2-2.2 2.2H14.5ZM1.2 5.6V27c0 .4.3.8.8.8h25c.4 0 .8-.3.8-.8V2c0-.3-.4-.7-.7-.7H2c-.4 0-.8.3-.8.7v2.5h24.1c.3 0 .4.3.5.5 0 .3-.1.5-.4.6H1.2Z" />
        <path
            d="m12.5 11.5 1.9.8h.4a13 13 0 0 1 3.8-1.2 6 6 0 0 1 2.3 0c1.4.3 2 1.4 1.6 2.9a6.5 6.5 0 0 1-1.6 2.6l1.4 2.1c.3.6.4 1.3.3 2 0 .8-.8 1.4-1.8 1.6-1.2.2-2.3 0-3.4-.2l-2.6-1h-.5l-1.8.8c.3.9.6 1.7 1.2 2.4.5.5 1 .5 1.6 0l.7-1c.2-.4.5-.6.8-.4.4.2.4.5.2.9l-1 1.4c-.9.9-2.1.9-3 0a6.3 6.3 0 0 1-1.5-2.6l-.1-.4-1.7.2-1.7-.1c-1.4-.4-2-1.5-1.5-2.8.2-1 .7-1.6 1.3-2.3l.4-.5-.6-.7c-.6-.7-1-1.4-1.2-2.3-.2-1.2.3-2.2 1.5-2.5 1-.3 2-.3 3 0h.4l.3-.6A6 6 0 0 1 13 8.2c.9-.8 2.1-.9 3 0l.9 1.2c.2.3 0 .6-.2.8-.3.2-.6 0-.8-.3l-.7-.8c-.5-.5-1-.5-1.4 0-.7.6-1 1.5-1.3 2.4Zm-.7 5.2V18l.3.4a64.2 64.2 0 0 0 2.6 1.3 71 71 0 0 0 2.5-1.7 63.5 63.5 0 0 0-.3-3 64.5 64.5 0 0 0-2.6-1.3 72.8 72.8 0 0 0-2.5 1.7v1.3Zm8.2.8-1.6 1.3-.1.2a60.1 60.1 0 0 0-.2 2c.9.3 1.8.4 2.7.1.6-.1.8-.6.7-1.2-.3-1-.9-1.7-1.5-2.4Zm0-1.6a6 6 0 0 0 1.5-2.3c.1-.7 0-1.2-.8-1.3-1-.3-1.8-.1-2.7 0 0 .8.2 1.5.3 2.1l.1.2L20 16Zm-9-3.5-.3-.1c-.8-.1-1.6-.3-2.4 0-.7.2-1 .6-.8 1.3.3.9.9 1.6 1.5 2.3l1.2-1c.4-.2.6-.5.6-1l.2-1.5Zm0 8.6c0-.7-.2-1.3-.3-2v-.2L9 17.5a6 6 0 0 0-1.4 2.3c-.2.7 0 1.2.7 1.4 1 .2 1.8 0 2.7-.1Zm-.4-5-.8.7.8.6v-1.2Zm7.8 1.4.8-.7-.8-.6v1.3ZM12 13.7l1.1-.7-1-.3v1Zm0 6 .2 1 1-.3-1.2-.7Zm5 0-1.1.7 1 .3v-1ZM15.9 13l1.1.7-.2-1-1 .3ZM8.4 2.8c0 .3-.3.6-.6.6a.6.6 0 0 1-.6-.6c0-.3.3-.6.6-.6s.6.3.6.6Zm-4.9.6a.6.6 0 0 1-.5-.6c0-.3.2-.6.5-.6s.6.3.6.6-.2.6-.6.6Zm2.7-.6c0 .3-.2.6-.6.6a.6.6 0 0 1-.5-.6c0-.3.2-.6.6-.6.3 0 .5.3.5.6Z" />
    </g>
    <defs>
        <clipPath id="a">
            <path fill="#fff" d="M0 0h29v29H0z" />
        </clipPath>
    </defs>
</svg>
  