<svg xmlns="http://www.w3.org/2000/svg" fill="none" viewBox="0 0 22 29">
    <g fill="current" stroke="transparent" clip-path="url(#clip0_14062_29283)">
        <path
            d="M5.4 6.5C5.2 2.2 8.4 0 11 0c2.6 0 5.8 2.3 5.6 6.5h1.8c1.6 0 2.8 1.2 2.9 2.8l.7 16.3c.1 2.1-1.3 3.4-3.2 3.4H3c-2 0-3.2-1.2-3-3.3.1-5 .3-9.9.6-14.8l.1-2.1c.1-.6.4-1.2 1-1.6.4-.4 1-.7 1.6-.7h2ZM11 27h7.3c1.8 0 1.9 0 1.8-2l-.7-15.4c0-.9-.3-1.2-1.2-1.2H3.8c-.9 0-1.2.4-1.2 1.3L2.4 14l-.5 11.8c0 1 .2 1.3 1.3 1.3H11Zm3.7-20.5c0-1.8-.5-3.2-2-4a3.4 3.4 0 0 0-4 .3 4.3 4.3 0 0 0-1.4 3.7h7.4Z" />
        <path
            d="M11 16.3c-1.2 0-2.4-.5-3.4-1.2-1-.8-1.7-1.9-2-3.1-.2-.8 0-1.3.6-1.5.6-.2 1 .2 1.2 1 .5 1.7 2 2.9 3.6 2.9 1.7 0 3-1.2 3.6-3 .2-.7.7-1 1.2-.9.6.2.8.7.6 1.5a5.7 5.7 0 0 1-5.4 4.3Z" />
    </g>
</svg>
  