<svg xmlns="http://www.w3.org/2000/svg" fill="none" viewBox="0 0 29 29">
    <g fill="current" stroke="transparent" clip-path="url(#a)">
        <path
            d="M26.7 25.5h1.5c.6 0 .8.2.8.8v2c0 .5-.2.7-.8.7H.7c-.5 0-.7-.2-.7-.7v-2.1c0-.5.2-.7.7-.7H2c.2 0 .2 0 .2-.2V6.2c0-.3-.1-.4-.3-.4H.7c-.3 0-.5 0-.6-.4-.2-.2 0-.4.1-.6L4.8.2c.1-.2.3-.2.6-.2h18.2c.3 0 .5 0 .7.3l4.4 4.4c.3.3.4.6.2.9l-.5.2H27c-.3 0-.3 0-.3.3v19.4Zm-23.2 0h7.9c.2 0 .2 0 .2-.2v-3.7c0-.4 0-.8.2-1.2a3 3 0 0 1 3.2-1.8c1.4.2 2.4 1.4 2.4 2.8v3.9c0 .2 0 .2.2.2h7.9V6.2c0-.3-.1-.4-.3-.4H3.8c-.2 0-.3.1-.3.3v19.4ZM27 4.6l-.2-.1-3.1-3.2-.4-.1a7308.8 7308.8 0 0 0-18 .1L2.2 4.4l-.2.2h25Zm-12.5 22H1.3l-.1.3v.6c0 .2 0 .3.3.3h26c.3 0 .4 0 .3-.2V27c0-.2 0-.3-.3-.3h-13Zm-1.7-3.2v2l.2.1a224.6 224.6 0 0 1 3.2-.2v-3.8a1.7 1.7 0 0 0-2.3-1.7c-.7.3-1.1.9-1.1 1.6v2Z" />
        <path
            d="M7 8.1V7h1v1H7Zm15 12.8V22h-1v-1h1Zm0-12.8h-1V7h1v1ZM8.1 22H7v-1h1l.1.1v1Zm2.3-15v1l-.1.1h-.9L9.3 8V7h1.1Zm9.3 15h-1.1v-1h1l.1.1v1ZM9.3 22v-1l.1-.1h.9l.1.1v1H9.3Zm9.3-15h1.1v1l-.2.1h-.8l-.1-.1V7ZM7 10.4V9.3h1l.1.1v.9l-.1.1H7Zm15 8.2v1.1h-1l-.1-.1v-.9l.1-.1h1Zm0-9.3v1.1h-1l-.1-.1v-.9l.1-.1h1ZM7 18.6h1l.1.1v.9l-.1.1H7v-1.1Zm11.6.5c0-.3.1-.5.5-.5s.6.2.6.5c0 .4-.2.6-.6.6-.3 0-.5-.2-.5-.6Zm-8.2-8.7h-1l-.1-.1v-.9l.1-.1h.9l.1.1v1Zm8.2 0v-1l.1-.1h.9l.1.1v.9l-.1.1h-1Zm-8.2 8.2v1.1h-1l-.1-.1v-.9l.1-.1h1ZM4.6 7h1.2v1H4.6V7Zm19.8 15h-1.2v-1h1l.1.1v1ZM7 24.4v-1.2h1l.1.2v.8l-.1.1H7ZM23.2 7h1.2v1l-.2.1h-.9V8l-.1-1ZM5.8 10.4H4.6v-1l.2-.1h.8l.2.1v1Zm3.5 12.8h1.1v1l-.1.2a9 9 0 0 1-.9 0l-.1-.2v-1Zm5.2-13.9c.4 0 .6.2.6.5 0 .4-.2.6-.6.6-.4 0-.6-.1-.6-.5s.2-.6.6-.6Zm4.1 13.9h1.1v1l-.1.2a9 9 0 0 1-.9 0l-.1-.2v-1Zm4.6-12.8v-1l.1-.1h.9l.1.1v1h-1.1ZM22 23.2v1.2h-1l-.1-.2v-.8l.1-.2h1ZM7 15v-1h1v1H7Zm3.4 0H9.3v-1h1.1v1ZM14 7h1v1h-1V7Zm4.6 8v-1h1.1v1h-1.1Zm3.4-1v1h-1v-1h1ZM5.8 18.6v1.1h-1l-.2-.1v-.9l.2-.1h1Zm17.4 0h1l.1.1v1h-1v-.1l-.1-1ZM4.6 22v-1l.2-.1h.8l.2.1v1H4.6Zm7-15h1.2v1l-.2.1h-1V7Zm4.6 0h1.2v1l-.2.1h-.8l-.2-.1V7Zm-4.6 3.4v-1l.2-.1h.8l.2.1v.9l-.2.1h-1Zm5.2-1.1c.4 0 .6.2.6.5 0 .4-.2.6-.6.6-.4 0-.6-.1-.6-.5s.2-.6.6-.6Zm1.8 8.1v-1l.1-.2h.9l.1.2v1h-1.1Zm3.4-1.2v1.2h-1l-.1-.2v-.8l.1-.2h1Zm0-3.4h-1l-.1-.2v-1H22v1.2Zm-3.4-1.2h1l.1.2v.8c0 .1 0 .2-.2.2h-.8l-.1-.1v-1Zm-9.3 0h1.1v1l-.1.2h-.9l-.1-.2v-1ZM7 17.4v-1.2h1l.1.2v.9H7Zm3.4 0h-1l-.1-.2v-.8l.1-.2h.9l.1.2v1ZM7 12.8v-1.2h1l.1.2v.8l-.1.2H7Zm-1.2-1.2v1c0 .1 0 .2-.2.2h-.8l-.1-.2v-1h1Zm17.4 5.8v-1l.2-.2h.8l.1.2v.9h-1.1ZM17.4 14v1h-1.2v-1h1.2Zm-5.8.5c0-.4.2-.6.6-.6.4 0 .6.2.6.6 0 .4-.2.6-.6.6-.4 0-.6-.2-.6-.6Zm-5.8.5H4.6v-1h1.2v1Zm17.4-3.4h1l.1.1v.9l-.1.2h-.8c-.2 0-.2 0-.2-.2v-1Zm0 2.4h1.1v1h-1v-1Zm-5.8-2.4v1c0 .1 0 .2-.2.2h-.8l-.2-.2v-.9h1.2ZM5.8 17.4h-1l-.2-.2v-.8l.2-.2h.9v1.2Zm8.2-5.8h1v1.2a8 8 0 0 1-1 0v-1.2Zm-2.4 0h1l.2.2v.8l-.2.2h-.8l-.2-.2v-1Zm3.4 2.9c0 .4-.1.6-.5.6s-.6-.2-.6-.6c0-.4.2-.6.6-.6.4 0 .6.2.6.6Zm-9.2 8.7v1l-.2.2h-.8l-.1-.2v-1h1Zm5.8-5.8v-1l.2-.2h.8l.2.2v.8c0 .2 0 .2-.2.2h-1Zm2.4 0v-1.2h1v1.2h-1Zm3.4 0h-1l-.2-.2v-.8l.2-.2h.8l.2.2v1Zm5.8 5.8h1l.1.2v.8l-.1.2a8 8 0 0 1-.8 0l-.2-.2v-1Z" />
    </g>
    <defs>
        <clipPath id="a">
            <path fill="#fff" d="M0 0h29v29H0z" />
        </clipPath>
    </defs>
</svg>
  