<svg xmlns="http://www.w3.org/2000/svg" fill="none" viewBox="0 0 31 29">
    <path fill="current" stroke="transparent"
        d="M22.7 7.3c0 2-.8 3.8-2.3 5.1a7.7 7.7 0 0 1-10.7 0 7.1 7.1 0 0 1-2.1-5.2c0-4 3.4-7.2 7.6-7.2 4.1 0 7.5 3.3 7.5 7.3Zm-2.2 0c0-1-.3-2-.9-3a5.4 5.4 0 0 0-2.4-1.8 5.6 5.6 0 0 0-5.9 1 6 6 0 0 0-1.5 2.7 5 5 0 0 0 .4 3c.4 1 1 1.8 2 2.4a5.6 5.6 0 0 0 6.7-.7 5 5 0 0 0 1.6-3.6ZM15 29H3.7C1.4 29 0 27.6 0 25.5c0-4.8 4.3-8.9 9.3-9H21c4.5.1 8.5 3.5 9.1 7.8a5 5 0 0 1 0 2.1 3.2 3.2 0 0 1-3.3 2.6H15Zm.1-2h11.3c1.3 0 1.7-.5 1.7-1.7a7.2 7.2 0 0 0-7-6.6h-12a7 7 0 0 0-7 6.6c0 1.1.4 1.6 1.6 1.6H15Z" />
</svg>
  