<svg xmlns="http://www.w3.org/2000/svg" fill="none" viewBox="0 0 110 110"><g clip-path="url(#a)"><path fill="url(#b)" d="m57.1 53.7.7.8 2.9 3.5c.9 1 2 1 2.7-.3l4.7-8.5c.3-.7.6-.8 1.2-.4A26 26 0 0 1 82 66c.4 1.8-.4 2.8-2.2 2.8H34.4c-1.8 0-2.6-1-2.2-2.8a26 26 0 0 1 12.9-17.4c.5-.3.7-.1 1 .3l4.6 8.5c.8 1.5 1.9 1.6 3 .4l2.7-3.4.7-.8Z"/><path fill="#0C50A3" d="m20.4 30.4-.3-4.5c0-.5.2-.9.7-1.1 0 0 2.5-1.1 4.4-2.2.2-.2.9-.6.8-.8l-.4-.3-.5-.3-4.7-1.2c-.7-.2-1-.5-1-1.2a139.2 139.2 0 0 0-.9-5.2l-.3-.6c-.2 0-.4.2-.6.5l-.2.1-2.7 4.2c-.3.6-.7.8-1.3.7 0 0-3-.7-5-.8l-1 .1c-.1.3.1.6.3 1 2.2 2.8 3.1 3.7 3.1 3.7.5.6.6 1 .2 1.7 0 0-1.3 2.2-2.3 4.5 0 .3-.3.7 0 .9 0 .2.5 0 .8 0 1.7-.5 4.8-1.9 4.8-1.9.6-.2 1-.2 1.4.3l3.5 3.5c.3.3.7.7 1 .5l.2-1v-.6ZM8.2 54l2.8-3.4c.3-.5.7-.6 1.2-.4l4.8 1.3c.2 0 1 .2 1.1 0l-.1-.6-.2-.5c-.9-1.4-1.7-2.7-2.7-4-.4-.6-.4-1 0-1.7a137 137 0 0 0 2.9-4.3c.1-.4.2-.6.1-.7 0-.2-.3-.2-.7-.1H17l-4.8 1.3c-.6.2-1 .1-1.4-.4 0 0-1.8-2.5-3.1-4-.3-.3-.7-.6-.9-.5-.2 0-.3.5-.3.9l-.3 4.8c0 .8-.2 1.2-1 1.5 0 0-2.4.7-4.7 1.7-.2.1-.6.3-.6.6s.4.5.6.6c1.7.8 4.9 1.9 4.9 1.9.6.2.8.5.8 1.1a42.4 42.4 0 0 0 .6 6c.2 0 .5-.2.9-.6l.4-.4V54Z"/><path fill="#5297EB" d="m89.7 30.4.2-4.5c0-.5-.1-.9-.6-1.1 0 0-2.5-1.1-4.5-2.2-.2-.2-.8-.6-.8-.8l.5-.3.5-.3 4.6-1.2c.7-.2 1-.5 1.1-1.2a139.2 139.2 0 0 1 .9-5.2c0-.4.2-.6.3-.6l.6.5.2.1 2.7 4.2c.3.6.6.8 1.3.7 0 0 3-.7 5-.8l1 .1c.1.3-.2.6-.4 1a68 68 0 0 1-3 3.7c-.5.6-.6 1-.3 1.7a55.4 55.4 0 0 0 2.5 5.4c-.2.2-.6 0-.9 0-1.8-.5-4.9-1.9-4.9-1.9-.5-.2-1-.2-1.3.3l-3.5 3.5c-.4.3-.8.7-1 .5-.2 0-.2-.4-.2-1v-.6ZM101.9 54 99 50.6c-.3-.5-.7-.6-1.3-.4 0 0-2.5.8-4.7 1.3-.3 0-1 .2-1.1 0l.1-.6.2-.5 2.6-4c.4-.6.4-1 0-1.7a136.6 136.6 0 0 1-2.8-4.3l-.2-.7c.1-.2.4-.2.8-.1h.2l4.8 1.3c.6.2 1 .1 1.4-.4 0 0 1.8-2.5 3.2-4 .3-.3.6-.6.9-.5.2 0 .2.5.3.9l.2 4.8c0 .8.3 1.2 1 1.5a56.4 56.4 0 0 0 5.4 2.3c0 .3-.4.5-.7.6-1.6.8-4.8 1.9-4.8 1.9-.6.2-.8.5-.9 1.1 0 0 0 3-.2 5 0 .4-.1 1-.4 1-.2 0-.4-.2-.8-.6l-.5-.4V54ZM71.1 90.5l1.6-4.1c.2-.6.1-1-.3-1.3L69 81.6c-.1-.2-.7-.8-.5-1l.5-.2h.6c1.6 0 3.2.1 4.7.3.8 0 1.2-.2 1.5-.9a137.5 137.5 0 0 1 2.4-4.6c.2-.3.3-.5.5-.5.1 0 .3.3.4.7l.1.2 1.3 4.8c.1.6.4 1 1 1l5 .8c.4.1.9.3 1 .5a70.1 70.1 0 0 1-4.7 3.3c-.7.5-1 .9-.8 1.6a57.3 57.3 0 0 0 .6 5.9c-.2.1-.6-.1-.8-.3-1.5-1-4-3.3-4-3.3-.5-.4-.9-.4-1.4-.1 0 0-2.5 1.4-4.4 2.2-.5.2-1 .4-1.1.2-.2-.2 0-.5 0-1l.3-.7Z"/><path fill="url(#c)" d="M63.5 92.8c-1-1-2.2-2-3.4-2.8-.4-.4-.5-.7-.3-1.3l1.3-4.8c0-.2.2-1 0-1.1l-.6.1-.5.2-4 2.6c-.6.5-1 .4-1.6 0A148.3 148.3 0 0 0 50 83c-.3-.2-.6-.3-.7-.2v1l1.2 4.9c.2.6.1 1-.4 1.4 0 0-2.5 1.8-4 3.1-.2.3-.6.7-.5 1 .1.2.6.2 1 .2l4.8.3c.7 0 1.1.2 1.4 1A57.1 57.1 0 0 0 55 101c.2 0 .4-.4.5-.6.9-1.7 2-5 2-5 .1-.5.4-.7 1-.7 0 0 3 0 5-.3.4 0 1-.1 1-.4 0-.1-.1-.4-.6-.8l-.4-.4Z"/><path fill="#0C50A3" d="m8 73.4 5.2-.8c.8-.2 1.2 0 1.5.6l2.7 4.2.7.6.5-.8.8-5c0-.7.3-1 1-1.2l5-1.3c.2 0 .4-.3.6-.5l-.5-.6-4.7-2.4c-.5-.2-.7-.6-.7-1.2.2-1.7.2-3.5.3-5.2 0-.3-.2-.6-.3-.8a1 1 0 0 0-.7.3L15.7 63c-.4.5-.8.5-1.4.3l-4.6-1.8h-1l.1 1 2.3 4.4c.3.6.2 1-.2 1.4a149.6 149.6 0 0 0-3.5 4.5v.4c0 .2.4.2.5.2Zm30.2 7.1c-.8 0-1.6 0-2.5.2-.6 0-1-.2-1.2-.7L32 75.3c0-.2-.4-.4-.6-.6l-.5.8c-.5 1.6-1 3.3-1.3 4.9-.2.7-.5 1-1.2 1a92 92 0 0 0-4.7.8c-.3 0-.7.3-1 .5l.7.8c1.3 1 2.7 1.8 4 2.7.7.3.8.7.7 1.3l-.8 5 .1 1 1-.4 3.8-3.1c.5-.5 1-.5 1.6-.2l4.5 2.3c.2.2.6 0 .9.1v-.8l-2-4.9c-.2-.6 0-1 .4-1.4a134 134 0 0 0 3.6-3.6l.4-.8c-.3-.1-.6-.3-1-.3l-2.5.1Z"/><path fill="#5297EB" d="M89.8 60.7c0 1.5 0 3 .2 4.4 0 .5-.2.9-.7 1.1l-4.6 2.4-.6.6.8.5c1.6.5 3.2 1 4.8 1.3.7.2 1 .5 1 1.1l.8 5.2.4.7.8-.5 2.7-4.2c.3-.7.8-.9 1.5-.7l4.9.8 1-.2c-.2-.3-.2-.7-.4-.9l-3.3-4c-.3-.4-.4-.8-.1-1.3l2.3-4.5.2-1h-1.1l-4.6 1.8c-.6.2-1 .2-1.4-.3L91 59.5c-.2-.3-.6-.4-1-.5l-.2 1v.7Z"/><path fill="url(#d)" d="m73.4 17.6-3.7 1-11.9 3.2h-1.4L39 17.1c-1-.3-1.5-.8-1.5-1.7 0-.8.5-1.3 1.5-1.6L56.4 9a3 3 0 0 1 1.5 0l17.4 4.7c1.2.4 1.5 1 1.3 2.2v9.5c0 .6 0 1 .6 1 .6.2.7.6.7 1.2V34l-2.2-1.4c-.5-.3-.9-.3-1.4 0-.6.5-1.3.8-2.1 1.3v-.8l-.1-5.6c0-.5.1-.9.6-1 .6-.2.8-.5.7-1.1v-7.9Z"/><path fill="url(#e)" d="m44.3 31 3.6.7c2.3.4 4.6.9 7 1.2 3.1.5 6.3-.2 9.4-.8L70 31c-.3 4.2-2 7.5-5.2 10a12.8 12.8 0 0 1-20.5-10Z"/><path fill="url(#f)" d="m44.1 21.8 4.5 1.1 7 2c1.7.5 3.3-.1 4.9-.5l9-2.5h.5l.1.5V27c0 .4 0 .7-.4.8l-10.6 2c-2.5.3-5-.2-7.4-.7l-7-1.3c-.2 0-.6-.3-.6-.5v-5.6Z"/><path fill="#0C4FA3" d="M48.5 47h.8l5.6 4.5-2.4 2.9-4-7.3Z"/><path fill="#5095E9" d="m61.7 54.4-2.3-2.9.5-.5 4.7-3.7c.3-.3.6-.6 1 0l-3.9 7Z"/><path fill="url(#g)" d="M53 46c2.8-.5 5.4-.5 8.2 0l-1 .7-2.6 2.2c-.2.1-.7.2-.8 0L53 46Z"/></g><defs><radialGradient id="b" cx="0" cy="0" r="1" gradientTransform="matrix(0 10.2076 -25.025 0 57.1 58.7)" gradientUnits="userSpaceOnUse"><stop stop-color="#004497"/><stop offset="1" stop-color="#60A5FA"/></radialGradient><radialGradient id="c" cx="0" cy="0" r="1" gradientTransform="matrix(0 -9.15441 9.5193 0 55.1 91.8)" gradientUnits="userSpaceOnUse"><stop stop-color="#004497"/><stop offset="1" stop-color="#60A5FA"/></radialGradient><radialGradient id="d" cx="0" cy="0" r="1" gradientTransform="matrix(0 12.5337 -20.1956 0 57.7 21.5)" gradientUnits="userSpaceOnUse"><stop stop-color="#004497"/><stop offset="1" stop-color="#60A5FA"/></radialGradient><radialGradient id="e" cx="0" cy="0" r="1" gradientTransform="matrix(0 6.30909 -12.832 0 57.2 37.3)" gradientUnits="userSpaceOnUse"><stop stop-color="#004497"/><stop offset="1" stop-color="#60A5FA"/></radialGradient><radialGradient id="f" cx="0" cy="0" r="1" gradientTransform="matrix(0 4.11 -13.0154 0 57.1 25.9)" gradientUnits="userSpaceOnUse"><stop stop-color="#004497"/><stop offset="1" stop-color="#60A5FA"/></radialGradient><radialGradient id="g" cx="0" cy="0" r="1" gradientTransform="matrix(0 1.70648 -4.12474 0 57.1 47.3)" gradientUnits="userSpaceOnUse"><stop stop-color="#004497"/><stop offset="1" stop-color="#60A5FA"/></radialGradient><clipPath id="a"><path fill="#fff" d="M0 0h110v110H0z"/></clipPath></defs></svg>