<svg viewBox="0 0 27 27" fill="none" xmlns="http://www.w3.org/2000/svg">
    <path d="M13.5827 26.6331C20.9372 26.6331 26.8993 20.6711 26.8993 13.3166C26.8993 5.96203 20.9372 0 13.5827 0C6.22815 0 0.266113 5.96203 0.266113 13.3166C0.266113 20.6711 6.22815 26.6331 13.5827 26.6331Z" fill="url(#paint0_linear_14106_4560)"/>
    <path d="M15.0578 21.7991V14.3781H17.5333L18.0027 11.3102H15.0578V9.3152C15.0578 8.47697 15.4713 7.65551 16.7901 7.65551H18.1313V5.04026C18.1313 5.04026 16.913 4.8335 15.7563 4.8335C13.331 4.8335 11.744 6.30318 11.744 8.96314V11.3046H9.04492V14.3725H11.744V21.7935H15.0634L15.0578 21.7991Z" fill="white"/>
    <defs>
        <linearGradient id="paint0_linear_14106_4560" x1="4.16664" y1="3.90053" x2="22.9987" y2="22.7326" gradientUnits="userSpaceOnUse">
            <stop stop-color="#1677F1"/>
            <stop offset="0.18" stop-color="#176EE9"/>
            <stop offset="0.46" stop-color="#1D55D3"/>
            <stop offset="0.82" stop-color="#252EB0"/>
            <stop offset="1" stop-color="#2B189C"/>
        </linearGradient>
    </defs>
</svg>
