<svg viewBox="0 0 28 27" fill="none" xmlns="http://www.w3.org/2000/svg">
    <path d="M14.216 26.6331C21.5705 26.6331 27.5326 20.6711 27.5326 13.3166C27.5326 5.96203 21.5705 0 14.216 0C6.86145 0 0.899414 5.96203 0.899414 13.3166C0.899414 20.6711 6.86145 26.6331 14.216 26.6331Z" fill="url(#paint0_linear_14106_4554)"/>
    <path d="M17.8874 8.86279C17.4404 8.86279 17.0771 9.22602 17.0771 9.67308C17.0771 10.1201 17.4404 10.4834 17.8874 10.4834C18.3345 10.4834 18.6977 10.1201 18.6977 9.67308C18.6977 9.22602 18.3345 8.86279 17.8874 8.86279Z" fill="white"/>
    <path d="M14.2718 9.90186C12.3886 9.90186 10.8574 11.433 10.8574 13.3162C10.8574 15.1994 12.3886 16.7306 14.2718 16.7306C16.155 16.7306 17.6861 15.1994 17.6861 13.3162C17.6861 11.433 16.155 9.90186 14.2718 9.90186ZM14.2718 15.5012C13.0647 15.5012 12.0868 14.5177 12.0868 13.3162C12.0868 12.1148 13.0703 11.1312 14.2718 11.1312C15.4732 11.1312 16.4568 12.1148 16.4568 13.3162C16.4568 14.5177 15.4732 15.5012 14.2718 15.5012Z" fill="white"/>
    <path d="M16.9821 20.2458H11.4498C9.15306 20.2458 7.28662 18.3794 7.28662 16.0827V10.5504C7.28662 8.25365 9.15306 6.38721 11.4498 6.38721H16.9821C19.2788 6.38721 21.1452 8.25365 21.1452 10.5504V16.0827C21.1452 18.3794 19.2788 20.2458 16.9821 20.2458ZM11.4498 7.68925C9.87393 7.68925 8.58866 8.97452 8.58866 10.5504V16.0827C8.58866 17.6585 9.87393 18.9438 11.4498 18.9438H16.9821C18.5579 18.9438 19.8432 17.6585 19.8432 16.0827V10.5504C19.8432 8.97452 18.5579 7.68925 16.9821 7.68925H11.4498Z" fill="white"/>
    <defs>
        <linearGradient id="paint0_linear_14106_4554" x1="4.79995" y1="3.90053" x2="23.632" y2="22.7326" gradientUnits="userSpaceOnUse">
            <stop stop-color="#FFE185"/>
            <stop offset="0.21" stop-color="#FFBB36"/>
            <stop offset="0.38" stop-color="#FF5176"/>
            <stop offset="0.52" stop-color="#F63395"/>
            <stop offset="0.74" stop-color="#A436D2"/>
            <stop offset="1" stop-color="#5F4EED"/>
        </linearGradient>
    </defs>
</svg>
