<svg viewBox="0 0 28 27" fill="none" xmlns="http://www.w3.org/2000/svg">
    <path d="M13.9499 26.6331C21.3044 26.6331 27.2664 20.6711 27.2664 13.3166C27.2664 5.96203 21.3044 0 13.9499 0C6.59533 0 0.633301 5.96203 0.633301 13.3166C0.633301 20.6711 6.59533 26.6331 13.9499 26.6331Z" fill="url(#paint0_linear_14106_4546)"/>
    <path d="M8.61312 10.1986H10.9043V17.5526H8.61312V10.1986ZM9.75869 6.54395C10.4907 6.54395 11.0831 7.13629 11.0831 7.86834C11.0831 8.60038 10.4907 9.19272 9.75869 9.19272C9.02664 9.19272 8.42871 8.60038 8.42871 7.86834C8.42871 7.13629 9.02106 6.54395 9.75869 6.54395Z" fill="white"/>
    <path d="M12.3405 10.1986H14.5311V11.2044H14.559C14.8664 10.6233 15.6096 10.0142 16.7217 10.0142C19.0352 10.0142 19.4654 11.5341 19.4654 13.5179V17.5526H17.1799V13.9762C17.1799 13.1212 17.1631 12.0259 15.9896 12.0259C14.8161 12.0259 14.6205 12.9535 14.6205 13.9147V17.5526H12.335V10.1986H12.3405Z" fill="white"/>
    <defs>
        <linearGradient id="paint0_linear_14106_4546" x1="4.53383" y1="3.90053" x2="23.3659" y2="22.7326" gradientUnits="userSpaceOnUse">
            <stop stop-color="#007BB8"/>
            <stop offset="1" stop-color="#0044E9"/>
        </linearGradient>
    </defs>
</svg>
