<svg viewBox="0 0 27 27" fill="none" xmlns="http://www.w3.org/2000/svg">
    <path d="M13.4826 26.6331C20.8371 26.6331 26.7992 20.6711 26.7992 13.3166C26.7992 5.96203 20.8371 0 13.4826 0C6.12804 0 0.166016 5.96203 0.166016 13.3166C0.166016 20.6711 6.12804 26.6331 13.4826 26.6331Z" fill="url(#paint0_linear_14106_4566)"/>
    <path d="M5.84914 13.0034C5.84914 13.0034 12.5102 10.2708 14.8237 9.30403C15.7066 8.91844 18.7131 7.68905 18.7131 7.68905C18.7131 7.68905 20.0989 7.15259 19.9816 8.46022C19.9425 8.99668 19.6351 10.8855 19.3278 12.9252C18.864 15.8142 18.3666 18.9715 18.3666 18.9715C18.3666 18.9715 18.2884 19.8601 17.6346 20.0109C16.9807 20.1674 15.9022 19.4745 15.7067 19.318C15.5502 19.2007 12.8176 17.4683 11.8173 16.6245C11.5491 16.3954 11.2417 15.9316 11.8564 15.3895C13.2423 14.121 14.8964 12.5396 15.9022 11.5393C16.3661 11.0755 16.8243 9.99696 14.902 11.3102C12.1694 13.199 9.47027 14.9704 9.47027 14.9704C9.47027 14.9704 8.85557 15.356 7.69882 15.0095C6.54207 14.6631 5.19534 14.1993 5.19534 14.1993C5.19534 14.1993 4.27328 13.6237 5.84914 13.0034Z" fill="white"/>
    <defs>
        <linearGradient id="paint0_linear_14106_4566" x1="4.06655" y1="3.90053" x2="22.8986" y2="22.7326" gradientUnits="userSpaceOnUse">
            <stop stop-color="#2CB5E5"/>
            <stop offset="0.65" stop-color="#6C6EF5"/>
            <stop offset="1" stop-color="#9146FF"/>
        </linearGradient>
    </defs>
</svg>
