<svg viewBox="0 0 28 27" fill="none" xmlns="http://www.w3.org/2000/svg">
    <path d="M13.8493 26.6331C21.2038 26.6331 27.1659 20.6711 27.1659 13.3166C27.1659 5.96203 21.2038 0 13.8493 0C6.49475 0 0.532715 5.96203 0.532715 13.3166C0.532715 20.6711 6.49475 26.6331 13.8493 26.6331Z" fill="url(#paint0_linear_14106_4563)"/>
    <path d="M14.9782 12.3836L19.3929 7.24805H18.3479L14.5144 11.7074L11.4521 7.24805H7.92041L12.553 13.9874L7.92041 19.3688H8.96539L13.0168 14.6635L16.2523 19.3688H19.7841L14.9782 12.378V12.3836ZM13.5421 14.0488L13.0727 13.3783L9.3398 8.03598H10.9492L13.9612 12.3444L14.4306 13.015L18.3479 18.6199H16.7385L13.5421 14.0488Z" fill="white"/>
    <defs>
        <linearGradient id="paint0_linear_14106_4563" x1="4.43325" y1="3.90053" x2="23.2653" y2="22.7326" gradientUnits="userSpaceOnUse">
            <stop stop-color="#23004A"/>
            <stop offset="0.96" stop-color="#010003"/>
            <stop offset="1"/>
        </linearGradient>
    </defs>
</svg>
