<svg viewBox="0 0 27 27" fill="none" xmlns="http://www.w3.org/2000/svg">
    <path d="M13.3166 26.6331C20.6711 26.6331 26.6331 20.6711 26.6331 13.3166C26.6331 5.96203 20.6711 0 13.3166 0C5.96203 0 0 5.96203 0 13.3166C0 20.6711 5.96203 26.6331 13.3166 26.6331Z" fill="url(#paint0_linear_14106_4551)"/>
    <path d="M19.7876 11.6288C19.7876 10.0585 18.5191 8.79004 16.9489 8.79004H9.68985C8.11958 8.79004 6.85107 10.0585 6.85107 11.6288V15.0041C6.85107 16.5743 8.11958 17.8428 9.68985 17.8428H16.9489C18.5191 17.8428 19.7876 16.5743 19.7876 15.0041V11.6288ZM15.5183 13.5735L12.266 15.1829C12.1375 15.2499 11.7072 15.1605 11.7072 15.0152V11.7071C11.7072 11.5618 12.1431 11.4668 12.2716 11.5394L15.3898 13.2326C15.5183 13.3053 15.658 13.4953 15.5239 13.5679L15.5183 13.5735Z" fill="white"/>
    <defs>
        <linearGradient id="paint0_linear_14106_4551" x1="3.90053" y1="3.90053" x2="22.7326" y2="22.7326" gradientUnits="userSpaceOnUse">
            <stop stop-color="#FF0000"/>
            <stop offset="1" stop-color="#9B0000"/>
        </linearGradient>
    </defs>
</svg>
