<svg xmlns="http://www.w3.org/2000/svg" fill="none" viewBox="0 0 57 51"><path fill="#60A5FA" d="M31.5 2.7c1.2-.5 2.2-1.2 3.4-1.5 3.5-1 7 .8 8.5 4l2.6 6.3c.1.3.3.6.6.7 3.3 2 5 4.8 5 8.5v4.7l.5.2c3 1 4.9 3.6 4.9 6.6a7 7 0 0 1-4.7 6.7c-.5.2-.6.4-.6.9 0 1.5 0 3.1-.5 4.6a10 10 0 0 1-9.4 6.6H9.9A9.8 9.8 0 0 1 0 41.3V20.8c0-4.5 2.8-8.1 7.2-9.4L8 11 21 1.6c3.3-2.4 7.4-2 9.9.5l.5.6Zm16.2 22.5v-5c-.3-2.9-2.5-5-5.3-5.3h-32C6.5 14.8 4 17.2 4 21v20c0 3.5 2.6 6 6 6a17098.7 17098.7 0 0 0 33.3-.2c3.5-1 4.9-4 4.3-7.5h-2.8l-1.6-.1a7.1 7.1 0 0 1-6-8.2c.7-3.6 3.6-5.9 7.4-5.9h3Zm-.6 3.9h-2.8a3.2 3.2 0 0 0-3.2 3.2c0 1.7 1.4 3.2 3.2 3.2h5.5c1.8 0 3.2-1.5 3.2-3.2 0-1.8-1.4-3.2-3.2-3.2h-2.7ZM27 10.8v.1h14.4l-.2-.4L39.8 7c-1-2.2-3.2-2.9-5.2-1.5l-5.4 3.8-2.2 1.5Zm1.3-5.7c-1-1.4-3-1.7-4.6-.5l-8.5 6-.4.2.2.2h4.7l.6-.3 5-3.5 3-2Z"/><path fill="#60A5FA" d="m22.7 34 4.4-4.4a2 2 0 0 1 2-.4c.8.3 1.3.8 1.4 1.6 0 .6-.1 1-.6 1.5l-8 7.8c-.8.8-2 .7-2.9-.1l-4.8-4.7-2.9-2.8c-.9-.9-1-2.1-.1-2.9.8-.8 2-.7 3 .2l3.8 3.7.6.5V23.3a2 2 0 0 1 2.6-1.9c.8.3 1.3 1 1.3 2.1V33.9h.2Z"/></svg>