<svg xmlns="http://www.w3.org/2000/svg" fill="none" viewBox="0 0 208 207">
  <path fill="#A7C7FC" d="M172.4 17.2v128.6h-133V17.2h133Z"/>
  <path fill="#F9FAFB" d="m151 87.2-6.6 2.7c.9.8 1.8 1.8 2.7 3 1 1.3 1.4 2.6 1.4 4v.7a4.4 4.4 0 0 1-2.6 3.1 12 12 0 0 1-5.3 1h-.9v-4.4h1c1 0 2 0 3-.2l1.7-.6a19.2 19.2 0 0 0-4.9-5.4l.4-3.8 8.8-3.7 1.2 3.6Z"/>
  <path fill="#F9FAFB" d="M137.4 83.6A59.6 59.6 0 0 1 138 95c0 .6 0 1.1.2 1.4 0 .4.3.6.5.7.3.2.6.2 1.1.2h.1l.3 2.3-.3 2.2c-3.5 0-5.3-2.1-5.3-6.4-.1-4.3-.4-8-.8-11l3.6-.8Zm-13.8 13.7h1.3c1.5 0 2.5 0 3.1-.3.7-.3 1-.6 1-1s-.5-1.6-1.3-3.7l3-1.7a17.3 17.3 0 0 1 1.4 5.7c0 1.7-.5 3.1-1.6 4-1.1 1-2.8 1.5-4.9 1.5h-2v-4.5Zm2.2-11.7 2.2 2.2-1.4 1.5-.8.8-.7-.8-1.5-1.5 2.2-2.2Zm4.1 0 2.2 2.2-1.5 1.5-.7.8-.7-.8-1.5-1.5 2.2-2.2Z"/>
  <path fill="#F9FAFB" d="M119 97.3h4.9l.2 2.3-.2 2.2h-5v-4.5Z"/>
  <path fill="#F9FAFB" d="M114.3 97.3h5l.1 2.3-.2 2.2h-5v-4.5Z"/>
  <path fill="#F9FAFB" d="M109.6 97.3h5l.2 2.3-.3 2.2h-5v-4.5Z"/>
  <path fill="#F9FAFB" d="M104.9 97.3h5l.2 2.3-.3 2.2h-5v-4.5Z"/>
  <path fill="#F9FAFB" d="M100.2 97.3h5l.2 2.3-.3 2.2h-4.9v-4.5Z"/>
  <path fill="#F9FAFB" d="M95.5 97.3h5l.2 2.3-.2 2.2h-5v-4.5Z"/>
  <path fill="#F9FAFB" d="M90.8 97.3h5l.2 2.3-.2 2.2h-5v-4.5Z"/>
  <path fill="#F9FAFB" d="M86.1 97.3h5l.2 2.3-.2 2.2h-5v-4.5Z"/>
  <path fill="#F9FAFB" d="M74 102a75 75 0 0 1 0-4.3c2 0 3.7-.1 4.8-.4a6 6 0 0 0 2.4-1c.6-.6 1-1.4 1.5-2.5l2.9.3c-.3 1-.5 1.6-.5 2.1 0 .4.1.7.3.9.2.2.6.2 1 .2l.2 2.3-.2 2.2a4 4 0 0 1-3.1-1.6c-.4-.5-.5-1-.5-1.7l.4.2a8.3 8.3 0 0 1-5.4 3.1c-1 .2-2.4.3-3.9.3Zm-5.7-9a193.5 193.5 0 0 0-.6 3c.1.2.4.5 1 .7.4.3 1.2.5 2.1.7 1 .2 2 .3 3.3.3a34.2 34.2 0 0 1 0 4.4 19 19 0 0 1-5-.6c-1.3-.4-2.4-1-3.2-1.8a4.5 4.5 0 0 1-1.3-3.4c0-.7 0-1.5.3-2.3.1-.8.4-1.6.7-2.2l2.7 1.3Zm3.6 13.1 2.5-2.5L77 106l-2.5 2.5L72 106ZM141 67.3h1.2c1.5 0 2.5-.1 3.2-.4.6-.2 1-.5 1-1 0-.3-.5-1.6-1.4-3.7l3-1.6a17.5 17.5 0 0 1 1.5 5.6c0 1.8-.6 3.2-1.7 4.1-1.1 1-2.7 1.4-4.8 1.4h-2v-4.4Zm2.2-11.7 2.2 2.2-1.5 1.5-.7.7-.8-.7-1.5-1.5 2.3-2.2Zm4 0 2.3 2.2-1.5 1.5-.7.7-.8-.7-1.5-1.5 2.3-2.2Z"/>
  <path fill="#F9FAFB" d="m135.7 58.3 3.2 7.7c.2.5.5.9.7 1 .3.2.8.3 1.3.3h.4l.2 2.2-.2 2.2h-.4a4 4 0 0 1-2.7-1 9.1 9.1 0 0 1-2-3l-3.5-7.8 3-1.6Zm-6.5 8.5 1.6.6a7.9 7.9 0 0 0 4.1 0c.5-.1 1-.3 1.2-.5l.6-.6 2 2.6c-.4.6-1 1.3-1.8 2s-2 1-3.4 1c-2 0-3.9-.7-5.8-2l1.5-3.1ZM117.5 75a22 22 0 0 0 5-3.1c.5-.5.8-.9.8-1.2 0-.6-.5-2.5-1.5-5.6l3.2-1.3a21.2 21.2 0 0 1 1.3 7c0 1.6-.6 3-1.9 4.4a14.8 14.8 0 0 1-5 3.5l-2-3.7Zm-3-7.7c.4 0 .7-.1 1-.3.2-.3.3-.5.3-.8 0-.5-.4-1.8-1.3-4l3-1.6a16.8 16.8 0 0 1 1.4 5.8 6 6 0 0 1-.6 2.7c-.3.8-.8 1.4-1.5 2-.7.4-1.4.6-2.3.6v-4.4Zm-6.4 4.4v-4.4h.2c.7 0 1.2-.4 1.6-1 .3-.7.5-1.5.7-2.6l3 .1a29 29 0 0 0-.3 2.1c0 .4.1.8.3 1 .2.3.5.4.9.4l.3 2.2-.2 2.2h-.1c-.8 0-1.5-.1-2.1-.5a4 4 0 0 1-1.4-1.8h.7c-.5.8-1 1.4-1.6 1.8-.6.4-1.2.5-2 .5Zm-2-6.5.6 1.3.6.6 1.1.2-.2 4.4c-1 0-2-.4-2.8-1.3a9 9 0 0 1-2-3.5l2.7-1.7Zm-10.5 1.2-1 2.5c-.2.6-.3 1.3-.3 2 0 2.3 1.6 3.4 4.6 3.4 1 0 1.9-.2 2.7-.5.8-.3 1.4-.7 1.9-1.3.4-.5.6-1.1.6-1.8s-.5-2.6-1.6-5.5l3-1.7a22.7 22.7 0 0 1 1.6 7.2 8 8 0 0 1-8.2 8c-1.5 0-2.8-.2-4-.8-1.2-.5-2-1.3-2.8-2.4-.6-1-1-2.4-1-4v-.8c.2-1.5.8-3.3 1.8-5.5l2.7 1.2Zm-19.7.4 1.7.6c.6.2 1.3.3 2 .3.9 0 1.6-.1 2.1-.3a3 3 0 0 0 1.1-.4c-.4-1.6-2-3.3-5-5.2L80 58c1.9 1.3 3.4 2.7 4.5 4.3a8.2 8.2 0 0 1 1.7 4.7 5 5 0 0 1-.5 2c-.4 1-1 1.7-2.2 2.2a8.8 8.8 0 0 1-9.2-1.3l1.6-3ZM64 75a22 22 0 0 0 5.1-3.1c.6-.5.8-.9.8-1.2 0-.6-.5-2.5-1.4-5.6l3.2-1.3a21.2 21.2 0 0 1 1.2 7c0 1.6-.6 3-1.8 4.4-1.3 1.4-3 2.5-5.1 3.5L64 75Z"/>
  <path fill="#4C7FC7" d="M192.7 22.7a4 4 0 0 1 1.3 3c0 1-.3 2.4-1.3 3.1-1 .7-1.7 1.4-3 1.4-2.5 0-4.5-2-4.5-4.5 0-1 .3-2.4 1.3-3 1-.7 1.8-1.4 3.1-1.4a4 4 0 0 1 3 1.4Zm0 85.7c.7.7 1.3 1.7 1.3 3 0 1.4-.3 2.5-1.3 3.2-.7.7-1.7 1.3-3 1.3-2.5 0-4.5-2-4.5-4.4 0-1 .3-2.4 1.3-3.1.7-.7 1.8-1.4 3.1-1.4a4 4 0 0 1 3 1.4Zm-17.2 73c.7.7 1.4 1.8 1.4 3.1 0 1-.3 2.4-1.4 3.1-.6.7-2 1-3 1-2.5 0-4.5-2-4.5-4.4 0-1 .3-2.4 1.3-3 .7-.8 1.8-1.4 3.1-1.4 1.4 0 2.4.6 3.1 1.7ZM38.3 177c.7.7 1.4 1.7 1.4 3 0 1.1-.3 2.5-1.4 3.2-1 .7-1.7 1.3-3 1.3-2.5 0-4.5-2-4.5-4.4 0-1 .4-2.4 1.4-3.1 1-.7 1.7-1.4 3-1.4 1.4 0 2.5.7 3.1 1.4ZM21.2 70c.7.7 1.3 1.7 1.3 3 0 1.4-.3 2.5-1.3 3.2-.7.6-1.7 1.3-3.1 1.3-2.4 0-4.4-2-4.4-4.5 0-1 .3-2.4 1.3-3 .7-.7 1.7-1.4 3.1-1.4 1.4 0 2.4.3 3 1.4Zm48.3 97.4H35.3a13 13 0 0 1-13-13 14 14 0 0 1 3.7-9.3c2.4-2.4 5.8-3.7 9.3-3.7h4.4c2.4 0 4.5 2 4.5 4.4 0 2.4-2.1 4.5-4.5 4.5h-4.4c-1 0-2.1.3-3.1 1.3-.7.7-1.4 2.1-1.4 3.1 0 2.4 2 4.5 4.5 4.5h34.3c2.4 0 4.4 2 4.4 4.4 0 1.7-2 3.8-4.4 3.8Zm42.9.6h-13c-2.4 0-4.4-2-4.4-4.4 0-2.4 2-4.5 4.4-4.5h13c2.4 0 4.5 2.1 4.5 4.5s-2.1 4.4-4.5 4.4Zm64.5.1h-34.3c-2.4 0-4.5-2-4.5-4.4 0-2.4 2.1-4.5 4.5-4.5h34.3c1 0 2-.3 3-1.3.8-.7 1.4-1.8 1.4-3.1 0-2.4-2-4.5-4.4-4.5h-4.5c-2.4 0-4.4-2-4.4-4.4 0-2.4 2-4.4 4.4-4.4h4.5a13 13 0 0 1 13 13c0 3.4-1.3 6.5-3.8 9.2a12 12 0 0 1-9.2 4.5Zm-25.7-17.8a4.6 4.6 0 0 1-4.5-4.5v-8.6h-13v8.6c0 2.4-2 4.4-4.5 4.4-2.3 0-4.4-2-4.4-4.4v-13c0-2.5 2-4.5 4.4-4.5h21.6c2.5 0 4.5 2 4.5 4.5v13c0 2.4-2 4.4-4.1 4.4Z"/>
  <path fill="#4C7FC7" d="M69.5 206.5H52.4c-1.4 0-2.8-.7-3.4-2-.7-1.5-1-2.8-.4-4.2l17.2-38.8c.7-1.7 2-2.4 3.7-2.4h30.2c1.7 0 3.1 1 3.8 2.4.7 1.4.7 3.1-.4 4.5L73 204.8c-1 1-2.1 1.7-3.5 1.7ZM59 197.9h8.6l23.3-30.2H72.3L58.9 198Zm100.8 8.6h-17.2c-1.3 0-2.4-.7-3.4-1.7L109 166c-1-1.3-1-3-.3-4.5.6-1.3 2-2.4 3.7-2.4h30.2c1.7 0 3 1 3.8 2.4l17.1 38.8c.7 1.4.4 2.7-.3 4.1-.7 1.4-2 2-3.4 2v.1Zm-15.1-8.6h8.6l-13.4-30.2h-18.6l23.4 30.2Zm27.7-47.6H39.7a4.5 4.5 0 0 1-4.4-4.5V17.2c0-2.4 2-4.5 4.4-4.5h60c2.4 0 4.5 2 4.5 4.5 0 2.3-2.1 4.4-4.5 4.4H43.8v120h124.5v-120h-55.9a4.5 4.5 0 0 1 0-8.9h60c2.5 0 4.5 2 4.5 4.4v128.7c0 2.4-2 4.4-4.5 4.4Z"/>
  <path fill="#4C7FC7" d="M138.1 34.3h-25.7c-2.4 0-4.4-2-4.4-4.4 0-2.4 2-4.5 4.4-4.5h25.7c2.4 0 4.5 2 4.5 4.5 0 2.4-2 4.4-4.5 4.4Zm-38.4 0H74c-2.4 0-4.5-2-4.5-4.4 0-2.4 2-4.5 4.5-4.5h25.7c2.4 0 4.5 2 4.5 4.5-.4 2.4-2.5 4.4-4.5 4.4ZM11.6 133C5.8 133 .9 128.4.9 122.5c0-5.8 4.9-10.6 10.7-10.6a10.7 10.7 0 0 1 0 21.3Zm0-13c-1 0-2 1-2 2.1 0 1 1 2.1 2 2.1s2-1 2-2c0-1.1-.6-2.1-2-2.1ZM194 85.8a13 13 0 1 1 13-13c0 7.1-6.1 13-13 13Zm0-17.2a4.5 4.5 0 0 0 0 8.9c2.4 0 4.5-2 4.5-4.4 0-2.4-2.4-4.5-4.5-4.5Z"/>
  <path fill="#4C7FC7" d="M112.4 34.3h-13c-2.4 0-4.4-2-4.4-4.4V10.6C95 4.8 99.8 0 105.6 0s10.7 4.8 10.7 10.6V30c.6 2.4-1.4 4.4-3.8 4.4Zm-8.5-8.6h4.4v-15c0-1-1-2.1-2-2.1-1.1 0-2.5 1-2.5 2v15.1Zm8.5 180.7c-2.4 0-4.4-2-4.4-4.4v-38.4c0-2.4 2-4.5 4.4-4.5 2.4 0 4.5 2.1 4.5 4.5v38.7c0 2.1-2.1 4.1-4.5 4.1Zm-12.7 0c-2.4 0-4.5-2-4.5-4.4v-38.4c0-2.4 2.1-4.5 4.5-4.5s4.5 2.1 4.5 4.5v38.7c-.4 2.1-2.5 4.1-4.5 4.1Z"/>
</svg>