<svg xmlns="http://www.w3.org/2000/svg" fill="none" viewBox="0 0 251 208">
  <path fill="#fff" d="M218 180.6a6.7 6.7 0 0 1 0 13.3c-3.8 0-6.6-3.1-6.6-7 0-3.5 2.8-6.3 6.7-6.3ZM29 145.4a6.7 6.7 0 0 1 0 13.4 6.5 6.5 0 0 1-6.8-6.7c.4-3.9 3.2-6.7 6.7-6.7Z"/>
  <path fill="#4C7FC7" d="M216 79.2c2.4 0 4.6 2.1 4.6 4.6 0 2.5-2.2 4.6-4.6 4.6-2.5 0-4.6-2.5-4.6-4.6 0-2.5 2.1-4.6 4.6-4.6ZM213.6 15c2.4 0 4.5 2.1 4.5 4.6 0 2.5-2 4.6-4.5 4.6a4.6 4.6 0 0 1-4.6-4.6c.3-2.5 2.1-4.6 4.6-4.6Zm-178 90.6c2.5 0 4.6 2.1 4.6 4.6 0 2.5-2.1 4.6-4.6 4.6a4.7 4.7 0 0 1-4.6-4.6c0-2.4 2.1-4.6 4.6-4.6Zm-9 92.4c2.5 0 4.6 2.1 4.6 4.6 0 2.4-2.1 4.5-4.6 4.5a4.7 4.7 0 0 1-4.6-4.5c.3-2.9 2.1-4.6 4.6-4.6Zm-8-172c2.4 0 4.5 2.1 4.5 4.6 0 2.4-2 4.2-4.5 4.2a4.6 4.6 0 0 1-4.6-4.6c.3-2.1 2.1-4.2 4.6-4.2ZM11 163c-6 0-11-5-11-11a11 11 0 0 1 21.8 0c.4 5.7-5 11-10.9 11Zm0-13.4c-1.1 0-2.2 1-2.2 2.2 0 1 1 2 2.1 2 1 0 2.1-1 2.1-2 0-1.1-.7-2.2-2-2.2Zm229 32.3c-6 0-11-5-11-11s5-10.9 11-10.9a11 11 0 0 1 10.8 11c0 5.6-5 10.9-10.9 10.9Zm0-13.4c-1.1 0-2.2 1-2.2 2.1 0 1 1 2.1 2.1 2.1 1 0 2.1-1 2.1-2 0-1.2-1-2.2-2-2.2Z"/>
  <path fill="#A7C7FC" d="M189.9 202.4H49V21.8h141v180.6Z"/>
  <path fill="#fff" d="M172.3 110.2H66.7v17.6h105.6v-17.6Z"/>
  <path fill="#fff" d="M172.3 4.6v17.6H49v167.2H31.5V4.6h140.8Z"/>
  <path fill="#fff" d="M145.9 92.6H93a26 26 0 0 1 18-25c2 1.8 5.2 3.2 8.4 3.2s6-1 8.4-3.2a26 26 0 0 1 18 25Z"/>
  <path fill="#fff" d="M119.5 44c7.4 0 13.3 6 13.3 13.4 0 4.2-1.7 7.7-4.9 10.2a13.8 13.8 0 0 1-8.5 3.2c-3.1 0-6-1-8.4-3.2-2.8-2.5-5-6-5-10.2 0-7.4 6-13.4 13.4-13.4Z"/>
  <path fill="#4C7FC7" d="M202.9 140.8c2.5 0 4.6 2.2 4.6 4.6 0 2.5-2.2 4.6-4.6 4.6a4.7 4.7 0 0 1-4.6-4.6c0-2.4 2.2-4.6 4.6-4.6Zm-52.8-101c2.5 0 4.6 2.1 4.6 4.6 0 2.4-2.2 4.6-4.6 4.6a4.7 4.7 0 0 1-4.5-4.6c0-2.5 2-4.6 4.5-4.6Zm-8.8 114.4c2.5 0 4.6 2.1 4.6 4.6 0 2.5-2.1 4.6-4.6 4.6a4.6 4.6 0 0 1-4.6-4.6c.4-2.8 2.2-4.6 4.6-4.6ZM79.7 57.4c2.4 0 4.5 2.1 4.5 4.5 0 2.5-2 4.6-4.5 4.6A4.7 4.7 0 0 1 75 62c.3-2.8 2.1-4.5 4.6-4.5Zm66.2 39.4H93a4.7 4.7 0 0 1-4.6-4.6c0-13.3 8.4-25 21.1-29.2 2.5-.7 5 .3 5.6 2.8.7 2.5-.3 5-2.8 5.6A22 22 0 0 0 98 88h43a22 22 0 0 0-14.5-16.6c-2.5-.6-3.5-3.1-2.8-5.6.7-2.5 3.1-3.5 5.6-2.8a30.6 30.6 0 0 1 21.1 29.2c-.3 2.5-2.4 4.6-4.5 4.6Z"/>
  <path fill="#4C7FC7" d="M119.5 75c-4.2 0-8.1-1.4-11.3-3.9a17.6 17.6 0 0 1-6.3-13.7c0-9.9 7.7-17.6 17.6-17.6 9.8 0 17.6 7.7 17.6 17.6 0 5.3-2.5 10.2-6.3 13.7a22.6 22.6 0 0 1-11.3 3.9Zm0-26.4c-5 0-8.8 3.8-8.8 8.8 0 2.5 1 5.3 3.1 6.7a8.6 8.6 0 0 0 11.3 0 8.6 8.6 0 0 0 3.2-6.7 9 9 0 0 0-8.8-8.8Z"/>
  <path fill="#4C7FC7" d="M189.9 207H49a4.6 4.6 0 0 1-4.5-4.6V22.2c0-2.5 2.1-4.6 4.5-4.6h141c2.4 0 4.5 2.1 4.5 4.6v180.6c-.3 2-2.4 4.2-4.5 4.2Zm-136.6-8.8h132V26.4h-132v171.8Z"/>
  <path fill="#4C7FC7" d="M49 193.6H31.4A4.7 4.7 0 0 1 27 189V4.6C26.9 2 29 0 31.4 0h140.8c2.5 0 4.6 2.1 4.6 4.6V21c0 2.5-2.1 5-4.6 5-2.4 0-4.5-2.5-4.5-5V8.8h-132v176H49c2.5 0 4.6 2.2 4.6 4.7-.3 2-2.5 4.2-4.6 4.2Zm153.9-57a4.7 4.7 0 0 1-4.6-4.6V35.2c0-2.5 2.2-4.6 4.6-4.6 2.4 0 4.6 2.1 4.6 4.6V132c0 2.5-2.2 4.6-4.6 4.6Zm13.4 48.2a4.6 4.6 0 0 1-4.6-4.5v-65.9c0-2.4 2.1-4.6 4.6-4.6 2.4 0 4.6 2.2 4.6 4.6v66.2c-.4 2.1-2.5 4.2-4.6 4.2Z"/>
  <path fill="#4C7FC7" d="M172.3 132H66.7a4.7 4.7 0 0 1-4.6-4.5v-17.6c0-2.5 2-4.6 4.6-4.6h105.6c2.4 0 4.5 2.1 4.5 4.6v17.6c-.3 2.4-2.4 4.5-4.5 4.5Zm-101.4-8.8h96.8v-8.8H71v8.8ZM93 149.6H66.8A4.7 4.7 0 0 1 62 145c0-2.5 2-4.6 4.6-4.6H93c2.4 0 4.6 2.1 4.6 4.6 0 2.5-2.5 4.6-4.6 4.6Zm35.3 13.4H66.7a4.7 4.7 0 0 1-4.6-4.6c0-2.5 2-4.5 4.6-4.5h61.6c2.4 0 4.5 2 4.5 4.5-.3 2.5-2.5 4.6-4.5 4.6Zm44 13H66.7a4.7 4.7 0 0 1-4.6-4.6c0-2.4 2-4.6 4.6-4.6h105.6c2.4 0 4.5 2.2 4.5 4.6-.3 2.5-2.4 4.6-4.5 4.6ZM66.7 66.2H49a4.7 4.7 0 0 1-4.5-4.6c0-2.5 2.1-4.6 4.5-4.6h17.7c2.4 0 4.5 2.1 4.5 4.6-.3 2.5-2.5 4.6-4.5 4.6Zm123.2-17.6h-26.4a4.6 4.6 0 0 1-4.6-4.6c0-2.4 2.1-4.6 4.6-4.6h26.4c2.5 0 4.6 2.2 4.6 4.6-.4 2.5-2.5 4.6-4.6 4.6Z"/>
</svg>