<svg xmlns="http://www.w3.org/2000/svg" fill="none" viewBox="0 0 211 207">
  <path fill="#A7C7FC" d="M162.8 17.6v167.2H31V17.6h132Z"/>
  <path fill="#fff" d="M200 180.6a6.7 6.7 0 0 1 0 13.3c-3.8 0-6.6-3.1-6.6-7 0-3.5 2.8-6.3 6.7-6.3ZM11 145.4a6.7 6.7 0 0 1 0 13.4 6.5 6.5 0 0 1-6.8-6.7c.4-3.9 3.2-6.7 6.7-6.7ZM180.4 35.2v167.2H48.5v-17.6h114.3V35.2h17.6Z"/>
  <path fill="#4C7FC7" d="M198 79.2c2.4 0 4.6 2.1 4.6 4.6 0 2.5-2.2 4.6-4.6 4.6-2.5 0-4.6-2.5-4.6-4.6 0-2.5 2.1-4.6 4.6-4.6Zm-4.6-52.8c2.5 0 4.6 2.1 4.6 4.6 0 2.5-2.1 4.6-4.6 4.6A4.6 4.6 0 0 1 189 31c.3-2.5 2-4.6 4.5-4.6Zm-48.2 79.2c2.5 0 4.6 2.1 4.6 4.6 0 2.5-2.1 4.6-4.6 4.6-2.4 0-4.6-2.5-4.6-4.6 0-2 2.2-4.6 4.6-4.6Zm0-38.3c2.5 0 4.6 2.2 4.6 4.6 0 2.5-2.1 4.6-4.6 4.6-2.4 0-4.6-2.5-4.6-4.6 0-2 2.2-4.6 4.6-4.6Zm0-13c2.5 0 4.6 2.2 4.6 4.6 0 2.5-2.1 4.6-4.6 4.6-2.4 0-4.6-2.5-4.6-4.6 0-2 2.2-4.6 4.6-4.6Zm0 64.7c2.5 0 4.6 2.1 4.6 4.5 0 2.5-2.1 4.6-4.6 4.6-2.4 0-4.6-2.5-4.6-5 0-2.4 2.2-4.1 4.6-4.1Zm0-38.3c2.5 0 4.6 2.1 4.6 4.6 0 2.4-2.1 4.5-4.6 4.5-2.4 0-4.6-2.4-4.6-5 0-2.4 2.2-4.1 4.6-4.1Zm0 51.3c2.5 0 4.6 2.1 4.6 4.6 0 2.5-2.4 4.2-4.6 4.2-2 0-4.6-2.1-4.6-4.2 0-2 2.2-4.6 4.6-4.6Zm0-38.3c2.5 0 4.6 2.2 4.6 4.6 0 2.5-2.4 4.2-4.6 4.2-2 0-4.6-2-4.6-4.2 0-2 2.2-4.6 4.6-4.6Zm0 51.7c2.5 0 4.6 2.1 4.6 4.6 0 2.5-2.1 4.6-4.6 4.6-2.4 0-4.6-2.5-4.6-5s2.2-4.2 4.6-4.2Zm0 13c2.5 0 4.6 2.1 4.6 4.6 0 2.4-2.1 4.6-4.6 4.6-2.4 0-4.6-2.5-4.6-4.6 0-2.5 2.2-4.6 4.6-4.6ZM17.6 105.6c2.5 0 4.6 2.1 4.6 4.6 0 2.5-2.1 4.6-4.6 4.6a4.7 4.7 0 0 1-4.6-4.6c0-2.4 2.1-4.6 4.6-4.6Zm0 83.8c2.5 0 4.6 2.1 4.6 4.5 0 2.5-2.1 4.6-4.6 4.6A4.7 4.7 0 0 1 13 194c.3-2.8 2.1-4.5 4.6-4.5ZM8.8 44c2.5 0 4.6 2.1 4.6 4.5 0 2.5-2.1 4.3-4.6 4.3a4.6 4.6 0 0 1-4.6-4.6c.4-2.1 2.2-4.2 4.6-4.2Z"/>
  <path fill="#4C7FC7" d="M162.8 189.4H31a4.6 4.6 0 0 1-4.5-4.6V17.6c0-2.5 2.1-4.5 4.5-4.5h132c2.4 0 4.5 2 4.5 4.5v167.2c-.3 2.5-2.5 4.6-4.6 4.6Zm-127.6-8.8h123V22.2h-123v158.4Z"/>
  <path fill="#4C7FC7" d="M180.4 207H48.5a4.7 4.7 0 0 1-4.6-4.6v-17.6c0-2.5 2.2-4.6 4.6-4.6 2.5 0 4.6 2.2 4.6 4.6v13.4h123V39.8h-13.3a4.6 4.6 0 0 1-4.5-4.6c0-2.5 2-4.6 4.5-4.6h17.6c2.5 0 4.6 2.1 4.6 4.6v167.2c-.4 2.5-2.5 4.6-4.6 4.6ZM66.1 39a4.7 4.7 0 0 1-4.6-4.6V11c0-.7-.3-1.4-.7-1.4-.3-.3-.7-.7-1.4-.7-1 0-2 1-2 2.2v6.6c0 2.5-2.2 4.6-4.6 4.6a4.7 4.7 0 0 1-4.6-4.6V11a11 11 0 0 1 18.6-7.8A11 11 0 0 1 70 11v23.4a4 4 0 0 1-3.8 4.6Zm4.2 75.4H48.2a4.7 4.7 0 0 1-4.6-4.6c0-2.4 2.1-4.5 4.6-4.5h22.1c2.5 0 4.6 2.1 4.6 4.5 0 2.5-2.1 4.6-4.6 4.6Zm0-38.2H48.2a4.7 4.7 0 0 1-4.6-4.6c0-2.5 2.1-4.6 4.6-4.6h22.1c2.5 0 4.6 2.1 4.6 4.6 0 2.4-2.1 4.6-4.6 4.6Zm0-13H48.2a4.7 4.7 0 0 1-4.6-4.6c0-2.5 2.1-4.6 4.6-4.6h22.1c2.5 0 4.6 2.1 4.6 4.6 0 2.4-2.1 4.6-4.6 4.6Zm0 64.6H48.2a4.7 4.7 0 0 1-4.6-4.6c0-2.4 2.1-4.5 4.6-4.5h22.1c2.5 0 4.6 2.1 4.6 4.5 0 2.5-2.1 4.6-4.6 4.6Zm0-38.3H48.2a4.7 4.7 0 0 1-4.6-4.5c0-2.5 2.1-4.6 4.6-4.6h22.1c2.5 0 4.6 2.1 4.6 4.6 0 2.4-2.1 4.5-4.6 4.5Zm0 51.3H48.2a4.7 4.7 0 0 1-4.6-4.6c0-2.5 2.1-4.6 4.6-4.6h22.1c2.5 0 4.6 2.1 4.6 4.6 0 2.5-2.1 4.6-4.6 4.6Zm0-38.3H48.2a4.7 4.7 0 0 1-4.6-4.6c0-2.4 2.1-4.6 4.6-4.6h22.1c2.5 0 4.6 2.2 4.6 4.6 0 2.5-2.1 4.6-4.6 4.6Z"/>
  <path fill="#4C7FC7" d="M70.3 154.2H48.2a4.7 4.7 0 0 1-4.6-4.6c0-2.4 2.1-4.5 4.6-4.5h22.1c2.5 0 4.6 2.1 4.6 4.5 0 2.5-2.1 4.6-4.6 4.6Zm0 13H48.2a4.7 4.7 0 0 1-4.6-4.6c0-2.4 2.1-4.5 4.6-4.5h22.1c2.5 0 4.6 2 4.6 4.5s-2.1 4.6-4.6 4.6Zm61.5-52.8H83.7a4.6 4.6 0 0 1-4.6-4.6c0-2.4 2.1-4.5 4.6-4.5h48.5c2.5 0 4.6 2.1 4.6 4.5 0 2.5-2.5 4.6-5 4.6Zm0-38.2H83.7a4.6 4.6 0 0 1-4.6-4.6c0-2.5 2.1-4.6 4.6-4.6h48.5c2.5 0 4.6 2.1 4.6 4.6 0 2.4-2.5 4.6-5 4.6Zm0-13H83.7a4.6 4.6 0 0 1-4.6-4.6c0-2.5 2.1-4.6 4.6-4.6h48.5c2.5 0 4.6 2.1 4.6 4.6 0 2.4-2.5 4.6-5 4.6Zm0 64.6H83.7a4.6 4.6 0 0 1-4.6-4.6c0-2.4 2.1-4.5 4.6-4.5h48.5c2.5 0 4.6 2.1 4.6 4.5 0 2.5-2.5 4.6-5 4.6Zm0-38.3H83.7A4.6 4.6 0 0 1 79 85c0-2.5 2.1-4.6 4.6-4.6h48.5c2.5 0 4.6 2.1 4.6 4.6 0 2.4-2.5 4.5-5 4.5Zm0 51.3H83.7a4.6 4.6 0 0 1-4.6-4.6c0-2.5 2.1-4.6 4.6-4.6h48.5c2.5 0 4.6 2.1 4.6 4.6 0 2.5-2.5 4.6-5 4.6Zm0-38.3H83.7A4.6 4.6 0 0 1 79 98c0-2.4 2.1-4.6 4.6-4.6h48.5c2.5 0 4.6 2.2 4.6 4.6 0 2.5-2.5 4.6-5 4.6Zm0 51.7H83.7a4.6 4.6 0 0 1-4.6-4.6c0-2.4 2.1-4.5 4.6-4.5h48.5c2.5 0 4.6 2.1 4.6 4.5 0 2.5-2.5 4.6-5 4.6Zm0 13H83.7a4.6 4.6 0 0 1-4.6-4.6c0-2.4 2.1-4.5 4.6-4.5h48.5c2.5 0 4.6 2 4.6 4.5-.4 2.5-2.5 4.6-5 4.6ZM11 163c-6 0-11-5-11-11a11 11 0 0 1 21.8 0c.4 5.7-5 11-10.9 11Zm0-13.4c-1.1 0-2.2 1-2.2 2.2 0 1 1 2 2.1 2 1 0 2.1-1 2.1-2 0-1.1-.7-2.2-2-2.2Zm189 48.6a11 11 0 0 1 0-21.9c6 0 11 5 11 11 0 5.6-5 10.9-11 10.9Zm0-13.4c-1 0-2 1-2 2.2 0 1 1 2 2 2 1.2 0 2.2-1 2.2-2 0-1.1-1-2.2-2.1-2.2Z"/>
</svg>