<svg xmlns="http://www.w3.org/2000/svg" fill="none" viewBox="0 0 208 207">
  <path fill="#A7C7FC" d="M151.6 34.5V8.6H47.8v177h129.8V34.5h-26Z"/>
  <path fill="#fff" d="M10.7 138c3.5 0 6.6 2.8 6.6 6.6s-2.8 6.5-6.6 6.5a6.4 6.4 0 0 1-6.5-6.5c0-3.8 3-6.6 6.5-6.6ZM190.3 4.5c4.9 0 8.7 3.8 8.7 8.6s-3.8 8.6-8.7 8.6a8.6 8.6 0 0 1-8.6-8.6c0-4.8 3.8-8.6 8.7-8.6Zm-12.8 30h-26V8.6c8 8 17.7 18 26 25.9Zm-95.1 77.6H65v17.3h17.3V112Zm0-69H65v17.3h17.3V43Z"/>
  <path fill="#fff" d="M151.6 185.6V203H30.5V30.4h17.3v155.2h103.8Z"/>
  <path fill="#4C7FC7" d="M194.8 168.4c2.5 0 4.5 2 4.5 4.4 0 2.5-2 4.5-4.5 4.5-2.4 0-4.5-2-4.5-4.5 0-2.7 2.1-4.4 4.5-4.4Zm-4.5-112.2c2.5 0 4.5 2.1 4.5 4.5s-2 4.5-4.5 4.5c-2.4 0-4.5-2-4.5-4.5 0-2.4 2.1-4.5 4.5-4.5Zm-56 21.4c2.4 0 4.5 2 4.5 4.5 0 2.4-2 4.5-4.5 4.5-2.4 0-4.5-2-4.5-4.5 0-2.4 2-4.5 4.5-4.5Zm0 69c2.4 0 4.5 2 4.5 4.5 0 2.4-2.4 4.2-4.5 4.2-2 0-4.5-2.1-4.5-4.5 0-2.1 2-4.2 4.5-4.2ZM26 8.6c2.4 0 4.5 2.1 4.5 4.5s-2.1 4.5-4.5 4.5c-2.5 0-4.5-2-4.5-4.5.3-2.4 2-4.5 4.5-4.5Zm-8.7 82.1c2.4 0 4.5 2.1 4.5 4.5s-2 4.5-4.5 4.5c-2.4 0-4.5-2-4.5-4.5 0-2.4 2-4.5 4.5-4.5Zm0 81.8c2.4 0 4.5 2 4.5 4.5 0 2.4-2 4.5-4.5 4.5a4.6 4.6 0 0 1-4.5-4.5c.4-2.4 2-4.5 4.5-4.5ZM13.2 47.6c2.4 0 4.5 2 4.5 4.5 0 2.4-2.1 4.5-4.5 4.5-2.5 0-4.5-2-4.5-4.5 0-2.4 2-4.5 4.5-4.5Z"/>
  <path fill="#4C7FC7" d="M177.5 189.8H47.8a4.5 4.5 0 0 1-4.5-4.5V8.6c0-2.4 2-4.5 4.5-4.5h103.8c1 0 2 .4 3.1 1.4l26 25.9c.7.7 1.3 2 1.3 3.1v151.1c-.3 2-2.4 4.2-4.5 4.2ZM52 181h121V36.2l-23.5-23.4H52V181Z"/>
  <path fill="#4C7FC7" d="M151.6 207H30.5c-2.5 0-4.5-2-4.5-4.5V30c0-2.4 2-4.5 4.5-4.5h17.3c2.4 0 4.5 2.1 4.5 4.5s-2.1 4.5-4.5 4.5H34.6v163.9h112.5v-13.1c0-2.5 2-4.5 4.5-4.5 2.4 0 4.5 2 4.5 4.5v17.2c-.4 2.4-2.4 4.5-4.5 4.5Zm25.9-168h-26c-2.3 0-4.4-2-4.4-4.5V8.6c0-2.4 2-4.5 4.5-4.5 2.4 0 4.5 2.1 4.5 4.5v21.8h21.8c2.4 0 4.5 2 4.5 4.4-.7 2.1-2.8 4.2-4.9 4.2Zm-56.4 12.8h-26c-2.3 0-4.4-2.1-4.4-4.5s2-4.5 4.5-4.5h26c2.4 0 4.4 2 4.4 4.5 0 2.4-2 4.5-4.5 4.5Zm39.1 13.1h-65c-2.4 0-4.5-2.1-4.5-4.5s2-4.5 4.5-4.5h65c2.5 0 4.5 2 4.5 4.5 0 2.4-2.4 4.5-4.5 4.5Z"/>
  <path fill="#4C7FC7" d="M69.2 99.4c-1 0-2-.4-3.1-1.4l-4.5-4.5a4.4 4.4 0 1 1 6.2-6.2l1.4 1.4 10-10a4.4 4.4 0 1 1 6.3 6.2l-13.2 13c-1 .8-2 1.5-3 1.5Zm51.9-13.1h-26a4.6 4.6 0 0 1-4.4-4.5c0-2.5 2-4.5 4.5-4.5h26c2.4 0 4.4 2 4.4 4.5 0 2.4-2 4.5-4.5 4.5Zm39.1 13.1h-65c-2.4 0-4.5-2.1-4.5-4.5s2-4.5 4.5-4.5h65c2.5 0 4.5 2 4.5 4.5 0 2.4-2.4 4.5-4.5 4.5Zm-39.1 21.4h-26a4.6 4.6 0 0 1-4.4-4.5c0-2.5 2-4.5 4.5-4.5h26c2.4 0 4.4 2 4.4 4.5 0 2.4-2 4.5-4.5 4.5Zm39.1 13.1h-65c-2.4 0-4.5-2.1-4.5-4.5s2-4.5 4.5-4.5h65c2.5 0 4.5 2 4.5 4.5 0 2.4-2.4 4.5-4.5 4.5Zm-91 34.5c-1 0-2-.4-3.1-1.4l-4.5-4.5a4.4 4.4 0 1 1 6.2-6.2l1.4 1.4 10-10a4.4 4.4 0 1 1 6.3 6.2l-13.2 13c-1 .8-2 1.5-3 1.5Zm51.9-13.1h-26a4.6 4.6 0 0 1-4.4-4.5c0-2.5 2-4.5 4.5-4.5h26a4.5 4.5 0 0 1-.1 8.9Zm39.1 13.1h-65c-2.4 0-4.5-2.1-4.5-4.5s2-4.5 4.5-4.5h65c2.5 0 4.5 2 4.5 4.5-.3 2.4-2.4 4.5-4.5 4.5Zm-77.8-34.5H65a4.5 4.5 0 0 1-4.5-4.5V112c0-2.4 2-4.5 4.5-4.5h17.3c2.4 0 4.5 2.1 4.5 4.5v17.3c-.4 2.4-2.5 4.5-4.5 4.5Zm-13.2-8.7H78v-8.6h-8.7v8.6Zm13.2-60.3H65a4.5 4.5 0 0 1-4.5-4.5V43c0-2.4 2-4.5 4.5-4.5h17.3c2.4 0 4.5 2.1 4.5 4.5v17.3c-.4 2.4-2.5 4.5-4.5 4.5Zm-13.2-8.7H78v-8.6h-8.7v8.6Zm121.1 69c-2.4 0-4.5-2-4.5-4.5V73.5c0-2.4 2.1-4.5 4.5-4.5 2.5 0 4.5 2 4.5 4.5v47.3c0 2.4-2 4.4-4.5 4.4Zm13.2 17.3c-2.4 0-4.5-2-4.5-4.5v-25.9c0-2.4 2-4.5 4.5-4.5 2.4 0 4.5 2.1 4.5 4.5V138c-.3 2.4-2.4 4.5-4.5 4.5ZM10.7 155.3c-5.9 0-10.7-4.9-10.7-10.7 0-6 4.8-10.7 10.7-10.7 6 0 10.8 4.8 10.8 10.7 0 5.8-4.9 10.7-10.8 10.7Zm0-12.8c-1 0-2 1-2 2s1 2.1 2 2.1 2.1-1 2.1-2-.7-2.1-2-2.1ZM190.3 25.9c-7.2 0-13.1-5.9-13.1-13.1 0-7.3 5.9-12.8 13.1-12.8 7.3 0 13.2 5.9 13.2 13.1 0 7.3-5.9 12.8-13.2 12.8Zm0-17.3c-2.4 0-4.5 2.1-4.5 4.5s2.1 4.5 4.5 4.5c2.5 0 4.5-2 4.5-4.5 0-2.4-2-4.5-4.5-4.5Z"/>
</svg>