<svg xmlns="http://www.w3.org/2000/svg" fill="none" viewBox="0 0 198 207">
  <path fill="#fff" d="M182.5 34.8h-167c-6.2 0-11 4.8-11 11v115.7c0 6.2 4.8 11 11 11h167c6.2 0 11-4.8 11-11V45.8c0-6.2-4.8-11-11-11Z"/>
  <path fill="#A7C7FC" d="M17.5 91V47.8h163.3V147H17.5V91Z"/>
  <path fill="#fff" d="M99 60.6a26 26 0 0 1 25.8 25.8A26 26 0 0 1 99 112.3a26 26 0 0 1-25.8-25.9A26 26 0 0 1 99 60.6Zm77.3-55.8c4.8 0 8.6 3.8 8.6 8.6 0 4.9-3.8 8.7-8.6 8.7a8.7 8.7 0 0 1-8.6-8.7c0-4.4 3.8-8.6 8.6-8.6Zm-144 0c3.4 0 6.5 2.8 6.5 6.6s-2.7 6.2-6.5 6.2a6.3 6.3 0 0 1-6.5-6.6c0-3.7 3-6.2 6.5-6.2ZM135.1 188a8.3 8.3 0 0 1 2.4 6.2c0 4.9-3.8 8.6-8.6 8.6H69.1c-2.4 0-4.5-1-6.2-2.4-1.7-1.3-2.4-3.8-2.4-6.2 0-2.4 1-4.4 2.4-6.2a8.2 8.2 0 0 1 6.2-2.4c3.4 0 6.8-1.3 9.3-3.8 2-2.4 3.4-5.8 3.4-9.3h34.4c0 3.5 1.3 7 3.7 9.3 2.5 2.5 5.6 3.8 9.3 3.8 2.1 0 4.5.7 5.9 2.4Z"/>
  <path fill="#fff" d="m107.6 85.4-14 8.3V77.5l14 8Z"/>
  <path fill="#4C7FC7" d="M157.8 182.5a5 5 0 0 1 1.3 3.1c0 1-.3 2.4-1.3 3.1-.7.7-1.8 1.4-3.1 1.4a4.6 4.6 0 0 1-4.5-4.5c0-1 .4-2.4 1.4-3a4 4 0 0 1 3-1.4c1.4 0 2.5.3 3.2 1.3ZM145 5.9a4 4 0 0 1 1.4 3c0 1.4-.3 2.5-1.3 3.2-1 .6-1.8 1.3-3.1 1.3-2.4 0-4.5-2-4.5-4.4 0-1 .3-2.5 1.3-3.1.7-.7 1.8-1.4 3.1-1.4 1.4 0 2.4.7 3.1 1.4Zm-4.4 64.7c.7.7 1.4 1.7 1.4 3.1 0 1.4-.4 2.4-1.4 3.1-.7.7-1.8 1.4-3.1 1.4a4.6 4.6 0 0 1-4.5-4.5c0-1 .3-2.4 1.4-3.1.7-.7 1.7-1.4 3-1.4 1.4 0 2.5.4 3.2 1.4Zm-34.4-56.1c.7.7 1.4 1.7 1.4 3 0 1.4-.4 2.5-1.4 3.2-1 .6-1.7 1.3-3 1.3-2.5 0-4.5-2-4.5-4.5 0-1 .3-2.4 1.3-3 .7-.7 1.8-1.4 3.1-1.4 1.4 0 2.4.7 3.1 1.3ZM102 156.7c.8.7 1.4 1.8 1.4 3.1 0 1-.3 2.4-1.3 3.1-.7.7-1.8 1.4-3.1 1.4a4.6 4.6 0 0 1-4.5-4.5c0-1 .4-2.4 1.4-3 1-.8 2-1.4 3-1.4 1.1 0 2.5.3 3.2 1.3ZM71.8 5.9a4 4 0 0 1 1.4 3c0 1.4-.3 2.5-1.4 3.2-1 .6-1.7 1.3-3 1.3-2.5 0-4.5-2-4.5-4.4 0-1 .3-2.5 1.3-3.1 1-.7 1.7-1.4 3.1-1.4 1.4 0 2.4.7 3.1 1.4ZM50.5 87.8c.7.7 1.4 1.8 1.4 3.1 0 1.4-.4 2.5-1.4 3.1-.7.7-1.7 1.4-3 1.4-2.5 0-4.5-2-4.5-4.5 0-1 .3-2.4 1.3-3.1.7-.7 1.8-1.4 3.1-1.4 1.4 0 2.4.4 3.1 1.4ZM46 182.5c.8.7 1.4 1.8 1.4 3.1 0 2.4-2 4.5-4.4 4.5-1 0-2.4-.4-3.1-1.4a4.4 4.4 0 0 1-1.4-3c0-1.1.4-2.5 1.4-3.2 1-.7 1.7-1.3 3-1.3 1.4 0 2.5.3 3.2 1.3ZM11.7 19a4 4 0 0 1 1.4 3c0 1-.4 2.4-1.4 3.1-.7.7-1.7 1.4-3.1 1.4-2.4 0-4.5-2-4.5-4.5 0-1 .4-2.4 1.4-3a4 4 0 0 1 3.1-1.4c1.4 0 2.4.3 3 1.3Zm81.8 78.8a4 4 0 0 1-2-.7c-1.4-.6-2.1-2-2.1-3.7V77.2c0-1.4.6-3.1 2-3.8a5 5 0 0 1 4.5 0l14.1 8c1.4.6 2.1 2 2.1 3.7 0 1.7-.7 3.1-2 3.8l-14.2 8c-.7 1-1.3 1-2.4 1ZM98 85.1v1.3l1-.6-1-.7ZM129.3 207H69a14 14 0 0 1-9.3-3.8 13.3 13.3 0 0 1 0-18.6c2.4-2.4 5.8-3.7 9.3-3.7 2.4 0 4.5-1 6.2-2.5a8.3 8.3 0 0 0 2.4-6.2 4.5 4.5 0 0 1 8.9 0c0 4.5-1.7 9-5.2 12-3 3.2-7.5 5.3-12 5.3-1 0-2 .3-3 1.3-.8.7-1.5 2.1-1.5 3.1s.4 2.1 1.4 3.1c.7.7 1.8 1.4 3.1 1.4h60.2c2.4 0 4.5-2 4.5-4.5 0-1-.4-2-1.4-3a4.4 4.4 0 0 0-3.1-1.4 16 16 0 0 1-12-5.2 18.2 18.2 0 0 1-5.2-12c0-2.5 2-4.5 4.5-4.5 2.4 0 4.4 2 4.4 4.4 0 2.4 1 4.5 2.5 6.2a8.2 8.2 0 0 0 6.1 2.5c3.5 0 6.6 1.3 9.3 3.7 2.4 2.4 3.8 5.9 3.8 9.3-1 7.2-6.9 13.1-13.8 13.1Z"/>
  <path fill="#4C7FC7" d="M180.8 151.2H17.5c-2.4 0-4.4-2-4.4-4.5V47.9c0-2.4 2-4.5 4.4-4.5h163.3c2.4 0 4.5 2 4.5 4.5V147c-.3 2.1-2.4 4.2-4.5 4.2Zm-159.2-8.6h154.7V52H21.6v90.6Zm159.2 47.2h-13c-2.5 0-4.5-2.1-4.5-4.5s2-4.4 4.5-4.4h13c2.4 0 4.5 2 4.5 4.4-.3 2.4-2.4 4.5-4.5 4.5Zm-150.6 0h-13c-2.4 0-4.5-2.1-4.5-4.5s2-4.4 4.5-4.4h13c2.5 0 4.5 2 4.5 4.4 0 2.4-2 4.5-4.5 4.5ZM32.3 22c-5.8 0-10.7-4.8-10.7-10.7a10.7 10.7 0 0 1 21.4.1C43 17.2 38.2 22 32.3 22Zm0-13c-1 0-2 1-2 2s1 2.1 2 2.1 2-1 2-2c0-1.1-.6-2.1-2-2.1Zm144 17.2a13 13 0 1 1 0-26.1 13 13 0 0 1 0 26Zm0-17.2c-2.4 0-4.4 2-4.4 4.4 0 2.4 2 4.5 4.4 4.5 2.4 0 4.5-2.1 4.5-4.5s-2-4.4-4.5-4.4Z"/>
  <path fill="#4C7FC7" d="M182.5 177h-167C6.9 177 0 170.2 0 161.5V45.8c0-8.6 6.9-15.5 15.5-15.5h167c8.6 0 15.5 6.9 15.5 15.5v115.7c0 8.3-7.2 15.5-15.5 15.5ZM15.5 39.3A6.9 6.9 0 0 0 8.6 46v116c0 3.7 3 6.8 6.9 6.8h167c3.8 0 6.9-3 6.9-6.8V45.8c0-3.8-3-6.9-6.9-6.9h-167v.4Z"/>
  <path fill="#4C7FC7" d="M159.2 129.5H38.8a4.5 4.5 0 0 1 0-8.9h120.4c2.4 0 4.4 2 4.4 4.4 0 2.4-2 4.5-4.4 4.5Z"/>
  <path fill="#4C7FC7" d="M56 134a4.6 4.6 0 0 1-4.5-4.5V121c0-2.4 2.1-4.5 4.5-4.5s4.5 2.1 4.5 4.5v8.6c0 2.4-2 4.5-4.5 4.5Zm43-17.3a30.3 30.3 0 1 1 0-60.5 30.3 30.3 0 0 1 0 60.5Zm0-51.6a21.8 21.8 0 0 0-21.7 21.7 21.7 21.7 0 1 0 43.3 0A22 22 0 0 0 99 65Zm81.8 12.7h-30.2c-2.4 0-4.5-2-4.5-4.5 0-2.4 2-4.4 4.5-4.4h30.2c2.4 0 4.5 2 4.5 4.4-.3 2.5-2.4 4.5-4.5 4.5ZM34.7 95H17.5c-2.4 0-4.4-2-4.4-4.4 0-2.4 2-4.5 4.4-4.5h17.2c2.4 0 4.5 2 4.5 4.5-.4 2.4-2.4 4.5-4.5 4.5Zm146.1 13.1h-17.2c-2.4 0-4.5-2-4.5-4.5 0-2.4 2.1-4.5 4.5-4.5h17.2c2.4 0 4.5 2.1 4.5 4.5-.3 2.5-2.4 4.5-4.5 4.5Z"/>
</svg>