<svg xmlns="http://www.w3.org/2000/svg" fill="none" viewBox="0 0 213 207">
  <path fill="#A7C7FC" d="M31.2 184.8V17.6h133.2v167.2H31.2Z"/>
  <path fill="#fff" d="M108.6 183.4c-.7-.7-2.1-1-3.2-.7a9.3 9.3 0 0 1-10.7-6c-.3-1-1-2.1-2.4-2.4a8.7 8.7 0 0 1-6-10.6c.3-1 0-2.5-.8-3.2a9.1 9.1 0 0 1 0-12.3c.7-.7 1-2.1.7-3.2a9.1 9.1 0 0 1 6-10.5c1.1-.4 2.2-1 2.5-2.5a9 9 0 0 1 10.7-6c1 .4 2.5 0 3.2-.7a9.3 9.3 0 0 1 12.4 0c.7.7 2.2 1 3.2.7 4.7-1 9.2 1.8 10.7 6 .3 1 1 2.1 2.5 2.5 4.6 1.4 7 6 6 10.5-.3 1 0 2.5.7 3.2a9.1 9.1 0 0 1 0 12.3c-.7.7-1 2.1-.7 3.2 1 4.6-1.8 9.1-6 10.6-1 .3-2.2 1-2.5 2.4a9 9 0 0 1-10.7 6c-1-.3-2.5 0-3.2.7-.3.4-.7.4-1 .7a9.1 9.1 0 0 1-11.4-.7Zm-97.6-38c3.6 0 6.8 2.8 6.8 6.7 0 3.5-2.9 6.7-6.8 6.7a6.5 6.5 0 0 1-6.7-6.7c.3-3.9 3.2-6.7 6.7-6.7Zm191 35.2a6.7 6.7 0 1 1 0 13.4c-4 0-6.8-3.2-6.8-7 0-3.6 2.9-6.4 6.8-6.4Z"/>
  <path fill="#fff" d="m130.3 184.8 7 17.6-22.7-6V186c1.8 0 3.6-.7 5-1.4l1-.7c.8-.7 2.2-1 3.3-.7 1.8.3 3.5.3 5.3-.4l1 2.2Zm-15.7 1.1v10.6l-23 6 7.4-17.7 1-2.8c1.8.7 3.6.7 5.4.4 1-.4 2.5 0 3.2.7a7.5 7.5 0 0 0 6 2.8Zm0-47.9c9 0 16.4 7.4 16.4 16.2 0 8.8-7.5 16.2-16.4 16.2-8.8 0-16.3-7.4-16.3-16.2 0-8.8 7.1-16.2 16.3-16.2Z"/>
  <path fill="#4C7FC7" d="M199.8 79.2c2.5 0 4.7 2.1 4.7 4.6 0 2.4-2.2 4.6-4.7 4.6s-4.6-2.5-4.6-4.6c0-2.5 2.2-4.6 4.6-4.6Zm-4.6-52.8c2.5 0 4.7 2.1 4.7 4.6 0 2.4-2.2 4.6-4.7 4.6a4.7 4.7 0 0 1-4.6-4.6c.4-2.5 2.2-4.6 4.6-4.6ZM17.8 105.6c2.4 0 4.6 2.1 4.6 4.6 0 2.4-2.2 4.6-4.6 4.6a4.7 4.7 0 0 1-4.7-4.6c0-2.5 2.2-4.6 4.7-4.6Zm0 83.8c2.4 0 4.6 2.1 4.6 4.6 0 2.5-2.2 4.6-4.6 4.6A4.7 4.7 0 0 1 13 194c.4-2.8 2.2-4.6 4.7-4.6ZM8.9 44c2.5 0 4.6 2.1 4.6 4.6 0 2.5-2.1 4.2-4.6 4.2a4.7 4.7 0 0 1-4.6-4.6c.3-2 2.1-4.2 4.6-4.2Zm66.7 163H49a4.7 4.7 0 0 1-4.6-4.6v-17.6c0-2.5 2-4.6 4.6-4.6 2.5 0 4.6 2.1 4.6 4.6v13.4h22.3c2.5 0 4.7 2 4.7 4.6-.7 2-2.9 4.2-5 4.2Zm106.4 0h-26.5a4.7 4.7 0 0 1-4.7-4.6c0-2.5 2.2-4.6 4.7-4.6h22V39.4H164a4.7 4.7 0 0 1-4.7-4.5c0-2.5 2.2-4.6 4.7-4.6h17.7c2.5 0 4.7 2.1 4.7 4.6V202c0 2.8-2.2 5-4.3 5v-.1ZM66.7 44a4.7 4.7 0 0 1-4.6-4.6V11c0-.7-.3-1.4-.7-1.4-.3-.3-.7-.7-1.4-.7-1 0-2.1 1-2.1 2.1v6.7c0 2.5-2.2 4.6-4.6 4.6a4.7 4.7 0 0 1-4.7-4.6V11a11 11 0 0 1 22 0v28.5a4.1 4.1 0 0 1-3.8 4.6ZM11 163c-6 0-11-5-11-11a11 11 0 0 1 22 0c.4 5.7-5 11-11 11Zm0-13.4c-1 0-2.1 1-2.1 2.2 0 1 1 2 2.1 2s2.2-1 2.2-2c0-1.1-.7-2.2-2.2-2.2Zm191 48.6c-6 0-11-5-11-11a11 11 0 0 1 22 0c0 5.7-5 11-11 11Zm0-13.4c-1 0-2.2 1-2.2 2.2 0 1 1 2 2.2 2 1 0 2.1-1 2.1-2 0-1.1-1-2.2-2.1-2.2Z"/>
  <path fill="#4C7FC7" d="M164.4 189.4h-33.8a4.7 4.7 0 0 1-4.6-4.6c0-2.4 2.2-4.6 4.6-4.6h29.2V21.8H35.5v158.4h63.2c2.5 0 4.6 2.2 4.6 4.6 0 2.5-2.2 4.6-4.6 4.6H31.2a4.7 4.7 0 0 1-4.6-4.6V17.6c0-2.5 2.2-4.6 4.6-4.6h133.2c2.5 0 4.6 2.1 4.6 4.6v167.2c-.4 2.5-2.5 4.6-4.6 4.6Z"/>
  <path fill="#4C7FC7" d="M120 188.7c-2.2 0-4-1-4.3-3.2-.7-1.7 0-3.8 1.4-5 0 0 .4 0 .4-.3 1.4-1 3.2-1 4.6-.3 1.4.7 2.5 2.1 2.5 3.9-.4 2.8-2.5 4.9-4.7 4.9Zm-5.4-14.1a20.7 20.7 0 1 1 0-41.5c11.8 0 21 9.1 21 20.8a21.1 21.1 0 0 1-21 20.7Zm0-32.4a12 12 0 0 0-12 12 12 12 0 0 0 12 12 12 12 0 0 0 12.1-12c-.3-6.7-5.7-12-12-12Z"/>
  <path fill="#4C7FC7" d="M137.4 207h-1l-22.8-6.3c-2.5-.7-3.9-3.2-3.2-5.3.7-2.5 3.2-3.9 5.4-3.2l14.2 3.9-5-12.3c-1-2.2.3-5 2.5-5.7 2.1-1 5 .4 5.7 2.5l8.1 20.4c.7 1.4.4 3.2-.7 4.6-.7.7-1.7 1.4-3.2 1.4Z"/>
  <path fill="#4C7FC7" d="M91.2 207c-1.4 0-2.5-.7-3.2-1.4-1-1.4-1.4-3.2-.7-4.6l8.6-20.4c1-2.1 3.5-3.2 5.7-2.5 2 1 3.1 3.5 2.4 5.7l-5 12 11.4-2.9v-7c0-2.5 2.2-4.6 4.7-4.6s4.6 2.1 4.6 4.2v10.6c0 2-1.4 3.8-3.2 4.2l-23.1 6c-1.4.3-1.8.7-2.2.7Z"/>
  <path fill="#4C7FC7" d="M114.6 190.1c-3.2 0-6.3-1-8.8-3.1-2.5.3-5 .3-7.5-.7l-1.8-1c-2.8-1.9-5-4.3-6-7.5a13 13 0 0 1-7.4-6c-1.8-2.8-2.2-6-1.4-9.1a13.4 13.4 0 0 1-3.2-8.8c0-3.2 1-6.3 3.2-8.8a14 14 0 0 1 1.4-9.2c1.7-2.8 4.2-5 7.4-6 1-3.1 3.2-5.6 6-7.3 2.9-1.8 6-2.2 9.3-1.5a14.3 14.3 0 0 1 17.8 0 14 14 0 0 1 9.1 1.5 13 13 0 0 1 6 7.3c3.3 1 5.8 3.2 7.5 6a12 12 0 0 1 1.5 9.2 13.6 13.6 0 0 1 0 17.6c.7 3.2 0 6.3-1.5 9.2a14.2 14.2 0 0 1-7.4 6c-1 3.1-3.2 5.6-6 7.3l-1.8 1c-2.5 1.1-5 1.1-7.5.8-.3.3-.7.7-1 .7a13.5 13.5 0 0 1-7.9 2.4Zm-8.5-12c2.2 0 4 .7 5.3 2.2.7.7 1.8 1 3.2 1 1 0 1.8-.3 2.5-.7.4 0 .4-.3.4-.3a8 8 0 0 1 5.3-2.2c.7 0 1 0 1.8.4 1 .3 1.8 0 2.5 0 .3 0 .3-.4.7-.4 1-.6 1.8-1.4 2.1-2.4a8 8 0 0 1 5.4-5.3c1-.4 2.1-1 2.5-2.1.7-1 .7-2.2.3-3.2-.7-2.5 0-5.3 1.8-7.4.7-.7 1-1.8 1-3.1 0-1-.3-2.2-1-3.2a9.2 9.2 0 0 1-2.1-7.4c.3-1 0-2.1-.4-3.2-.7-1-1.4-1.7-2.5-2a8 8 0 0 1-5.3-5.4c-.4-1-1-2-2.2-2.4-1-.7-2-.7-3.1-.4 0-.3-.4-.3-1.1-.3a7 7 0 0 1-5.3-2.2c-.7-.7-1.8-1-3.2-1a5 5 0 0 0-3.2 1 8 8 0 0 1-5.4 2.2c-.7 0-1 0-1.7-.4-1-.3-2.5 0-3.2.4-1 .7-1.8 1.4-2.2 2.4a8 8 0 0 1-5.3 5.3c-1 .4-2.1 1-2.5 2.1-.7 1-.7 2.2-.4 3.2.8 2.5 0 5.3-2 7.4-.8.7-1.1 1.8-1.1 3.2 0 1 .3 2 1 3.1a8.8 8.8 0 0 1 2.1 7.4c-.3 1 0 2.1.4 3.2.7 1 1.4 1.7 2.5 2A8 8 0 0 1 99 175c.4 1 1 2.1 2.2 2.5.3 0 .3.3.7.3.7.3 1.8.3 2.5 0 .3.3 1 .3 1.7.3Zm40.5-72.5H49a4.7 4.7 0 0 1-4.6-4.6c0-2.4 2-4.6 4.6-4.6h97.6c2.5 0 4.6 2.2 4.6 4.6-.3 2.5-2.5 4.6-4.6 4.6Zm0-13H49a4.7 4.7 0 0 1-4.6-4.6c0-2.5 2-4.5 4.6-4.5h97.6c2.5 0 4.6 2 4.6 4.5-.3 2.5-2.5 4.6-4.6 4.6Zm0-13.4H49a4.7 4.7 0 0 1-4.6-4.6c0-2.5 2-4.6 4.6-4.6h97.6c2.5 0 4.6 2.1 4.6 4.6-.3 2.5-2.5 4.6-4.6 4.6Zm-31.2-13H79.9a4.7 4.7 0 0 1-4.7-4.6c0-2.5 2.2-4.6 4.7-4.6h35.5c2.5 0 4.6 2.2 4.6 4.6 0 2.4-2.1 4.6-4.6 4.6Z"/>
</svg>