<svg width="500" height="369" viewBox="0 0 500 369" fill="none" xmlns="http://www.w3.org/2000/svg">
<g clip-path="url(#clip0_2366_15974)">
<path d="M449.9 295.54H416.78V295.79H449.9V295.54Z" fill="#EBEBEB"/>
<path d="M331.22 298.26H322.53V298.51H331.22V298.26Z" fill="#EBEBEB"/>
<path d="M415.78 286.26H396.59V286.51H415.78V286.26Z" fill="#EBEBEB"/>
<path d="M95.65 287.94H52.46V288.19H95.65V287.94Z" fill="#EBEBEB"/>
<path d="M110.89 287.94H104.56V288.19H110.89V287.94Z" fill="#EBEBEB"/>
<path d="M225.15 292.16H131.47V292.41H225.15V292.16Z" fill="#EBEBEB"/>
<path d="M237.01 234.85H43.92C40.77 234.85 38.21 232.29 38.21 229.14V-42.29C38.21 -45.44 40.77 -48 43.92 -48H237.01C240.16 -48 242.72 -45.44 242.72 -42.29V229.14C242.72 232.29 240.16 234.85 237.01 234.85ZM43.92 -47.75C40.91 -47.75 38.46 -45.3 38.46 -42.29V229.14C38.46 232.15 40.91 234.6 43.92 234.6H237.01C240.02 234.6 242.47 232.15 242.47 229.14V-42.29C242.47 -45.3 240.02 -47.75 237.01 -47.75H43.92Z" fill="#EBEBEB"/>
<path d="M453.31 234.85H260.21C257.06 234.85 254.5 232.29 254.5 229.14V-42.29C254.5 -45.44 257.06 -48 260.21 -48H453.31C456.46 -48 459.02 -45.44 459.02 -42.29V229.14C459.02 232.29 456.46 234.85 453.31 234.85ZM260.21 -47.75C257.2 -47.75 254.75 -45.3 254.75 -42.29V229.14C254.75 232.15 257.2 234.6 260.21 234.6H453.31C456.32 234.6 458.77 232.15 458.77 229.14V-42.29C458.77 -45.3 456.32 -47.75 453.31 -47.75H260.21Z" fill="#EBEBEB"/>
<path d="M500 279.45H0V279.7H500V279.45Z" fill="#EBEBEB"/>
<path d="M150.8 111.97L91.5001 126.05C90.4801 126.29 89.4501 125.66 89.2101 124.64L70.3801 45.34C70.1401 44.32 70.7701 43.29 71.7901 43.05L108.32 34.37L138.84 53.35L152.22 109.67C152.46 110.69 151.83 111.72 150.81 111.96L150.8 111.97Z" fill="#F0F0F0"/>
<path d="M138.84 53.36L108.32 34.38L106.38 34.84L113.57 65.11L140.13 58.8L138.84 53.36Z" fill="#E6E6E6"/>
<path d="M138.79 53.15L114.17 59L108.32 34.38L138.79 53.15Z" fill="#FAFAFA"/>
<path d="M130.814 62.6045L86.9539 73.0211L93.5555 100.818L137.416 90.4014L130.814 62.6045Z" fill="#E6E6E6"/>
<path d="M103.59 88.34L96.3101 100.15L115.41 95.62L103.59 88.34Z" fill="#FAFAFA"/>
<path d="M111.11 96.64L137.42 90.39L136.82 87.86L122.11 78.79L111.11 96.64Z" fill="#FAFAFA"/>
<path d="M111.54 77.61C112.15 80.2 110.56 82.79 107.97 83.41C105.38 84.02 102.79 82.42 102.17 79.84C101.56 77.25 103.16 74.66 105.74 74.04C108.33 73.43 110.92 75.02 111.54 77.61Z" fill="#FAFAFA"/>
<path d="M406.11 45.71L362.85 25.56C362.1 25.21 361.78 24.32 362.13 23.58L389.08 -34.26C389.43 -35.01 390.32 -35.33 391.06 -34.98L417.71 -22.57L427.24 3.91003L408.1 45C407.75 45.75 406.86 46.07 406.12 45.72L406.11 45.71Z" fill="#EBEBEB"/>
<path d="M427.23 51.9L417.7 25.42L416.29 24.76L406 46.84L425.38 55.87L427.23 51.9Z" fill="#E0E0E0"/>
<path d="M427.3 51.75L409.33 43.38L417.7 25.42L427.3 51.75Z" fill="#F5F5F5"/>
<path d="M408.07 29.3001C397.41 24.3301 386.74 19.3601 376.08 14.4001C373.93 13.4001 372.04 16.6001 374.21 17.6101C384.87 22.5801 395.54 27.5501 406.2 32.5101C408.35 33.5101 410.24 30.3101 408.07 29.3001Z" fill="#FAFAFA"/>
<path d="M383.65 45.3301C394.31 50.3001 404.98 55.2701 415.64 60.2301C417.79 61.2301 419.68 58.0301 417.51 57.0201C406.85 52.0501 396.18 47.0801 385.52 42.1201C383.37 41.1201 381.48 44.3201 383.65 45.3301Z" fill="#FAFAFA"/>
<path d="M378.7 7.74003C389.36 12.71 400.03 17.68 410.69 22.64C412.84 23.64 414.73 20.44 412.56 19.43C401.9 14.46 391.23 9.49002 380.57 4.53002C378.42 3.53002 376.53 6.73003 378.7 7.74003Z" fill="#FAFAFA"/>
<path d="M302.99 226.41L302 223.14C301.67 222.05 300.78 221.23 299.67 220.99L275.55 215.85C273.87 215.49 272.21 216.56 271.85 218.25L262.02 264.36C261.65 266.11 262.76 267.83 264.51 268.2L319.32 279.89C321.07 280.26 322.79 279.15 323.16 277.4L331.74 237.16C332.1 235.48 331.03 233.82 329.34 233.46L305 228.27C304.04 228.07 303.27 227.35 302.98 226.41H302.99Z" fill="#E0E0E0"/>
<path d="M329.35 233.46L305.23 228.32C304.12 228.08 302.97 228.47 302.22 229.33L299.99 231.91C299.35 232.65 298.35 232.99 297.39 232.78L273.05 227.59C271.37 227.23 269.71 228.3 269.35 229.99L262.02 264.36C261.65 266.11 262.76 267.83 264.51 268.2L319.32 279.89C321.07 280.26 322.79 279.15 323.16 277.4L331.74 237.16C332.1 235.48 331.03 233.82 329.34 233.46H329.35Z" fill="#F0F0F0"/>
<path d="M245.18 320.76C352.263 320.76 439.07 315.692 439.07 309.44C439.07 303.188 352.263 298.12 245.18 298.12C138.098 298.12 51.29 303.188 51.29 309.44C51.29 315.692 138.098 320.76 245.18 320.76Z" fill="#F5F5F5"/>
<path d="M364.51 10.51H130.67C124.103 10.51 118.78 15.8333 118.78 22.4V200.19C118.78 206.757 124.103 212.08 130.67 212.08H364.51C371.077 212.08 376.4 206.757 376.4 200.19V22.4C376.4 15.8333 371.077 10.51 364.51 10.51Z" fill="#407BFF"/>
<path opacity="0.4" d="M364.51 10.51H130.67C124.103 10.51 118.78 15.8333 118.78 22.4V200.19C118.78 206.757 124.103 212.08 130.67 212.08H364.51C371.077 212.08 376.4 206.757 376.4 200.19V22.4C376.4 15.8333 371.077 10.51 364.51 10.51Z" fill="white"/>
<path opacity="0.8" d="M130.67 24.15H364.5C368.86 24.15 372.39 27.69 372.39 32.04V200.18C372.39 204.54 368.85 208.07 364.5 208.07H130.67C126.31 208.07 122.78 204.53 122.78 200.18V32.05C122.78 27.69 126.32 24.16 130.67 24.16V24.15Z" fill="white"/>
<path opacity="0.3" d="M137.15 13.71H134.35C133.306 13.71 132.46 14.5561 132.46 15.6V18.4C132.46 19.4438 133.306 20.29 134.35 20.29H137.15C138.194 20.29 139.04 19.4438 139.04 18.4V15.6C139.04 14.5561 138.194 13.71 137.15 13.71Z" fill="white"/>
<path opacity="0.5" d="M147.82 13.71H145.02C143.976 13.71 143.13 14.5561 143.13 15.6V18.4C143.13 19.4438 143.976 20.29 145.02 20.29H147.82C148.864 20.29 149.71 19.4438 149.71 18.4V15.6C149.71 14.5561 148.864 13.71 147.82 13.71Z" fill="white"/>
<path opacity="0.7" d="M158.5 13.71H155.7C154.656 13.71 153.81 14.5561 153.81 15.6V18.4C153.81 19.4438 154.656 20.29 155.7 20.29H158.5C159.544 20.29 160.39 19.4438 160.39 18.4V15.6C160.39 14.5561 159.544 13.71 158.5 13.71Z" fill="white"/>
<path d="M169.82 65.2999L168.71 63.2799C168.34 62.6099 167.64 62.1899 166.87 62.1899H150.23C149.07 62.1899 148.13 63.1299 148.13 64.2899V96.0899C148.13 97.2999 149.11 98.2699 150.31 98.2699H188.12C189.33 98.2699 190.3 97.2899 190.3 96.0899V68.3299C190.3 67.1699 189.36 66.2299 188.2 66.2299H171.41C170.75 66.2299 170.14 65.8699 169.82 65.2899V65.2999Z" fill="#407BFF"/>
<path opacity="0.3" d="M169.82 65.2999L168.71 63.2799C168.34 62.6099 167.64 62.1899 166.87 62.1899H150.23C149.07 62.1899 148.13 63.1299 148.13 64.2899V96.0899C148.13 97.2999 149.11 98.2699 150.31 98.2699H188.12C189.33 98.2699 190.3 97.2899 190.3 96.0899V68.3299C190.3 67.1699 189.36 66.2299 188.2 66.2299H171.41C170.75 66.2299 170.14 65.8699 169.82 65.2899V65.2999Z" fill="white"/>
<path d="M185.05 67.5199H152.8V91.6299H185.05V67.5199Z" fill="#263238"/>
<path opacity="0.8" d="M185.05 67.5199H152.8V91.6299H185.05V67.5199Z" fill="white"/>
<path d="M187.38 69.9399H150.47V97.5399H187.38V69.9399Z" fill="#263238"/>
<path opacity="0.9" d="M187.38 69.9399H150.47V97.5399H187.38V69.9399Z" fill="white"/>
<path d="M194.02 70.63C185.17 70.63 180.75 70.63 171.9 70.63C170.88 70.63 169.94 70.99 169.45 71.57C168.86 72.27 168.57 72.61 168 73.31C167.59 73.81 166.81 74.12 165.96 74.12C157.32 74.12 152.99 74.12 144.35 74.12C142.86 74.12 141.86 74.93 142.11 75.93C144.22 84.12 145.28 88.21 147.39 96.39C147.66 97.43 148.85 98.27 150.04 98.27H187.52C188.72 98.27 189.9 97.43 190.17 96.39C192.23 88.4 194.29 80.42 196.35 72.43C196.61 71.43 195.57 70.62 194.02 70.62V70.63Z" fill="#407BFF"/>
<g opacity="0.6">
<path d="M194.02 70.63C185.17 70.63 180.75 70.63 171.9 70.63C170.88 70.63 169.94 70.99 169.45 71.57C168.86 72.27 168.57 72.61 168 73.31C167.59 73.81 166.81 74.12 165.96 74.12C157.32 74.12 152.99 74.12 144.35 74.12C142.86 74.12 141.86 74.93 142.11 75.93C144.22 84.12 145.28 88.21 147.39 96.39C147.66 97.43 148.85 98.27 150.04 98.27H187.52C188.72 98.27 189.9 97.43 190.17 96.39C192.23 88.4 194.29 80.42 196.35 72.43C196.61 71.43 195.57 70.62 194.02 70.62V70.63Z" fill="white"/>
</g>
<path d="M148.95 110.27C147.56 110.27 146.43 109.14 146.43 107.75C146.43 106.36 147.56 105.23 148.95 105.23H189.28C190.67 105.23 191.8 106.36 191.8 107.75C191.8 109.14 190.67 110.27 189.28 110.27H148.95Z" fill="#263238"/>
<path opacity="0.6" d="M148.95 110.27C147.56 110.27 146.43 109.14 146.43 107.75C146.43 106.36 147.56 105.23 148.95 105.23H189.28C190.67 105.23 191.8 106.36 191.8 107.75C191.8 109.14 190.67 110.27 189.28 110.27H148.95Z" fill="white"/>
<path d="M245.04 65.2999L243.93 63.2799C243.56 62.6099 242.86 62.1899 242.09 62.1899H225.45C224.29 62.1899 223.35 63.1299 223.35 64.2899V96.0899C223.35 97.2999 224.33 98.2699 225.53 98.2699H263.34C264.55 98.2699 265.52 97.2899 265.52 96.0899V68.3299C265.52 67.1699 264.58 66.2299 263.42 66.2299H246.63C245.97 66.2299 245.36 65.8699 245.04 65.2899V65.2999Z" fill="#407BFF"/>
<path opacity="0.3" d="M245.04 65.2999L243.93 63.2799C243.56 62.6099 242.86 62.1899 242.09 62.1899H225.45C224.29 62.1899 223.35 63.1299 223.35 64.2899V96.0899C223.35 97.2999 224.33 98.2699 225.53 98.2699H263.34C264.55 98.2699 265.52 97.2899 265.52 96.0899V68.3299C265.52 67.1699 264.58 66.2299 263.42 66.2299H246.63C245.97 66.2299 245.36 65.8699 245.04 65.2899V65.2999Z" fill="white"/>
<path d="M260.27 67.5199H228.02V91.6299H260.27V67.5199Z" fill="#263238"/>
<path opacity="0.8" d="M260.27 67.5199H228.02V91.6299H260.27V67.5199Z" fill="white"/>
<path d="M262.6 69.9399H225.69V97.5399H262.6V69.9399Z" fill="#263238"/>
<path opacity="0.9" d="M262.6 69.9399H225.69V97.5399H262.6V69.9399Z" fill="white"/>
<path d="M269.23 70.63C260.38 70.63 255.96 70.63 247.11 70.63C246.09 70.63 245.15 70.99 244.66 71.57C244.07 72.27 243.78 72.61 243.21 73.31C242.8 73.81 242.02 74.12 241.17 74.12C232.53 74.12 228.2 74.12 219.56 74.12C218.07 74.12 217.07 74.93 217.32 75.93C219.43 84.12 220.49 88.21 222.6 96.39C222.87 97.43 224.06 98.27 225.25 98.27H262.73C263.93 98.27 265.11 97.43 265.38 96.39C267.44 88.4 269.5 80.42 271.56 72.43C271.82 71.43 270.78 70.62 269.23 70.62V70.63Z" fill="#407BFF"/>
<g opacity="0.6">
<path d="M269.23 70.63C260.38 70.63 255.96 70.63 247.11 70.63C246.09 70.63 245.15 70.99 244.66 71.57C244.07 72.27 243.78 72.61 243.21 73.31C242.8 73.81 242.02 74.12 241.17 74.12C232.53 74.12 228.2 74.12 219.56 74.12C218.07 74.12 217.07 74.93 217.32 75.93C219.43 84.12 220.49 88.21 222.6 96.39C222.87 97.43 224.06 98.27 225.25 98.27H262.73C263.93 98.27 265.11 97.43 265.38 96.39C267.44 88.4 269.5 80.42 271.56 72.43C271.82 71.43 270.78 70.62 269.23 70.62V70.63Z" fill="white"/>
</g>
<path d="M224.27 110.27C222.88 110.27 221.75 109.14 221.75 107.75C221.75 106.36 222.88 105.23 224.27 105.23H264.6C265.99 105.23 267.12 106.36 267.12 107.75C267.12 109.14 265.99 110.27 264.6 110.27H224.27Z" fill="#263238"/>
<path opacity="0.6" d="M224.27 110.27C222.88 110.27 221.75 109.14 221.75 107.75C221.75 106.36 222.88 105.23 224.27 105.23H264.6C265.99 105.23 267.12 106.36 267.12 107.75C267.12 109.14 265.99 110.27 264.6 110.27H224.27Z" fill="white"/>
<path d="M169.82 145.59L168.71 143.57C168.34 142.9 167.64 142.48 166.87 142.48H150.23C149.07 142.48 148.13 143.42 148.13 144.58V176.38C148.13 177.59 149.11 178.56 150.31 178.56H188.12C189.33 178.56 190.3 177.58 190.3 176.38V148.62C190.3 147.46 189.36 146.52 188.2 146.52H171.41C170.75 146.52 170.14 146.16 169.82 145.58V145.59Z" fill="#407BFF"/>
<path opacity="0.3" d="M169.82 145.59L168.71 143.57C168.34 142.9 167.64 142.48 166.87 142.48H150.23C149.07 142.48 148.13 143.42 148.13 144.58V176.38C148.13 177.59 149.11 178.56 150.31 178.56H188.12C189.33 178.56 190.3 177.58 190.3 176.38V148.62C190.3 147.46 189.36 146.52 188.2 146.52H171.41C170.75 146.52 170.14 146.16 169.82 145.58V145.59Z" fill="white"/>
<path d="M185.05 147.8H152.8V171.91H185.05V147.8Z" fill="#263238"/>
<path opacity="0.8" d="M185.05 147.8H152.8V171.91H185.05V147.8Z" fill="white"/>
<path d="M187.38 150.22H150.47V177.82H187.38V150.22Z" fill="#263238"/>
<path opacity="0.9" d="M187.38 150.22H150.47V177.82H187.38V150.22Z" fill="white"/>
<path d="M194.02 150.92C185.17 150.92 180.75 150.92 171.9 150.92C170.88 150.92 169.94 151.28 169.45 151.86C168.86 152.56 168.57 152.9 168 153.6C167.59 154.1 166.81 154.41 165.96 154.41C157.32 154.41 152.99 154.41 144.35 154.41C142.86 154.41 141.86 155.22 142.11 156.22C144.22 164.41 145.28 168.5 147.39 176.68C147.66 177.72 148.85 178.56 150.04 178.56H187.52C188.72 178.56 189.9 177.72 190.17 176.68C192.23 168.69 194.29 160.71 196.35 152.72C196.61 151.72 195.57 150.91 194.02 150.91V150.92Z" fill="#407BFF"/>
<g opacity="0.6">
<path d="M194.02 150.92C185.17 150.92 180.75 150.92 171.9 150.92C170.88 150.92 169.94 151.28 169.45 151.86C168.86 152.56 168.57 152.9 168 153.6C167.59 154.1 166.81 154.41 165.96 154.41C157.32 154.41 152.99 154.41 144.35 154.41C142.86 154.41 141.86 155.22 142.11 156.22C144.22 164.41 145.28 168.5 147.39 176.68C147.66 177.72 148.85 178.56 150.04 178.56H187.52C188.72 178.56 189.9 177.72 190.17 176.68C192.23 168.69 194.29 160.71 196.35 152.72C196.61 151.72 195.57 150.91 194.02 150.91V150.92Z" fill="white"/>
</g>
<path d="M148.95 191.56C147.56 191.56 146.43 190.43 146.43 189.04C146.43 187.65 147.56 186.52 148.95 186.52H189.28C190.67 186.52 191.8 187.65 191.8 189.04C191.8 190.43 190.67 191.56 189.28 191.56H148.95Z" fill="#263238"/>
<path opacity="0.6" d="M148.95 191.56C147.56 191.56 146.43 190.43 146.43 189.04C146.43 187.65 147.56 186.52 148.95 186.52H189.28C190.67 186.52 191.8 187.65 191.8 189.04C191.8 190.43 190.67 191.56 189.28 191.56H148.95Z" fill="white"/>
<path d="M245.04 145.59L243.93 143.57C243.56 142.9 242.86 142.48 242.09 142.48H225.45C224.29 142.48 223.35 143.42 223.35 144.58V176.38C223.35 177.59 224.33 178.56 225.53 178.56H263.34C264.55 178.56 265.52 177.58 265.52 176.38V148.62C265.52 147.46 264.58 146.52 263.42 146.52H246.63C245.97 146.52 245.36 146.16 245.04 145.58V145.59Z" fill="#407BFF"/>
<path opacity="0.3" d="M245.04 145.59L243.93 143.57C243.56 142.9 242.86 142.48 242.09 142.48H225.45C224.29 142.48 223.35 143.42 223.35 144.58V176.38C223.35 177.59 224.33 178.56 225.53 178.56H263.34C264.55 178.56 265.52 177.58 265.52 176.38V148.62C265.52 147.46 264.58 146.52 263.42 146.52H246.63C245.97 146.52 245.36 146.16 245.04 145.58V145.59Z" fill="white"/>
<path d="M260.27 147.8H228.02V171.91H260.27V147.8Z" fill="#263238"/>
<path opacity="0.8" d="M260.27 147.8H228.02V171.91H260.27V147.8Z" fill="white"/>
<path d="M262.6 150.22H225.69V177.82H262.6V150.22Z" fill="#263238"/>
<path opacity="0.9" d="M262.6 150.22H225.69V177.82H262.6V150.22Z" fill="white"/>
<path d="M269.23 150.92C260.38 150.92 255.96 150.92 247.11 150.92C246.09 150.92 245.15 151.28 244.66 151.86C244.07 152.56 243.78 152.9 243.21 153.6C242.8 154.1 242.02 154.41 241.17 154.41C232.53 154.41 228.2 154.41 219.56 154.41C218.07 154.41 217.07 155.22 217.32 156.22C219.43 164.41 220.49 168.5 222.6 176.68C222.87 177.72 224.06 178.56 225.25 178.56H262.73C263.93 178.56 265.11 177.72 265.38 176.68C267.44 168.69 269.5 160.71 271.56 152.72C271.82 151.72 270.78 150.91 269.23 150.91V150.92Z" fill="#407BFF"/>
<g opacity="0.6">
<path d="M269.23 150.92C260.38 150.92 255.96 150.92 247.11 150.92C246.09 150.92 245.15 151.28 244.66 151.86C244.07 152.56 243.78 152.9 243.21 153.6C242.8 154.1 242.02 154.41 241.17 154.41C232.53 154.41 228.2 154.41 219.56 154.41C218.07 154.41 217.07 155.22 217.32 156.22C219.43 164.41 220.49 168.5 222.6 176.68C222.87 177.72 224.06 178.56 225.25 178.56H262.73C263.93 178.56 265.11 177.72 265.38 176.68C267.44 168.69 269.5 160.71 271.56 152.72C271.82 151.72 270.78 150.91 269.23 150.91V150.92Z" fill="white"/>
</g>
<path d="M224.27 191.56C222.88 191.56 221.75 190.43 221.75 189.04C221.75 187.65 222.88 186.52 224.27 186.52H264.6C265.99 186.52 267.12 187.65 267.12 189.04C267.12 190.43 265.99 191.56 264.6 191.56H224.27Z" fill="#263238"/>
<path opacity="0.6" d="M224.27 191.56C222.88 191.56 221.75 190.43 221.75 189.04C221.75 187.65 222.88 186.52 224.27 186.52H264.6C265.99 186.52 267.12 187.65 267.12 189.04C267.12 190.43 265.99 191.56 264.6 191.56H224.27Z" fill="white"/>
<path d="M318.56 145.59L317.45 143.57C317.08 142.9 316.38 142.48 315.61 142.48H298.97C297.81 142.48 296.87 143.42 296.87 144.58V176.38C296.87 177.59 297.85 178.56 299.05 178.56H336.86C338.07 178.56 339.04 177.58 339.04 176.38V148.62C339.04 147.46 338.1 146.52 336.94 146.52H320.15C319.49 146.52 318.88 146.16 318.56 145.58V145.59Z" fill="#407BFF"/>
<path opacity="0.3" d="M318.56 145.59L317.45 143.57C317.08 142.9 316.38 142.48 315.61 142.48H298.97C297.81 142.48 296.87 143.42 296.87 144.58V176.38C296.87 177.59 297.85 178.56 299.05 178.56H336.86C338.07 178.56 339.04 177.58 339.04 176.38V148.62C339.04 147.46 338.1 146.52 336.94 146.52H320.15C319.49 146.52 318.88 146.16 318.56 145.58V145.59Z" fill="white"/>
<path d="M333.79 147.8H301.54V171.91H333.79V147.8Z" fill="#263238"/>
<path opacity="0.8" d="M333.79 147.8H301.54V171.91H333.79V147.8Z" fill="white"/>
<path d="M336.12 150.22H299.21V177.82H336.12V150.22Z" fill="#263238"/>
<path opacity="0.9" d="M336.12 150.22H299.21V177.82H336.12V150.22Z" fill="white"/>
<path d="M342.75 150.92C333.9 150.92 329.48 150.92 320.63 150.92C319.61 150.92 318.67 151.28 318.18 151.86C317.59 152.56 317.3 152.9 316.73 153.6C316.32 154.1 315.54 154.41 314.69 154.41C306.05 154.41 301.72 154.41 293.08 154.41C291.59 154.41 290.59 155.22 290.84 156.22C292.95 164.41 294.01 168.5 296.12 176.68C296.39 177.72 297.58 178.56 298.77 178.56H336.25C337.45 178.56 338.63 177.72 338.9 176.68C340.96 168.69 343.02 160.71 345.08 152.72C345.34 151.72 344.3 150.91 342.75 150.91V150.92Z" fill="#407BFF"/>
<g opacity="0.6">
<path d="M342.75 150.92C333.9 150.92 329.48 150.92 320.63 150.92C319.61 150.92 318.67 151.28 318.18 151.86C317.59 152.56 317.3 152.9 316.73 153.6C316.32 154.1 315.54 154.41 314.69 154.41C306.05 154.41 301.72 154.41 293.08 154.41C291.59 154.41 290.59 155.22 290.84 156.22C292.95 164.41 294.01 168.5 296.12 176.68C296.39 177.72 297.58 178.56 298.77 178.56H336.25C337.45 178.56 338.63 177.72 338.9 176.68C340.96 168.69 343.02 160.71 345.08 152.72C345.34 151.72 344.3 150.91 342.75 150.91V150.92Z" fill="white"/>
</g>
<path d="M297.79 191.56C296.4 191.56 295.27 190.43 295.27 189.04C295.27 187.65 296.4 186.52 297.79 186.52H338.12C339.51 186.52 340.64 187.65 340.64 189.04C340.64 190.43 339.51 191.56 338.12 191.56H297.79Z" fill="#263238"/>
<path opacity="0.6" d="M297.79 191.56C296.4 191.56 295.27 190.43 295.27 189.04C295.27 187.65 296.4 186.52 297.79 186.52H338.12C339.51 186.52 340.64 187.65 340.64 189.04C340.64 190.43 339.51 191.56 338.12 191.56H297.79Z" fill="white"/>
<path d="M297.27 110.27C295.88 110.27 294.75 109.14 294.75 107.75C294.75 106.36 295.88 105.23 297.27 105.23H337.6C338.99 105.23 340.12 106.36 340.12 107.75C340.12 109.14 338.99 110.27 337.6 110.27H297.27Z" fill="#263238"/>
<path opacity="0.6" d="M297.27 110.27C295.88 110.27 294.75 109.14 294.75 107.75C294.75 106.36 295.88 105.23 297.27 105.23H337.6C338.99 105.23 340.12 106.36 340.12 107.75C340.12 109.14 338.99 110.27 337.6 110.27H297.27Z" fill="white"/>
<path d="M295.89 99.17L304.49 124.33C304.85 125.38 306.1 126.23 307.28 126.23H324.2C324.98 126.23 325.57 125.85 325.73 125.24L326.23 123.41C326.38 122.88 326.88 122.56 327.56 122.56H344.64C345.82 122.56 346.49 121.71 346.13 120.66L338.79 99.17L338.69 94.97V62.63C338.69 61.45 337.73 60.49 336.55 60.49H319.63C318.85 60.49 318.13 60.91 317.76 61.6L316.63 63.65C316.3 64.24 315.68 64.61 315.01 64.61H297.93C296.75 64.61 295.79 65.57 295.79 66.75V94.98L295.89 99.18V99.17Z" fill="#407BFF"/>
<path opacity="0.6" d="M295.89 99.17L304.49 124.33C304.85 125.38 306.1 126.23 307.28 126.23H324.2C324.98 126.23 325.57 125.85 325.73 125.24L326.23 123.41C326.38 122.88 326.88 122.56 327.56 122.56H344.64C345.82 122.56 346.49 121.71 346.13 120.66L338.79 99.17L338.69 94.97V62.63C338.69 61.45 337.73 60.49 336.55 60.49H319.63C318.85 60.49 318.13 60.91 317.76 61.6L316.63 63.65C316.3 64.24 315.68 64.61 315.01 64.61H297.93C296.75 64.61 295.79 65.57 295.79 66.75V94.98L295.89 99.18V99.17Z" fill="white"/>
<path d="M295.89 99.17L304.49 124.33C304.85 125.38 306.1 126.23 307.28 126.23H324.2C324.98 126.23 325.57 125.85 325.73 125.24L326.23 123.41C326.38 122.88 326.88 122.56 327.56 122.56H344.64C345.82 122.56 346.49 121.71 346.13 120.66L338.79 99.17H295.9H295.89Z" fill="#407BFF"/>
<path opacity="0.3" d="M295.89 99.17L304.49 124.33C304.85 125.38 306.1 126.23 307.28 126.23H324.2C324.98 126.23 325.57 125.85 325.73 125.24L326.23 123.41C326.38 122.88 326.88 122.56 327.56 122.56H344.64C345.82 122.56 346.49 121.71 346.13 120.66L338.79 99.17H295.9H295.89Z" fill="white"/>
<path opacity="0.1" d="M300.03 99.17H334.84L341.19 117.07H306.38L300.03 99.17Z" fill="black"/>
<path d="M300.03 99.1799H334.84V70.9699H300.03V99.1799Z" fill="#263238"/>
<path opacity="0.8" d="M300.03 99.1799H334.84V70.9699H300.03V99.1799Z" fill="white"/>
<path d="M300.03 99.17H334.84L341.9 78.84H307.08L300.03 99.17Z" fill="#263238"/>
<path opacity="0.9" d="M300.03 99.17H334.84L341.9 78.84H307.08L300.03 99.17Z" fill="white"/>
<path d="M300.03 99.17H334.84L341.9 114.24H307.08L300.03 99.17Z" fill="#263238"/>
<path opacity="0.9" d="M300.03 99.17H334.84L341.9 114.24H307.08L300.03 99.17Z" fill="white"/>
<path d="M300.03 99.1699H334.84L346.23 91.4299H311.41L300.03 99.1699Z" fill="#263238"/>
<path opacity="0.8" d="M300.03 99.1699H334.84L346.23 91.4299H311.41L300.03 99.1699Z" fill="white"/>
<path d="M108.3 275.3C109.15 261.73 115.1 247.99 124.68 238.68C127.07 236.36 132.09 231.75 128.02 229.33C123.37 226.56 114.45 239.53 113.2 241.93C115.83 231.59 123.84 224.11 132.52 219.81C136.81 217.69 140.9 215.69 136.33 212.53C131.65 209.3 121.87 217.03 119.59 220.3C125.01 212.74 131.86 205.15 138.88 200.62C146.63 195.62 143.13 187.28 135.14 193.72C130.19 197.72 122.05 207.7 122.05 207.7C122.03 207.69 134.84 182.01 130.98 179.65C126.02 176.62 117.22 211.66 114.8 218.55C115.44 212.83 116.05 198.99 111.75 198.39C107.86 197.85 108.81 232.31 107.91 238.39C107.34 241.05 107.09 242.38 106.63 245.07C106.21 240.48 103.65 228.38 99.77 229.78C96.49 230.96 98.52 240.02 99.37 244.32C101.43 254.73 103.51 264.8 103.53 275.48C105.44 275.41 106.4 275.38 108.31 275.32L108.3 275.3Z" fill="#407BFF"/>
<path opacity="0.4" d="M112.45 205.13C113.02 212.62 113.54 220.21 112.83 227.73C114.38 223.35 116.16 219.08 118.17 214.93C118.19 214.86 118.21 214.8 118.26 214.73C118.26 214.73 118.26 214.72 118.27 214.71C118.88 213.46 119.49 212.22 120.14 211C120.4 210.51 121.04 210.73 120.95 211.18C125.69 205.16 131.42 199.68 138.24 196.16C138.74 195.9 139.08 196.66 138.61 196.93C130.69 201.41 124.8 207.73 118.97 215.19C116.54 220.13 114.41 225.4 112.73 230.64C116.92 223.8 123.75 218.92 131.37 216.6C131.89 216.44 132.18 217.24 131.67 217.41C121.11 220.74 113.71 228.13 110.66 237.79C110.63 237.87 110.6 237.95 110.56 238C109.09 244.18 107.97 250.18 107.11 256.47C110.09 247.61 116.5 239.77 123.86 234.28C124.31 233.95 124.71 234.71 124.27 235.04C115.44 241.69 109.74 250.47 106.75 260.57C106.75 260.59 106.74 260.6 106.73 260.61C106.41 264.59 106.27 268.59 106.31 272.6C106.31 273.24 105.48 273.25 105.48 272.61C105.51 259.16 107.48 246.15 111.11 233.03C113.05 223.94 112.35 214.45 111.62 205.3C111.57 204.67 112.44 204.5 112.49 205.12L112.45 205.13Z" fill="white"/>
<path d="M107.3 275.28C106.29 259.19 99.2301 242.89 87.8701 231.85C85.0401 229.1 79.0901 223.64 83.9101 220.76C89.4201 217.47 100.01 232.86 101.48 235.7C98.3601 223.44 88.8601 214.56 78.5701 209.47C73.4801 206.95 68.6401 204.58 74.0601 200.84C79.6101 197.01 91.2101 206.17 93.9201 210.05C87.4901 201.08 79.3701 192.08 71.0401 186.71C61.8501 180.78 66.0001 170.89 75.4801 178.53C81.3601 183.27 91.0001 195.11 91.0001 195.11C91.0301 195.09 75.8301 164.64 80.4101 161.84C86.3001 158.24 96.7301 199.81 99.6001 207.97C98.8401 201.18 98.1101 184.77 103.21 184.06C107.82 183.42 106.69 224.28 107.77 231.5C108.45 234.65 108.75 236.24 109.28 239.42C109.78 233.98 112.82 219.62 117.42 221.28C121.31 222.68 118.9 233.43 117.89 238.52C115.44 250.87 112.98 262.81 112.96 275.47C110.69 275.39 109.56 275.35 107.29 275.28H107.3Z" fill="#407BFF"/>
<path opacity="0.2" d="M102.38 192.07C101.7 200.95 101.08 209.96 101.93 218.87C100.1 213.68 97.98 208.61 95.6 203.68C95.58 203.6 95.55 203.52 95.49 203.45C95.49 203.45 95.49 203.44 95.48 203.43C94.76 201.95 94.03 200.48 93.26 199.03C92.95 198.44 92.19 198.71 92.3 199.25C86.67 192.11 79.88 185.62 71.8 181.44C71.2 181.13 70.8 182.03 71.37 182.36C80.76 187.68 87.74 195.16 94.67 204.02C97.56 209.87 100.08 216.12 102.07 222.34C97.1 214.23 89 208.44 79.96 205.69C79.34 205.5 78.99 206.45 79.61 206.65C92.13 210.6 100.91 219.36 104.53 230.83C104.56 230.93 104.6 231.01 104.65 231.08C106.39 238.41 107.72 245.53 108.74 252.99C105.21 242.48 97.6 233.19 88.88 226.67C88.35 226.28 87.88 227.18 88.4 227.57C98.88 235.45 105.63 245.87 109.18 257.85C109.18 257.87 109.2 257.88 109.2 257.9C109.58 262.62 109.75 267.36 109.7 272.12C109.7 272.87 110.69 272.89 110.69 272.14C110.66 256.18 108.32 240.76 104.02 225.2C101.72 214.42 102.55 203.16 103.42 192.31C103.48 191.57 102.45 191.36 102.39 192.1L102.38 192.07Z" fill="white"/>
<path d="M107.3 275.28C106.29 259.19 99.2301 242.89 87.8701 231.85C85.0401 229.1 79.0901 223.64 83.9101 220.76C89.4201 217.47 100.01 232.86 101.48 235.7C98.3601 223.44 88.8601 214.56 78.5701 209.47C73.4801 206.95 68.6401 204.58 74.0601 200.84C79.6101 197.01 91.2101 206.17 93.9201 210.05C87.4901 201.08 79.3701 192.08 71.0401 186.71C61.8501 180.78 66.0001 170.89 75.4801 178.53C81.3601 183.27 91.0001 195.11 91.0001 195.11C91.0301 195.09 75.8301 164.64 80.4101 161.84C86.3001 158.24 96.7301 199.81 99.6001 207.97C98.8401 201.18 98.1101 184.77 103.21 184.06C107.82 183.42 106.69 224.28 107.77 231.5C108.45 234.65 108.75 236.24 109.28 239.42C109.78 233.98 112.82 219.62 117.42 221.28C121.31 222.68 118.9 233.43 117.89 238.52C115.44 250.87 112.98 262.81 112.96 275.47C110.69 275.39 109.56 275.35 107.29 275.28H107.3Z" fill="#407BFF"/>
<path opacity="0.2" d="M107.3 275.28C106.29 259.19 99.2301 242.89 87.8701 231.85C85.0401 229.1 79.0901 223.64 83.9101 220.76C89.4201 217.47 100.01 232.86 101.48 235.7C98.3601 223.44 88.8601 214.56 78.5701 209.47C73.4801 206.95 68.6401 204.58 74.0601 200.84C79.6101 197.01 91.2101 206.17 93.9201 210.05C87.4901 201.08 79.3701 192.08 71.0401 186.71C61.8501 180.78 66.0001 170.89 75.4801 178.53C81.3601 183.27 91.0001 195.11 91.0001 195.11C91.0301 195.09 75.8301 164.64 80.4101 161.84C86.3001 158.24 96.7301 199.81 99.6001 207.97C98.8401 201.18 98.1101 184.77 103.21 184.06C107.82 183.42 106.69 224.28 107.77 231.5C108.45 234.65 108.75 236.24 109.28 239.42C109.78 233.98 112.82 219.62 117.42 221.28C121.31 222.68 118.9 233.43 117.89 238.52C115.44 250.87 112.98 262.81 112.96 275.47C110.69 275.39 109.56 275.35 107.29 275.28H107.3Z" fill="white"/>
<path opacity="0.5" d="M102.38 192.07C101.7 200.95 101.08 209.96 101.93 218.87C100.1 213.68 97.98 208.61 95.6 203.68C95.58 203.6 95.55 203.52 95.49 203.45C95.49 203.45 95.49 203.44 95.48 203.43C94.76 201.95 94.03 200.48 93.26 199.03C92.95 198.44 92.19 198.71 92.3 199.25C86.67 192.11 79.88 185.62 71.8 181.44C71.2 181.13 70.8 182.03 71.37 182.36C80.76 187.68 87.74 195.16 94.67 204.02C97.56 209.87 100.08 216.12 102.07 222.34C97.1 214.23 89 208.44 79.96 205.69C79.34 205.5 78.99 206.45 79.61 206.65C92.13 210.6 100.91 219.36 104.53 230.83C104.56 230.93 104.6 231.01 104.65 231.08C106.39 238.41 107.72 245.53 108.74 252.99C105.21 242.48 97.6 233.19 88.88 226.67C88.35 226.28 87.88 227.18 88.4 227.57C98.88 235.45 105.63 245.87 109.18 257.85C109.18 257.87 109.2 257.88 109.2 257.9C109.58 262.62 109.75 267.36 109.7 272.12C109.7 272.87 110.69 272.89 110.69 272.14C110.66 256.18 108.32 240.76 104.02 225.2C101.72 214.42 102.55 203.16 103.42 192.31C103.48 191.57 102.45 191.36 102.39 192.1L102.38 192.07Z" fill="white"/>
<path d="M123.83 273.09H92.5501C90.5201 273.09 88.8701 274.74 88.8701 276.77V278.39C88.8701 280.42 90.5201 282.07 92.5501 282.07L96.1501 308.08H120.23L123.83 282.07C125.86 282.07 127.51 280.42 127.51 278.39V276.77C127.51 274.74 125.86 273.09 123.83 273.09Z" fill="#407BFF"/>
<path opacity="0.2" d="M123.83 273.09H92.5501C90.5201 273.09 88.8701 274.74 88.8701 276.77V278.39C88.8701 280.42 90.5201 282.07 92.5501 282.07L96.1501 308.08H120.23L123.83 282.07C125.86 282.07 127.51 280.42 127.51 278.39V276.77C127.51 274.74 125.86 273.09 123.83 273.09Z" fill="black"/>
<path opacity="0.2" d="M123.09 287.42L123.82 282.14H92.5601L93.2901 287.42H123.09Z" fill="black"/>
<path d="M388.8 93.1501C388.8 93.1501 406.71 108.55 406.71 117.68C406.71 126.07 388.92 135.06 381.1 136.22C379.29 136.49 373.77 136.22 373.77 136.22C372.08 136.22 370.57 135.15 370 133.56L369.91 133.3C369.4 131.85 369.74 130.22 370.84 129.16C371.67 128.36 372.75 127.59 374 127.39C376.82 126.95 380.8 130.92 380.8 130.92C380.8 130.92 398.17 120.47 398.17 118.56C398.17 116.65 390.23 110.39 387.87 106.93C385.89 104.03 383.85 99.8201 388.8 93.1501Z" fill="#B97964"/>
<path d="M389.25 92.2901C390.99 93.3301 394.91 96.3401 401.22 104.68C401.22 104.68 400.99 109.24 392.87 113.49C392.87 113.49 384.22 106.84 384.29 100.43C384.34 96.0501 386.14 93.6101 387.27 92.5101C387.8 91.9901 388.6 91.9101 389.24 92.2901H389.25Z" fill="#407BFF"/>
<path opacity="0.2" d="M387.42 107.99C389.87 111.19 392.87 113.5 392.87 113.5C393.09 113.38 393.3 113.27 393.51 113.15C394.33 103.35 391.25 97.1101 391.25 97.1101L388.19 101.28L387.42 107.98V107.99Z" fill="black"/>
<path opacity="0.2" d="M381.43 136.16C384.57 135.62 389.16 133.93 393.57 131.56C391.93 130.36 391.44 126.19 391.3 124.25C386.85 127.25 381.74 130.35 380.92 130.85L381.43 136.17V136.16Z" fill="#606060"/>
<path d="M391.72 113.22C391.72 113.22 398.95 109.32 401.22 103.44L402.57 105.72C402.57 105.72 400.23 111.45 393.12 114.65L391.72 113.21V113.22Z" fill="#407BFF"/>
<path opacity="0.5" d="M391.72 113.22C391.72 113.22 398.95 109.32 401.22 103.44L402.57 105.72C402.57 105.72 400.23 111.45 393.12 114.65L391.72 113.21V113.22Z" fill="white"/>
<path d="M383.13 106.54L382.12 105.24C381.79 104.81 381.24 104.59 380.7 104.68L368.99 106.53C368.17 106.66 367.62 107.43 367.75 108.24L371.3 130.63C371.43 131.48 372.23 132.06 373.08 131.92L399.69 127.7C400.54 127.57 401.12 126.77 400.98 125.92L397.89 106.38C397.76 105.56 396.99 105.01 396.18 105.14L384.36 107.01C383.89 107.08 383.42 106.9 383.13 106.52V106.54Z" fill="#407BFF"/>
<path opacity="0.4" d="M383.13 106.54L382.12 105.24C381.79 104.81 381.24 104.59 380.7 104.68L368.99 106.53C368.17 106.66 367.62 107.43 367.75 108.24L371.3 130.63C371.43 131.48 372.23 132.06 373.08 131.92L399.69 127.7C400.54 127.57 401.12 126.77 400.98 125.92L397.89 106.38C397.76 105.56 396.99 105.01 396.18 105.14L384.36 107.01C383.89 107.08 383.42 106.9 383.13 106.52V106.54Z" fill="white"/>
<path d="M396.18 105.16L384.47 107.01C383.93 107.1 383.48 107.47 383.3 107.98L382.74 109.52C382.58 109.96 382.19 110.29 381.72 110.36L369.9 112.23C369.08 112.36 368.53 113.13 368.66 113.94L371.3 130.63C371.43 131.48 372.23 132.06 373.08 131.92L399.69 127.7C400.54 127.57 401.12 126.77 400.98 125.92L397.89 106.38C397.76 105.56 396.99 105.01 396.18 105.14V105.16Z" fill="#407BFF"/>
<path opacity="0.7" d="M396.18 105.16L384.47 107.01C383.93 107.1 383.48 107.47 383.3 107.98L382.74 109.52C382.58 109.96 382.19 110.29 381.72 110.36L369.9 112.23C369.08 112.36 368.53 113.13 368.66 113.94L371.3 130.63C371.43 131.48 372.23 132.06 373.08 131.92L399.69 127.7C400.54 127.57 401.12 126.77 400.98 125.92L397.89 106.38C397.76 105.56 396.99 105.01 396.18 105.14V105.16Z" fill="white"/>
<path d="M410.6 288.42L414.21 301.01L420.1 299.86L418.56 286.41L410.6 288.42Z" fill="#B97964"/>
<path d="M413.7 299.08L420.65 297.82C420.91 297.77 421.17 297.91 421.28 298.16L423.56 303.59C423.77 304.07 423.54 304.63 423.06 304.83C423 304.86 422.93 304.88 422.87 304.89C420.36 305.3 418.1 305.57 414.98 306.14C411.3 306.81 412.31 307.08 407.99 307.93C405.39 308.44 404.37 305.56 405.45 305.21C410.4 303.65 410.65 302.03 412.27 299.86C412.63 299.44 413.14 299.16 413.69 299.08H413.7Z" fill="#263238"/>
<path d="M359.26 285.97V302.66H365.52L368.75 286.36L359.26 285.97Z" fill="#B97964"/>
<path d="M359.15 301.6L366.2 301.85C366.47 301.85 366.69 302.05 366.74 302.31L367.81 308.09C367.91 308.6 367.57 309.1 367.06 309.2C366.99 309.21 366.93 309.22 366.86 309.22C364.32 309.08 362.06 308.86 358.9 308.76C355.16 308.63 356.1 309.11 351.7 309.01C349.05 308.95 348.68 305.93 349.8 305.82C354.96 305.36 355.55 303.83 357.59 302.06C358.03 301.72 358.59 301.56 359.14 301.6H359.15Z" fill="#263238"/>
<path d="M378.27 146.52L389.96 143.22C389.96 143.22 398.25 148.53 399.48 172.69C399.97 182.4 402.74 189.9 402.36 208.3C402.25 213.67 403.42 219.01 405.82 223.81C407.96 228.09 410.53 234.31 412.28 242.13C415.78 257.79 420.11 293.65 420.11 293.65L411.66 295.09C411.66 295.09 403.83 268.51 393.53 241.92C383.23 215.34 376.01 174.74 376.01 174.74L373.3 146.51H378.27V146.52Z" fill="#263238"/>
<path opacity="0.6" d="M383.11 175.98L380.74 176.5L378.06 179.18L377.37 181.92C378.44 187.3 380.11 195.23 382.24 204.1C386.32 181.55 383.11 175.99 383.11 175.99V175.98Z" fill="black"/>
<path d="M356.63 145.48L358.79 297.25H367.14C367.14 297.25 375.79 259.85 375.79 245.01C375.79 236.23 375.21 226.94 374.74 220.82C374.39 216.28 374.97 211.72 376.42 207.4C379.16 199.23 383.48 185.16 384.04 175.97C384.04 175.97 394.96 175.56 387.13 145.47H356.63V145.48Z" fill="#263238"/>
<path d="M363.09 68.7001L359.24 72.4301C359.24 72.4301 360.44 73.8601 362.66 73.6101L363.09 68.7001Z" fill="#A24E3F"/>
<path d="M384.13 69.4601C382.58 77.0701 382.09 80.3301 377.66 83.7201C371.17 86.9001 361.97 85.2601 361.22 77.3401C360.54 70.2101 363.18 58.9901 371.14 56.9501C376.81 55.5001 382.59 58.9201 384.04 64.5901C384.45 66.1801 384.48 67.8501 384.13 69.4601Z" fill="#B97964"/>
<path d="M364.64 63.8401C364.54 63.8301 364.45 63.7701 364.4 63.6701C364.07 62.9701 363.43 62.4701 362.67 62.3301C362.5 62.3101 362.38 62.1601 362.4 62.0001C362.42 61.8301 362.57 61.7101 362.74 61.7301C363.71 61.8901 364.53 62.5101 364.95 63.4001C365.03 63.5501 364.97 63.7401 364.82 63.8101C364.77 63.8401 364.71 63.8501 364.65 63.8401H364.64Z" fill="#263238"/>
<path opacity="0.2" d="M366.2 81.5001C364.28 81.4401 362.89 80.8501 362.01 80.3201C363.39 83.2501 366.31 84.8201 369.6 85.1701L369.49 83.5601C369.49 83.5601 369.78 81.6101 366.2 81.5001Z" fill="#606060"/>
<path d="M369 90.66L369.68 80.89C369.68 80.89 373.63 79.45 376 80.89C376 80.89 377.13 88.21 379.3 89.96L369 90.67V90.66Z" fill="#B97964"/>
<path d="M361.37 66.97C361.23 67.54 361.41 68.07 361.78 68.16C362.15 68.25 362.6 67.85 362.72 67.3C362.84 66.75 362.68 66.2 362.31 66.11C361.94 66.02 361.52 66.4 361.37 66.97Z" fill="#263238"/>
<path d="M362.62 66.1C362.62 66.1 361.37 65.86 360.94 64.78C360.94 64.78 360.83 66.23 362.4 66.76L362.62 66.1Z" fill="#263238"/>
<path d="M363.85 68.7201C363.22 70.1701 363.19 71.8201 363.77 73.3001C364.56 75.2501 366.63 74.9601 367.81 73.3601C368.88 71.9101 369.74 69.1601 368.27 67.7101C366.8 66.2601 364.64 66.9601 363.85 68.7301V68.7201Z" fill="#B97964"/>
<path d="M387.28 63.8501C387.28 63.8501 391.4 59.9201 388.1 57.0301C384.8 54.1501 388.56 60.1501 387.28 63.8501Z" fill="#263238"/>
<path d="M370.23 58.54C370.23 58.54 365.85 54.88 364.36 57.66C362.87 60.44 366.88 57.3 370.23 58.54Z" fill="#263238"/>
<path d="M369.77 66.98L363.3 64.91L363.34 64.76C363.5 64.2 363.18 63.61 362.63 63.45L361.45 63.1C361.18 63.02 360.89 63.05 360.65 63.19C360.4 63.33 360.22 63.55 360.14 63.82L358.9 68.02C358.8 68.38 358.84 68.75 359.01 69.08C359.19 69.4 359.48 69.64 359.84 69.75L360.39 69.91C360.52 69.95 360.65 69.97 360.78 69.97C361.38 69.97 361.93 69.58 362.11 68.97L363.13 65.51L369.58 67.58L369.77 66.99V66.98ZM360.94 63.73C361.04 63.67 361.16 63.66 361.27 63.69L362.45 64.04C362.68 64.11 362.81 64.35 362.75 64.58L362.71 64.71L360.7 64.07L360.72 63.99C360.75 63.88 360.83 63.78 360.93 63.73H360.94ZM361.52 68.79C361.4 69.2 360.97 69.43 360.57 69.31L360.02 69.15C359.82 69.09 359.66 68.96 359.56 68.78C359.46 68.6 359.44 68.39 359.5 68.2L360.54 64.67L362.55 65.31L361.53 68.79H361.52Z" fill="#263238"/>
<path d="M365.6 93.4001C365.6 93.4001 366.62 89.5401 373.3 88.1501C379.97 86.7601 382.6 92.0701 382.6 92.0701L365.6 93.4101V93.4001Z" fill="#407BFF"/>
<path opacity="0.5" d="M365.6 93.4001C365.6 93.4001 366.62 89.5401 373.3 88.1501C379.97 86.7601 382.6 92.0701 382.6 92.0701L365.6 93.4101V93.4001Z" fill="white"/>
<path d="M355.86 146.49C355.86 146.49 382.98 149.84 391.64 143.22C391.64 143.22 389.13 133.35 389.96 122.07C390.79 110.79 394.27 99.66 390.56 93.56C386.85 87.46 359.42 92.01 354.01 97.58C348.6 103.14 355.86 124.78 355.86 146.5V146.49Z" fill="#407BFF"/>
<path opacity="0.2" d="M360.11 102.37L357.87 109.06L352.83 115.36C353.42 119.99 354.21 125.2 354.84 130.69C357.11 128.19 359.37 124.91 360.89 120.76C365.79 107.41 361.89 99.9701 361.89 99.9701L360.11 102.37Z" fill="black"/>
<path d="M365.6 72.33C365.6 72.33 357.56 92.2 371.16 92.05C384.76 91.9 388 88.6 384.37 85.93C380.74 83.25 392.66 74.39 388.19 63.26C388.19 63.26 386.61 54.4 377.55 54.5C377.55 54.5 375.56 51.6 371.87 51.09C368.4 50.61 365.97 54.46 367.81 57.44L369.68 60.48C369.68 60.48 362.61 62.75 365.6 72.33Z" fill="#263238"/>
<path d="M358.84 96.49C358.84 96.49 352.18 97.96 350.88 106.33C349.57 114.7 348.74 121.05 346.3 121.89C343.73 122.78 332.31 113.14 332.31 113.14L332.69 107.52C332.78 106.25 332.08 105.05 330.93 104.49L330.06 104.07C328.96 103.54 327.65 103.69 326.7 104.47L325.99 105.05C325.1 105.78 324.68 106.95 324.9 108.08C325.34 110.33 326.27 113.95 327.85 115.09C327.85 115.09 344.07 133.74 348.91 131.81C353.75 129.88 357.4 118.14 359.37 113.26C360.94 109.37 363 105.09 358.83 96.49H358.84Z" fill="#B97964"/>
<path d="M359.26 95.4101C357.45 94.2401 349.91 95.64 348.13 112.95C348.13 112.95 354.08 117.97 359.72 117.28C359.72 117.28 367.06 100.43 359.26 95.4101Z" fill="#407BFF"/>
<path d="M347.75 111.29C347.75 111.29 353.58 116.26 360.89 116.02L360.04 117.97C360.04 117.97 353.85 119.33 347.48 113.23L347.75 111.3V111.29Z" fill="#407BFF"/>
<path opacity="0.5" d="M347.75 111.29C347.75 111.29 353.58 116.26 360.89 116.02L360.04 117.97C360.04 117.97 353.85 119.33 347.48 113.23L347.75 111.3V111.29Z" fill="white"/>
<path d="M410.2 293.09L410.99 296.19L420.89 294.31L420.54 291.23L410.2 293.09Z" fill="#407BFF"/>
<path d="M357.77 295.26L357.89 298.35H368.13L368.75 295.26H357.77Z" fill="#407BFF"/>
</g>
<defs>
<clipPath id="clip0_2366_15974">
<rect width="500" height="368.76" fill="white"/>
</clipPath>
</defs>
</svg>
