<svg width="500" height="373" viewBox="0 0 500 373" fill="none" xmlns="http://www.w3.org/2000/svg">
<g clip-path="url(#clip0_2309_19662)">
<path d="M500 327.45H0V327.7H500V327.45Z" fill="#EBEBEB"/>
<path d="M449.9 343.54H396.83V343.79H449.9V343.54Z" fill="#EBEBEB"/>
<path d="M331.22 340.41H272.56V340.66H331.22V340.41Z" fill="#EBEBEB"/>
<path d="M399.39 338.96H380.2V339.21H399.39V338.96Z" fill="#EBEBEB"/>
<path d="M143.66 335.94H100.47V336.19H143.66V335.94Z" fill="#EBEBEB"/>
<path d="M94.9 335.94H79.46V336.19H94.9V335.94Z" fill="#EBEBEB"/>
<path d="M185.67 340.16H131.47V340.41H185.67V340.16Z" fill="#EBEBEB"/>
<path d="M237 282.85H43.91C42.3973 282.847 40.9475 282.245 39.8788 281.174C38.8102 280.103 38.21 278.653 38.21 277.14V5.71C38.21 4.19734 38.8102 2.7465 39.8788 1.67595C40.9475 0.605406 42.3973 0.00264913 43.91 0L237 0C238.514 0 239.967 0.601588 241.038 1.67242C242.108 2.74325 242.71 4.19561 242.71 5.71V277.14C242.71 277.89 242.562 278.632 242.275 279.325C241.988 280.018 241.568 280.647 241.038 281.178C240.507 281.708 239.878 282.128 239.185 282.415C238.492 282.702 237.75 282.85 237 282.85ZM43.91 0.25C42.4636 0.252649 41.0774 0.829067 40.0556 1.85273C39.0338 2.87639 38.46 4.26365 38.46 5.71V277.14C38.46 278.586 39.0338 279.974 40.0556 280.997C41.0774 282.021 42.4636 282.597 43.91 282.6H237C238.447 282.597 239.834 282.021 240.858 280.998C241.881 279.975 242.457 278.587 242.46 277.14V5.71C242.457 4.26273 241.881 2.87549 240.858 1.85212C239.834 0.828741 238.447 0.252643 237 0.25H43.91Z" fill="#EBEBEB"/>
<path d="M453.31 282.85H260.21C258.696 282.847 257.246 282.245 256.175 281.175C255.105 280.104 254.503 278.654 254.5 277.14V5.71C254.503 4.19643 255.105 2.7456 256.175 1.67534C257.246 0.60508 258.696 0.0026438 260.21 0L453.31 0C454.821 0.00529221 456.268 0.609215 457.335 1.67947C458.401 2.74973 459 4.19907 459 5.71V277.14C459 278.651 458.401 280.1 457.335 281.171C456.268 282.241 454.821 282.845 453.31 282.85ZM260.21 0.25C258.763 0.252643 257.375 0.828741 256.352 1.85212C255.329 2.87549 254.753 4.26273 254.75 5.71V277.14C254.753 278.587 255.329 279.975 256.352 280.998C257.375 282.021 258.763 282.597 260.21 282.6H453.31C454.757 282.597 456.145 282.021 457.168 280.998C458.191 279.975 458.767 278.587 458.77 277.14V5.71C458.767 4.26273 458.191 2.87549 457.168 1.85212C456.145 0.828741 454.757 0.252643 453.31 0.25H260.21Z" fill="#EBEBEB"/>
<path d="M266.71 318.98H277.22V193.95H266.71V318.98Z" fill="#F0F0F0"/>
<path d="M64.7399 327.32H273.18V318.99H64.7399V327.32Z" fill="#F0F0F0"/>
<path d="M266.71 193.96H60.71V318.99H266.71V193.96Z" fill="#F5F5F5"/>
<path d="M269.19 193.95H280.05V186.07H269.19V193.95Z" fill="#E0E0E0"/>
<path d="M269.19 186.08H57.8899V193.96H269.19V186.08Z" fill="#EBEBEB"/>
<path d="M250.66 203.66H76.75C72.4532 203.66 68.97 207.143 68.97 211.44V239.01C68.97 243.307 72.4532 246.79 76.75 246.79H250.66C254.957 246.79 258.44 243.307 258.44 239.01V211.44C258.44 207.143 254.957 203.66 250.66 203.66Z" fill="white"/>
<path d="M250.66 259.67H76.75C72.4532 259.67 68.97 263.153 68.97 267.45V295.02C68.97 299.317 72.4532 302.8 76.75 302.8H250.66C254.957 302.8 258.44 299.317 258.44 295.02V267.45C258.44 263.153 254.957 259.67 250.66 259.67Z" fill="white"/>
<path d="M118.93 208.27H208.49C209.468 208.27 210.26 207.478 210.26 206.5V204.13C210.26 203.152 209.468 202.36 208.49 202.36H118.93C117.952 202.36 117.16 203.152 117.16 204.13V206.5C117.16 207.478 117.952 208.27 118.93 208.27Z" fill="#F5F5F5"/>
<path d="M118.93 264.27H208.49C209.468 264.27 210.26 263.478 210.26 262.5V260.13C210.26 259.152 209.468 258.36 208.49 258.36H118.93C117.952 258.36 117.16 259.152 117.16 260.13V262.5C117.16 263.478 117.952 264.27 118.93 264.27Z" fill="#F5F5F5"/>
<path d="M447.19 234.97H415.49V241.03H447.19V234.97Z" fill="#E6E6E6"/>
<path d="M391.2 327.45H397.05V120.05H391.2V327.45Z" fill="#E6E6E6"/>
<path d="M370.94 241.04H415.5V234.98H370.94V241.04Z" fill="#F5F5F5"/>
<path d="M447.19 290.78H415.49V296.84H447.19V290.78Z" fill="#E6E6E6"/>
<path d="M370.94 296.84H415.5V290.78H370.94V296.84Z" fill="#F5F5F5"/>
<path d="M447.19 123.37H415.49V129.43H447.19V123.37Z" fill="#E6E6E6"/>
<path d="M370.94 129.42H415.5V123.36H370.94V129.42Z" fill="#F5F5F5"/>
<path d="M447.19 179.17H415.49V185.23H447.19V179.17Z" fill="#E6E6E6"/>
<path d="M370.94 185.23H415.5V179.17H370.94V185.23Z" fill="#F5F5F5"/>
<path d="M435.76 327.45H441.61V120.05H435.76V327.45Z" fill="#E6E6E6"/>
<path d="M409.64 327.45H415.49V120.05H409.64V327.45Z" fill="#F5F5F5"/>
<path d="M370.94 327.45H376.79V120.05H370.94V327.45Z" fill="#F5F5F5"/>
<path d="M87.8901 168.68L352.09 168.68V28.4099L87.8901 28.4099V168.68Z" fill="#E0E0E0"/>
<path d="M81.2201 168.68L348.32 168.68V28.4099L81.2201 28.4099V168.68Z" fill="#F5F5F5"/>
<path d="M338.75 157.63V39.47L90.79 39.47V157.63H338.75Z" fill="white"/>
<path d="M250 372.61C357.083 372.61 443.89 367.542 443.89 361.29C443.89 355.038 357.083 349.97 250 349.97C142.918 349.97 56.1101 355.038 56.1101 361.29C56.1101 367.542 142.918 372.61 250 372.61Z" fill="#F5F5F5"/>
<path d="M387.82 209.27H110.54C109.658 209.267 108.812 208.916 108.188 208.292C107.565 207.668 107.213 206.822 107.21 205.94C107.213 205.058 107.565 204.212 108.188 203.588C108.812 202.964 109.658 202.613 110.54 202.61H387.82C388.703 202.613 389.548 202.964 390.172 203.588C390.796 204.212 391.148 205.058 391.15 205.94C391.148 206.822 390.796 207.668 390.172 208.292C389.548 208.916 388.703 209.267 387.82 209.27Z" fill="#407BFF"/>
<path opacity="0.3" d="M387.82 209.27H322.91C322.028 209.267 321.182 208.916 320.558 208.292C319.934 207.668 319.583 206.822 319.58 205.94C319.583 205.058 319.934 204.212 320.558 203.588C321.182 202.964 322.028 202.613 322.91 202.61H387.82C388.702 202.613 389.548 202.964 390.172 203.588C390.796 204.212 391.147 205.058 391.15 205.94C391.147 206.822 390.796 207.668 390.172 208.292C389.548 208.916 388.702 209.267 387.82 209.27Z" fill="#263238"/>
<path d="M380.78 217.62H167.53V240.83H380.78V217.62Z" fill="#263238"/>
<path opacity="0.1" d="M380.78 217.62H167.53V240.83H380.78V217.62Z" fill="white"/>
<path d="M377.68 356.67H384.06L383.8 209.27H374.96L377.68 356.67Z" fill="#263238"/>
<path opacity="0.1" d="M377.68 356.67H384.06L383.8 209.27H374.96L377.68 356.67Z" fill="white"/>
<path d="M318.88 356.67H312.49L326.93 209.27H335.77L318.88 356.67Z" fill="#263238"/>
<path opacity="0.2" d="M318.88 356.67H312.49L326.93 209.27H335.77L318.88 356.67Z" fill="white"/>
<path d="M165.31 356.67H171.69L171.43 209.27H162.59L165.31 356.67Z" fill="#263238"/>
<path opacity="0.1" d="M165.31 356.67H171.69L171.43 209.27H162.59L165.31 356.67Z" fill="white"/>
<path d="M106.51 356.67H100.12L114.56 209.27H123.4L106.51 356.67Z" fill="#263238"/>
<path opacity="0.2" d="M106.51 356.67H100.12L114.56 209.27H123.4L106.51 356.67Z" fill="white"/>
<path d="M286.11 202.61H271.39L265.5 173.82H280.22L286.11 202.61Z" fill="#263238"/>
<path d="M305.64 196.68H241.78C241.283 196.685 240.791 196.588 240.334 196.393C239.877 196.199 239.465 195.911 239.125 195.549C238.785 195.188 238.524 194.759 238.357 194.291C238.191 193.823 238.124 193.325 238.16 192.83L240.6 152.4C240.675 151.364 241.136 150.394 241.891 149.681C242.646 148.968 243.642 148.565 244.68 148.55H308.55C309.046 148.546 309.538 148.645 309.994 148.84C310.451 149.035 310.862 149.322 311.201 149.684C311.541 150.045 311.803 150.473 311.97 150.941C312.136 151.408 312.205 151.905 312.17 152.4L309.73 192.83C309.653 193.867 309.19 194.837 308.433 195.55C307.676 196.262 306.68 196.665 305.64 196.68Z" fill="#263238"/>
<path d="M304.64 196.68H240.78C240.283 196.685 239.791 196.588 239.334 196.393C238.877 196.199 238.465 195.911 238.125 195.549C237.785 195.188 237.524 194.759 237.357 194.291C237.191 193.823 237.124 193.325 237.16 192.83L239.6 152.4C239.675 151.364 240.136 150.394 240.891 149.681C241.646 148.968 242.642 148.565 243.68 148.55H307.55C308.046 148.546 308.538 148.645 308.994 148.84C309.451 149.035 309.862 149.322 310.201 149.684C310.541 150.045 310.803 150.473 310.97 150.941C311.136 151.408 311.205 151.905 311.17 152.4L308.73 192.83C308.653 193.867 308.19 194.837 307.433 195.55C306.676 196.262 305.68 196.665 304.64 196.68Z" fill="#407BFF"/>
<path d="M240.77 194.68C240.548 194.681 240.328 194.638 240.124 194.552C239.919 194.466 239.734 194.339 239.58 194.18C239.431 194.014 239.316 193.819 239.242 193.608C239.168 193.397 239.137 193.173 239.15 192.95L241.59 152.52C241.627 151.986 241.862 151.486 242.249 151.116C242.635 150.746 243.145 150.534 243.68 150.52H307.55C307.773 150.516 307.995 150.56 308.2 150.647C308.406 150.734 308.591 150.863 308.743 151.026C308.896 151.189 309.013 151.382 309.086 151.593C309.16 151.804 309.188 152.027 309.17 152.25L306.73 192.68C306.695 193.214 306.461 193.716 306.074 194.087C305.687 194.457 305.176 194.669 304.64 194.68H240.77Z" fill="white"/>
<path opacity="0.2" d="M268.82 148.55L272.97 162.76L285.29 148.55H268.82Z" fill="black"/>
<path d="M169.55 114.07C169.65 114.83 170.13 115.42 170.64 115.38C171.15 115.34 171.47 114.67 171.37 113.91C171.27 113.15 170.79 112.55 170.29 112.6C169.79 112.65 169.46 113.3 169.55 114.07Z" fill="#263238"/>
<path d="M170.39 115.19C171.292 117.188 172.455 119.058 173.85 120.75C172.75 121.86 170.74 121.4 170.74 121.4L170.39 115.19Z" fill="#A02724"/>
<path d="M167 111.11C166.924 111.129 166.845 111.129 166.77 111.11C166.66 111.063 166.572 110.976 166.525 110.866C166.479 110.756 166.477 110.632 166.52 110.52C166.775 109.851 167.192 109.256 167.733 108.786C168.273 108.317 168.922 107.989 169.62 107.83C169.678 107.82 169.738 107.822 169.796 107.835C169.854 107.848 169.908 107.873 169.956 107.907C170.005 107.942 170.046 107.985 170.077 108.035C170.109 108.086 170.13 108.142 170.14 108.2C170.15 108.258 170.148 108.318 170.135 108.376C170.121 108.434 170.097 108.488 170.063 108.537C170.028 108.585 169.985 108.626 169.934 108.657C169.884 108.689 169.828 108.71 169.77 108.72C169.227 108.857 168.725 109.123 168.307 109.495C167.889 109.868 167.568 110.336 167.37 110.86C167.334 110.93 167.282 110.989 167.217 111.033C167.152 111.077 167.078 111.103 167 111.11Z" fill="#263238"/>
<path d="M146.89 126.11L152.89 130.72L161.08 136.99C160.631 137.932 160.36 138.949 160.28 139.99C159.99 142.29 159.7 144.04 164.81 145.4C165.353 145.528 165.848 145.811 166.235 146.214C166.621 146.616 166.884 147.122 166.99 147.67C167.19 149.02 166.36 150.67 161.64 151.48C157.068 152.163 152.398 151.368 148.31 149.21C146.31 148.21 146.31 147.01 147.15 144.98C149.67 139.21 148.45 131.85 146.89 126.11Z" fill="#B55B52"/>
<path d="M140 146.8C141.152 144.583 142.103 142.267 142.84 139.88C142.84 139.88 158.04 139.05 163.06 140.55C168.08 142.05 171.2 148.55 171.2 148.55L140 146.8Z" fill="#407BFF"/>
<path d="M146.36 158.1C145.99 159.22 145.58 160.59 145.19 161.86L144.06 165.75C143.36 168.36 142.68 170.97 142.15 173.57C141.585 176.112 141.154 178.682 140.86 181.27C140.552 183.647 140.478 186.049 140.64 188.44C140.702 189.435 140.856 190.423 141.1 191.39C141.16 191.59 141.21 191.81 141.28 192L141.48 192.54C141.433 192.443 141.379 192.35 141.32 192.26C141.218 192.114 141.108 191.974 140.99 191.84C140.855 191.688 140.708 191.548 140.55 191.42C140.35 191.29 140.32 191.31 140.36 191.36C140.653 191.571 140.968 191.748 141.3 191.89C141.75 192.09 142.3 192.29 142.85 192.48C143.98 192.85 145.23 193.21 146.52 193.54C151.68 194.85 157.31 195.86 162.8 197.03L162.6 204C159.668 204.393 156.717 204.633 153.76 204.72C150.76 204.839 147.755 204.789 144.76 204.57C143.164 204.473 141.574 204.283 140 204C139.18 203.85 138.33 203.67 137.43 203.43C136.396 203.158 135.392 202.787 134.43 202.32C133.722 201.974 133.051 201.555 132.43 201.07C131.992 200.721 131.587 200.333 131.22 199.91C130.991 199.635 130.777 199.348 130.58 199.05C130.48 198.89 130.37 198.72 130.28 198.54L130.15 198.3L129.46 196.89C129.25 196.42 129.08 195.97 128.9 195.5C128.269 193.749 127.813 191.941 127.54 190.1C126.54 183.1 127.33 176.95 128.37 170.92C128.93 167.92 129.59 164.97 130.37 162.07C130.77 160.61 131.19 159.17 131.64 157.74C132.09 156.31 132.57 154.93 133.15 153.36L146.36 158.1Z" fill="#B55B52"/>
<path d="M137.11 145.56C146.56 143.06 152.17 150.8 148.97 163.56C145.77 176.32 144.7 176.8 144.7 176.8L125.21 173.54C127.61 161 127.42 148.11 137.11 145.56Z" fill="#407BFF"/>
<path d="M167.64 194.31L166.17 194.17C161.99 194.17 161.27 195.32 158.7 197.71L157.7 202.96C164.45 206.42 168.07 202.63 168.08 202.63H174.33L172.13 197.63C171.748 196.725 171.129 195.939 170.34 195.355C169.55 194.771 168.617 194.41 167.64 194.31Z" fill="#B55B52"/>
<path d="M144.31 116.17C146.01 125.28 146.54 130.7 151.76 134.77C159.6 140.88 170.4 135.07 171.46 125.59C172.41 117.05 169.46 103.59 160.04 101.2C157.939 100.678 155.74 100.695 153.647 101.249C151.554 101.803 149.635 102.875 148.066 104.368C146.498 105.86 145.332 107.724 144.675 109.787C144.018 111.85 143.893 114.046 144.31 116.17Z" fill="#B55B52"/>
<path d="M162.36 119.35C168.86 118.83 166.96 111.98 164.95 110.54C168 109.39 170.1 104.54 167.17 101.22C168.89 96.74 163.97 91.33 155.34 92.13C149.04 92.72 148.34 96.05 148.34 96.05C148.34 96.05 140.79 95.25 137.65 101.49C134.97 106.83 138.22 109.68 138.22 109.68C138.22 109.68 132.58 111.32 134.14 118.68C135.8 126.62 141.9 124.78 141.9 124.78C141.9 124.78 140.53 132.05 148.78 132.16C155.91 132.25 156 126.91 156 126.91C156 126.91 165.24 126 162.36 119.35Z" fill="#263238"/>
<path d="M157.52 119.88C158.249 121.831 159.674 123.445 161.52 124.41C163.9 125.63 165.72 123.1 165.3 120.51C164.92 118.18 162.89 115.19 160.38 115.05C157.87 114.91 156.63 117.46 157.52 119.88Z" fill="#B55B52"/>
<path d="M254.47 345.22L263.36 341.61L257.08 320.25L248.19 323.86L254.47 345.22Z" fill="#B55B52"/>
<path opacity="0.2" d="M251.24 334.21L260.22 330.92L257.08 320.25L248.19 323.86L251.24 334.21Z" fill="black"/>
<path d="M262.59 338L252.42 341.54C252.335 341.566 252.255 341.609 252.186 341.666C252.118 341.723 252.061 341.793 252.019 341.872C251.977 341.951 251.951 342.037 251.943 342.126C251.935 342.215 251.944 342.305 251.97 342.39L254.27 350.61C254.428 351.024 254.74 351.36 255.142 351.547C255.543 351.733 256.002 351.756 256.42 351.61C259.93 350.32 261.35 349.61 265.69 347.74C269.962 345.953 274.141 343.95 278.21 341.74C281.6 339.74 279.56 336.33 277.91 336.89C274 338.21 267.59 339.06 264.34 337.95C263.767 337.776 263.152 337.794 262.59 338Z" fill="#263238"/>
<path d="M183.07 222C183.07 222 250.26 228.05 251.98 247.38C255.48 286.71 260.85 324.63 260.85 324.63L247.18 329.63C247.18 329.63 230.45 286.42 230.67 255.63C211.29 250.16 160.33 258.19 152 243.24C144.64 230.05 151.1 220.57 151.1 220.57L183.07 222Z" fill="#263238"/>
<path d="M246.18 332.74L263.2 326.99L262.46 319.23L243.27 325.42L246.18 332.74Z" fill="#407BFF"/>
<path d="M266.34 338.45C265.52 338.711 264.676 338.885 263.82 338.97C263.776 338.976 263.732 338.968 263.693 338.949C263.654 338.929 263.621 338.898 263.6 338.86C263.578 338.824 263.566 338.782 263.566 338.74C263.566 338.698 263.578 338.656 263.6 338.62C263.82 338.31 265.78 335.67 267.03 335.72C267.174 335.726 267.314 335.768 267.436 335.844C267.559 335.919 267.66 336.024 267.73 336.15C267.86 336.324 267.941 336.531 267.964 336.747C267.987 336.964 267.951 337.182 267.86 337.38C267.508 337.917 266.964 338.3 266.34 338.45ZM264.34 338.45C266.07 338.21 267.25 337.75 267.52 337.18C267.576 337.048 267.596 336.902 267.576 336.76C267.557 336.617 267.499 336.483 267.41 336.37C267.378 336.307 267.33 336.254 267.27 336.217C267.21 336.18 267.141 336.16 267.07 336.16C266.35 336.14 265.11 337.43 264.29 338.46L264.34 338.45Z" fill="#407BFF"/>
<path d="M263.87 339H263.76C263.723 338.994 263.689 338.979 263.659 338.956C263.629 338.933 263.606 338.904 263.59 338.87C263.59 338.76 262.44 336.23 263.04 335.03C263.117 334.876 263.229 334.743 263.366 334.639C263.503 334.535 263.661 334.463 263.83 334.43C264.014 334.366 264.214 334.369 264.396 334.436C264.579 334.503 264.732 334.632 264.83 334.8C265.38 335.71 264.69 338.07 263.98 338.92L263.87 339ZM263.87 334.9C263.785 334.927 263.707 334.971 263.64 335.03C263.573 335.088 263.518 335.16 263.48 335.24C263.12 335.96 263.56 337.47 263.89 338.32C264.44 337.39 264.84 335.64 264.48 335.04C264.41 334.92 264.29 334.8 263.97 334.87L263.87 334.9Z" fill="#407BFF"/>
<path d="M206.9 351.57L216.4 351.12L217.95 328.68L208.45 329.13L206.9 351.57Z" fill="#B55B52"/>
<path d="M216.62 349.49L205.86 349.15C205.77 349.143 205.679 349.154 205.593 349.183C205.508 349.212 205.429 349.257 205.361 349.317C205.293 349.376 205.237 349.449 205.198 349.53C205.158 349.611 205.135 349.7 205.13 349.79L204.34 358.28C204.336 358.502 204.376 358.722 204.457 358.929C204.538 359.136 204.659 359.324 204.814 359.484C204.968 359.644 205.152 359.771 205.355 359.86C205.559 359.949 205.778 359.996 206 360C209.75 360.06 211.54 359.89 216.27 360C219.18 360.1 224.91 360.53 228.9 360C232.89 359.47 232.28 355.56 230.54 355.42C226.43 355.08 220.92 352.24 218.29 350.03C217.806 349.674 217.22 349.485 216.62 349.49Z" fill="#263238"/>
<path d="M220 351.27C219.141 351.221 218.289 351.08 217.46 350.85C217.419 350.837 217.382 350.813 217.352 350.782C217.323 350.75 217.301 350.712 217.29 350.67C217.285 350.626 217.292 350.582 217.309 350.542C217.327 350.501 217.355 350.466 217.39 350.44C217.7 350.24 220.47 348.44 221.63 348.97C221.762 349.026 221.878 349.115 221.966 349.229C222.054 349.343 222.11 349.478 222.13 349.62C222.187 349.831 222.187 350.052 222.131 350.263C222.075 350.474 221.964 350.666 221.81 350.82C221.284 351.191 220.638 351.352 220 351.27ZM218.08 350.54C219.78 350.94 221.08 350.92 221.51 350.49C221.609 350.387 221.677 350.259 221.709 350.12C221.741 349.981 221.734 349.836 221.69 349.7C221.681 349.631 221.654 349.565 221.612 349.509C221.57 349.453 221.514 349.408 221.45 349.38C220.79 349.11 219.17 349.87 218 350.54H218.08Z" fill="#407BFF"/>
<path d="M217.47 350.85H217.36C217.328 350.829 217.301 350.801 217.282 350.768C217.263 350.735 217.252 350.698 217.25 350.66C217.25 350.55 217.12 347.78 218.11 346.88C218.243 346.758 218.403 346.669 218.577 346.621C218.75 346.572 218.933 346.565 219.11 346.6C219.3 346.614 219.481 346.69 219.623 346.817C219.766 346.943 219.863 347.113 219.9 347.3C220.08 348.35 218.59 350.3 217.62 350.85C217.572 350.869 217.518 350.869 217.47 350.85ZM218.9 347C218.718 346.996 218.542 347.065 218.41 347.19C217.82 347.72 217.69 349.3 217.69 350.19C218.54 349.51 219.54 348.02 219.42 347.33C219.42 347.2 219.32 347.04 219 346.99L218.9 347Z" fill="#407BFF"/>
<path opacity="0.2" d="M208.45 329.14L217.96 328.69L217.06 341.52L207.59 341.5L208.45 329.14Z" fill="black"/>
<path d="M160.75 221C160.75 221 233.15 232 232 248.71C229.93 278.71 219.87 337.35 219.87 337.35L205.61 337.55C205.61 337.55 202.24 277.41 207.61 255.49C189.8 255.49 139.56 254.87 132.71 245.71C125.13 235.6 132.92 219.71 132.92 219.71L160.75 221Z" fill="#263238"/>
<path d="M203.93 338.66L221.19 338.4L222.04 329.27L203.1 330.02L203.93 338.66Z" fill="#407BFF"/>
<path d="M173.5 144.54C167.67 143.41 141.38 143.74 141.38 143.74C138.76 143.667 136.207 144.576 134.223 146.29C132.24 148.003 130.969 150.397 130.66 153C129.74 161.11 134.89 179.23 135.07 188.47C135.29 199.82 133.12 204.42 132.9 219.69L183.07 222C183.07 191.27 181.73 165.83 180.52 153.63C180.09 149.39 179.33 145.68 173.5 144.54Z" fill="#407BFF"/>
<path opacity="0.3" d="M173.5 144.54C167.67 143.41 141.38 143.74 141.38 143.74C138.76 143.667 136.207 144.576 134.223 146.29C132.24 148.003 130.969 150.397 130.66 153C129.74 161.11 134.89 179.23 135.07 188.47C135.29 199.82 133.12 204.42 132.9 219.69L183.07 222C183.07 191.27 181.73 165.83 180.52 153.63C180.09 149.39 179.33 145.68 173.5 144.54Z" fill="white"/>
<path d="M180.37 154.23C181.94 159.63 183.52 165.17 185.15 170.6C186.78 176.03 188.45 181.47 190.33 186.6C190.79 187.91 191.33 189.13 191.77 190.39L192.54 192.16L192.64 192.38V192.49V192.54V192.47C192.466 192.159 192.251 191.873 192 191.62C191.66 191.29 191.53 191.27 191.5 191.27C191.726 191.467 191.983 191.626 192.26 191.74C192.751 191.972 193.255 192.176 193.77 192.35C194.9 192.74 196.17 193.09 197.46 193.44C202.69 194.77 208.4 195.79 213.96 196.98L213.78 203.91C210.794 204.308 207.79 204.551 204.78 204.64C201.732 204.749 198.681 204.689 195.64 204.46C194.022 204.349 192.413 204.142 190.82 203.84C189.98 203.68 189.11 203.49 188.17 203.22C187.057 202.903 185.983 202.46 184.97 201.9C184.162 201.437 183.422 200.865 182.77 200.2C182.273 199.687 181.842 199.112 181.49 198.49L181.15 197.86L180.02 195.72C179.36 194.32 178.64 192.9 178.02 191.51C176.79 188.71 175.71 185.93 174.63 183.14C173.55 180.35 172.63 177.56 171.7 174.75C169.85 169.13 168.18 163.55 166.7 157.75L180.37 154.23Z" fill="#B55B52"/>
<path d="M166.12 148.66C172.98 141.66 181.75 145.48 185.52 158.12C189.29 170.76 188.61 171.68 188.61 171.68L170.18 178.83C165.83 166.78 159.1 155.79 166.12 148.66Z" fill="#407BFF"/>
<path d="M218.86 194.31L217.39 194.17C213.21 194.17 212.5 195.32 209.93 197.71L209 203C215.75 206.46 219.37 202.67 219.37 202.67H225.63L223.42 197.67C223.04 196.746 222.414 195.945 221.61 195.352C220.806 194.76 219.855 194.399 218.86 194.31Z" fill="#B55B52"/>
<path d="M135.1 259.14H199.18C200.588 259.14 201.73 257.998 201.73 256.59V252.47C201.73 251.062 200.588 249.92 199.18 249.92H135.1C133.692 249.92 132.55 251.062 132.55 252.47V256.59C132.55 257.998 133.692 259.14 135.1 259.14Z" fill="#407BFF"/>
<path d="M135.39 361.8H132.55L135.82 259.14H139.75L135.39 361.8Z" fill="#407BFF"/>
<path opacity="0.4" d="M135.39 361.8H132.55L135.82 259.14H139.75L135.39 361.8Z" fill="white"/>
<path d="M161.51 361.8H164.35L161.09 259.14H157.16L161.51 361.8Z" fill="#407BFF"/>
<path opacity="0.4" d="M161.51 361.8H164.35L161.09 259.14H157.16L161.51 361.8Z" fill="white"/>
<path d="M172.77 361.8H169.93L173.2 259.14H177.13L172.77 361.8Z" fill="#407BFF"/>
<path opacity="0.4" d="M172.77 361.8H169.93L173.2 259.14H177.13L172.77 361.8Z" fill="white"/>
<path d="M198.89 361.8H201.73L198.47 259.14H194.54L198.89 361.8Z" fill="#407BFF"/>
<path opacity="0.4" d="M198.89 361.8H201.73L198.47 259.14H194.54L198.89 361.8Z" fill="white"/>
<g opacity="0.3">
<path d="M135.82 259.13H139.75L139.56 263.5H135.68L135.82 259.13Z" fill="#407BFF"/>
<path d="M161.22 263.5H157.34L157.16 259.13H161.08L161.22 263.5Z" fill="#407BFF"/>
<path d="M177.12 259.13L176.94 263.5H173.06L173.2 259.13H177.12Z" fill="#407BFF"/>
<path d="M198.61 263.5H194.72L194.54 259.13H198.47L198.61 263.5Z" fill="#407BFF"/>
</g>
<path d="M389 133.66H228.83C227.585 133.673 226.352 133.428 225.207 132.94C224.062 132.451 223.031 131.731 222.178 130.824C221.326 129.917 220.671 128.844 220.255 127.671C219.838 126.498 219.67 125.251 219.76 124.01L225.87 22.64C226.064 20.0446 227.223 17.616 229.118 15.8319C231.013 14.0479 233.507 13.0377 236.11 13H396.24C397.484 12.9871 398.718 13.2324 399.863 13.7205C401.008 14.2086 402.039 14.9288 402.891 15.8357C403.744 16.7426 404.399 17.8164 404.815 18.9893C405.231 20.1622 405.4 21.4087 405.31 22.65L399.19 124C399.001 126.591 397.851 129.017 395.966 130.804C394.081 132.591 391.597 133.61 389 133.66Z" fill="#407BFF"/>
<path d="M250.26 112.22L265.03 162.76L308.85 112.22H250.26Z" fill="#407BFF"/>
<path opacity="0.1" d="M381.19 92.8699H291.43C290.732 92.8757 290.041 92.7373 289.4 92.4632C288.758 92.1891 288.181 91.7854 287.703 91.2774C287.225 90.7694 286.857 90.168 286.622 89.511C286.388 88.8541 286.292 88.1558 286.34 87.4599L289.77 30.6399C289.877 29.1829 290.526 27.8187 291.588 26.8157C292.65 25.8127 294.049 25.2434 295.51 25.2199H385.27C385.968 25.214 386.661 25.3527 387.303 25.6274C387.945 25.9021 388.523 26.3067 389.001 26.8158C389.479 27.3249 389.847 27.9275 390.081 28.5857C390.315 29.2438 390.41 29.9432 390.36 30.6399L386.93 87.4599C386.82 88.9151 386.171 90.2769 385.109 91.2778C384.047 92.2787 382.649 92.8466 381.19 92.8699Z" fill="white"/>
<path opacity="0.1" d="M333.17 117.38H243.4C242.703 117.386 242.012 117.247 241.371 116.973C240.73 116.699 240.153 116.295 239.676 115.787C239.199 115.279 238.832 114.677 238.598 114.02C238.365 113.363 238.27 112.665 238.32 111.97L241.75 55.1399C241.857 53.6856 242.505 52.3239 243.565 51.3228C244.625 50.3216 246.022 49.7534 247.48 49.7299H337.25C337.947 49.724 338.638 49.8625 339.279 50.1366C339.92 50.4108 340.497 50.8147 340.974 51.3229C341.451 51.8311 341.818 52.4326 342.052 53.0895C342.285 53.7464 342.38 54.4446 342.33 55.1399L338.9 112C338.786 113.449 338.135 114.803 337.075 115.798C336.016 116.793 334.623 117.357 333.17 117.38Z" fill="white"/>
<g opacity="0.5">
<path d="M242.21 21.8099C242.192 22.5778 241.888 23.3112 241.357 23.8662C240.826 24.4212 240.106 24.7578 239.34 24.8099C238.976 24.7919 238.619 24.6974 238.294 24.5327C237.969 24.368 237.682 24.1366 237.452 23.8537C237.221 23.5707 237.053 23.2426 236.958 22.8905C236.863 22.5384 236.844 22.1702 236.9 21.8099C236.921 21.0428 237.226 20.3107 237.756 19.7561C238.287 19.2016 239.005 18.8643 239.77 18.8099C240.134 18.828 240.491 18.9224 240.816 19.0872C241.141 19.2519 241.429 19.4833 241.659 19.7662C241.889 20.0491 242.057 20.3773 242.152 20.7294C242.247 21.0815 242.267 21.4497 242.21 21.8099Z" fill="white"/>
<path d="M252 21.8099C251.98 22.5771 251.674 23.3092 251.144 23.8637C250.613 24.4183 249.896 24.7556 249.13 24.8099C248.765 24.7933 248.407 24.6998 248.081 24.5356C247.754 24.3715 247.466 24.1403 247.235 23.8572C247.004 23.5742 246.835 23.2455 246.739 22.8927C246.644 22.54 246.623 22.171 246.68 21.8099C246.703 21.0435 247.009 20.3126 247.539 19.7585C248.069 19.2045 248.785 18.8665 249.55 18.8099C249.915 18.8266 250.273 18.9201 250.599 19.0842C250.926 19.2484 251.214 19.4796 251.445 19.7626C251.676 20.0457 251.845 20.3744 251.941 20.7271C252.037 21.0799 252.057 21.4489 252 21.8099Z" fill="white"/>
<path d="M261.86 21.8099C261.842 22.5778 261.537 23.3112 261.006 23.8662C260.475 24.4212 259.756 24.7578 258.99 24.8099C258.626 24.7919 258.269 24.6974 257.944 24.5327C257.619 24.368 257.332 24.1366 257.101 23.8537C256.871 23.5707 256.703 23.2426 256.608 22.8905C256.513 22.5384 256.493 22.1702 256.55 21.8099C256.57 21.0428 256.876 20.3107 257.406 19.7561C257.937 19.2016 258.655 18.8643 259.42 18.8099C259.784 18.828 260.141 18.9224 260.466 19.0872C260.791 19.2519 261.078 19.4833 261.309 19.7662C261.539 20.0491 261.707 20.3773 261.802 20.7294C261.897 21.0815 261.917 21.4497 261.86 21.8099Z" fill="white"/>
</g>
<path opacity="0.3" d="M387.76 132.71H227.63C226.352 132.723 225.085 132.471 223.909 131.969C222.733 131.468 221.674 130.729 220.798 129.798C219.922 128.866 219.249 127.764 218.821 126.559C218.393 125.355 218.219 124.075 218.31 122.8L224.43 21.43C224.622 18.7691 225.806 16.2771 227.746 14.446C229.686 12.615 232.242 11.5781 234.91 11.54H395C396.278 11.5299 397.545 11.7843 398.72 12.2872C399.895 12.7902 400.954 13.5307 401.829 14.4623C402.704 15.3939 403.377 16.4965 403.806 17.7007C404.235 18.9049 404.41 20.1848 404.32 21.46L398.21 122.83C398.016 125.484 396.836 127.969 394.902 129.798C392.968 131.626 390.421 132.665 387.76 132.71ZM234.91 12C232.366 12.031 229.926 13.0164 228.074 14.761C226.222 16.5056 225.093 18.8822 224.91 21.42L218.79 122.79C218.703 123.997 218.867 125.209 219.272 126.349C219.677 127.489 220.314 128.533 221.143 129.414C221.972 130.296 222.974 130.996 224.087 131.47C225.201 131.945 226.4 132.183 227.61 132.17H387.76C390.302 132.137 392.739 131.152 394.59 129.41C396.442 127.668 397.573 125.295 397.76 122.76L403.87 21.39C403.959 20.178 403.795 18.9609 403.387 17.816C402.98 16.6711 402.339 15.6236 401.504 14.7402C400.67 13.8569 399.661 13.157 398.541 12.6852C397.421 12.2134 396.215 11.98 395 12H234.91Z" fill="#263238"/>
<path d="M301.05 73.46C300.37 74.9 299.75 76.12 299.05 77.46C298.35 78.8 297.65 79.99 296.93 81.24C295.46 83.73 293.93 86.24 292.29 88.58C291.46 89.78 290.61 90.96 289.75 92.15C288.89 93.34 288 94.45 287 95.59C285.105 97.9298 283.065 100.148 280.89 102.23C280.34 102.76 279.74 103.23 279.16 103.8C278.585 104.34 277.977 104.844 277.34 105.31L275.42 106.76C275.42 106.76 275.07 107.01 274.83 107.16C274.569 107.326 274.298 107.476 274.02 107.61C273.471 107.877 272.894 108.081 272.3 108.22C271.126 108.487 269.907 108.493 268.73 108.237C267.554 107.982 266.447 107.47 265.49 106.74C265.017 106.363 264.584 105.938 264.2 105.47L263.93 105.12L263.8 104.94L263.75 104.86L263.57 104.54L262.85 103.24C262.63 102.82 262.48 102.42 262.3 102.01C261.67 100.501 261.155 98.9467 260.76 97.36C260.065 94.4685 259.577 91.531 259.3 88.57C259.008 85.6863 258.881 82.7882 258.92 79.89C258.923 79.0548 259.229 78.2491 259.781 77.6222C260.332 76.9954 261.093 76.59 261.921 76.4813C262.749 76.3726 263.588 76.568 264.283 77.0311C264.978 77.4943 265.482 78.1939 265.7 79V79.11C267.024 84.207 268.664 89.2166 270.61 94.11C271.057 95.1447 271.575 96.1471 272.16 97.11C272.29 97.32 272.42 97.55 272.55 97.73C272.68 97.91 272.81 98.04 272.93 98.19L273.02 98.31L272.97 98.23L272.86 98.08C272.703 97.8751 272.522 97.6903 272.32 97.53C271.928 97.2309 271.479 97.0164 271 96.9C270.503 96.7847 269.987 96.7847 269.49 96.9C269.231 96.9546 268.98 97.0385 268.74 97.15C268.615 97.2033 268.495 97.2669 268.38 97.34C268.28 97.39 268.08 97.54 268.21 97.43L269.46 96.22C269.88 95.84 270.29 95.38 270.7 94.93C271.11 94.48 271.53 94.06 271.93 93.6C275.203 89.6518 278.184 85.4708 280.85 81.09C282.22 78.86 283.57 76.59 284.85 74.29L286.78 70.83L288.61 67.44L288.71 67.27C289.578 65.7165 291.012 64.5583 292.714 64.0374C294.416 63.5166 296.253 63.6732 297.842 64.4747C299.43 65.2762 300.648 66.6606 301.24 68.3387C301.833 70.0167 301.754 71.8588 301.02 73.48L301.05 73.46Z" fill="#263238"/>
<path d="M259.87 79.47L255 76.69L260.24 71.34C261.774 72.4761 263.197 73.7552 264.49 75.16C264.794 75.4834 265.018 75.8735 265.145 76.299C265.272 76.7245 265.297 77.1737 265.219 77.6107C265.142 78.0478 264.963 78.4607 264.697 78.8165C264.432 79.1723 264.087 79.4611 263.69 79.66C263.086 79.9403 262.422 80.0695 261.757 80.0364C261.091 80.0033 260.444 79.8089 259.87 79.47Z" fill="#FFC3BD"/>
<path d="M253.89 71L256.54 69.11C256.887 68.8632 257.316 68.7616 257.736 68.827C258.157 68.8924 258.535 69.1196 258.79 69.46L260.24 71.39L255 76.69L253.35 72.93C253.214 72.5939 253.193 72.2221 253.291 71.8729C253.389 71.5237 253.599 71.2168 253.89 71Z" fill="#FFC3BD"/>
<path d="M290.56 68.9999C290.955 67.6921 291.704 66.519 292.724 65.6101C293.744 64.7013 294.996 64.0921 296.34 63.8499C298.281 63.4172 300.249 63.1132 302.23 62.9399C308.195 62.7157 314.168 62.8259 320.12 63.2699C323.24 63.4799 326.43 63.9199 328.97 64.3399H329.06C329.727 64.4492 330.365 64.6888 330.939 65.045C331.513 65.4012 332.011 65.8671 332.405 66.416C332.799 66.9649 333.081 67.586 333.234 68.2439C333.388 68.9018 333.41 69.5834 333.3 70.2499C332.05 77.4699 328.38 90.0199 327.98 101.88C327.45 117.43 327.69 126.39 327.42 130.14L287.37 129.37C284.58 91.3199 288.05 77.5899 290.56 68.9999Z" fill="white"/>
<path d="M330.12 63.73H330C327.32 63.29 324 62.82 320.67 62.6L318.89 62.49C317.14 69.74 306.71 81.91 303.55 100.38C302.33 84.95 301.39 68.82 303.18 62.52C300.349 62.6101 297.525 62.8504 294.72 63.24C293.236 63.5756 291.868 64.2984 290.754 65.3348C289.641 66.3712 288.821 67.6841 288.38 69.14C285.92 76.38 281.22 92.6 284.11 132.47H328.62C328.91 128.47 327.87 120.07 329.48 107.15C331.03 94.62 333.26 77.59 334.57 69.98C334.805 68.5616 334.468 67.108 333.634 65.9369C332.801 64.7658 331.537 63.9723 330.12 63.73Z" fill="#263238"/>
<path opacity="0.2" d="M302.6 130.4C302.533 130.403 302.467 130.379 302.417 130.335C302.366 130.29 302.335 130.227 302.33 130.16C301.39 118.91 303.15 102.75 303.17 102.59C303.178 102.52 303.212 102.456 303.266 102.411C303.32 102.366 303.39 102.344 303.46 102.35C303.531 102.36 303.595 102.397 303.64 102.452C303.684 102.508 303.706 102.579 303.7 102.65C303.7 102.81 301.92 118.92 302.86 130.11C302.864 130.145 302.861 130.18 302.851 130.214C302.841 130.248 302.825 130.279 302.802 130.306C302.78 130.334 302.752 130.356 302.721 130.372C302.689 130.388 302.655 130.398 302.62 130.4H302.6Z" fill="white"/>
<path opacity="0.3" d="M328.56 79.56C326.91 87.04 327.79 97.4 329.56 106.85C330.87 96.24 332.66 82.47 333.97 73.95C332.14 72.73 329.87 73.59 328.56 79.56Z" fill="black"/>
<path d="M303.08 62.8799C308.27 61.7399 309.17 58.5399 308.8 54.9999C308.708 54.1123 308.564 53.2309 308.37 52.3599L314.85 47.0699L319.62 43.1899C318.32 48.9299 316.89 59.3899 320.81 63.3099C320.81 63.3099 317.61 68.5599 308.71 67.9199C301.19 67.3699 303.08 62.8799 303.08 62.8799Z" fill="#FFC3BD"/>
<path d="M310.97 66.59L309.53 67.96L314.13 69.69L313.53 67.94L310.97 66.59Z" fill="#E0E0E0"/>
<path d="M314.49 72.1299C314.49 72.1299 312.68 67.5499 310.97 66.5899C314.333 65.7879 317.414 64.0833 319.88 61.6599L322.61 62.7399C322.61 62.7399 323.47 67.9999 314.49 72.1299Z" fill="#F5F5F5"/>
<path d="M308.45 66.24L309.53 67.96L304.69 68.38L305.66 66.85L308.45 66.24Z" fill="#E0E0E0"/>
<path d="M302.26 70.84C304.033 68.9508 306.129 67.3931 308.45 66.24C305.82 65.46 305.66 61.84 305.66 61.84L303.11 62.32C303.11 62.32 298.43 66.88 302.26 70.84Z" fill="#F5F5F5"/>
<path opacity="0.2" d="M308.37 52.3599C308.564 53.2309 308.708 54.1123 308.8 54.9999C311.22 54.5599 314.46 51.9999 314.8 49.5499C314.915 48.7284 314.938 47.8967 314.87 47.0699L308.37 52.3599Z" fill="black"/>
<path d="M300.5 26.18C298.18 29.04 298.4 39.35 303.31 39.47C308.22 39.59 304.72 21 300.5 26.18Z" fill="#263238"/>
<path d="M321.65 33.69C321.16 41.5 321.26 46.09 317.32 50.13C311.4 56.2 301.8 52.71 300 44.94C298.35 37.94 299.43 26.35 307.06 23.18C308.724 22.4784 310.54 22.2166 312.334 22.4195C314.129 22.6224 315.84 23.2834 317.306 24.3388C318.771 25.3942 319.94 26.8086 320.701 28.4463C321.461 30.0839 321.788 31.8896 321.65 33.69Z" fill="#FFC3BD"/>
<path d="M317.81 27.18C312.9 32.06 319.28 35.63 316.81 38.25C321.44 40.67 319.74 42.45 319.74 42.45C319.26 43.7815 319.26 45.2385 319.74 46.57C324.96 45.22 334.65 27.89 324.07 25.22C317.74 28.06 317.81 27.18 317.81 27.18Z" fill="#263238"/>
<path d="M319.82 30.68C315.17 31.41 309.32 29.18 305.69 27.31C302.06 25.44 301.53 28.97 302.87 30.06C300.54 30.14 297.59 28.29 298.32 24.18C298.99 20.43 303.9 16.89 310.89 20.06C315.84 22.3 321.94 19.35 324.32 21.93C326.7 24.51 322.92 30.2 319.82 30.68Z" fill="#263238"/>
<path d="M323 25.6C326.12 25.18 326.25 23.22 325.38 19.76C328.75 24.56 327.38 26.02 325.38 27.18C323.15 26.43 323 25.6 323 25.6Z" fill="#263238"/>
<path d="M323.75 39.67C323.061 41.2019 321.853 42.4414 320.34 43.17C318.41 44.03 317.43 42.26 317.95 40.17C318.42 38.29 319.95 35.57 321.95 35.59C323.95 35.61 324.62 37.74 323.75 39.67Z" fill="#FFC3BD"/>
<path d="M309.46 36.0499C309.46 36.6799 309.12 37.1999 308.71 37.1999C308.3 37.1999 307.96 36.6899 307.96 36.0599C307.96 35.4299 308.3 34.9099 308.71 34.8999C309.12 34.8899 309.46 35.4099 309.46 36.0499Z" fill="#263238"/>
<path d="M302.3 36.11C302.3 36.74 301.96 37.26 301.54 37.26C301.12 37.26 300.79 36.76 300.8 36.12C300.81 35.48 301.13 34.97 301.55 34.96C301.97 34.95 302.3 35.47 302.3 36.11Z" fill="#263238"/>
<path d="M305 36.33C304.252 38.2776 303.243 40.1144 302 41.79C302.431 42.0921 302.923 42.2969 303.441 42.3901C303.959 42.4834 304.491 42.4628 305 42.33V36.33Z" fill="#ED847E"/>
<path d="M307.52 43.9999C308.246 43.9216 308.947 43.6926 309.579 43.3275C310.211 42.9625 310.76 42.4694 311.19 41.8799C311.209 41.86 311.224 41.8361 311.233 41.8099C311.242 41.7837 311.245 41.7559 311.242 41.7283C311.239 41.7008 311.23 41.6742 311.216 41.6504C311.202 41.6267 311.183 41.6063 311.16 41.5908C311.137 41.5753 311.111 41.5649 311.084 41.5605C311.056 41.5561 311.028 41.5577 311.002 41.5653C310.975 41.5728 310.95 41.5861 310.929 41.6042C310.908 41.6222 310.891 41.6447 310.88 41.6699C310.401 42.301 309.78 42.8108 309.068 43.1582C308.356 43.5056 307.572 43.6809 306.78 43.6699C306.755 43.6683 306.73 43.6721 306.707 43.6813C306.684 43.6904 306.663 43.7045 306.645 43.7226C306.628 43.7408 306.615 43.7625 306.607 43.7862C306.6 43.81 306.597 43.8351 306.6 43.8599C306.603 43.9086 306.624 43.9544 306.659 43.9879C306.695 44.0214 306.741 44.04 306.79 44.0399C307.034 44.0426 307.278 44.0292 307.52 43.9999Z" fill="#263238"/>
<path d="M312.93 33.52C312.992 33.5117 313.05 33.4876 313.1 33.45C313.14 33.4214 313.174 33.3849 313.199 33.3428C313.224 33.3007 313.241 33.2538 313.247 33.2051C313.254 33.1564 313.251 33.1068 313.237 33.0595C313.224 33.0122 313.201 32.9681 313.17 32.93C312.828 32.4546 312.378 32.0684 311.855 31.8039C311.333 31.5393 310.755 31.4042 310.17 31.41C310.122 31.4137 310.075 31.4271 310.032 31.4494C309.989 31.4717 309.951 31.5025 309.92 31.5398C309.889 31.5771 309.866 31.6203 309.852 31.6667C309.839 31.7132 309.834 31.7619 309.84 31.81C309.844 31.8595 309.857 31.9079 309.88 31.952C309.903 31.9962 309.935 32.0353 309.973 32.0671C310.011 32.0988 310.055 32.1225 310.103 32.1367C310.151 32.151 310.201 32.1555 310.25 32.15C310.714 32.1506 311.17 32.2616 311.582 32.4738C311.994 32.6859 312.35 32.9931 312.62 33.37C312.655 33.4189 312.702 33.4582 312.756 33.4844C312.81 33.5106 312.87 33.5229 312.93 33.52Z" fill="#263238"/>
<path d="M299.4 33.82C299.461 33.8156 299.519 33.7946 299.568 33.7593C299.618 33.7241 299.656 33.6758 299.68 33.62C299.872 33.1891 300.164 32.8096 300.53 32.5125C300.897 32.2154 301.329 32.0089 301.79 31.91C301.839 31.9039 301.885 31.8881 301.927 31.8634C301.97 31.8388 302.006 31.8058 302.035 31.7665C302.064 31.7272 302.085 31.6824 302.096 31.6349C302.107 31.5874 302.109 31.538 302.1 31.49C302.085 31.3926 302.033 31.3048 301.955 31.2451C301.876 31.1854 301.778 31.1585 301.68 31.17C301.098 31.284 300.551 31.5348 300.086 31.9016C299.62 32.2685 299.247 32.741 299 33.28C298.958 33.3705 298.952 33.474 298.983 33.5689C299.015 33.6639 299.082 33.743 299.17 33.79C299.243 33.8204 299.322 33.8307 299.4 33.82Z" fill="#263238"/>
<path d="M335.76 68.24C336.98 70.81 338 73.24 339 75.75C340 78.26 340.89 80.75 341.78 83.35C343.528 88.5434 344.937 93.8445 346 99.22C346.23 100.61 346.49 101.98 346.66 103.41L346.79 104.47L346.86 105V105.27V105.64C346.96 106.671 346.96 107.709 346.86 108.74C346.633 111.004 345.854 113.178 344.59 115.07C343.412 116.807 341.861 118.259 340.05 119.32C338.545 120.209 336.922 120.882 335.23 121.32C333.725 121.732 332.185 122.007 330.63 122.14C329.164 122.281 327.691 122.318 326.22 122.25C324.752 122.191 323.289 122.037 321.84 121.79C321.053 121.658 320.337 121.256 319.813 120.654C319.29 120.052 318.992 119.287 318.97 118.489C318.949 117.691 319.206 116.911 319.697 116.282C320.187 115.653 320.881 115.214 321.66 115.04L322.02 114.96C323.02 114.73 324.33 114.45 325.45 114.15C326.57 113.85 327.71 113.5 328.77 113.15C330.622 112.554 332.338 111.599 333.82 110.34C334.214 109.982 334.512 109.532 334.69 109.03C334.761 108.677 334.761 108.313 334.69 107.96C334.657 107.69 334.607 107.423 334.54 107.16L334.18 105.53C333.95 104.38 333.62 103.21 333.32 102.04C332.7 99.7 332 97.34 331.2 95.04C330.4 92.74 329.58 90.33 328.71 87.98C327.84 85.63 326.92 83.28 325.99 80.98C325.06 78.68 324.08 76.25 323.15 74.07V73.97C322.479 72.315 322.476 70.4644 323.142 68.8072C323.807 67.15 325.089 65.8153 326.718 65.0837C328.347 64.3521 330.196 64.2805 331.877 64.884C333.557 65.4876 334.939 66.7192 335.73 68.32L335.76 68.24Z" fill="#263238"/>
<path d="M318.68 117.92L314.27 120.02L321.89 122.72C321.89 122.72 326.97 121.11 324.51 118.29L323.14 117.86C320.94 117.17 319.86 117.25 318.68 117.92Z" fill="#FFC3BD"/>
<path d="M314.86 125.43L318.21 126.06C318.688 126.152 319.182 126.091 319.624 125.887C320.065 125.682 320.431 125.344 320.67 124.92L321.89 122.72L314.27 120.02L313.27 122.1C313.109 122.418 313.023 122.769 313.019 123.125C313.015 123.482 313.093 123.834 313.246 124.156C313.4 124.478 313.625 124.76 313.905 124.981C314.185 125.201 314.511 125.355 314.86 125.43Z" fill="#FFC3BD"/>
</g>
<defs>
<clipPath id="clip0_2309_19662">
<rect width="500" height="372.61" fill="white"/>
</clipPath>
</defs>
</svg>
