<svg xmlns="http://www.w3.org/2000/svg" viewBox="0 0 44 45">
  <g clip-path="url(#a)">
    <path d="M5.2 18.1H0V1.5C0 .5.5 0 1.4 0h16.7v6.5c0 1.2.7 1.7 2 1.4 1-.3 2 .1 2.6 1 .7.7.8 1.6.3 2.6S21.7 13 20.6 13l-.7-.2c-1-.2-1.8.3-1.8 1.3v4h-2.5a5.2 5.2 0 0 0-5.3-5.1 5.3 5.3 0 0 0-5.1 5ZM26 26h2.5a5.2 5.2 0 0 0 5.5 5c2.4-.1 4.7-2 4.9-5.1h3.8c.9 0 1.4.5 1.4 1.3v15.4c0 .9-.5 1.4-1.4 1.4H27.2c-.8 0-1.3-.6-1.3-1.4v-5.2c0-1-.9-1.7-1.9-1.4-1 .4-2 0-2.7-.8-.7-.8-.8-1.7-.3-2.6.4-1 1.3-1.5 2.4-1.6l.8.2c.9.2 1.7-.3 1.7-1.3v-4Z"/>
    <path d="M20.7 18.1v-2.5c1.6-.1 3-.7 4-2a5 5 0 0 0 1.2-3.4 5.2 5.2 0 0 0-5.2-5V0h16.5c1 0 1.6.5 1.6 1.5v15.1c0 1-.5 1.5-1.5 1.5h-5c-1.2 0-1.7.8-1.4 1.8.3 1.1 0 2-.8 2.8-.8.7-1.8.8-2.7.3-1-.5-1.5-1.3-1.5-2.4l.1-.7c.3-1-.3-1.8-1.3-1.8h-4ZM0 20.7h6.6c1 0 1.6-.8 1.4-1.8a2.6 2.6 0 0 1 3.8-2.9c1 .6 1.4 1.8 1 2.9-.3.9.3 1.6 1 1.8H18v2.5a5.3 5.3 0 0 0-5.1 5.4c0 2.2 1.6 4.8 5.1 5v3.8c0 .8-.5 1.4-1.3 1.4H1.3c-.7 0-1.3-.6-1.3-1.3V20.8Z"/>
  </g>
  <defs>
    <clipPath id="a">
      <path d="M0 0h44v44H0z"/>
    </clipPath>
  </defs>
</svg>
