<svg xmlns="http://www.w3.org/2000/svg" viewBox="0 0 44 45">
  <g clip-path="url(#a)">
    <path d="m27.7 31.4-.4 5.7-.5 6.3-.2 2.7c0 .6-.4.9-1 .9h-7.7c-.6 0-1-.3-1-.9l-.4-5.3-.5-6.3-.2-2.8c0-.3-.1-.4-.4-.4-1.4-.2-2.6-1.8-2.4-3.3l1-8 .5-4.2c.4-2.4 2.4-4 4.8-4H24c2.7 0 4.8 1.9 5 4.7l1 6.5.6 4.8c.2 1.6-1 3.4-2.8 3.6Z"/>
    <path d="M35.5 45h-3.6c-1 0-1.2-.2-1.3-1.1l-.6-8.2-.1-2.3c0-.4.2-.8.5-1 .9-.9 1.5-1.8 1.8-2.9.4-1 .2-2 0-3.1a808.4 808.4 0 0 0-.7-6.6 191.2 191.2 0 0 0-.6-4.5c-.2-1 .2-1.5 1-1.5h6.7c2.3.1 4 2.2 4.3 4.6l.8 6.8.3 2.5a4 4 0 0 1-1 2.9c-.3.4-.8.6-1.4.7-.2 0-.3.1-.3.4l-.9 11V44c-.1.8-.4 1-1.2 1h-3.7ZM8.4 45H4.7c-.8 0-1.1-.3-1.2-1.1l-.7-9.4-.2-2.8c0-.2 0-.4-.3-.4-1 0-2.4-1.9-2.3-3l1.2-10.6c.3-2 2-3.8 4-3.9h6.2c1.1.1 1.4.4 1.2 1.5l-1 8.3-.4 3.4a6 6 0 0 0 1.5 5c.1.2.3.4.5.4.6.2.8.6.8 1.2a525.3 525.3 0 0 1-.4 4.7c0 1.9-.2 3.8-.4 5.6 0 .8-.3 1.1-1.1 1.2H8.4ZM30.7 6.9a4.8 4.8 0 1 1 9.6 0 4.8 4.8 0 0 1-4.8 5 4.8 4.8 0 0 1-4.9-5Zm-17.5 0c0 2.8-2.1 5-4.8 5a4.8 4.8 0 0 1-4.9-5 4.8 4.8 0 1 1 9.7.1Zm13.4-2a4.8 4.8 0 1 1-9.7 0C17 2.2 19 0 21.7 0c2.8 0 4.9 2.1 4.9 4.9Z"/>
  </g>
  <defs>
    <clipPath id="a">
      <path d="M0 0h44v47H0z"/>
    </clipPath>
  </defs>
</svg>
