<svg xmlns="http://www.w3.org/2000/svg" viewBox="0 0 44 45"><g clip-path="url(#a)"><path d="M28.6 12.9h6.5c5 0 8.8 3.7 8.9 8.5v.8c0 1.4-1 2.4-2.4 2.4H39a4.5 4.5 0 0 0-2.1 8.5c.8.5 1.6.7 2.6.7h2c1.4 0 2.4 1 2.4 2.3 0 3-1 5.4-3.5 7.2a8.4 8.4 0 0 1-5.2 1.7H8.7A8.6 8.6 0 0 1 0 36.3v-23C0 11 .9 9 2.8 7.8l2.7-1.2 17-6.3c3-1 6 1 6 4l.1 8v.6Zm-3.5 0V4.6c0-1-.5-1.4-1.5-1L5.8 10c-2.2.8-2.5 2.4-2.2 4.4l.3-.2a8.3 8.3 0 0 1 4.5-1.4h16.7ZM18.5 24h8.3c.7 0 1.2-.5 1.5-1.1.2-.7 0-1.3-.5-1.8-.4-.4-.9-.5-1.4-.5H10c-.9.2-1.5 1-1.4 2 .1.8.8 1.4 1.9 1.4h7.9Z"/><path d="M41 27h1.7c.8 0 1.3.4 1.3 1.2v2c0 .8-.5 1.2-1.3 1.3h-3.3c-1.3 0-2.3-1-2.4-2.3 0-1.3 1-2.2 2.4-2.3H41Z"/></g><defs><clipPath id="a"><path fill="#fff" d="M0 0h44v45H0z"/></clipPath></defs></svg>